<?xml version="1.0" encoding="UTF-8" standalone="no"?>
<!-- Created with Inkscape (http://www.inkscape.org/) -->
<svg xmlns:inkscape="http://www.inkscape.org/namespaces/inkscape" xmlns:rdf="http://www.w3.org/1999/02/22-rdf-syntax-ns#" xmlns="http://www.w3.org/2000/svg" xmlns:sodipodi="http://sodipodi.sourceforge.net/DTD/sodipodi-0.dtd" xmlns:cc="http://creativecommons.org/ns#" xmlns:xlink="http://www.w3.org/1999/xlink" xmlns:dc="http://purl.org/dc/elements/1.1/" xmlns:svg="http://www.w3.org/2000/svg" xmlns:ns1="http://sozi.baierouge.fr" id="svg2" sodipodi:docname="WiFi.svg" viewBox="0 0 370.85 346.7" sodipodi:version="0.32" version="1.0" inkscape:output_extension="org.inkscape.output.svg.inkscape" inkscape:version="0.46">
  <defs id="defs4">
    <filter id="filter3257" inkscape:collect="always">
      <feGaussianBlur id="feGaussianBlur3259" stdDeviation="1.6528769" inkscape:collect="always"/>
    </filter>
    <radialGradient id="radialGradient3304" gradientUnits="userSpaceOnUse" cy="490.59" cx="364.19" gradientTransform="matrix(1.6267 .13389 -.040266 .48922 -207.76 197.23)" r="106.83" inkscape:collect="always">
      <stop id="stop3227" style="stop-color:#1d481a;stop-opacity:0" offset="0"/>
      <stop id="stop3229" style="stop-color:#1d411a" offset="1"/>
    </radialGradient>
    <radialGradient id="radialGradient3306" gradientUnits="userSpaceOnUse" cy="475.08" cx="365.49" gradientTransform="matrix(1.3688 .12605 -.049009 .53220 -111.25 205.35)" r="81.167" inkscape:collect="always">
      <stop id="stop3209" style="stop-color:#cccccc" offset="0"/>
      <stop id="stop3211" style="stop-color:#cccccc;stop-opacity:0" offset="1"/>
    </radialGradient>
    <radialGradient id="radialGradient3308" gradientUnits="userSpaceOnUse" cy="425.02" cx="417.17" gradientTransform="matrix(2.4899 -.00023810 .061251 41.26 -697.65 -17114)" r="2.9554" inkscape:collect="always">
      <stop id="stop3201" style="stop-color:#d7f4ee" offset="0"/>
      <stop id="stop3203" style="stop-color:#d7f4ee;stop-opacity:0" offset="1"/>
    </radialGradient>
    <linearGradient id="linearGradient3310" y2="246.5" gradientUnits="userSpaceOnUse" x2="416.58" y1="387.62" x1="424.89" inkscape:collect="always">
      <stop id="stop3241" style="stop-color:#ffffff" offset="0"/>
      <stop id="stop3243" style="stop-color:#ffffff;stop-opacity:0" offset="1"/>
    </linearGradient>
  </defs>
  <sodipodi:namedview id="base" bordercolor="#666666" inkscape:pageshadow="2" guidetolerance="10" pagecolor="#ffffff" gridtolerance="10000" inkscape:window-height="767" inkscape:zoom="0.70710678" objecttolerance="10" showgrid="false" borderopacity="1.0" inkscape:current-layer="g3294" inkscape:cx="89.759964" inkscape:cy="303.50629" showguides="true" inkscape:window-y="6" inkscape:window-x="0" inkscape:window-width="1270" inkscape:guide-bbox="true" inkscape:pageopacity="0.0" inkscape:document-units="px"/>
  <g id="layer1" inkscape:label="Layer 1" inkscape:groupmode="layer" transform="translate(-179.5 -233.06)">
    <g id="g3294" transform="translate(-.70711 7.4599)">
      <path id="path3231" sodipodi:nodetypes="ccscsc" style="filter:url(#filter3257);fill:#000000" d="m365.39 474.24c-50.44 0.71-107.22 26.26-107.3 59.76 28.77 14.5 69.14 26.97 109.25 26.73 46.76-0.28 75.18-12.94 104.39-26.25 0.02-0.46 0.03-0.94 0.03-1.4 0-32.48-47.66-58.84-106.37-58.84z"/>
      <path id="path2417" sodipodi:nodetypes="ccscsc" style="fill:#1d701a" d="m365.39 462.24c-50.44 0.71-107.22 26.26-107.3 59.76 28.77 14.5 69.14 26.97 109.25 26.73 46.76-0.28 75.18-12.94 104.39-26.25 0.02-0.46 0.03-0.94 0.03-1.4 0-32.48-47.66-58.84-106.37-58.84z"/>
      <path id="path3215" sodipodi:nodetypes="ccscsc" style="fill:url(#radialGradient3304)" d="m365.39 462.24c-50.44 0.71-107.22 26.26-107.3 59.76 28.77 14.5 69.14 26.97 109.25 26.73 46.76-0.28 75.18-12.94 104.39-26.25 0.02-0.46 0.03-0.94 0.03-1.4 0-32.48-47.66-58.84-106.37-58.84z"/>
      <path id="path3205" style="fill:url(#radialGradient3306)" sodipodi:type="inkscape:offset" d="m365.06 494.91c-22.65 0.33-47.19 6.44-65.09 15.75-4.62 2.4-8.44 4.86-11.59 7.25-2.81 2.12-4.22 5.6-3.68 9.07 0.53 3.48 2.93 6.37 6.24 7.55 22.93 8.2 49.74 14.22 75.84 14.06 31.65-0.19 53.61-6.16 74.19-14.5 3.08-1.25 5.29-4.02 5.82-7.31 0.54-3.28-0.67-6.61-3.2-8.78-2.9-2.5-6.57-5.23-11.4-7.91-16.22-8.97-40.02-15.12-66.85-15.18h-0.03-0.09-0.16z" inkscape:original="M 365.21875 504.46875 C 344.27209 504.77902 320.51971 510.73449 304.375 519.125 C 300.22883 521.27979 296.8989 523.45423 294.15625 525.53125 C 316.24283 533.42486 342.14555 539.17839 366.71875 539.03125 C 397.23659 538.8485 417.47755 533.30888 437.375 525.25 C 434.84999 523.08203 431.80941 520.81895 427.5625 518.46875 C 413.28237 510.56627 390.62992 504.52861 365.3125 504.46875 L 365.21875 504.46875 z " transform="translate(.46244 -31.763)" inkscape:radius="9.5558729"/>
      <path id="path3192" sodipodi:nodetypes="ccccc" style="fill-rule:evenodd;fill:#1d701a" d="m355.96 472.68c3.58 5.7 16.18 5.99 19.33-0.61l0.01-94.77c0.06-9.91-19.33-9.85-19.34 0v95.38z"/>
      <path id="path3207" sodipodi:nodetypes="ccccc" style="fill-rule:evenodd;fill:url(#radialGradient3308)" d="m355.96 472.39c2.74 6.05 16.93 6.37 19.33-0.61l0.01-94.48c0.21-9.65-19.33-9.7-19.34 0v95.09z"/>
      <path id="path3217" style="fill-rule:evenodd;fill:#0055d4" d="m389.11 237.17c77.65 52.49 80.27 159.14 8.66 212.22 45.1-9.12 77.63-55.55 77.63-104.97 0-52.52-34.95-96.32-86.29-107.25zm-49.06 0.53c-49.97 12.53-84.19 54.93-84.19 106.72 0 51.62 31.29 94.22 83.75 106.62-80.08-54.03-80.66-159.87 0.44-213.34zm42.1 31.19c54.62 36.92 56.46 111.94 6.09 149.28 31.72-6.42 54.59-39.08 54.59-73.85 0-36.94-24.57-67.75-60.68-75.43zm-34.5 0.37c-35.16 8.81-59.22 38.63-59.22 75.06 0 36.32 22 66.28 58.9 75-56.33-38.01-56.73-112.44 0.32-150.06zm27.81 30.03c32.54 22 33.63 66.7 3.62 88.94 18.9-3.82 32.53-23.29 32.53-44 0-22.01-14.64-40.36-36.15-44.94zm-20.56 0.22c-20.95 5.25-35.29 23.02-35.29 44.72 0 21.64 13.11 39.49 35.1 44.69-33.56-22.65-33.8-67 0.19-89.41zm10.71 24.1c-11.31 0-20.5 9.18-20.5 20.5 0 11.31 9.19 20.5 20.5 20.5 11.32 0 20.5-9.19 20.5-20.5 0-11.32-9.18-20.5-20.5-20.5z"/>
      <path id="path3254" style="fill-rule:evenodd;fill:url(#linearGradient3310)" sodipodi:type="inkscape:offset" d="m458.16 239.97c-1.1 0.11-2.02 0.85-2.36 1.89-0.34 1.05-0.03 2.19 0.79 2.92 30.81 27.7 45.73 65.23 44.75 102.1-0.03 1.42 1.02 2.64 2.44 2.81 6.13 0.68 12.11 1.39 17.97 2.12 0.75 0.1 1.5-0.12 2.09-0.6 0.58-0.48 0.95-1.18 1-1.93 0.24-2.89 0.5-5.86 0.5-8.97 0-45.05-25.88-83.58-65.84-100.15-0.43-0.18-0.89-0.24-1.34-0.19zm-88.47 2.56c-0.33 0.03-0.64 0.11-0.94 0.25-37.02 17.93-60.94 54.41-60.94 97.53 0 6.78 0.67 13.31 1.72 19.66 0.12 0.79 0.58 1.49 1.26 1.91 0.68 0.43 1.51 0.54 2.27 0.31 4.92-1.5 9.98-3 15.28-4.44 1.33-0.35 2.2-1.63 2.04-3-4.75-38.25 9.04-77.86 41.46-107.44 0.88-0.8 1.14-2.08 0.65-3.17-0.49-1.08-1.62-1.73-2.8-1.61zm81.06 29.88c-1.05 0.12-1.93 0.84-2.27 1.83-0.35 1-0.1 2.11 0.64 2.85 18.63 18.93 27.76 43.22 27.26 67.25-0.04 1.45 1.05 2.68 2.5 2.82 3.53 0.31 7.05 0.65 10.56 1 0.74 0.07 1.48-0.16 2.06-0.64 0.57-0.49 0.92-1.18 0.97-1.93 0.12-1.66 0.31-3.44 0.31-5.37 0-29.38-15.69-54.79-40.44-67.53-0.49-0.25-1.04-0.35-1.59-0.28zm-73.06 2.68c-0.45 0.04-0.87 0.18-1.25 0.41-22.14 13.47-36.06 37.16-36.06 64.72 0 3.82 0.3 7.51 0.78 11.09 0.1 0.77 0.53 1.47 1.17 1.91s1.44 0.59 2.2 0.4c2.93-0.68 5.87-1.36 8.85-2 1.37-0.28 2.32-1.56 2.18-2.96-2.49-24.32 5.61-49.17 24.32-68.91 0.78-0.83 0.97-2.05 0.49-3.08-0.48-1.02-1.55-1.65-2.68-1.58zm67.59 31.19c-0.98 0.06-1.86 0.65-2.3 1.53-0.43 0.88-0.37 1.93 0.18 2.75 6.53 9.73 9.65 20.89 9.43 31.97-0.03 1.48 1.12 2.72 2.6 2.81 1.06 0.07 2.12 0.15 3.25 0.22 0.73 0.05 1.45-0.2 2.01-0.68 0.55-0.49 0.88-1.18 0.93-1.91 0.04-0.74 0.18-1.67 0.18-2.85 0-13.14-5.32-24.91-14.25-33.12-0.55-0.5-1.28-0.76-2.03-0.72zm-61.37 3.84c-0.71 0.08-1.36 0.43-1.82 0.97-6.63 7.8-10.53 17.87-10.53 29.03 0 1.96 0.29 3.63 0.44 5.1 0.08 0.75 0.47 1.44 1.07 1.9s1.37 0.66 2.12 0.54c0.82-0.13 1.54-0.28 2.22-0.38 1.43-0.21 2.45-1.49 2.34-2.94-0.87-10.29 1.38-20.71 6.81-30.09 0.52-0.9 0.49-2-0.07-2.87s-1.56-1.35-2.58-1.26zm32.65 10.38c-10.76 0-19.5 8.73-19.5 19.5 0 1.36 0.31 2.17 0.35 2.47 0.2 1.44 1.48 2.48 2.93 2.37 2.73-0.19 5.45-0.37 8.13-0.46 7.67-0.27 16.03-0.16 24.56 0.06 1.44 0.03 2.66-1.04 2.81-2.47 0.03-0.22 0.22-0.87 0.22-1.97 0-10.77-8.73-19.5-19.5-19.5z" inkscape:original="M 458.4375 242.71875 C 489.83555 270.95378 505.08821 309.27708 504.09375 346.9375 C 510.23067 347.62152 516.22151 348.32792 522.09375 349.0625 C 522.33033 346.15096 522.59375 343.25061 522.59375 340.3125 C 522.59369 296.31861 497.393 258.87727 458.4375 242.71875 z M 369.96875 245.28125 C 333.84382 262.77142 310.5625 298.20586 310.5625 340.3125 C 310.5625 346.91111 311.21935 353.29699 312.25 359.53125 C 317.19415 358.02041 322.29731 356.54527 327.625 355.09375 C 322.77287 315.96251 336.92581 275.42835 369.96875 245.28125 z M 451.09375 275.15625 C 470.23706 294.60291 479.64047 319.63117 479.125 344.40625 C 482.66731 344.72293 486.19855 345.05561 489.71875 345.40625 C 489.84314 343.67789 490.03125 341.95359 490.03125 340.21875 C 490.03124 311.82194 474.94156 287.43187 451.09375 275.15625 z M 377.875 277.84375 C 356.52276 290.83969 343.125 313.58309 343.125 340.21875 C 343.125 343.87739 343.44196 347.43469 343.90625 350.9375 C 346.85037 350.24778 349.80808 349.57538 352.8125 348.9375 C 350.23309 323.82658 358.6471 298.13983 377.875 277.84375 z M 445.4375 309.03125 C 452.2854 319.23374 455.5719 330.96079 455.34375 342.59375 C 456.43717 342.65851 457.52541 342.74266 458.625 342.8125 C 458.68098 341.91362 458.8125 341.02825 458.8125 340.125 C 458.81251 327.72346 453.80126 316.72328 445.4375 309.03125 z M 384.1875 312.875 C 377.96496 320.18673 374.3125 329.59769 374.3125 340.125 C 374.3125 341.77584 374.5859 343.34168 374.75 344.9375 C 375.50079 344.82031 376.24582 344.67495 377 344.5625 C 376.07973 333.70905 378.48075 322.73404 384.1875 312.875 z M 416.5625 323.25 C 407.2761 323.25 399.81251 330.71357 399.8125 340 C 399.8125 340.72318 400.06117 341.38879 400.15625 342.09375 C 402.89002 341.9034 405.63721 341.71941 408.375 341.625 C 416.13667 341.35735 424.53923 341.46669 433.09375 341.6875 C 433.15077 341.11679 433.3125 340.59285 433.3125 340 C 433.31251 330.71359 425.84892 323.24999 416.5625 323.25 z " transform="translate(-50.948 4.1053)" inkscape:radius="2.7613401"/>
    </g>
  </g>
  <metadata>
    <rdf:RDF>
      <cc:Work>
        <dc:format>image/svg+xml</dc:format>
        <dc:type rdf:resource="http://purl.org/dc/dcmitype/StillImage"/>
        <cc:license rdf:resource="http://creativecommons.org/licenses/publicdomain/"/>
        <dc:publisher>
          <cc:Agent rdf:about="http://openclipart.org/">
            <dc:title>Openclipart</dc:title>
          </cc:Agent>
        </dc:publisher>
        <dc:title>WiFi</dc:title>
        <dc:date>2012-07-03T05:17:11</dc:date>
        <dc:description/>
        <dc:source>https://openclipart.org/detail/171014/wifi-by-lnasto-171014</dc:source>
        <dc:creator>
          <cc:Agent>
            <dc:title>lnasto</dc:title>
          </cc:Agent>
        </dc:creator>
        <dc:subject>
          <rdf:Bag>
            <rdf:li>wifi</rdf:li>
            <rdf:li>wireless</rdf:li>
            <rdf:li>machine</rdf:li>
          </rdf:Bag>
        </dc:subject>
      </cc:Work>
      <cc:License rdf:about="http://creativecommons.org/licenses/publicdomain/">
        <cc:permits rdf:resource="http://creativecommons.org/ns#Reproduction"/>
        <cc:permits rdf:resource="http://creativecommons.org/ns#Distribution"/>
        <cc:permits rdf:resource="http://creativecommons.org/ns#DerivativeWorks"/>
      </cc:License>
    </rdf:RDF>
  </metadata>
</svg>