<?xml version="1.0" encoding="UTF-8" standalone="no"?>
<!--part of the rodentia icon theme by sixsixfive released under CC0 (https://creativecommons.org/publicdomain/zero/1.0/) on openclipart-->
<svg xmlns="http://www.w3.org/2000/svg" xmlns:xlink="http://www.w3.org/1999/xlink" viewBox="0 0 48 48">
 <defs id="0">
  <linearGradient id="8">
   <stop id="G" stop-color="#fff"/>
   <stop id="H" offset="1" stop-color="#fff" stop-opacity="0"/>
  </linearGradient>
  <linearGradient id="9">
   <stop id="I" stop-color="#fff" stop-opacity="0.5"/>
   <stop id="J" offset="1" stop-color="#fff" stop-opacity="0"/>
  </linearGradient>
  <linearGradient id="A">
   <stop id="K" stop-color="#2e3436"/>
   <stop id="L" offset="1" stop-color="#2e3436" stop-opacity="0"/>
  </linearGradient>
  <linearGradient id="B">
   <stop id="M" stop-color="#eee"/>
   <stop id="N" offset="1" stop-color="#dcdcdc"/>
  </linearGradient>
  <radialGradient cx="60.05" cy="51.39" r="15.03" id="C" xlink:href="#B" gradientUnits="userSpaceOnUse" gradientTransform="matrix(-1.404511,1.1888571,-1,-1.1813958,199.73811,11.750541)"/>
  <radialGradient cx="25.02" cy="44.3" r="16.727" id="D" xlink:href="#A" gradientUnits="userSpaceOnUse" gradientTransform="matrix(1,0,0,0.11504424,0,39.202918)"/>
  <linearGradient y1="5.265" x2="0" y2="42.603" id="E" xlink:href="#9" gradientUnits="userSpaceOnUse"/>
  <linearGradient x1="-4.455" y1="-33.449" x2="31.07" y2="39.677" id="F" xlink:href="#8" gradientUnits="userSpaceOnUse"/>
 </defs>
 <path d="m 41.743937,44.299297 a 16.727181,1.9243659 0 1 1 -33.4543614,0 16.727181,1.9243659 0 1 1 33.4543614,0 z" transform="matrix(1,0,0,1.4615385,-1.0167561,-21.157663)" id="1" opacity="0.8" fill="url(#D)"/>
 <path d="M 44,24 A 20,19.997948 0 1 1 4.0000001,24 20,19.997948 0 1 1 44,24 z" id="2" fill="#a40000"/>
 <path d="M 22.75,5.375 C 8.615336,5.6267023 0.00192621,23.952757 8.9375,35.0625 L 8.90625,35.09375 C 17.018382,47.079005 37.344698,44.11383 41.5625,30.25 l 0.03125,0 c 0.0076,-0.01959 -0.0075,-0.0429 0,-0.0625 C 46.258402,17.976792 35.858956,4.2337465 22.8125,5.375 c -0.02148,0.00188 -0.041,-0.00196 -0.0625,0 z" id="3" fill="#c00"/>
 <path d="m 23.84375,8.78125 c -1.997016,0.033181 -3.618886,1.6914 -3.59375,3.6875 l 0,10.28125 0,0.03125 c -0.0072,1.308245 0.726841,2.507125 1.84375,3.15625 1.125749,0.654261 2.49925,0.65426 3.625,0 1.116905,-0.649123 1.850922,-1.847994 1.84375,-3.15625 -5.7e-5,-0.01041 1.48e-4,-0.02083 0,-0.03125 l 0,-10.28125 C 27.574852,11.483263 27.166326,10.56677 26.46875,9.875 25.783916,9.1958677 24.841585,8.764713 23.84375,8.78125 z M 15.75,12 c -1.016636,0.02451 -1.959616,0.489639 -2.65625,1.1875 l 0,0.03125 c -5.9353877,5.929184 -5.9469823,15.609464 0,21.53125 5.951632,5.92642 15.673364,5.926411 21.625,0 5.952784,-5.927561 5.952784,-15.634941 0,-21.5625 -1.507127,-1.496728 -3.962871,-1.503541 -5.46875,0 -1.507501,1.505137 -1.514307,3.964898 0,5.46875 2.985449,2.972802 2.985452,7.652198 0,10.625 -2.982029,2.969389 -7.736725,2.969385 -10.71875,0 -2.978971,-2.966346 -2.966032,-7.620126 0,-10.59375 l 0,-0.03125 C 19.659015,17.547584 20.064212,15.855096 19.4375,14.375 18.817314,12.910337 17.339817,11.958596 15.75,12 z" id="4" fill="#a40000"/>
 <path d="m 23.875,10 c -1.33853,0.02224 -2.423035,1.135811 -2.40625,2.46875 l 0,10.3125 c -0.01239,0.872937 0.461547,1.684929 1.21875,2.125 0.757205,0.440071 1.680294,0.440071 2.4375,0 0.757202,-0.440071 1.231146,-1.252063 1.21875,-2.125 l 0,-10.3125 c 0.0082,-0.654228 -0.253178,-1.288303 -0.71875,-1.75 C 25.15943,10.257056 24.531978,9.989112 23.875,10 z m -8.09375,3.21875 c -0.695142,0.01676 -1.356728,0.318303 -1.84375,0.8125 -5.4855202,5.462276 -5.4855202,14.412721 0,19.875 5.485513,5.462275 14.451983,5.462268 19.9375,0 5.485518,-5.462275 5.485518,-14.412727 0,-19.875 -1.046047,-1.038829 -2.737999,-1.041631 -3.78125,0 -1.043253,1.041617 -1.046049,2.742423 0,3.78125 3.440095,3.425522 3.440099,8.886977 0,12.3125 -3.440104,3.425522 -8.96615,3.425518 -12.40625,0 -3.440102,-3.425523 -3.440102,-8.886978 0,-12.3125 0.788702,-0.76441 1.052601,-1.958891 0.625,-2.96875 -0.427606,-1.009856 -1.431012,-1.653654 -2.53125,-1.625 z" id="5" fill="#eeeeec"/>
 <path d="m 25.15625,5.78125 c -0.763464,-0.037384 -1.558056,-0.00768 -2.34375,0.0625 -0.01047,9.351e-4 -0.02078,-9.548e-4 -0.03125,0 C 9.0161224,6.0630086 0.55495532,24.017662 9.3125,34.8125 c 7.891282,11.658961 27.769934,8.786369 31.84375,-4.71875 0.0029,-0.0095 -0.0029,-0.02172 0,-0.03125 4.28647,-11.160212 -4.405284,-23.7135002 -16,-24.28125 z" id="6" fill="none" stroke="url(#E)"/>
 <path d="M 24.03125,5.3125 C 23.629097,5.31959 23.220202,5.339336 22.8125,5.375 22.79102,5.37688 22.7715,5.37304 22.75,5.375 9.3832209,5.6130282 0.97570212,22.010419 7.65625,33.1875 15.951602,23.656353 28.103471,17.700903 40.84375,16.0625 37.811665,9.8109828 31.430863,5.1819654 24.03125,5.3125 z" id="7" opacity="0.6" fill="url(#F)"/>
</svg>