<?xml version="1.0" encoding="UTF-8"?>
<!-- Generator: Adobe Illustrator 20.1.0, SVG Export Plug-In . SVG Version: 6.00 Build 0)  -->
<svg version="1.1" xmlns="http://www.w3.org/2000/svg" xmlns:xlink="http://www.w3.org/1999/xlink" x="0px" y="0px" viewBox="0 0 2646.5 1985" style="enable-background:new 0 0 2646.5 1985;" xml:space="preserve">
<style type="text/css">
	.st0{fill:#CC0000;}
	.st1{fill:#FFCCCC;}
	.st2{fill:#FF9999;}
	.st3{fill:#404040;}
	.st4{fill:#545454;}
	.st5{fill:#DBDBDB;}
	.st6{fill:#FFFFFF;}
</style>
<g id="Layer_2">
	<g>
		<path class="st0" d="M1685.4,1258.7c-26.1,60.2-61.8,115.3-105.1,163.4l153.8,167.9c66.8-70.5,121.4-152.7,160.4-243.2    L1685.4,1258.7z"/>
		<path class="st0" d="M1243.3,1612.1l43.3,222.8c86.2-16.4,167.8-46.1,242.4-86.8l-101.1-203.4    C1371.3,1576.6,1309.2,1599.7,1243.3,1612.1z"/>
		<path class="st0" d="M759.2,1762c78.6,39.3,164.3,66.6,254.6,79.3l24-225.8c-61.3-9.5-119.5-28.1-173.2-54.5L759.2,1762z"/>
		<path class="st0" d="M1326.3,575.7L1658.9,465l-125.4-327.4L1475,261.3c-104.9-47.8-221.5-74.5-344.3-74.5    c-459.1,0-831.3,372.2-831.3,831.3c0,235.9,98.3,448.9,256.2,600.2l160.5-160.5c-116.8-110.2-189.8-266.5-189.8-439.8    c0-333.8,270.6-604.5,604.5-604.5c88.1,0,171.8,18.9,247.2,52.7L1326.3,575.7z"/>
	</g>
	<path class="st1" d="M1102.4,222.8c-384.9,23.1-723,308-775.6,756.7l59.6,8.3c7.4-354.9,361.1-721.6,728-723c6.6,0,13.2,0,19.8,1.4   l5.5-40.6C1127.1,226.3,1114.7,222.1,1102.4,222.8z"/>
	<path class="st2" d="M1139.7,225.6l-5.5,40.6"/>
	<path class="st1" d="M327.8,1023.4c-6.9,25.4,3.1,91,7.7,93c16.4-4.1,36.6-8.4,55-12c-4.6-14.6-12.1-63.6-8-81   C373.4,1023.4,339.2,1023.4,327.8,1023.4z"/>
</g>
<g id="Layer_4">
	<path class="st0" d="M1199.4,1086.4h-48c-6.6,0-12-5.4-12-12V688.1c0-6.6,5.4-12,12-12h48c6.6,0,12,5.4,12,12v386.3   C1211.4,1081,1206,1086.4,1199.4,1086.4z"/>
</g>
<g id="Layer_3">
	<path class="st0" d="M1211.4,1026.4v48c0,6.6-5.4,12-12,12H813.1c-6.6,0-12-5.4-12-12v-48c0-6.6,5.4-12,12-12h386.3   C1206,1014.4,1211.4,1019.8,1211.4,1026.4z"/>
</g>
<g id="Time_Lapse">
	<g id="Photo_Video_1_">
		<g>
			<rect x="1420" y="645" class="st3" width="48.9" height="32.6"/>
		</g>
		<g>
			<rect x="1501.6" y="628.7" class="st3" width="130.5" height="65.3"/>
		</g>
		<g>
			<rect x="2154.4" y="628.7" class="st3" width="130.5" height="65.3"/>
		</g>
		<g>
			<rect x="1371.1" y="661.4" class="st4" width="1044.4" height="652.8"/>
		</g>
		<g>
			<path class="st5" d="M2072.8,987.8c0,99.2-80.4,179.5-179.5,179.5s-179.5-80.4-179.5-179.5s80.4-179.5,179.5-179.5     S2072.8,888.6,2072.8,987.8z"/>
		</g>
		<g>
			<path class="st3" d="M1893.3,1216.2c-125.9,0-228.4-102.5-228.4-228.4s102.5-228.4,228.4-228.4s228.4,102.5,228.4,228.4     S2019.3,1216.2,1893.3,1216.2z M1893.3,824.5c-90,0-163.2,73.1-163.2,163.2s73.3,163.2,163.2,163.2     c89.9,0,163.2-73.3,163.2-163.2C2056.5,897.8,1983.2,824.5,1893.3,824.5z"/>
		</g>
		<g>
			<rect x="2284.9" y="661.4" class="st3" width="32.6" height="652.8"/>
		</g>
		<g>
			<rect x="1469" y="661.4" class="st3" width="32.6" height="652.8"/>
		</g>
		<g>
			<polyline class="st3" points="1697.4,661.4 1762.6,530.8 2023.8,530.8 2089.1,661.4    "/>
		</g>
		<g>
			<rect x="2121.7" y="759.3" class="st3" width="130.5" height="65.3"/>
		</g>
		<g>
			<path class="st4" d="M1893.3,824.5c90,0,163.2,73.1,163.2,163.2s-73.3,163.2-163.2,163.2c-89.9,0-163.2-73.3-163.2-163.2     C1730,897.8,1803.3,824.5,1893.3,824.5 M1893.3,808.2c-99.2,0-179.5,80.4-179.5,179.5s80.4,179.5,179.5,179.5     s179.5-80.4,179.5-179.5S1992.4,808.2,1893.3,808.2L1893.3,808.2z"/>
		</g>
		<g>
			<path class="st3" d="M1664.8,775.6c0,9-7.3,16.3-16.3,16.3s-16.3-7.3-16.3-16.3s7.3-16.3,16.3-16.3S1664.8,766.6,1664.8,775.6z"/>
		</g>
		<g>
			<path class="st3" d="M1607.6,791.9c0,18-14.6,32.6-32.6,32.6c-18,0-32.6-14.6-32.6-32.6c0-18,14.6-32.6,32.6-32.6     C1593.1,759.3,1607.6,773.8,1607.6,791.9z"/>
		</g>
		<g>
			<circle class="st6" cx="1967" cy="1056.1" r="22.5"/>
		</g>
		<g>
			<path class="st6" d="M1931,948.6c0,39.4-31.9,71.4-71.4,71.4c-39.4,0-71.4-31.9-71.4-71.4s31.9-71.4,71.4-71.4     S1931,909.2,1931,948.6z"/>
		</g>
	</g>
</g>
</svg>