<?xml version="1.0" encoding="UTF-8" standalone="no"?>
<!-- Created with Inkscape (http://www.inkscape.org/) -->

<svg
   version="1.1"
   id="svg2"
   width="626"
   height="308.16531"
   viewBox="0 0 626 308.16531"
   xmlns="http://www.w3.org/2000/svg"
   xmlns:svg="http://www.w3.org/2000/svg">
  <defs
     id="defs6" />
  <g
     id="g8"
     transform="translate(-1.2521318,-171.19194)">
    <path
       style="fill:#fffffe;fill-opacity:1"
       d="m 1.2521318,325.25744 v -154 h 9.4409902 c 5.19254,0 9.64877,0.3375 9.90274,0.75 0.67183,1.09119 3.73329,48.04731 8.65507,132.75 1.08659,18.7 2.23395,35.9125 2.54969,38.25 l 0.57406,4.25 h 55.93873 55.938718 v 66.0499 66.04991 l -5.75,-0.29991 -5.75,-0.2999 -5.86171,-48 c -3.22394,-26.4 -6.02231,-48.5625 -6.21861,-49.25 -0.27881,-0.97647 -10.3202,-1.25 -45.888288,-1.25 h -45.53139 v 3.53121 c 0,3.06631 -3.35286,42.26014 -7.07624,82.71879 l -1.17338,12.75 H 11.127322 1.2521318 Z M 188.25213,363.79788 V 248.25744 H 141.82905 95.405982 l -3.07692,-3.07692 c -2.56965,-2.56965 -3.07693,-3.85773 -3.07693,-7.81291 0,-3.97938 0.48977,-5.20521 3.06567,-7.67308 l 3.06566,-2.93709 H 314.25213 533.1208 l 3.06567,2.93709 c 2.5759,2.46787 3.06566,3.6937 3.06566,7.67308 0,3.95518 -0.50728,5.24326 -3.07692,7.81291 l -3.07693,3.07692 h -51.92307 -51.92308 v 115.5 115.5 h -7.53138 c -5.16907,0 -7.64277,-0.39208 -7.88648,-1.25 -0.19529,-0.6875 -1.33412,-15.65 -2.53073,-33.25 -3.44859,-50.72297 -5.82959,-84.76364 -7.09949,-101.5 -0.64685,-8.525 -1.68815,-23.375 -2.314,-33 l -1.13792,-17.5 -91.16939,-0.25525 -91.16939,-0.25524 -0.53687,2.75524 c -0.29528,1.51539 -1.02182,11.08025 -1.61454,21.25525 -0.59272,10.175 -1.49195,23.45 -1.99829,29.5 -0.50634,6.05 -1.66042,21.8 -2.56462,35 -0.9042,13.2 -2.84588,40.65 -4.31484,61 l -2.67083,37 -8.23062,0.29044 -8.23061,0.29044 z m 210.57196,-99.04044 c -0.31458,-3.025 -0.82934,-7.975 -1.14392,-11 l -0.57195,-5.5 h -87.84273 -87.84272 l -0.61164,7.75 c -0.3364,4.2625 -0.7965,9.2125 -1.02245,11 l -0.41081,3.25 h 90.00909 90.00908 z m 74.42804,148.53621 v -66.03621 h 60.34553 60.34553 l 0.64699,-12.75 c 0.35585,-7.0125 1.10496,-19.275 1.66469,-27.25 0.55974,-7.975 1.90379,-29.575 2.98678,-48 1.08299,-18.425 2.47038,-40.925 3.08309,-50 0.6127,-9.075 1.40952,-21.225 1.7707,-27 l 0.65669,-10.5 11.25,-0.28275 11.25,-0.28275 v 154.0655 154.0655 l -11.25,-0.28275 -11.25,-0.28275 -1.6147,-17.5 c -0.88808,-9.625 -2.13387,-23.575 -2.76841,-31 -0.63454,-7.425 -1.8899,-21.7125 -2.78968,-31.75 l -1.63597,-18.25 h -45.34562 c -24.94009,0 -45.34562,0.20953 -45.34562,0.46562 0,0.25609 -0.6481,5.31859 -1.44023,11.25 -0.79213,5.93141 -3.06154,24.28438 -5.04313,40.78438 -1.98159,16.5 -4.14599,33.6 -4.80977,38 l -1.20687,8 -9.75,0.28621 -9.75,0.28621 z M 35.907122,334.4287 c -2.17119,-2.39914 -2.10048,-5.45812 0.17375,-7.51627 1.65151,-1.4946 6.78793,-1.65499 53,-1.65499 49.837928,0 51.223368,0.0521 53.171258,2 1.1,1.1 2,2.675 2,3.5 0,0.825 -0.9,2.4 -2,3.5 -1.94806,1.94806 -3.33333,2 -53.345008,2 -48.47222,0 -51.43761,-0.10232 -53,-1.82874 z m 439.345008,-0.17126 c -1.1,-1.1 -2,-2.675 -2,-3.5 0,-0.825 0.9,-2.4 2,-3.5 1.94806,-1.94806 3.33333,-2 53.34501,-2 48.47222,0 51.43761,0.10232 53,1.82874 2.1712,2.39914 2.10048,5.45812 -0.17375,7.51627 -1.65151,1.4946 -6.78793,1.65499 -53,1.65499 -49.83793,0 -51.22337,-0.0521 -53.17126,-2 z"
       id="path295" />
  </g>
</svg>
