<?xml version="1.0" encoding="UTF-8" standalone="no"?>
<!-- Created with Inkscape (http://www.inkscape.org/) -->

<svg
   version="1.1"
   id="svg2"
   width="1484.9977"
   height="1304.6691"
   viewBox="0 0 1484.9977 1304.6691"
   xml:space="preserve"
   xmlns="http://www.w3.org/2000/svg"
   xmlns:svg="http://www.w3.org/2000/svg"><defs
     id="defs6" /><g
     id="g8"
     transform="translate(-57.954782,-65.584729)"><path
       style="fill:#ffffff;fill-opacity:1"
       d="m 77.974612,1368.1551 c -2.9978,-1.5316 -5.06102,-3.5272 -6.46189,-6.25 l -2.05794,-4 -0.2934,-253.75 -0.2934,-253.74995 h -5.4566 -5.4566 V 835.05797 819.7108 l 53.750008,-0.70719 c 69.14498,-0.90973 526.40843,-0.90736 809.34284,0.004 l 219.59287,0.70748 0.6552,27.59493 c 0.8946,37.67763 0.6728,502.13008 -0.2433,509.48408 -0.6216,4.9902 -1.2695,6.3802 -4.2444,9.1066 -4.9139,4.5032 -9.7876,5.25 -15.0547,2.307 -7.9328,-4.4325 -7.9655,-4.5532 -8.5619,-31.6978 l -0.5297,-24.105 H 938.43413 764.20653 l -0.4859,23.25 c -0.2736,13.0908 -0.9569,24.4087 -1.5638,25.9017 -1.7386,4.2776 -7.6306,8.144 -12.5774,8.2535 -4.9453,0.1095 -11.0149,-3.7961 -12.8267,-8.2535 -0.6062,-1.4915 -1.2895,-12.7722 -1.5616,-25.7829 l -0.4838,-23.1313 -64.12625,-0.7154 c -84.67246,-0.9446 -570.22347,-0.2578 -571.293138,0.8081 -0.45824,0.4566 -1.07395,11.2566 -1.36824,24 -0.61262,26.5272 -1.01414,28.0629 -8.25336,31.5674 -5.43516,2.6311 -6.27366,2.6205 -11.69173,-0.1476 z m 326.980178,-301.75 V 850.40515 l -130.25,0.002 c -71.6375,10e-4 -140.70967,0.29806 -153.4937,0.65954 l -23.243708,0.65724 -0.008,214.77997 -0.008,214.78 3.751718,0.3923 c 2.06343,0.2158 71.1392,0.468 153.5017,0.5605 l 149.74999,0.1684 z m -296.78152,204.5961 -2.98869,-3.404 -0.71804,-23.346 c -0.94681,-30.7843 7.2e-4,-191.3656 1.1554,-195.8096 0.61806,-2.3788 1.98564,-4.1014 4.36639,-5.5 3.44212,-2.0222 4.44023,-2.0365 142.14339,-2.0365 138.63154,0 138.67784,7e-4 141.44617,2.0677 1.52308,1.1373 3.13561,3.3873 3.58341,5 0.4478,1.6128 0.83099,51.9353 0.85152,111.8278 l 0.0373,108.8955 -2.73478,2.8545 -2.73477,2.8545 H 251.87125 111.16193 l -2.98869,-3.4039 z m 269.82827,-149.1409 2.95325,-2.8294 v -28.724 -28.724 l -3.07673,-2.5889 c -2.65638,-2.2352 -4.01496,-2.5889 -9.94423,-2.5889 -5.81647,0 -7.29692,0.3692 -9.67328,2.4121 l -2.80576,2.4121 -0.32045,28.6985 c -0.31992,28.6512 -0.31672,28.7024 1.9449,31.1098 4.87764,5.192 15.90899,5.6258 20.9223,0.8227 z m -9.93536,-8.2052 c -2.79039,-2.3141 -4.11139,-9.7844 -4.11139,-23.25 0,-18.8178 2.79126,-26.783 8.47769,-24.1921 1.40935,0.6421 3.02482,2.3836 3.58992,3.8699 1.68762,4.4388 2.42083,31.324 1.0076,36.9467 -1.27292,5.0645 -3.49438,8.3755 -5.61941,8.3755 -0.67883,0 -2.18381,-0.7875 -3.34441,-1.75 z m -262.4243,-84.0547 -2.68709,-2.8047 v -35.39055 -35.39056 l 2.68709,-2.80472 2.68709,-2.80472 134.56291,0.0629 c 74.0096,0.0346 138.30796,0.42073 142.88525,0.85805 5.61647,0.53661 8.8678,1.3406 10,2.47279 1.50677,1.50678 1.67766,5.26911 1.67766,36.93593 0,39.22538 -0.0817,39.73658 -6.55727,41.03178 -1.756,0.3512 -66.05229,0.6385 -142.88064,0.6385 H 108.32897 Z m 173.18727,-29.85796 c 5.21239,-0.62588 5.4346,-0.78151 7.37322,-5.16409 2.48081,-5.60828 1.9765,-15.05236 -1.01866,-19.0763 -1.74783,-2.34817 -2.7852,-2.65859 -10.83094,-3.24101 -4.89389,-0.35426 -19.22336,-0.69176 -31.84326,-0.75 l -22.94528,-0.10589 -2.80472,2.68709 c -2.68174,2.56927 -2.80472,3.09744 -2.80472,12.04546 0,8.6027 0.1982,9.55656 2.45455,11.8129 l 2.45454,2.4545 27.29546,-0.01 c 15.0125,0 29.71391,-0.299 32.66981,-0.65397 z m -46.37436,-10.19858 c -7.13173,-1.3341 -8.65019,-2.69688 -8.30436,-7.45298 0.28416,-3.90794 0.5696,-4.27234 4.30109,-5.49075 2.89741,-0.94607 9.59225,-1.22112 24.34018,-1 20.00127,0.29989 20.37559,0.34473 22.25328,2.6658 2.50572,3.09741 2.41149,5.46542 -0.34019,8.54942 -2.21308,2.48035 -2.54539,2.52957 -20.25,2.99925 -9.9,0.26264 -19.8,0.14081 -22,-0.27074 z m -120.67033,-47.8705 c -2.67279,-0.21248 -5.23904,-1.05606 -6,-1.97233 -1.0363,-1.2478 -1.40432,-9.42437 -1.66804,-37.05968 l -0.33837,-35.45864 3.28454,-3.38878 3.28453,-3.38878 140.55384,0.005 140.55383,0.005 3,2.39924 3,2.39923 0.31933,35.71871 0.31933,35.71872 -2.75642,2.87709 -2.75642,2.87701 -138.06291,-0.18025 c -75.9346,-0.0991 -140.16456,-0.34733 -142.73324,-0.55154 z m 173.18899,-33.78807 c 2.03769,-2.16902 2.41887,-3.73537 2.73777,-11.25 0.34325,-8.08814 0.18901,-8.95075 -2.09743,-11.73014 l -2.46792,-3 h -30.34554 c -16.69005,0 -31.57735,0.34464 -33.08289,0.76588 -4.43107,1.23976 -6.09398,4.86807 -6.04042,13.17961 0.0575,8.92526 1.69828,12.80312 5.78733,13.67803 1.64474,0.35192 16.5245,0.69309 33.06613,0.75817 l 30.07568,0.11831 z m -57.00205,-9.72872 c -1.36587,-0.71166 -2.91925,-2.53326 -3.45195,-4.048 -0.83102,-2.363 -0.58122,-3.14097 1.75921,-5.47874 l 2.72777,-2.72468 21.22418,0.0411 c 24.39808,0.0473 26.72418,0.5472 26.72418,5.74302 0,1.83349 -0.63805,4.20713 -1.41789,5.27475 -1.31732,1.80345 -2.9664,1.96047 -23.25,2.21381 -16.3609,0.20434 -22.45446,-0.0516 -24.3155,-1.02126 z m 884.9834,168.27093 V 850.45872 l -343.99997,-0.006 -344.00004,-0.006 v 215.97458 215.9748 l 344.00004,-10e-5 h 343.99997 v -215.9689 z m -676.78152,205.5737 -2.9887,-3.404 -0.70393,-23.346 c -1.00039,-33.1785 -0.0358,-285.5676 1.10763,-289.80959 0.63502,-2.35586 2.0422,-4.11482 4.40005,-5.5 3.44729,-2.0252 4.33281,-2.03646 160.14332,-2.03646 h 156.67688 l 2.7993,2.09015 c 1.5397,1.14958 3.1027,3.17458 3.4735,4.5 0.3707,1.32542 0.719,72.8631 0.7738,158.9727 l 0.1,156.5629 -2.8047,2.6871 -2.8048,2.6871 H 597.75368 439.16199 l -2.98869,-3.4039 z m 305.82825,-243.1409 2.9533,-2.8294 v -28.72395 -28.72401 l -3.0768,-2.5889 c -2.6563,-2.2352 -4.0149,-2.58889 -9.9442,-2.58889 -5.8165,0 -7.2969,0.36916 -9.6733,2.41209 l -2.80574,2.4121 -0.32045,28.69846 c -0.31992,28.6512 -0.31672,28.7024 1.94489,31.1098 4.8777,5.192 15.909,5.6258 20.9223,0.8227 z m -9.9353,-8.2052 c -2.7904,-2.3141 -4.1114,-9.7844 -4.1114,-23.24995 0,-18.81781 2.7912,-26.78303 8.4777,-24.19212 1.4093,0.64215 3.0248,2.38363 3.5899,3.86995 1.6876,4.43877 2.4208,31.32392 1.0076,36.94662 -1.2729,5.0646 -3.4944,8.3755 -5.6194,8.3755 -0.6789,0 -2.1838,-0.7875 -3.3444,-1.75 z m 43.5757,251.9453 -2.6871,-2.8047 0.1,-156.4453 c 0.055,-86.0449 0.403,-157.52968 0.7738,-158.8551 0.3707,-1.32542 1.9338,-3.35042 3.4734,-4.5 l 2.7993,-2.09015 h 157.6769 c 156.81647,0 157.69577,0.0111 161.14337,2.03646 2.3578,1.38518 3.765,3.14414 4.4,5.5 1.1434,4.24199 2.108,256.63109 1.1076,289.80959 l -0.7039,23.346 -2.9887,3.404 -2.9887,3.4039 H 938.03863 778.32933 l -2.6871,-2.8047 z m 32.3871,-241.1993 c 1.9659,-0.5461 4.5851,-2.0689 5.8205,-3.3839 2.237,-2.3811 2.2449,-2.5085 1.9257,-31.0894 l -0.3204,-28.69846 -2.8058,-2.4121 c -2.3764,-2.04293 -3.8568,-2.41209 -9.6733,-2.41209 -5.9292,0 -7.2878,0.35369 -9.9442,2.58889 l -3.0767,2.5889 v 28.72401 28.72395 l 2.75,2.5624 c 4.2608,3.97 8.4062,4.7296 15.3242,2.8078 z m -11.3441,-10.746 c -3.098,-3.4314 -4.0603,-10.7823 -3.428,-26.18532 0.6692,-16.30092 1.4661,-19.5463 5.2202,-21.25675 5.6864,-2.59091 8.4777,5.37431 8.4777,24.19212 0,13.46555 -1.321,20.93585 -4.1114,23.24995 -1.1606,0.9625 -2.6656,1.75 -3.3444,1.75 -0.6789,0 -1.9452,-0.7875 -2.8141,-1.75 z M 438.78446,941.67336 c -2.67279,-0.21248 -5.23904,-1.05606 -6,-1.97233 -1.0363,-1.2478 -1.40433,-9.42437 -1.66804,-37.05968 l -0.33837,-35.45864 3.28454,-3.38878 3.28453,-3.38878 329.55381,0.005 329.55387,0.005 3,2.39924 3,2.39923 0.3193,35.71871 0.3194,35.71872 -2.7565,2.87709 -2.7564,2.87708 -327.06287,-0.18025 c -179.88463,-0.0991 -329.16459,-0.34733 -331.73327,-0.55154 z m 734.38934,427.99924 -12.2811,-0.3296 -3.9689,-3.9689 -3.969,-3.969 0.082,-256.25 c 0.045,-140.93745 0.3983,-261.76597 0.7856,-268.50777 0.9857,-17.16096 -0.2444,-16.28369 24.2915,-17.32347 10.6378,-0.4508 94.8881,-0.84193 187.223,-0.86918 l 167.8811,-0.0495 4.2177,4.25 4.2178,4.25 0.6484,23.5 c 0.3565,12.925 0.6493,132.67095 0.6506,266.10212 v 242.6021 l -2.2534,3.3439 c -1.2394,1.839 -3.8269,4.2681 -5.75,5.3978 -3.49,2.0502 -3.8237,2.0542 -176.4966,2.1027 -95.15,0.027 -178.5265,-0.1 -185.281,-0.2811 z m 317.079,-93.5973 c 5.9712,-3.8221 10.8095,-9.0004 13.6959,-14.6582 1.9748,-3.871 2.0058,-5.7691 1.9898,-121.7222 -0.016,-116.7996 -0.4998,-137.5195 -3.3383,-143.00861 -0.8089,-1.56425 -3.6914,-4.92128 -6.4056,-7.46007 -3.8921,-3.64056 -6.1821,-4.90178 -10.8373,-5.96852 -4.8038,-1.10077 -30.9396,-1.35255 -140.4025,-1.35255 h -134.5 l -5.3327,2.95395 c -6.0727,3.36386 -9.1223,6.64053 -12.9727,13.93861 l -2.6946,5.10739 v 126.5 126.5 l 3.197,6.1165 c 5.3077,10.1547 11.9257,14.5433 23.303,15.4527 4.125,0.3298 66.3591,0.6741 138.298,0.7652 l 130.7981,0.1656 z m -273.298,-6.6046 c -7.1097,-0.8278 -11.3201,-3.1444 -15.0347,-8.2721 l -2.9952,-4.1348 0.265,-126.5794 c 0.3008,-143.73239 -0.6319,-129.9664 9.2496,-136.52534 l 5.5597,-3.69029 132.7278,0.4104 c 90.7763,0.28069 133.9517,0.75177 136.6,1.49043 5.0427,1.40652 10.3493,6.62537 11.8971,11.7004 0.9458,3.1011 1.2307,32.6217 1.2307,127.5351 0,122.962 -0.01,123.5172 -2.0704,127.4467 -3.2201,6.1383 -8.4809,9.8284 -15.2117,10.6698 -7.0666,0.8833 -254.6064,0.8353 -262.2179,-0.051 z m 286.9274,-323.70041 c 2.7334,-3.47495 2.6145,-5.96586 -0.4783,-10.02075 l -2.5509,-3.34439 -130.6991,0.002 c -71.8845,10e-4 -141.2128,0.29958 -154.0629,0.66292 l -23.3638,0.66062 -1.8824,3.08708 c -2.3464,3.8478 -2.3406,4.33576 0.099,8.33708 l 1.9816,3.25 h 154.4421 154.4421 l 2.0726,-2.63486 z m 2.4412,-44.58762 c 2.7584,-4.37312 6.2414,-4.26351 -144.1684,-4.53684 -78.4851,-0.14263 -149.6752,0.0824 -158.2002,0.5 -14.5802,0.71426 -15.5,0.878 -15.5,2.75932 0,1.81017 0.8542,2.0534 9,2.56265 4.95,0.30946 76.226,0.53446 158.391,0.5 140.2408,-0.0588 149.4576,-0.16815 150.4776,-1.78513 z m -288.3386,-23.02752 c 6.194,-3.12909 8.97,-7.62576 8.97,-14.52985 0,-8.87759 -5.2576,-15.08048 -14.1848,-16.73525 -9.7781,-1.81248 -19.8152,6.71036 -19.8152,16.8257 0,5.38741 3.957,11.74102 8.96,14.38666 5.493,2.90473 10.3928,2.92081 16.07,0.0527 z m -11.6116,-5.71885 c -2.9046,-1.17506 -7.4184,-6.77763 -7.4184,-9.20788 0,-1.1128 1.53,-3.55327 3.4,-5.42327 2.858,-2.85797 4.1165,-3.4 7.8942,-3.4 12.1903,0 14.5756,14.72013 2.9103,17.95998 -4.2575,1.18244 -4.0446,1.18021 -6.7861,0.0712 z m 71.0487,4.56176 c 4.0823,-3.11375 7.5429,-9.24298 7.5109,-13.30307 -0.032,-4.02144 -3.2822,-10.59735 -6.4829,-13.11505 -8.148,-6.40921 -21.8017,-4.28402 -26.1193,4.06547 -1.7597,3.40272 -2.0856,12.87635 -0.5767,16.75974 3.288,8.46213 17.7693,11.61753 25.668,5.59291 z m -17.3904,-7.1818 c -3.274,-2.75494 -3.7562,-5.16338 -2.0269,-10.12405 1.2213,-3.50339 4.5189,-5.28706 9.7747,-5.28706 4.5368,0 7.4849,1.91842 9.159,5.96017 1.4986,3.61782 0.049,8.20298 -3.3438,10.57966 -3.4346,2.40568 -10.0132,1.85821 -13.563,-1.12872 z m 74.3522,7.21091 c 9.3592,-7.13858 9.1854,-20.92192 -0.3447,-27.34427 -7.1616,-4.82621 -15.792,-3.80528 -22.2265,2.6293 -6.1835,6.18344 -6.42,15.10503 -0.577,21.7599 4.2412,4.83048 8.0894,6.44035 14.3972,6.02303 3.7381,-0.24731 6.1714,-1.10036 8.751,-3.06796 z m -12.9289,-4.4618 c -4.478,-1.47823 -8.5,-5.91048 -8.5,-9.36695 0,-2.86729 5.1959,-7.8312 9.1184,-8.71137 6.5404,-1.46758 12.8816,3.02429 12.8816,9.12483 0,5.58803 -7.8745,10.81055 -13.5,8.95349 z m 69.9371,4.45556 c 4.1089,-3.13403 7.573,-9.25553 7.5409,-13.32594 -0.033,-4.13724 -3.264,-10.51127 -6.8651,-13.54142 -7.3202,-6.15953 -19.0628,-4.14503 -25.3525,4.34934 -2.5929,3.50163 -2.6206,13.74453 -0.049,18.14734 4.5361,7.76673 17.3126,10.02517 24.726,4.37068 z m -15.9371,-5.77051 c -1.1,-0.60166 -2.5625,-1.79898 -3.25,-2.66072 -1.3566,-1.70041 -1.6716,-8.03327 -0.4847,-9.74251 1.793,-2.58194 5.9948,-4.44204 10.0341,-4.44204 5.5401,0 10.2006,4.11193 10.2006,9 0,4.89502 -4.6652,9.0083 -10.1731,8.96959 -2.3798,-0.0167 -5.2269,-0.52267 -6.3269,-1.12432 z m 119.8948,5.80278 c 9.2135,-7.0275 8.6447,-20.97501 -1.1282,-27.66523 -4.8267,-3.30414 -13.207,-3.41885 -18.3328,-0.25094 -11.2333,6.9426 -9.9792,25.10083 2.0868,30.2134 4.2677,1.80831 13.6112,0.57291 17.3742,-2.29723 z m -13.0679,-4.34371 c -6.7948,-1.32354 -9.7583,-10.96383 -4.8724,-15.84979 1.9632,-1.96321 3.4737,-2.45455 7.5455,-2.45455 4.0718,0 5.5823,0.49134 7.5455,2.45455 2.6759,2.67592 3.3105,8.07754 1.374,11.69585 -0.9943,1.85785 -6.8102,5.03157 -8.6374,4.71342 -0.4301,-0.0749 -1.76,-0.32667 -2.9552,-0.55948 z M 754.26923,758.15515 c 0.5907,-55.22281 0.7742,-59.82774 2.7,-67.75 4.4144,-18.15993 15.1108,-33.87022 28.5959,-42 l 5.8056,-3.5 14.3768,-0.34557 14.3767,-0.34557 6.5752,3.23695 c 7.7589,3.81971 17.1603,12.86631 22.1787,21.34171 7.8983,13.33944 11.086,27.7275 11.063,49.93484 -0.02,18.79582 0.6341,17.68075 -10.353,17.66233 -5.0233,-0.008 -9.6513,-0.34592 -10.2844,-0.75 -0.746,-0.47619 -1.3968,-6.71625 -1.8495,-17.73469 -0.6151,-14.97029 -1.0467,-18.0572 -3.6149,-25.85462 -5.8373,-17.72232 -14.3224,-25.66744 -27.3779,-25.63561 -5.2561,0.0128 -13.3851,3.8686 -16.8583,7.99635 -3.8902,4.62317 -8.4133,13.93694 -10.3292,21.26921 -1.4053,5.37835 -1.6395,14.07622 -1.7228,63.97249 l -0.096,57.74781 -11.9097,0.002 -11.9097,0.002 0.6338,-59.25 z m 667.68557,56.24076 c 0,-0.55509 -2.2457,-2.39105 -4.9905,-4.07992 -6.7559,-4.15698 -11.5109,-9.97812 -13.8793,-16.99139 -1.0848,-3.21214 -3.339,-7.54557 -5.0095,-9.62985 -2.2739,-2.83719 -3.9241,-7.12583 -6.5661,-17.06433 -4.0587,-15.2681 -5.3904,-18.26427 -8.9693,-20.17961 -1.4219,-0.76099 -2.5853,-1.90414 -2.5853,-2.54033 0,-1.89204 4.461,-5.50533 6.7969,-5.50533 2.2173,0 7.7397,5.04257 14.3179,13.07386 l 3.6147,4.41328 3.6671,-7.28185 c 2.163,-4.29518 3.5515,-8.39406 3.3852,-9.99357 -0.2414,-2.32285 0.1292,-2.7587 2.584,-3.03931 1.5762,-0.18018 4.6668,-1.63226 6.868,-3.22684 2.2013,-1.59458 5.5284,-3.18553 7.3936,-3.53544 2.6234,-0.49215 3.5158,-1.23329 3.9415,-3.27317 0.9471,-4.53883 2.0051,-5.63696 5.4311,-5.63696 3.4007,0 4.4892,1.10895 5.3987,5.5 0.3935,1.8996 1.5485,2.81904 4.8096,3.82846 2.3604,0.73065 5.6795,2.38406 7.3757,3.67426 1.6962,1.29019 4.6212,2.49238 6.5,2.67154 3.157,0.30104 3.3938,0.56017 3.1232,3.41776 -0.4855,5.12681 1.7641,5.87471 6.7163,2.23284 10.7362,-7.89551 25.6516,-2.81253 27.4776,9.36404 1.5803,10.53812 -3.3391,20.38831 -17.8059,35.65356 -4.7274,4.98826 -8.5952,9.57829 -8.5952,10.20007 0,2.02587 -5.9197,9.3995 -9.5025,11.83637 -1.9236,1.3084 -3.4975,3.17275 -3.4975,4.14301 0,0.97026 -0.7118,2.03726 -1.5818,2.3711 -2.7789,1.06635 -36.4182,0.69479 -36.4182,-0.40225 z m 67.1617,-45.41399 c 7.1576,-10.97831 7.5378,-17.99937 1.2725,-23.50038 -4.2209,-3.70603 -9.0942,-4.06765 -13.9955,-1.03853 -4.9777,3.07639 -5.4523,5.88025 -2.7541,16.26881 1.2735,4.90294 2.3154,10.60844 2.3154,12.67889 0,2.07044 0.2987,5.25808 0.6638,7.08364 l 0.6639,3.3192 3.9861,-4.4442 c 2.1923,-2.44431 5.7239,-7.10965 7.8479,-10.36743 z M 174.76381,813.70168 c -9.49482,-0.36009 -9.746,-0.43259 -12.40964,-3.58203 -2.71236,-3.20704 -8.10544,-13.87102 -8.453,-16.7145 -0.10084,-0.825 -0.13003,-2.36005 -0.0649,-3.41121 0.11608,-1.87247 2.00727,-1.89691 93.26725,-1.20557 57.08259,0.43243 93.85327,1.08269 94.96832,1.67944 1.51462,0.81061 1.64629,1.43159 0.78567,3.70557 -2.43948,6.44574 -7.28006,15.23764 -9.57854,17.3974 l -2.4843,2.33437 -73.16996,0.082 c -40.24348,0.0451 -77.5309,-0.0834 -82.86094,-0.2855 z m 1024.99339,-0.23117 c -6.9876,-1.38612 -6.8024,-0.63524 -6.8024,-27.58082 0,-27.42274 0.6472,-25.48454 -8.5092,-25.48454 -4.6198,0 -5.6347,-0.36751 -7.4747,-2.70672 -1.4879,-1.89156 -1.9417,-3.47265 -1.5068,-5.25 1.0652,-4.3531 3.028,-5.45176 10.4939,-5.87362 l 6.9968,-0.39535 v -5.93261 c 0,-4.99964 0.3944,-6.32697 2.5077,-8.44031 l 2.5077,-2.5077 65.5812,0.30316 65.5813,0.30315 1.911,2.36078 c 1.3979,1.72679 1.9111,3.94235 1.9111,8.25 v 5.88922 h 5.0321 c 2.7677,0 6.5927,0.65204 8.5,1.44897 3.1366,1.31053 3.4679,1.83062 3.4679,5.4433 0,5.06493 -2.6271,7.10773 -9.1407,7.10773 -8.403,0 -7.8593,-1.76064 -7.8593,25.452 0,23.36866 -0.075,24.30635 -2.1044,26.14301 -2.0184,1.82718 -4.6631,1.91109 -64.75,2.05442 -34.4551,0.0822 -64.3095,-0.18065 -66.3432,-0.58407 z M 166.56417,778.15515 c -1.15723,-7.96212 1.73882,-24.5606 5.62689,-32.25 2.59653,-5.13513 9.17834,-12.64214 14.76811,-16.84405 8.81379,-6.62544 16.05034,-8.60663 34.69799,-9.49947 8.3613,-0.40034 15.5313,-1.05682 15.93333,-1.45885 0.40203,-0.40203 0.19847,-1.26346 -0.45237,-1.9143 -3.38559,-3.38559 2.10202,-12.18343 8.32788,-13.35141 7.61358,-1.42832 14.83551,3.88414 14.35361,10.55851 -0.41104,5.69295 0.18599,6.0075 11.4442,6.02938 14.97752,0.0291 23.08597,1.4479 31.32277,5.48077 12.80238,6.26823 23.71573,20.51296 26.3475,34.39024 1.12094,5.91067 1.37302,19.0275 0.41372,21.52739 -0.54656,1.42432 -8.64864,1.58179 -81.38646,1.58179 h -80.77946 z m 564.92526,-20.12444 c -3.0561,-3.05609 -3.9072,-8.8181 -3.3391,-22.60546 0.3229,-7.83884 0.907,-11.52757 2.1176,-13.37529 3.0328,-4.62866 13.282,-4.71851 16.2802,-0.14272 1.8939,2.89039 2.9542,17.5608 1.9482,26.95455 -0.9416,8.79229 -3.3347,11.54336 -10.0415,11.54336 -3.4989,0 -5.1557,-0.56479 -6.9654,-2.37444 z m 55.318,-0.61912 -2.9936,-2.99357 0.3205,-15.48142 c 0.3014,-14.55865 0.4562,-15.61703 2.5982,-17.75644 1.7689,-1.7667 3.4081,-2.27501 7.3366,-2.27501 4.303,0 5.4194,0.41921 7.4722,2.80576 2.3196,2.69668 2.4135,3.38978 2.4135,17.82693 V 754.559 l -2.9231,2.92307 c -4.1475,4.14748 -10.0356,4.1183 -14.2243,-0.0705 z m 426.26867,-32.75558 -19.3787,-0.29495 0.5669,-4.22639 c 1.2516,-9.33146 10.8008,-12.73201 37.8387,-13.47468 l 18.6482,-0.51223 3.0112,-4.27194 c 5.086,-7.21567 12.6919,-7.28123 18.6069,-0.16039 l 3.4559,4.16048 17.8148,0.6684 c 28.7429,1.07842 38.3148,4.84658 38.3148,15.08335 v 3.77749 l -49.75,-0.2271 c -27.3625,-0.1249 -58.4704,-0.35982 -69.1287,-0.52204 z M 98.331912,548.26536 c -0.49191,-0.76283 -1.09672,-95.79369 -1.37713,-216.38175 l -0.5,-215.02155 -4.15911,-6.97846 c -2.28751,-3.83815 -7.80001,-12.132515 -12.25,-18.431921 -4.67441,-6.617102 -8.09089,-12.463587 -8.09089,-13.84563 0,-3.403121 3.33565,-7.643765 7.73031,-9.827617 3.66684,-1.822177 17.04321,-1.880753 490.269698,-2.14694 267.57504,-0.15051 505.17501,0.07449 528.00001,0.5 41.1787,0.767664 41.5237,0.791466 44.5644,3.074522 1.6855,1.265478 3.8053,3.555051 4.7108,5.08794 1.5514,2.626313 1.5311,3.002238 -0.353,6.517484 -1.0996,2.051728 -4.264,6.844034 -7.0319,10.649567 -2.7679,3.805534 -7.7006,11.295035 -10.9614,16.643335 l -5.9289,9.72418 v 215.28832 215.28831 l -508.25001,0.011 c -279.5375,0.006 -509.88029,0.28064 -511.87287,0.61021 -2.50048,0.41356 -3.894618,0.1778 -4.500008,-0.76101 z M 434.95479,318.40515 v -201 H 304.11672 c -71.96094,0 -141.71094,0.29697 -155,0.65994 l -24.16193,0.65995 v 199.77969 199.77969 l 3.75,0.39226 c 2.0625,0.21575 71.8125,0.46791 155,0.56037 l 151.25,0.1681 z m -299.34511,190.16168 -2.78177,-2.90355 0.31344,-187.5936 c 0.2925,-175.06549 0.42711,-187.70724 2.01548,-189.29539 1.39834,-1.39814 4.87779,-1.86031 19.5,-2.5902 20.50548,-1.02356 260.13159,-0.35736 265.10473,0.73703 1.90366,0.41892 4.02524,1.82431 5,3.31211 1.57566,2.40496 1.69323,15.51801 1.69323,188.85554 V 505.3599 l -2.77247,2.77262 -2.77247,2.77263 -141.25919,0.28261 -141.2592,0.28262 z m 268.1394,-19.49995 2.70571,-2.70424 0.29229,-28.7647 0.29228,-28.76471 -2.48936,-2.33864 c -5.00401,-4.70102 -15.6243,-4.51354 -20.50269,0.36195 l -2.59252,2.59097 -0.29524,28.11622 -0.29523,28.11621 2.29523,2.47197 c 3.28922,3.54247 5.54275,4.27445 12.08953,3.92685 4.72851,-0.25105 6.29196,-0.80504 8.5,-3.01188 z m -10.3893,-8.76589 c -1.74282,-1.92503 -1.90499,-3.8477 -1.90499,-22.58569 v -20.48154 l 2.80959,-2.4176 c 2.2683,-1.95182 3.19265,-2.21259 4.79787,-1.3535 1.09355,0.58525 2.41673,2.19103 2.94041,3.56839 1.39055,3.65744 1.22311,38.99077 -0.19757,41.68984 -2.23492,4.24599 -5.48179,4.85347 -8.44531,1.5801 z m 371.46175,-161.64584 0.021,-200.75 H 609.96645 455.09006 l -0.0516,200.75 -0.0515,200.75 h 154.90661 154.90666 l 0.021,-200.75 z M 465.03244,510.5142 462.95479,507.59641 V 324.14035 c 0,-100.90083 0.29064,-185.5765 0.64586,-188.16815 1.20937,-8.82332 -12.67842,-8.03156 146.24131,-8.33735 l 140.47577,-0.2703 3.3185,3.21647 3.3186,3.21646 -0.01,184.55384 c 0,121.3556 -0.352,185.80091 -1.0171,188.19559 -0.5564,2.00297 -1.748,4.25297 -2.648,5 -1.3585,1.12753 -25.8024,1.40298 -143.90525,1.62166 l -142.26881,0.26342 -2.07765,-2.91779 z m 35.18181,-17.16424 c 6.86433,-1.90629 7.19761,-3.24261 7.57212,-30.36126 0.49635,-35.94098 0.27301,-36.58355 -12.71555,-36.58355 -12.1186,0 -11.55547,-1.50945 -11.9097,31.92332 -0.18471,17.43369 0.0907,28.72778 0.74239,30.4418 1.79295,4.71582 8.76823,6.67432 16.31074,4.57969 z m -11.59192,-10.75968 c -2.92531,-3.23243 -3.66754,-8.08155 -3.66754,-23.96065 0,-16.3767 0.99794,-21.08264 4.91534,-23.17917 1.53387,-0.8209 2.63545,-0.8209 4.16932,0 4.00238,2.14201 4.91545,6.72659 4.91379,24.67257 -10e-4,13.97395 -0.29413,17.36778 -1.75,20.28212 -2.08303,4.16976 -5.90423,5.14283 -8.58091,2.18513 z M 1094.629,319.24691 c -0.3615,-110.08703 -0.7736,-200.25051 -0.9158,-200.3633 -0.1421,-0.11278 -69.6709,-0.51063 -154.50837,-0.88411 l -154.25,-0.67904 v 201.04235 201.04234 h 155.1657 155.16577 z m -298.99087,191.34957 -2.7291,-2.84854 0.2729,-187.14882 0.2729,-187.14882 2.7724,-2.77257 2.7725,-2.77258 140.6425,-0.28621 140.64267,-0.28622 3.3349,3.23238 3.335,3.23238 -0.084,182.05384 c -0.046,100.12961 -0.4086,184.64992 -0.8048,187.82291 -1.2823,10.26849 15.2231,9.19397 -145.94017,9.50085 l -141.7583,0.26993 -2.729,-2.84853 z m 35.5549,-17.24066 c 2.056,-0.571 4.306,-2.03099 5,-3.24442 0.9086,-1.58872 1.3421,-9.76359 1.5487,-29.20625 0.2585,-24.32005 0.1096,-27.34236 -1.5,-30.44917 -2.1629,-4.17494 -5.392,-5.21822 -13.5212,-4.36855 -9.9266,1.03753 -9.7657,0.48549 -9.7657,33.51832 0,17.16491 0.3951,28.66921 1.0251,29.84638 2.3504,4.39176 9.5646,6.02783 17.2131,3.90369 z m -13.1001,-11.50224 c -2.6529,-3.37262 -3.4108,-10.25274 -2.9814,-27.06746 0.2881,-11.28525 0.6893,-14.37568 2.1454,-16.52652 3.6869,-5.44608 9.0384,-3.62678 10.7234,3.64555 1.0392,4.48536 1.3078,30.58332 0.3633,35.30574 -0.7464,3.73211 -3.8048,7.19426 -6.3552,7.19426 -1.0387,0 -2.7917,-1.14821 -3.8955,-2.55157 z"
       id="path434" /></g></svg>
