<?xml version="1.0" encoding="UTF-8" standalone="no"?>
<svg
   xmlns:dc="http://purl.org/dc/elements/1.1/"
   xmlns:cc="http://creativecommons.org/ns#"
   xmlns:rdf="http://www.w3.org/1999/02/22-rdf-syntax-ns#"
   xmlns:svg="http://www.w3.org/2000/svg"
   xmlns="http://www.w3.org/2000/svg"
   xmlns:xlink="http://www.w3.org/1999/xlink"
   xmlns:sodipodi="http://sodipodi.sourceforge.net/DTD/sodipodi-0.dtd"
   xmlns:inkscape="http://www.inkscape.org/namespaces/inkscape"
   width="23.465471mm"
   height="40.184956mm"
   viewBox="0 0 23.465471 40.184956"
   version="1.1"
   id="svg69"
   inkscape:version="1.0.1 (3bc2e813f5, 2020-09-07)"
   sodipodi:docname="light-bulb-off.svg">
  <defs
     id="defs63">
    <linearGradient
       id="linearGradient4252"
       y2="707.60999"
       xlink:href="#linearGradient3951"
       gradientUnits="userSpaceOnUse"
       x2="371.79999"
       gradientTransform="translate(-111.02)"
       y1="707.60999"
       x1="340.54999"
       inkscape:collect="always" />
    <linearGradient
       id="linearGradient3951"
       inkscape:collect="always">
      <stop
         id="stop3953"
         style="stop-color:#808080"
         offset="0" />
      <stop
         id="stop3955"
         style="stop-color:#5b5b5b"
         offset="1" />
    </linearGradient>
    <linearGradient
       id="linearGradient4254"
       y2="700.67999"
       xlink:href="#linearGradient4015"
       gradientUnits="userSpaceOnUse"
       x2="425.29999"
       gradientTransform="translate(-179.78)"
       y1="686.33002"
       x1="425.29999"
       inkscape:collect="always" />
    <linearGradient
       id="linearGradient4015"
       inkscape:collect="always">
      <stop
         id="stop4017"
         style="stop-color:#000000"
         offset="0" />
      <stop
         id="stop4019"
         style="stop-color:#000000;stop-opacity:0"
         offset="1" />
    </linearGradient>
    <linearGradient
       id="linearGradient4256"
       y2="127.11"
       xlink:href="#linearGradient3993"
       gradientUnits="userSpaceOnUse"
       x2="140.99001"
       gradientTransform="translate(84.033,580)"
       y1="127.11"
       x1="178.75"
       inkscape:collect="always" />
    <linearGradient
       id="linearGradient3993"
       inkscape:collect="always">
      <stop
         id="stop3995"
         style="stop-color:#585858"
         offset="0" />
      <stop
         id="stop3997"
         style="stop-color:#434343"
         offset="1" />
    </linearGradient>
    <linearGradient
       id="linearGradient4260"
       y2="693.88"
       xlink:href="#linearGradient4015"
       gradientUnits="userSpaceOnUse"
       x2="353.85999"
       gradientTransform="translate(-111.02)"
       y1="690.17999"
       x1="353.85999"
       inkscape:collect="always" />
    <linearGradient
       id="linearGradient4262"
       y2="640.85999"
       xlink:href="#linearGradient4115"
       gradientUnits="userSpaceOnUse"
       x2="388.54999"
       gradientTransform="translate(-111.02)"
       y1="614.85999"
       x1="316.29999"
       inkscape:collect="always" />
    <linearGradient
       id="linearGradient4115"
       inkscape:collect="always">
      <stop
         id="stop4117"
         style="stop-color:#959595;stop-opacity:.30622"
         offset="0" />
      <stop
         id="stop4119"
         style="stop-color:#3d3d3d;stop-opacity:.53589"
         offset="1" />
    </linearGradient>
    <linearGradient
       id="linearGradient4264"
       y2="652.84003"
       gradientUnits="userSpaceOnUse"
       x2="362.04999"
       gradientTransform="translate(-111.02)"
       y1="685.28998"
       x1="362.04999"
       inkscape:collect="always">
      <stop
         id="stop4127"
         style="stop-color:#b9b9b9"
         offset="0" />
      <stop
         id="stop4129"
         style="stop-color:#cecece;stop-opacity:0"
         offset="1" />
    </linearGradient>
    <linearGradient
       inkscape:collect="always"
       xlink:href="#linearGradient3951"
       id="linearGradient200"
       gradientUnits="userSpaceOnUse"
       gradientTransform="translate(-111.02)"
       x1="340.54999"
       y1="707.60999"
       x2="371.79999"
       y2="707.60999" />
  </defs>
  <sodipodi:namedview
     id="base"
     pagecolor="#ffffff"
     bordercolor="#666666"
     borderopacity="1.0"
     inkscape:pageopacity="0.0"
     inkscape:pageshadow="2"
     inkscape:zoom="0.35"
     inkscape:cx="435.77277"
     inkscape:cy="70.225789"
     inkscape:document-units="mm"
     inkscape:current-layer="layer1"
     inkscape:document-rotation="0"
     showgrid="false"
     fit-margin-top="0"
     fit-margin-left="0"
     fit-margin-right="0"
     fit-margin-bottom="0"
     inkscape:window-width="1451"
     inkscape:window-height="908"
     inkscape:window-x="178"
     inkscape:window-y="65"
     inkscape:window-maximized="0" />
  <metadata
     id="metadata66">
    <rdf:RDF>
      <cc:Work
         rdf:about="">
        <dc:format>image/svg+xml</dc:format>
        <dc:type
           rdf:resource="http://purl.org/dc/dcmitype/StillImage" />
        <dc:title></dc:title>
      </cc:Work>
    </rdf:RDF>
  </metadata>
  <g
     inkscape:label="Laag 1"
     inkscape:groupmode="layer"
     id="layer1"
     transform="translate(9.4648787,-129.58609)">
    <g
       id="g4131"
       transform="matrix(0.26458333,0,0,0.26458333,-62.401653,-24.160581)"
       inkscape:export-xdpi="310"
       inkscape:export-ydpi="310">
      <rect
         id="rect3835"
         style="color:#000000;fill:url(#linearGradient200)"
         rx="0"
         ry="0"
         height="31.25"
         width="33.75"
         y="687.35999"
         x="227.55" />
      <rect
         id="rect4011"
         style="color:#000000;fill:url(#linearGradient4254)"
         rx="0"
         ry="0"
         height="31.25"
         width="33.75"
         y="687.35999"
         x="227.55" />
      <path
         id="path3869"
         d="m 225.53,695.84 v 2.4375 l 17.75,-2.4375 z m 37.75,0.25 -37.75,5.1875 v 2.0625 l 37.75,-5.1875 z m 0,5.0625 -37.75,5.1875 v 2.0625 l 37.75,-5.1875 z m 0,5.0625 -37.75,5.1875 v 2.0312 l 37.75,-5.1875 z m 0,5.0312 -37.75,5.1875 v 2.0625 l 37.75,-5.1875 z"
         style="fill:url(#linearGradient4256)"
         inkscape:connector-curvature="0" />
      <path
         id="rect3837"
         d="m 225.17,688.22 v 5.25 c 0,1.385 1.115,2.5 2.5,2.5 h 33.5 c 1.385,0 2.5,-1.115 2.5,-2.5 v -5.25 z"
         sodipodi:nodetypes="csssscc"
         style="color:#000000;fill:url(#linearGradient4252)"
         inkscape:connector-curvature="0" />
      <path
         id="path4001"
         sodipodi:nodetypes="csssscc"
         style="color:#000000;fill:url(#linearGradient4260)"
         inkscape:connector-curvature="0"
         d="m 225.17,688.22 v 5.25 c 0,1.385 1.115,2.5 2.5,2.5 h 33.5 c 1.385,0 2.5,-1.115 2.5,-2.5 v -5.25 z" />
      <path
         id="path3032"
         d="m 244.42,581.09 c -24.493,0 -44.344,19.851 -44.344,44.344 0,11.167 4.1252,21.359 10.938,29.156 3.878,4.0518 6.5995,9.9233 7.4688,16.656 l 0.0191,12.429 c 0,4.4527 3.5756,8.0284 8.0284,8.0284 h 35.78 c 4.4527,0 8.0284,-3.5756 8.0284,-8.0284 l -0.0121,-12.429 c 0.86451,-6.7196 3.6103,-12.574 7.4688,-16.625 0.003,-0.01 -0.002,-0.0215 0,-0.0312 6.8156,-7.7976 10.969,-17.986 10.969,-29.156 0,-24.493 -19.851,-44.344 -44.344,-44.344 z"
         sodipodi:nodetypes="sscccssccccss"
         style="opacity:0.68293;fill:url(#linearGradient4262)"
         inkscape:connector-curvature="0" />
      <path
         id="rect3880"
         d="m 227.53,718.59 4.25,4.75 h 25.25 l 4.25,-4.75 z"
         sodipodi:nodetypes="ccccc"
         style="color:#000000;fill:#808080"
         inkscape:connector-curvature="0" />
      <path
         id="rect3883"
         d="m 231.77,723.34 c 0,1.0374 0.52146,2.0748 1.5644,2.8696 l 7.3055,5.568 c 2.0859,1.5898 5.4444,1.5898 7.5303,0 l 7.3055,-5.568 c 1.043,-0.79489 1.5644,-1.8323 1.5644,-2.8696 z"
         sodipodi:nodetypes="csssscc"
         style="color:#000000;fill:#343434"
         inkscape:connector-curvature="0" />
      <path
         id="path4121"
         d="m 244.42,581.09 c -24.493,0 -44.344,19.851 -44.344,44.344 0,11.167 4.1252,21.359 10.938,29.156 3.878,4.0518 6.5995,9.9233 7.4688,16.656 l 0.0191,12.429 c 0,4.4527 3.5756,8.0284 8.0284,8.0284 h 35.78 c 4.4527,0 8.0284,-3.5756 8.0284,-8.0284 l -0.0121,-12.429 c 0.86451,-6.7196 3.6103,-12.574 7.4688,-16.625 0.003,-0.01 -0.002,-0.0215 0,-0.0312 6.8156,-7.7976 10.969,-17.986 10.969,-29.156 0,-24.493 -19.851,-44.344 -44.344,-44.344 z"
         sodipodi:nodetypes="sscccssccccss"
         style="fill:url(#linearGradient4264)"
         inkscape:connector-curvature="0" />
      <path
         id="path3948"
         d="m 231.38,591.37 c -13.547,6.7471 -22.938,20.62 -22.938,36.812 0,0.60674 0.12823,1.3296 0.1875,1.9688 l 11.938,-2.0312 c 1.356,-11.127 7.9158,-20.595 17.25,-25.906 l -6.4375,-10.844 z"
         style="fill:#ffffff"
         inkscape:connector-curvature="0" />
    </g>
  </g>
</svg>
