<?xml version="1.0" encoding="UTF-8" standalone="no"?>
<svg xmlns:dc="http://purl.org/dc/elements/1.1/" xmlns:cc="http://creativecommons.org/ns#" xmlns:rdf="http://www.w3.org/1999/02/22-rdf-syntax-ns#" xmlns:svg="http://www.w3.org/2000/svg" xmlns="http://www.w3.org/2000/svg" xmlns:sodipodi="http://sodipodi.sourceforge.net/DTD/sodipodi-0.dtd" xmlns:inkscape="http://www.inkscape.org/namespaces/inkscape" height="293.64801" width="360.991" x="0px" y="0px" version="1.1" viewBox="0 0 360.991 293.64801" xml:space="preserve" enable-background="new 0 0 612 792" id="Layer_1" sodipodi:docname="weather.svg" inkscape:version="0.92.2 5c3e80d, 2017-08-06"><sodipodi:namedview pagecolor="#ffffff" bordercolor="#666666" borderopacity="1" objecttolerance="10" gridtolerance="10" guidetolerance="10" inkscape:pageopacity="0" inkscape:pageshadow="2" inkscape:window-width="2714" inkscape:window-height="1627" id="namedview802" showgrid="false" fit-margin-top="0" fit-margin-left="0" fit-margin-right="0" fit-margin-bottom="0" inkscape:zoom="4.2351368" inkscape:cx="106.70151" inkscape:cy="146.824" inkscape:window-x="0" inkscape:window-y="0" inkscape:window-maximized="0" inkscape:current-layer="Layer_1"/><defs id="defs1481"/><g id="g952" transform="translate(-188.912,-256.119)"><g id="g923"><g id="g911"><radialGradient id="SVGID_69_" gradientUnits="userSpaceOnUse" cy="418.42001" cx="366.79999" r="332.01001"><stop style="stop-color:#FFF56D" offset="0" id="stop898"/><stop style="stop-color:#FFC222" offset=".2584" id="stop900"/><stop style="stop-color:#FCAF17" offset=".5281" id="stop902"/><stop style="stop-color:#CF9112" offset=".809" id="stop904"/><stop style="stop-color:#A17105" offset="1" id="stop906"/></radialGradient><path inkscape:connector-curvature="0" d="m 316.4,305.03 c 5.179,-12.481 8.796,-28.533 11.104,-48.911 8.562,23.62 12.462,42.868 13.831,59.308 9.858,-8.589 19.845,-20.101 30.406,-32.924 -2.506,20.128 -6.548,37.426 -11.669,52.138 12.332,-3.871 25.743,-10.328 40.689,-19.615 -9.71,16.158 -19.996,31.004 -30.409,42.928 13.345,0.253 29.22,-2.302 49.758,-9.229 -17.696,15.702 -34.083,27.078 -48.909,34.884 12.481,5.18 28.532,8.797 48.909,11.106 -23.62,8.561 -42.869,12.458 -59.309,13.825 8.589,9.859 20.1,19.846 32.923,30.407 -20.126,-2.505 -37.423,-6.546 -52.134,-11.666 3.873,12.332 10.331,25.742 19.618,40.688 -16.16,-9.711 -31.007,-19.997 -42.932,-30.411 -0.254,13.346 2.301,29.221 9.227,49.761 -15.702,-17.698 -27.078,-34.088 -34.883,-48.915 -5.178,12.482 -8.794,28.536 -11.1,48.915 -8.564,-23.621 -12.464,-42.871 -13.834,-59.312 -9.858,8.589 -19.843,20.101 -30.404,32.925 2.506,-20.126 6.548,-37.422 11.668,-52.132 -12.333,3.871 -25.744,10.328 -40.691,19.616 9.709,-16.16 19.995,-31.008 30.408,-42.934 -13.344,-0.251 -29.219,2.305 -49.755,9.232 17.697,-15.702 34.084,-27.078 48.911,-34.884 -12.481,-5.179 -28.533,-8.797 -48.911,-11.106 23.618,-8.562 42.866,-12.46 59.305,-13.829 -8.588,-9.858 -20.098,-19.843 -32.92,-30.403 20.127,2.505 37.425,6.546 52.136,11.667 -3.872,-12.333 -10.33,-25.745 -19.618,-40.693 16.159,9.71 31.005,19.997 42.929,30.41 0.254,-13.345 -2.299,-29.219 -9.223,-49.757 15.67,17.66 27.05,34.04 34.85,48.87 z" id="path909" style="fill:url(#SVGID_69_)"/></g><defs id="defs916"><filter id="Adobe_OpacityMaskFilter" height="231.2" width="231.2" y="256.12" x="188.91" filterUnits="userSpaceOnUse"><feColorMatrix values="-1 0 0 0 1  0 -1 0 0 1  0 0 -1 0 1  0 0 0 1 0" type="matrix" result="source" id="feColorMatrix913" style="color-interpolation-filters:sRGB"/></filter></defs><mask id="SVGID_70_" height="231.201" width="231.198" y="256.118" x="188.912" maskUnits="userSpaceOnUse"/><g mask="url(#SVGID_70_)" id="g921" style="opacity:0.75"><path inkscape:connector-curvature="0" d="m 316.4,305.03 c 5.179,-12.481 8.796,-28.533 11.104,-48.911 8.562,23.62 12.462,42.868 13.831,59.308 9.858,-8.589 19.845,-20.101 30.406,-32.924 -2.506,20.128 -6.548,37.426 -11.669,52.138 12.332,-3.871 25.743,-10.328 40.689,-19.615 -9.71,16.158 -19.996,31.004 -30.409,42.928 13.345,0.253 29.22,-2.302 49.758,-9.229 -17.696,15.702 -34.083,27.078 -48.909,34.884 12.481,5.18 28.532,8.797 48.909,11.106 -23.62,8.561 -42.869,12.458 -59.309,13.825 8.589,9.859 20.1,19.846 32.923,30.407 -20.126,-2.505 -37.423,-6.546 -52.134,-11.666 3.873,12.332 10.331,25.742 19.618,40.688 -16.16,-9.711 -31.007,-19.997 -42.932,-30.411 -0.254,13.346 2.301,29.221 9.227,49.761 -15.702,-17.698 -27.078,-34.088 -34.883,-48.915 -5.178,12.482 -8.794,28.536 -11.1,48.915 -8.564,-23.621 -12.464,-42.871 -13.834,-59.312 -9.858,8.589 -19.843,20.101 -30.404,32.925 2.506,-20.126 6.548,-37.422 11.668,-52.132 -12.333,3.871 -25.744,10.328 -40.691,19.616 9.709,-16.16 19.995,-31.008 30.408,-42.934 -13.344,-0.251 -29.219,2.305 -49.755,9.232 17.697,-15.702 34.084,-27.078 48.911,-34.884 -12.481,-5.179 -28.533,-8.797 -48.911,-11.106 23.618,-8.562 42.866,-12.46 59.305,-13.829 -8.588,-9.858 -20.098,-19.843 -32.92,-30.403 20.127,2.505 37.425,6.546 52.136,11.667 -3.872,-12.333 -10.33,-25.745 -19.618,-40.693 16.159,9.71 31.005,19.997 42.929,30.41 0.254,-13.345 -2.299,-29.219 -9.223,-49.757 15.67,17.66 27.05,34.04 34.85,48.87 z" id="path919" style="fill:#f3efc9"/></g></g><g id="g950"><g id="g938"><radialGradient id="SVGID_71_" gradientUnits="userSpaceOnUse" cy="387.28" cx="316.97" r="107.41"><stop style="stop-color:#FFF56D" offset="0" id="stop925"/><stop style="stop-color:#FFC222" offset=".2584" id="stop927"/><stop style="stop-color:#FCAF17" offset=".5281" id="stop929"/><stop style="stop-color:#CF9112" offset=".809" id="stop931"/><stop style="stop-color:#A17105" offset="1" id="stop933"/></radialGradient><circle cy="370.67999" cx="304.51001" r="64.352997" id="circle936" style="fill:url(#SVGID_71_)"/></g><defs id="defs943"><filter id="Adobe_OpacityMaskFilter_1_" height="128.71001" width="128.71001" y="306.32001" x="240.16" filterUnits="userSpaceOnUse"><feColorMatrix values="-1 0 0 0 1  0 -1 0 0 1  0 0 -1 0 1  0 0 0 1 0" type="matrix" result="source" id="feColorMatrix940" style="color-interpolation-filters:sRGB"/></filter></defs><mask id="SVGID_72_" height="128.709" width="128.707" y="306.325" x="240.158" maskUnits="userSpaceOnUse"/><g mask="url(#SVGID_72_)" id="g948" style="opacity:0.75"><circle cy="370.67999" cx="304.51001" r="64.352997" id="circle946" style="fill:#f3efc9"/></g></g></g><g id="g1472" transform="translate(-188.912,-256.119)"><g id="g1135" style="opacity:0.65"><radialGradient id="SVGID_73_" gradientUnits="userSpaceOnUse" cy="325.25" cx="308.98001" r="17.399"><stop style="stop-color:#FFFFFF" offset="0" id="stop954"/><stop style="stop-color:#7DA7D9" offset=".2135" id="stop956"/><stop style="stop-color:#0072BC" offset=".5393" id="stop958"/><stop style="stop-color:#32347F" offset="1" id="stop960"/></radialGradient><path inkscape:connector-curvature="0" d="m 305.03,331.83 c 0,6.913 5.599,12.516 12.512,12.516 6.911,0 12.511,-5.603 12.511,-12.516 0,-6.91 -5.6,-12.508 -12.511,-12.508 -6.91,0 -12.51,5.6 -12.51,12.51 z" id="path963" style="fill:url(#SVGID_73_)"/><linearGradient id="SVGID_74_" y2="308.45999" gradientUnits="userSpaceOnUse" x2="428.85001" y1="308.45999" x1="368.92001"><stop style="stop-color:#7DA7D9" offset=".2135" id="stop965"/><stop style="stop-color:#0072BC" offset=".5393" id="stop967"/><stop style="stop-color:#32347F" offset="1" id="stop969"/></linearGradient><path inkscape:connector-curvature="0" d="m 428.85,308.46 c 0,16.55 -13.411,29.966 -29.964,29.966 -16.549,0 -29.966,-13.417 -29.966,-29.966 0,-16.549 13.417,-29.966 29.966,-29.966 16.55,0 29.96,13.42 29.96,29.97 z" id="path972" style="fill:url(#SVGID_74_)"/><radialGradient id="SVGID_75_" gradientUnits="userSpaceOnUse" cy="354.23001" cx="374.84" r="23.052"><stop style="stop-color:#FFFFFF" offset="0" id="stop974"/><stop style="stop-color:#7DA7D9" offset=".2135" id="stop976"/><stop style="stop-color:#0072BC" offset=".5393" id="stop978"/><stop style="stop-color:#32347F" offset="1" id="stop980"/></radialGradient><path inkscape:connector-curvature="0" d="m 351.79,354.22 c 0,12.731 10.322,23.054 23.051,23.054 12.729,0 23.054,-10.322 23.054,-23.054 0,-12.728 -10.324,-23.05 -23.054,-23.05 -12.73,0.01 -23.05,10.33 -23.05,23.05 z" id="path983" style="fill:url(#SVGID_75_)"/><linearGradient id="SVGID_76_" y2="327.88" gradientUnits="userSpaceOnUse" x2="350.48001" y1="327.88" x1="324.13"><stop style="stop-color:#7DA7D9" offset=".2135" id="stop985"/><stop style="stop-color:#0072BC" offset=".5393" id="stop987"/><stop style="stop-color:#32347F" offset="1" id="stop989"/></linearGradient><path inkscape:connector-curvature="0" d="m 350.48,327.88 c 0,7.272 -5.902,13.173 -13.171,13.173 -7.277,0 -13.173,-5.901 -13.173,-13.173 0,-7.274 5.896,-13.173 13.173,-13.173 7.27,0 13.17,5.9 13.17,13.17 z" id="path992" style="fill:url(#SVGID_76_)"/><linearGradient id="SVGID_77_" y2="347.31" gradientUnits="userSpaceOnUse" x2="456.51001" y1="347.31" x1="408.42999"><stop style="stop-color:#FFFFFF" offset="0" id="stop994"/><stop style="stop-color:#7DA7D9" offset=".2135" id="stop996"/><stop style="stop-color:#0072BC" offset=".5393" id="stop998"/><stop style="stop-color:#32347F" offset="1" id="stop1000"/></linearGradient><circle cy="347.31" cx="432.47" r="24.038" id="circle1003" style="fill:url(#SVGID_77_)"/><linearGradient id="SVGID_78_" y2="313.39001" gradientUnits="userSpaceOnUse" x2="413.70001" y1="313.39001" x1="389.98999"><stop style="stop-color:#FFFFFF" offset="0" id="stop1005"/><stop style="stop-color:#7DA7D9" offset=".2135" id="stop1007"/><stop style="stop-color:#0072BC" offset=".5393" id="stop1009"/><stop style="stop-color:#32347F" offset="1" id="stop1011"/></linearGradient><path inkscape:connector-curvature="0" d="m 389.99,313.4 c 0,6.542 5.304,11.85 11.853,11.85 6.545,0 11.853,-5.307 11.853,-11.85 0,-6.548 -5.308,-11.858 -11.853,-11.858 -6.54,0 -11.85,5.31 -11.85,11.86 z" id="path1014" style="fill:url(#SVGID_78_)"/><radialGradient id="SVGID_79_" gradientUnits="userSpaceOnUse" cy="313.39001" cx="413.70001" r="37.187"><stop style="stop-color:#FFFFFF" offset="0" id="stop1016"/><stop style="stop-color:#7DA7D9" offset=".2135" id="stop1018"/><stop style="stop-color:#0072BC" offset=".5393" id="stop1020"/><stop style="stop-color:#32347F" offset="1" id="stop1022"/></radialGradient><path inkscape:connector-curvature="0" d="m 410.41,318.99 c 0,12.187 9.875,22.067 22.065,22.067 12.182,0 22.057,-9.88 22.057,-22.067 0,-12.184 -9.875,-22.062 -22.057,-22.062 -12.2,0 -22.07,9.88 -22.07,22.06 z" id="path1025" style="fill:url(#SVGID_79_)"/><linearGradient id="SVGID_80_" y2="313.39999" gradientUnits="userSpaceOnUse" x2="371.54999" y1="313.39999" x1="341.25"><stop style="stop-color:#7DA7D9" offset=".2135" id="stop1027"/><stop style="stop-color:#0072BC" offset=".5393" id="stop1029"/><stop style="stop-color:#32347F" offset="1" id="stop1031"/></linearGradient><path inkscape:connector-curvature="0" d="m 371.55,313.4 c 0,8.366 -6.78,15.146 -15.146,15.146 -8.366,0 -15.148,-6.78 -15.148,-15.146 0,-8.369 6.782,-15.146 15.148,-15.146 8.366,0 15.15,6.78 15.15,15.15 z" id="path1034" style="fill:url(#SVGID_80_)"/><radialGradient id="SVGID_81_" gradientUnits="userSpaceOnUse" cy="321.95999" cx="356.39999" r="43.417"><stop style="stop-color:#FFFFFF" offset="0" id="stop1036"/><stop style="stop-color:#7DA7D9" offset=".2135" id="stop1038"/><stop style="stop-color:#0072BC" offset=".5393" id="stop1040"/><stop style="stop-color:#32347F" offset="1" id="stop1042"/></radialGradient><path inkscape:connector-curvature="0" d="m 401.19,331.51 c 0,14.367 -11.651,26.013 -26.016,26.013 -14.366,0 -26.013,-11.646 -26.013,-26.013 0,-14.37 11.646,-26.015 26.013,-26.015 14.37,-0.01 26.02,11.64 26.02,26.01 z" id="path1045" style="fill:url(#SVGID_81_)"/><radialGradient id="SVGID_82_" gradientUnits="userSpaceOnUse" cy="352.25" cx="384.72" r="44.888"><stop style="stop-color:#FFFFFF" offset="0" id="stop1047"/><stop style="stop-color:#7DA7D9" offset=".5281" id="stop1049"/><stop style="stop-color:#0072BC" offset=".9045" id="stop1051"/><stop style="stop-color:#32347F" offset="1" id="stop1053"/></radialGradient><path inkscape:connector-curvature="0" d="m 434.78,359.17 c 0,15.823 -12.825,28.646 -28.646,28.646 -15.826,0 -28.656,-12.822 -28.656,-28.646 0,-15.825 12.83,-28.651 28.656,-28.651 15.82,0 28.65,12.82 28.65,28.65 z" id="path1056" style="fill:url(#SVGID_82_)"/><radialGradient id="SVGID_83_" gradientUnits="userSpaceOnUse" cy="339.73999" cx="335.98001" r="25.348"><stop style="stop-color:#FFFFFF" offset="0" id="stop1058"/><stop style="stop-color:#7DA7D9" offset=".5281" id="stop1060"/><stop style="stop-color:#0072BC" offset=".9045" id="stop1062"/><stop style="stop-color:#32347F" offset="1" id="stop1064"/></radialGradient><path inkscape:connector-curvature="0" d="m 364.96,346 c 0,9.275 -7.521,16.792 -16.795,16.792 -9.275,0 -16.794,-7.518 -16.794,-16.792 0,-9.281 7.519,-16.799 16.794,-16.799 9.28,0 16.8,7.52 16.8,16.8 z" id="path1067" style="fill:url(#SVGID_83_)"/><radialGradient id="SVGID_84_" gradientUnits="userSpaceOnUse" cy="345.01001" cx="442.01999" r="45.245998"><stop style="stop-color:#FFFFFF" offset="0" id="stop1069"/><stop style="stop-color:#7DA7D9" offset=".2135" id="stop1071"/><stop style="stop-color:#0072BC" offset=".5393" id="stop1073"/><stop style="stop-color:#32347F" offset="1" id="stop1075"/></radialGradient><path inkscape:connector-curvature="0" d="m 440.04,352.91 c 0,12.731 10.317,23.048 23.052,23.048 12.731,0 23.047,-10.317 23.047,-23.048 0,-12.733 -10.315,-23.05 -23.047,-23.05 -12.73,0 -23.05,10.32 -23.05,23.05 z" id="path1078" style="fill:url(#SVGID_84_)"/><radialGradient id="SVGID_85_" gradientUnits="userSpaceOnUse" cy="343.69" cx="324.13" r="9.8792"><stop style="stop-color:#FFFFFF" offset="0" id="stop1080"/><stop style="stop-color:#7DA7D9" offset=".5281" id="stop1082"/><stop style="stop-color:#0072BC" offset=".9045" id="stop1084"/><stop style="stop-color:#32347F" offset="1" id="stop1086"/></radialGradient><path inkscape:connector-curvature="0" d="m 334.01,343.69 c 0,5.459 -4.426,9.88 -9.879,9.88 -5.461,0 -9.878,-4.421 -9.878,-9.88 0,-5.457 4.417,-9.88 9.878,-9.88 5.46,0 9.88,4.42 9.88,9.88 z" id="path1089" style="fill:url(#SVGID_85_)"/><linearGradient id="SVGID_86_" y2="184.36" gradientUnits="userSpaceOnUse" x2="597.71997" gradientTransform="matrix(0.9894,-0.1453,0.1453,0.9894,-118.99,238.97)" y1="184.36" x1="571.37"><stop style="stop-color:#FFFFFF" offset="0" id="stop1091"/><stop style="stop-color:#7DA7D9" offset=".2135" id="stop1093"/><stop style="stop-color:#0072BC" offset=".5393" id="stop1095"/><stop style="stop-color:#32347F" offset="1" id="stop1097"/></linearGradient><path inkscape:connector-curvature="0" d="m 473.11,338.36 c 1.059,7.197 7.746,12.174 14.944,11.118 7.197,-1.061 12.18,-7.75 11.121,-14.95 -1.056,-7.195 -7.751,-12.173 -14.953,-11.115 -7.19,1.05 -12.16,7.74 -11.11,14.94 z" id="path1100" style="fill:url(#SVGID_86_)"/><linearGradient id="SVGID_87_" y2="319.98001" gradientUnits="userSpaceOnUse" x2="492.73001" y1="319.98001" x1="476.92001"><stop style="stop-color:#FFFFFF" offset="0" id="stop1102"/><stop style="stop-color:#7DA7D9" offset=".2135" id="stop1104"/><stop style="stop-color:#0072BC" offset=".5393" id="stop1106"/><stop style="stop-color:#32347F" offset="1" id="stop1108"/></linearGradient><path inkscape:connector-curvature="0" d="m 476.92,319.98 c 0,4.365 3.539,7.902 7.902,7.902 4.368,0 7.907,-3.537 7.907,-7.902 0,-4.365 -3.539,-7.904 -7.907,-7.904 -4.36,0 -7.9,3.54 -7.9,7.9 z" id="path1111" style="fill:url(#SVGID_87_)"/><linearGradient id="SVGID_88_" y2="324.26001" gradientUnits="userSpaceOnUse" x2="501.29001" y1="324.26001" x1="488.78"><stop style="stop-color:#FFFFFF" offset="0" id="stop1113"/><stop style="stop-color:#7DA7D9" offset=".2135" id="stop1115"/><stop style="stop-color:#0072BC" offset=".5393" id="stop1117"/><stop style="stop-color:#32347F" offset="1" id="stop1119"/></linearGradient><path inkscape:connector-curvature="0" d="m 488.78,324.26 c 0,3.457 2.795,6.258 6.252,6.258 3.459,0 6.258,-2.801 6.258,-6.258 0,-3.453 -2.799,-6.255 -6.258,-6.255 -3.45,0 -6.25,2.81 -6.25,6.26 z" id="path1122" style="fill:url(#SVGID_88_)"/><radialGradient id="SVGID_89_" gradientUnits="userSpaceOnUse" cy="316.69" cx="449.92999" r="24.438999"><stop style="stop-color:#FFFFFF" offset="0" id="stop1124"/><stop style="stop-color:#7DA7D9" offset=".5281" id="stop1126"/><stop style="stop-color:#0072BC" offset=".9045" id="stop1128"/><stop style="stop-color:#32347F" offset="1" id="stop1130"/></radialGradient><path inkscape:connector-curvature="0" d="m 445.32,319.98 c 0,9.455 7.661,17.125 17.119,17.125 9.457,0 17.123,-7.67 17.123,-17.125 0,-9.458 -7.666,-17.125 -17.123,-17.125 -9.46,0 -17.12,7.66 -17.12,17.12 z" id="path1133" style="fill:url(#SVGID_89_)"/></g><g id="g1318" style="opacity:0.65"><radialGradient id="SVGID_90_" gradientUnits="userSpaceOnUse" cy="-275.03" cx="2404" gradientTransform="rotate(180,1475,32.311)" r="17.4"><stop style="stop-color:#FFFFFF" offset="0" id="stop1137"/><stop style="stop-color:#7DA7D9" offset=".2135" id="stop1139"/><stop style="stop-color:#0072BC" offset=".5393" id="stop1141"/><stop style="stop-color:#32347F" offset="1" id="stop1143"/></radialGradient><path inkscape:connector-curvature="0" d="m 549.9,333.06 c 0,-6.91 -5.603,-12.511 -12.517,-12.511 -6.91,0 -12.509,5.601 -12.509,12.511 0,6.91 5.599,12.516 12.509,12.516 6.91,0 12.52,-5.61 12.52,-12.52 z" id="path1146" style="fill:url(#SVGID_90_)"/><linearGradient id="SVGID_91_" y2="-291.82001" gradientUnits="userSpaceOnUse" x2="2523.8999" gradientTransform="rotate(180,1475,32.311)" y1="-291.82001" x1="2463.8999"><stop style="stop-color:#7DA7D9" offset=".2135" id="stop1148"/><stop style="stop-color:#0072BC" offset=".5393" id="stop1150"/><stop style="stop-color:#32347F" offset="1" id="stop1152"/></linearGradient><path inkscape:connector-curvature="0" d="m 426.08,356.45 c 0,-16.555 13.417,-29.966 29.969,-29.966 16.55,0 29.964,13.411 29.964,29.966 0,16.55 -13.414,29.966 -29.964,29.966 -16.55,-0.01 -29.97,-13.42 -29.97,-29.97 z" id="path1155" style="fill:url(#SVGID_91_)"/><radialGradient id="SVGID_92_" gradientUnits="userSpaceOnUse" cy="-246.05" cx="2469.8999" gradientTransform="rotate(180,1475,32.311)" r="23.051001"><stop style="stop-color:#FFFFFF" offset="0" id="stop1157"/><stop style="stop-color:#7DA7D9" offset=".2135" id="stop1159"/><stop style="stop-color:#0072BC" offset=".5393" id="stop1161"/><stop style="stop-color:#32347F" offset="1" id="stop1163"/></radialGradient><path inkscape:connector-curvature="0" d="m 503.14,310.67 c 0,-12.726 -10.322,-23.048 -23.053,-23.048 -12.731,0 -23.05,10.322 -23.05,23.048 0,12.734 10.319,23.053 23.05,23.053 12.731,0 23.05,-10.32 23.05,-23.05 z" id="path1166" style="fill:url(#SVGID_92_)"/><linearGradient id="SVGID_93_" y2="-272.39001" gradientUnits="userSpaceOnUse" x2="2445.5" gradientTransform="rotate(180,1475,32.311)" y1="-272.39001" x1="2419.2"><stop style="stop-color:#7DA7D9" offset=".2135" id="stop1168"/><stop style="stop-color:#0072BC" offset=".5393" id="stop1170"/><stop style="stop-color:#32347F" offset="1" id="stop1172"/></linearGradient><path inkscape:connector-curvature="0" d="m 504.46,337.02 c 0,-7.271 5.896,-13.17 13.168,-13.17 7.276,0 13.173,5.899 13.173,13.17 0,7.278 -5.896,13.173 -13.173,13.173 -7.28,0 -13.17,-5.9 -13.17,-13.17 z" id="path1175" style="fill:url(#SVGID_93_)"/><linearGradient id="SVGID_94_" y2="-252.97" gradientUnits="userSpaceOnUse" x2="2551.5" gradientTransform="rotate(180,1475,32.311)" y1="-252.97" x1="2503.5"><stop style="stop-color:#FFFFFF" offset="0" id="stop1177"/><stop style="stop-color:#7DA7D9" offset=".2135" id="stop1179"/><stop style="stop-color:#0072BC" offset=".5393" id="stop1181"/><stop style="stop-color:#32347F" offset="1" id="stop1183"/></linearGradient><path inkscape:connector-curvature="0" d="m 446.49,317.59 c 0,-13.275 -10.756,-24.04 -24.028,-24.04 -13.281,0 -24.046,10.764 -24.046,24.04 0,13.276 10.765,24.037 24.046,24.037 13.28,0 24.03,-10.77 24.03,-24.04 z" id="path1186" style="fill:url(#SVGID_94_)"/><linearGradient id="SVGID_95_" y2="-286.89001" gradientUnits="userSpaceOnUse" x2="2508.7" gradientTransform="rotate(180,1475,32.311)" y1="-286.89001" x1="2485"><stop style="stop-color:#FFFFFF" offset="0" id="stop1188"/><stop style="stop-color:#7DA7D9" offset=".2135" id="stop1190"/><stop style="stop-color:#0072BC" offset=".5393" id="stop1192"/><stop style="stop-color:#32347F" offset="1" id="stop1194"/></linearGradient><path inkscape:connector-curvature="0" d="m 464.94,351.5 c 0,-6.545 -5.311,-11.851 -11.856,-11.851 -6.545,0 -11.852,5.305 -11.852,11.851 0,6.55 5.307,11.858 11.852,11.858 6.55,0 11.86,-5.31 11.86,-11.86 z" id="path1197" style="fill:url(#SVGID_95_)"/><radialGradient id="SVGID_96_" gradientUnits="userSpaceOnUse" cy="-286.88" cx="2508.7" gradientTransform="rotate(180,1475,32.311)" r="37.188"><stop style="stop-color:#FFFFFF" offset="0" id="stop1199"/><stop style="stop-color:#7DA7D9" offset=".2135" id="stop1201"/><stop style="stop-color:#0072BC" offset=".5393" id="stop1203"/><stop style="stop-color:#32347F" offset="1" id="stop1205"/></radialGradient><path inkscape:connector-curvature="0" d="m 444.52,345.91 c 0,-12.184 -9.878,-22.064 -22.06,-22.064 -12.187,0 -22.066,9.88 -22.066,22.064 0,12.185 9.88,22.062 22.066,22.062 12.19,0 22.06,-9.88 22.06,-22.06 z" id="path1208" style="fill:url(#SVGID_96_)"/><linearGradient id="SVGID_97_" y2="-286.88" gradientUnits="userSpaceOnUse" x2="2466.6001" gradientTransform="rotate(180,1475,32.311)" y1="-286.88" x1="2436.3"><stop style="stop-color:#7DA7D9" offset=".2135" id="stop1210"/><stop style="stop-color:#0072BC" offset=".5393" id="stop1212"/><stop style="stop-color:#32347F" offset="1" id="stop1214"/></linearGradient><path inkscape:connector-curvature="0" d="m 483.38,351.51 c 0,-8.366 6.773,-15.149 15.144,-15.149 8.367,0 15.147,6.783 15.147,15.149 0,8.365 -6.78,15.148 -15.147,15.148 -8.37,0 -15.14,-6.79 -15.14,-15.15 z" id="path1217" style="fill:url(#SVGID_97_)"/><radialGradient id="SVGID_98_" gradientUnits="userSpaceOnUse" cy="-278.32001" cx="2451.3999" gradientTransform="rotate(180,1475,32.311)" r="43.417"><stop style="stop-color:#FFFFFF" offset="0" id="stop1219"/><stop style="stop-color:#7DA7D9" offset=".2135" id="stop1221"/><stop style="stop-color:#0072BC" offset=".5393" id="stop1223"/><stop style="stop-color:#32347F" offset="1" id="stop1225"/></radialGradient><path inkscape:connector-curvature="0" d="m 453.74,333.39 c 0,-14.365 11.646,-26.01 26.019,-26.01 14.361,0 26.01,11.645 26.01,26.01 0,14.367 -11.648,26.018 -26.01,26.018 -14.37,0 -26.02,-11.65 -26.02,-26.02 z" id="path1228" style="fill:url(#SVGID_98_)"/><radialGradient id="SVGID_99_" gradientUnits="userSpaceOnUse" cy="-248.03" cx="2479.8" gradientTransform="rotate(180,1475,32.311)" r="44.886002"><stop style="stop-color:#FFFFFF" offset="0" id="stop1230"/><stop style="stop-color:#7DA7D9" offset=".5281" id="stop1232"/><stop style="stop-color:#0072BC" offset=".9045" id="stop1234"/><stop style="stop-color:#32347F" offset="1" id="stop1236"/></radialGradient><path inkscape:connector-curvature="0" d="m 420.15,305.74 c 0,-15.829 12.827,-28.651 28.648,-28.651 15.826,0 28.648,12.823 28.648,28.651 0,15.817 -12.822,28.646 -28.648,28.646 -15.82,-0.01 -28.65,-12.84 -28.65,-28.65 z" id="path1239" style="fill:url(#SVGID_99_)"/><radialGradient id="SVGID_100_" gradientUnits="userSpaceOnUse" cy="-260.54001" cx="2431" gradientTransform="rotate(180,1475,32.311)" r="25.344999"><stop style="stop-color:#FFFFFF" offset="0" id="stop1241"/><stop style="stop-color:#7DA7D9" offset=".5281" id="stop1243"/><stop style="stop-color:#0072BC" offset=".9045" id="stop1245"/><stop style="stop-color:#32347F" offset="1" id="stop1247"/></radialGradient><path inkscape:connector-curvature="0" d="m 489.97,318.91 c 0,-9.278 7.519,-16.798 16.789,-16.798 9.276,0 16.797,7.521 16.797,16.798 0,9.272 -7.521,16.79 -16.797,16.79 -9.28,0 -16.79,-7.52 -16.79,-16.79 z" id="path1250" style="fill:url(#SVGID_100_)"/><radialGradient id="SVGID_101_" gradientUnits="userSpaceOnUse" cy="-255.27" cx="2537.1001" gradientTransform="rotate(180,1475,32.311)" r="45.245998"><stop style="stop-color:#FFFFFF" offset="0" id="stop1252"/><stop style="stop-color:#7DA7D9" offset=".2135" id="stop1254"/><stop style="stop-color:#0072BC" offset=".5393" id="stop1256"/><stop style="stop-color:#32347F" offset="1" id="stop1258"/></radialGradient><circle cy="311.98999" cx="391.82999" r="23.047001" id="circle1261" style="fill:url(#SVGID_101_)"/><radialGradient id="SVGID_102_" gradientUnits="userSpaceOnUse" cy="-256.59" cx="2419.2" gradientTransform="rotate(180,1475,32.311)" r="9.8783998"><stop style="stop-color:#FFFFFF" offset="0" id="stop1263"/><stop style="stop-color:#7DA7D9" offset=".5281" id="stop1265"/><stop style="stop-color:#0072BC" offset=".9045" id="stop1267"/><stop style="stop-color:#32347F" offset="1" id="stop1269"/></radialGradient><path inkscape:connector-curvature="0" d="m 520.92,321.21 c 0,-5.457 4.422,-9.875 9.875,-9.875 5.453,0 9.881,4.418 9.881,9.875 0,5.456 -4.428,9.882 -9.881,9.882 -5.453,0 -9.88,-4.44 -9.88,-9.89 z" id="path1272" style="fill:url(#SVGID_102_)"/><linearGradient id="SVGID_103_" y2="-105.14" gradientUnits="userSpaceOnUse" x2="2757.7" gradientTransform="matrix(-0.9894,0.1453,-0.1453,-0.9894,3069,-174.35)" y1="-105.14" x1="2731.3999"><stop style="stop-color:#FFFFFF" offset="0" id="stop1274"/><stop style="stop-color:#7DA7D9" offset=".2135" id="stop1276"/><stop style="stop-color:#0072BC" offset=".5393" id="stop1278"/><stop style="stop-color:#32347F" offset="1" id="stop1280"/></linearGradient><path inkscape:connector-curvature="0" d="m 381.81,326.54 c -1.056,-7.195 -7.746,-12.174 -14.946,-11.116 -7.195,1.059 -12.171,7.748 -11.112,14.948 1.059,7.2 7.746,12.173 14.943,11.115 7.2,-1.05 12.18,-7.74 11.12,-14.94 z" id="path1283" style="fill:url(#SVGID_103_)"/><linearGradient id="SVGID_104_" y2="-280.29999" gradientUnits="userSpaceOnUse" x2="2587.8" gradientTransform="rotate(180,1475,32.311)" y1="-280.29999" x1="2572"><stop style="stop-color:#FFFFFF" offset="0" id="stop1285"/><stop style="stop-color:#7DA7D9" offset=".2135" id="stop1287"/><stop style="stop-color:#0072BC" offset=".5393" id="stop1289"/><stop style="stop-color:#32347F" offset="1" id="stop1291"/></linearGradient><path inkscape:connector-curvature="0" d="m 378.01,344.92 c 0,-4.365 -3.539,-7.905 -7.907,-7.905 -4.361,0 -7.897,3.54 -7.897,7.905 0,4.363 3.536,7.902 7.897,7.902 4.37,0 7.91,-3.54 7.91,-7.9 z" id="path1294" style="fill:url(#SVGID_104_)"/><linearGradient id="SVGID_105_" y2="-276.01999" gradientUnits="userSpaceOnUse" x2="2596.3" gradientTransform="rotate(180,1475,32.311)" y1="-276.01999" x1="2583.8"><stop style="stop-color:#FFFFFF" offset="0" id="stop1296"/><stop style="stop-color:#7DA7D9" offset=".2135" id="stop1298"/><stop style="stop-color:#0072BC" offset=".5393" id="stop1300"/><stop style="stop-color:#32347F" offset="1" id="stop1302"/></linearGradient><path inkscape:connector-curvature="0" d="m 366.15,340.64 c 0,-3.456 -2.8,-6.257 -6.259,-6.257 -3.452,0 -6.252,2.802 -6.252,6.257 0,3.454 2.8,6.252 6.252,6.252 3.46,0 6.26,-2.8 6.26,-6.25 z" id="path1305" style="fill:url(#SVGID_105_)"/><radialGradient id="SVGID_106_" gradientUnits="userSpaceOnUse" cy="-283.59" cx="2545" gradientTransform="rotate(180,1475,32.311)" r="24.440001"><stop style="stop-color:#FFFFFF" offset="0" id="stop1307"/><stop style="stop-color:#7DA7D9" offset=".5281" id="stop1309"/><stop style="stop-color:#0072BC" offset=".9045" id="stop1311"/><stop style="stop-color:#32347F" offset="1" id="stop1313"/></radialGradient><path inkscape:connector-curvature="0" d="m 409.62,344.92 c 0,-9.461 -7.664,-17.125 -17.124,-17.125 -9.455,0 -17.122,7.664 -17.122,17.125 0,9.455 7.667,17.122 17.122,17.122 9.45,0 17.12,-7.66 17.12,-17.12 z" id="path1316" style="fill:url(#SVGID_106_)"/></g><g id="g1394"><g id="g1331"><radialGradient id="SVGID_107_" gradientUnits="userSpaceOnUse" cy="468.20999" cx="486.42001" gradientTransform="matrix(0.8953,0,0,1,5.7812,0)" r="25.712"><stop style="stop-color:#FFFFFF" offset=".0056" id="stop1320"/><stop style="stop-color:#BACDEA" offset=".3933" id="stop1322"/><stop style="stop-color:#3A89C9" offset="1" id="stop1324"/></radialGradient><path inkscape:connector-curvature="0" d="m 447.77,449.31 c 4.195,6.479 7.687,14.196 5.374,22.359 -2.271,8.003 -9.347,13.505 -16.801,13.505 -8.089,-0.004 -15.648,-6.489 -17.245,-15.454 -1.351,-7.565 1.991,-14.494 5.818,-20.41 4.471,-6.916 11.427,-23.904 11.427,-23.904 0.01,-0.02 6.95,16.97 11.42,23.89 z" id="path1327" style="fill:url(#SVGID_107_)"/><path inkscape:connector-curvature="0" d="m 436.01,424.91 -0.125,0.306 c -0.071,0.169 -6.99,17.028 -11.388,23.824 -3.501,5.413 -7.334,12.665 -5.891,20.761 1.61,9.04 9.232,15.857 17.731,15.857 7.734,0.004 14.997,-5.828 17.273,-13.86 2.539,-8.948 -1.887,-17.275 -5.429,-22.758 -2.581,-3.989 -6.557,-12.286 -11.19,-23.352 -0.272,-0.66 -0.328,-0.778 -0.654,-0.778 h -0.32 z m -16.43,44.72 c -0.207,-1.139 -0.298,-2.261 -0.298,-3.368 0,-6.415 3.142,-12.198 6.042,-16.69 3.802,-5.874 9.425,-19.078 11.024,-22.901 2.746,6.537 7.587,17.612 11.01,22.901 2.744,4.238 6.024,10.214 6.024,16.796 0,1.688 -0.217,3.414 -0.708,5.164 -2.163,7.616 -9.027,13.143 -16.329,13.143 h -0.003 c -8.02,0.01 -15.23,-6.46 -16.75,-15.04 z" id="path1329" style="fill:#ffffff"/></g><g id="g1344"><radialGradient id="SVGID_108_" gradientUnits="userSpaceOnUse" cy="520.42999" cx="448.92001" gradientTransform="matrix(0.8953,0,0,1,5.7812,0)" r="43.368999"><stop style="stop-color:#FFFFFF" offset=".0056" id="stop1333"/><stop style="stop-color:#BACDEA" offset=".3933" id="stop1335"/><stop style="stop-color:#3A89C9" offset="1" id="stop1337"/></radialGradient><path inkscape:connector-curvature="0" d="m 418.64,488.56 c 7.072,10.93 12.962,23.942 9.06,37.71 -3.827,13.5 -15.763,22.771 -28.337,22.771 -13.651,0 -26.399,-10.935 -29.093,-26.062 -2.273,-12.754 3.361,-24.446 9.816,-34.42 7.542,-11.668 19.276,-40.324 19.276,-40.324 0.03,0 11.73,28.66 19.27,40.32 z" id="path1340" style="fill:url(#SVGID_108_)"/><path inkscape:connector-curvature="0" d="m 399.04,447.75 -0.128,0.301 c -0.115,0.293 -11.803,28.751 -19.231,40.245 -5.872,9.075 -12.304,21.229 -9.889,34.775 2.686,15.088 15.403,26.46 29.576,26.466 12.892,0 25.006,-9.726 28.811,-23.128 4.247,-14.97 -3.177,-28.917 -9.122,-38.113 -5.896,-9.124 -14.376,-28.639 -18.906,-39.458 -0.456,-1.088 -0.456,-1.088 -0.782,-1.088 h -0.33 z m -28.28,75.15 c -0.347,-1.942 -0.505,-3.855 -0.505,-5.734 0,-10.918 5.322,-20.725 10.248,-28.337 6.673,-10.315 16.69,-34.068 18.873,-39.312 4.569,10.903 12.975,30.213 18.859,39.312 4.65,7.188 10.211,17.322 10.211,28.506 0,2.876 -0.37,5.827 -1.215,8.808 -3.681,12.989 -15.398,22.412 -27.855,22.412 h -0.006 c -13.71,-0.01 -26.01,-11.04 -28.61,-25.66 z" id="path1342" style="fill:#ffffff"/></g><g id="g1357"><radialGradient id="SVGID_109_" gradientUnits="userSpaceOnUse" cy="442.56" cx="421.41" gradientTransform="matrix(0.8953,0,0,1,5.7812,0)" r="19.493"><stop style="stop-color:#FFFFFF" offset=".0056" id="stop1346"/><stop style="stop-color:#BACDEA" offset=".3933" id="stop1348"/><stop style="stop-color:#3A89C9" offset="1" id="stop1350"/></radialGradient><path inkscape:connector-curvature="0" d="m 387.99,428.23 c 3.179,4.913 5.824,10.762 4.07,16.95 -1.72,6.07 -7.082,10.234 -12.731,10.234 -6.137,0 -11.873,-4.913 -13.077,-11.713 -1.024,-5.735 1.515,-10.987 4.409,-15.472 3.391,-5.244 8.668,-18.124 8.668,-18.124 0.01,0 5.27,12.88 8.66,18.12 z" id="path1353" style="fill:url(#SVGID_109_)"/><path inkscape:connector-curvature="0" d="m 378.99,409.62 -0.125,0.31 c -0.053,0.127 -5.291,12.895 -8.62,18.036 -2.666,4.122 -5.583,9.648 -4.481,15.831 1.229,6.905 7.059,12.115 13.561,12.115 5.909,0 11.466,-4.454 13.204,-10.59 1.939,-6.83 -1.429,-13.177 -4.129,-17.356 -1.955,-3.018 -4.967,-9.3 -8.474,-17.683 -0.21,-0.497 -0.278,-0.663 -0.602,-0.663 h -0.33 z m -12.26,34 c -0.152,-0.856 -0.221,-1.696 -0.221,-2.528 0,-4.84 2.37,-9.2 4.563,-12.59 2.846,-4.396 6.911,-13.911 8.259,-17.119 2.101,4.99 5.686,13.162 8.25,17.119 2.062,3.202 4.542,7.706 4.542,12.671 0,1.265 -0.162,2.566 -0.536,3.879 -1.622,5.728 -6.777,9.877 -12.259,9.877 -6.03,-0.01 -11.44,-4.87 -12.59,-11.31 z" id="path1355" style="fill:#ffffff"/></g><g id="g1392"><linearGradient id="SVGID_110_" y2="455.51999" gradientUnits="userSpaceOnUse" x2="453.95999" y1="455.51999" x1="431.92999"><stop style="stop-color:#FFFFFF" offset=".0056" id="stop1359"/><stop style="stop-color:#BACDEA" offset=".3933" id="stop1361"/><stop style="stop-color:#3A89C9" offset="1" id="stop1363"/></linearGradient><path inkscape:connector-curvature="0" d="m 447.85,449.54 c -4.474,-6.916 -11.411,-23.907 -11.43,-23.907 0,0 -0.191,0.467 -0.531,1.273 1.191,4.341 4.906,17.6 7.846,23.771 3.315,6.968 5.778,15.075 2.425,22.866 -2.672,6.202 -8.267,10.358 -14.236,11.185 1.454,0.437 2.966,0.671 4.497,0.671 7.453,0 14.532,-5.498 16.804,-13.503 2.32,-8.15 -1.17,-15.87 -5.37,-22.35 z" id="path1366" style="fill:url(#SVGID_110_)"/><path inkscape:connector-curvature="0" d="m 436.09,425.15 -0.719,1.732 0.048,0.166 c 1.766,6.438 5.139,18.108 7.871,23.846 2.723,5.728 5.936,14.284 2.416,22.463 -2.532,5.886 -7.839,10.062 -13.852,10.895 l -0.071,0.955 c 1.525,0.46 3.083,0.693 4.637,0.693 7.727,0 14.997,-5.829 17.271,-13.861 2.539,-8.946 -1.885,-17.271 -5.43,-22.761 -2.583,-3.989 -6.554,-12.283 -11.184,-23.352 -0.279,-0.658 -0.326,-0.776 -0.657,-0.776 h -0.34 z m 0.34,1.76 c 2.748,6.528 7.591,17.604 11.011,22.898 2.743,4.235 6.026,10.212 6.026,16.793 0,1.688 -0.217,3.415 -0.713,5.167 -2.16,7.614 -9.026,13.143 -16.324,13.143 h -0.004 c -0.728,0 -1.457,-0.053 -2.186,-0.163 5.403,-1.495 10.025,-5.548 12.372,-11.005 1.168,-2.715 1.635,-5.456 1.635,-8.122 0,-5.736 -2.146,-11.124 -4.063,-15.155 -2.777,-5.829 -6.327,-18.278 -7.768,-23.522 -0.01,0 -0.01,-0.02 0,-0.03 z" id="path1368" style="fill:#ffffff"/><linearGradient id="SVGID_111_" y2="498.88" gradientUnits="userSpaceOnUse" x2="429.03" y1="498.88" x1="393.31"><stop style="stop-color:#FFFFFF" offset=".0056" id="stop1370"/><stop style="stop-color:#BACDEA" offset=".3933" id="stop1372"/><stop style="stop-color:#3A89C9" offset="1" id="stop1374"/></linearGradient><path inkscape:connector-curvature="0" d="m 418.73,488.79 c -7.545,-11.665 -19.252,-40.318 -19.279,-40.318 0,0 -0.304,0.737 -0.841,2.011 0.396,-0.627 0.62,-0.991 0.62,-0.991 0.03,0.006 6.901,30.19 12.441,42.929 5.19,11.934 8.88,25.74 2.787,38.685 -4.293,9.108 -12.35,15.367 -21.144,17.431 2.002,0.481 4.058,0.74 6.136,0.74 12.573,0 24.507,-9.272 28.334,-22.771 3.9,-13.77 -1.99,-26.78 -9.06,-37.71 z" id="path1377" style="fill:url(#SVGID_111_)"/><path inkscape:connector-curvature="0" d="m 399.12,447.98 -0.968,2.324 c 0,0 0.854,0.437 0.868,0.444 2.725,11.505 7.869,31.925 12.195,41.875 2.808,6.449 5.896,14.961 5.896,23.915 0,4.743 -0.867,9.612 -3.108,14.359 -4.066,8.647 -11.847,15.062 -20.804,17.163 l -0.006,0.955 c 2.076,0.498 4.18,0.752 6.252,0.752 12.891,0.006 25.007,-9.723 28.809,-23.125 4.244,-14.968 -3.17,-28.92 -9.118,-38.112 -5.897,-9.119 -14.374,-28.637 -18.909,-39.462 -0.453,-1.089 -0.453,-1.089 -0.781,-1.089 h -0.33 z m 15.78,83.34 c 2.31,-4.896 3.206,-9.904 3.206,-14.779 0,-9.122 -3.137,-17.763 -5.989,-24.308 -4.16,-9.576 -9.098,-28.98 -11.874,-40.617 4.696,11.129 12.514,28.851 18.077,37.451 4.645,7.184 10.209,17.315 10.209,28.502 0,2.873 -0.369,5.823 -1.21,8.808 -3.683,12.987 -15.403,22.415 -27.866,22.415 -1.337,0 -2.684,-0.151 -4.027,-0.369 8.38,-2.59 15.58,-8.83 19.47,-17.09 z" id="path1379" style="fill:#ffffff"/><linearGradient id="SVGID_112_" y2="432.98999" gradientUnits="userSpaceOnUse" x2="392.70001" y1="432.98999" x1="375.82001"><stop style="stop-color:#FFFFFF" offset=".0056" id="stop1381"/><stop style="stop-color:#BACDEA" offset=".3933" id="stop1383"/><stop style="stop-color:#3A89C9" offset="1" id="stop1385"/></linearGradient><path inkscape:connector-curvature="0" d="m 388.07,428.46 c -3.391,-5.24 -8.648,-18.119 -8.662,-18.119 0,0 -0.462,1.111 -1.185,2.805 0.646,-0.849 1.029,-1.368 1.029,-1.368 0.014,0.006 1.931,13.781 3.918,19.702 1.865,5.546 2.986,11.867 -0.246,17.429 -1.686,2.906 -4.248,5.028 -7.106,6.169 1.158,0.365 2.363,0.569 3.59,0.569 5.65,0 11.01,-4.166 12.729,-10.233 1.77,-6.19 -0.88,-12.03 -4.06,-16.95 z" id="path1388" style="fill:url(#SVGID_112_)"/><path inkscape:connector-curvature="0" d="m 379.08,409.85 -1.303,3.104 0.845,0.49 c 0,0 0.179,-0.249 0.325,-0.434 0.805,5.349 2.26,14.156 3.761,18.627 0.868,2.571 1.769,5.852 1.769,9.264 0,2.592 -0.518,5.261 -1.973,7.761 -1.566,2.699 -4.004,4.818 -6.857,5.96 l -1.276,0.511 1.31,0.412 c 1.237,0.395 2.497,0.597 3.732,0.597 5.91,0 11.466,-4.454 13.207,-10.596 1.937,-6.83 -1.434,-13.176 -4.131,-17.348 -1.956,-3.026 -4.968,-9.306 -8.474,-17.691 -0.21,-0.491 -0.278,-0.657 -0.603,-0.657 h -0.33 z m 4.28,39.31 c 1.55,-2.677 2.104,-5.509 2.104,-8.252 0,-3.54 -0.934,-6.922 -1.823,-9.585 -1.483,-4.418 -2.937,-13.229 -3.734,-18.542 2.141,5.021 5.396,12.298 7.755,15.953 2.072,3.197 4.547,7.709 4.547,12.668 0,1.271 -0.159,2.564 -0.532,3.885 -1.625,5.719 -6.78,9.875 -12.262,9.875 -0.719,0 -1.439,-0.1 -2.169,-0.246 2.51,-1.29 4.66,-3.27 6.11,-5.75 z" id="path1390" style="fill:#ffffff"/></g></g><g id="g1470"><g id="g1407"><radialGradient id="SVGID_113_" gradientUnits="userSpaceOnUse" cy="413.53" cx="3430.5" gradientTransform="matrix(-0.9394,0,0,1,3683.2,0)" r="13.55"><stop style="stop-color:#FFFFFF" offset=".0056" id="stop1396"/><stop style="stop-color:#BACDEA" offset=".3933" id="stop1398"/><stop style="stop-color:#3A89C9" offset="1" id="stop1400"/></radialGradient><path inkscape:connector-curvature="0" d="m 457.02,403.57 c -2.314,3.415 -4.248,7.484 -2.966,11.781 1.253,4.224 5.167,7.116 9.289,7.116 4.472,0 8.652,-3.414 9.536,-8.14 0.747,-3.989 -1.104,-7.642 -3.216,-10.758 -2.475,-3.645 -6.32,-12.599 -6.32,-12.599 -0.01,0.01 -3.85,8.96 -6.32,12.6 z" id="path1403" style="fill:url(#SVGID_113_)"/><path inkscape:connector-curvature="0" d="m 463.52,390.71 0.074,0.16 c 0.036,0.091 3.869,8.977 6.297,12.558 1.934,2.851 4.057,6.672 3.255,10.943 -0.891,4.764 -5.106,8.357 -9.802,8.357 -4.274,0 -8.295,-3.072 -9.552,-7.305 -1.406,-4.719 1.042,-9.104 3.001,-11.996 1.428,-2.106 3.624,-6.477 6.188,-12.306 0.151,-0.349 0.177,-0.412 0.362,-0.412 h 0.18 z m 9.09,23.57 c 0.113,-0.599 0.165,-1.188 0.165,-1.773 0,-3.382 -1.738,-6.43 -3.347,-8.797 -2.104,-3.097 -5.207,-10.054 -6.091,-12.071 -1.52,3.448 -4.197,9.277 -6.093,12.071 -1.514,2.232 -3.329,5.382 -3.329,8.85 0,0.892 0.122,1.802 0.395,2.725 1.194,4.017 4.99,6.929 9.027,6.929 h 0.003 c 4.43,0 8.41,-3.41 9.26,-7.93 z" id="path1405" style="fill:#ffffff"/></g><g id="g1420"><radialGradient id="SVGID_114_" gradientUnits="userSpaceOnUse" cy="441.06" cx="3410.7" gradientTransform="matrix(-0.9394,0,0,1,3683.2,0)" r="22.857"><stop style="stop-color:#FFFFFF" offset=".0056" id="stop1409"/><stop style="stop-color:#BACDEA" offset=".3933" id="stop1411"/><stop style="stop-color:#3A89C9" offset="1" id="stop1413"/></radialGradient><path inkscape:connector-curvature="0" d="m 473.12,424.26 c -3.906,5.758 -7.166,12.621 -5.009,19.873 2.116,7.117 8.717,12.008 15.674,12.002 7.548,0 14.597,-5.761 16.086,-13.734 1.253,-6.722 -1.859,-12.883 -5.43,-18.141 -4.167,-6.15 -10.656,-21.255 -10.656,-21.255 -0.01,0.01 -6.48,15.11 -10.66,21.26 z" id="path1416" style="fill:url(#SVGID_114_)"/><path inkscape:connector-curvature="0" d="m 483.96,402.75 0.071,0.163 c 0.064,0.151 6.528,15.148 10.637,21.208 3.247,4.782 6.803,11.189 5.468,18.329 -1.489,7.948 -8.518,13.943 -16.354,13.943 -7.13,0 -13.833,-5.12 -15.934,-12.187 -2.345,-7.888 1.755,-15.24 5.039,-20.086 3.267,-4.809 7.949,-15.094 10.455,-20.794 0.255,-0.577 0.255,-0.577 0.439,-0.577 h 0.16 z m 15.65,39.61 c 0.188,-1.025 0.278,-2.033 0.278,-3.025 0,-5.75 -2.944,-10.919 -5.669,-14.934 -3.688,-5.435 -9.229,-17.956 -10.438,-20.719 -2.524,5.747 -7.172,15.923 -10.43,20.719 -2.567,3.788 -5.65,9.129 -5.65,15.024 0,1.518 0.208,3.07 0.68,4.642 2.034,6.844 8.513,11.812 15.4,11.812 h 0.009 c 7.57,0 14.37,-5.82 15.82,-13.52 z" id="path1418" style="fill:#ffffff"/></g><g id="g1433"><radialGradient id="SVGID_115_" gradientUnits="userSpaceOnUse" cy="400.01999" cx="3396.2" gradientTransform="matrix(-0.9394,0,0,1,3683.2,0)" r="10.274"><stop style="stop-color:#FFFFFF" offset=".0056" id="stop1422"/><stop style="stop-color:#BACDEA" offset=".3933" id="stop1424"/><stop style="stop-color:#3A89C9" offset="1" id="stop1426"/></radialGradient><path inkscape:connector-curvature="0" d="m 490.07,392.46 c -1.755,2.589 -3.225,5.672 -2.251,8.935 0.952,3.196 3.918,5.394 7.046,5.394 3.39,0 6.558,-2.592 7.229,-6.173 0.563,-3.024 -0.838,-5.791 -2.44,-8.155 -1.875,-2.761 -4.789,-9.549 -4.789,-9.549 -0.01,0.01 -2.93,6.79 -4.8,9.55 z" id="path1429" style="fill:url(#SVGID_115_)"/><path inkscape:connector-curvature="0" d="m 495.05,382.65 0.071,0.163 c 0.025,0.066 2.927,6.796 4.766,9.507 1.477,2.169 3.089,5.084 2.479,8.342 -0.683,3.641 -3.904,6.385 -7.495,6.385 -3.272,0 -6.347,-2.346 -7.306,-5.578 -1.073,-3.603 0.792,-6.949 2.281,-9.148 1.087,-1.594 2.744,-4.904 4.687,-9.322 0.115,-0.256 0.149,-0.348 0.338,-0.348 h 0.17 z m 6.78,17.92 c 0.085,-0.448 0.123,-0.893 0.123,-1.332 0,-2.547 -1.314,-4.849 -2.522,-6.631 -1.577,-2.32 -3.823,-7.333 -4.569,-9.026 -1.159,2.63 -3.146,6.938 -4.562,9.026 -1.141,1.686 -2.517,4.062 -2.517,6.675 0,0.666 0.091,1.354 0.299,2.044 0.9,3.018 3.755,5.206 6.786,5.206 3.33,0 6.33,-2.56 6.96,-5.96 z" id="path1431" style="fill:#ffffff"/></g><g id="g1468"><linearGradient id="SVGID_116_" y2="406.85001" gradientUnits="userSpaceOnUse" x2="3084.3999" gradientTransform="matrix(-1.0492,0,0,1,3689.7,0)" y1="406.85001" x1="3072.8"><stop style="stop-color:#FFFFFF" offset=".0056" id="stop1435"/><stop style="stop-color:#BACDEA" offset=".3933" id="stop1437"/><stop style="stop-color:#3A89C9" offset="1" id="stop1439"/></linearGradient><path inkscape:connector-curvature="0" d="m 456.97,403.69 c 2.475,-3.641 6.311,-12.596 6.318,-12.596 0,0 0.108,0.246 0.294,0.669 -0.658,2.291 -2.714,9.275 -4.339,12.527 -1.829,3.675 -3.193,7.946 -1.337,12.055 1.476,3.269 4.57,5.457 7.868,5.893 -0.804,0.229 -1.636,0.354 -2.486,0.354 -4.119,0.003 -8.031,-2.896 -9.286,-7.115 -1.27,-4.28 0.66,-8.35 2.98,-11.77 z" id="path1442" style="fill:url(#SVGID_116_)"/><path inkscape:connector-curvature="0" d="m 463.47,390.84 0.399,0.915 -0.024,0.089 c -0.978,3.39 -2.846,9.542 -4.354,12.568 -1.509,3.022 -3.285,7.529 -1.334,11.836 1.398,3.104 4.335,5.306 7.661,5.744 l 0.039,0.503 c -0.849,0.243 -1.706,0.368 -2.57,0.368 -4.271,0 -8.286,-3.076 -9.549,-7.306 -1.402,-4.719 1.042,-9.109 3.004,-11.996 1.426,-2.105 3.627,-6.474 6.188,-12.312 0.149,-0.345 0.178,-0.409 0.356,-0.409 h 0.17 z m -0.18,0.93 c -1.52,3.443 -4.196,9.281 -6.089,12.072 -1.518,2.231 -3.332,5.382 -3.332,8.852 0,0.887 0.121,1.793 0.393,2.719 1.198,4.017 4.992,6.927 9.028,6.927 0.403,0 0.812,-0.028 1.21,-0.086 -2.984,-0.787 -5.542,-2.923 -6.844,-5.802 -0.64,-1.426 -0.9,-2.876 -0.9,-4.274 0,-3.025 1.188,-5.868 2.246,-7.99 1.536,-3.072 3.498,-9.631 4.297,-12.397 l -0.02,-0.02 z" id="path1444" style="fill:#ffffff"/><linearGradient id="SVGID_117_" y2="429.70001" gradientUnits="userSpaceOnUse" x2="3071.2" gradientTransform="matrix(-1.0492,0,0,1,3689.7,0)" y1="429.70001" x1="3052.3999"><stop style="stop-color:#FFFFFF" offset=".0056" id="stop1446"/><stop style="stop-color:#BACDEA" offset=".3933" id="stop1448"/><stop style="stop-color:#3A89C9" offset="1" id="stop1450"/></linearGradient><path inkscape:connector-curvature="0" d="m 473.08,424.38 c 4.168,-6.147 10.643,-21.252 10.662,-21.252 0,0 0.165,0.387 0.46,1.067 -0.217,-0.338 -0.34,-0.526 -0.34,-0.526 -0.016,0.004 -3.817,15.912 -6.88,22.626 -2.872,6.285 -4.912,13.562 -1.538,20.385 2.37,4.802 6.827,8.104 11.688,9.188 -1.109,0.255 -2.243,0.391 -3.39,0.391 -6.955,0 -13.559,-4.888 -15.672,-12.003 -2.16,-7.26 1.1,-14.12 5.01,-19.88 z" id="path1453" style="fill:url(#SVGID_117_)"/><path inkscape:connector-curvature="0" d="m 483.92,402.87 0.533,1.221 c 0,0 -0.469,0.229 -0.476,0.235 -1.515,6.064 -4.354,16.828 -6.747,22.07 -1.55,3.398 -3.26,7.888 -3.26,12.604 0,2.498 0.479,5.064 1.713,7.571 2.252,4.559 6.556,7.935 11.513,9.048 v 0.5 c -1.149,0.26 -2.309,0.396 -3.455,0.396 -7.132,0.002 -13.832,-5.122 -15.937,-12.188 -2.344,-7.889 1.756,-15.243 5.045,-20.086 3.265,-4.808 7.951,-15.094 10.454,-20.8 0.254,-0.571 0.254,-0.571 0.438,-0.571 h 0.21 z m -8.72,43.92 c -1.279,-2.578 -1.774,-5.225 -1.774,-7.789 0,-4.807 1.735,-9.357 3.306,-12.811 2.309,-5.048 5.039,-15.273 6.572,-21.407 -2.597,5.865 -6.918,15.201 -9.995,19.737 -2.573,3.789 -5.646,9.129 -5.646,15.022 0,1.517 0.199,3.069 0.669,4.642 2.036,6.844 8.52,11.812 15.412,11.812 0.736,0 1.48,-0.072 2.226,-0.191 -4.66,-1.36 -8.63,-4.65 -10.78,-9.01 z" id="path1455" style="fill:#ffffff"/><linearGradient id="SVGID_118_" y2="394.98001" gradientUnits="userSpaceOnUse" x2="3052.1001" gradientTransform="matrix(-1.0492,0,0,1,3689.7,0)" y1="394.98001" x1="3043.2"><stop style="stop-color:#FFFFFF" offset=".0056" id="stop1457"/><stop style="stop-color:#BACDEA" offset=".3933" id="stop1459"/><stop style="stop-color:#3A89C9" offset="1" id="stop1461"/></linearGradient><path inkscape:connector-curvature="0" d="m 490.03,392.59 c 1.875,-2.762 4.787,-9.551 4.79,-9.551 0,0 0.255,0.586 0.657,1.476 -0.359,-0.448 -0.568,-0.719 -0.568,-0.719 -0.012,0 -1.073,7.266 -2.172,10.386 -1.027,2.92 -1.65,6.252 0.14,9.181 0.933,1.536 2.35,2.649 3.927,3.252 -0.641,0.192 -1.304,0.304 -1.983,0.304 -3.122,0 -6.089,-2.196 -7.037,-5.396 -0.98,-3.26 0.48,-6.35 2.24,-8.93 z" id="path1464" style="fill:url(#SVGID_118_)"/><path inkscape:connector-curvature="0" d="m 495,382.78 0.722,1.635 -0.47,0.257 c 0,0 -0.102,-0.13 -0.178,-0.229 -0.444,2.82 -1.247,7.462 -2.082,9.819 -0.476,1.356 -0.981,3.083 -0.981,4.879 0,1.367 0.291,2.773 1.095,4.095 0.867,1.423 2.214,2.539 3.794,3.141 l 0.709,0.269 -0.729,0.216 c -0.683,0.21 -1.379,0.312 -2.064,0.312 -3.266,0.005 -6.338,-2.343 -7.303,-5.576 -1.071,-3.603 0.791,-6.948 2.286,-9.15 1.082,-1.594 2.746,-4.901 4.688,-9.319 0.11,-0.263 0.151,-0.348 0.328,-0.348 h 0.18 z m -2.36,20.72 c -0.857,-1.412 -1.172,-2.906 -1.172,-4.352 0,-1.871 0.518,-3.65 1.014,-5.051 0.821,-2.332 1.622,-6.976 2.062,-9.772 -1.181,2.644 -2.981,6.482 -4.289,8.407 -1.141,1.683 -2.514,4.062 -2.514,6.678 0,0.667 0.092,1.349 0.296,2.045 0.898,3.015 3.749,5.205 6.78,5.205 0.397,0 0.799,-0.053 1.199,-0.13 -1.39,-0.69 -2.58,-1.73 -3.38,-3.03 z" id="path1466" style="fill:#ffffff"/></g></g></g><metadata id="metadata1476"><rdf:RDF><cc:Work><dc:format>image/svg+xml</dc:format><dc:type rdf:resource="http://purl.org/dc/dcmitype/StillImage"/><cc:license rdf:resource="http://creativecommons.org/publicdomain/zero/1.0/"/><dc:publisher><cc:Agent rdf:about="http://openclipart.org/"><dc:title>Openclipart</dc:title></cc:Agent></dc:publisher><dc:title/></cc:Work><cc:License rdf:about="http://creativecommons.org/publicdomain/zero/1.0/"><cc:permits rdf:resource="http://creativecommons.org/ns#Reproduction"/><cc:permits rdf:resource="http://creativecommons.org/ns#Distribution"/><cc:permits rdf:resource="http://creativecommons.org/ns#DerivativeWorks"/></cc:License></rdf:RDF></metadata></svg>