<?xml version="1.0" encoding="UTF-8" standalone="no"?>
<svg
   xmlns:dc="http://purl.org/dc/elements/1.1/"
   xmlns:cc="http://creativecommons.org/ns#"
   xmlns:rdf="http://www.w3.org/1999/02/22-rdf-syntax-ns#"
   xmlns:svg="http://www.w3.org/2000/svg"
   xmlns="http://www.w3.org/2000/svg"
   xmlns:sodipodi="http://sodipodi.sourceforge.net/DTD/sodipodi-0.dtd"
   xmlns:inkscape="http://www.inkscape.org/namespaces/inkscape"
   width="150"
   height="150"
   version="1.1"
   id="svg21"
   sodipodi:docname="joe.svg"
   inkscape:version="1.0.1 (3bc2e813f5, 2020-09-07)">
  <metadata
     id="metadata25">
    <rdf:RDF>
      <cc:Work
         rdf:about="">
        <dc:format>image/svg+xml</dc:format>
        <dc:type
           rdf:resource="http://purl.org/dc/dcmitype/StillImage" />
        <dc:title></dc:title>
      </cc:Work>
    </rdf:RDF>
  </metadata>
  <sodipodi:namedview
     pagecolor="#ffffff"
     bordercolor="#666666"
     borderopacity="1"
     objecttolerance="10"
     gridtolerance="10"
     guidetolerance="10"
     inkscape:pageopacity="0"
     inkscape:pageshadow="2"
     inkscape:window-width="1392"
     inkscape:window-height="875"
     id="namedview23"
     showgrid="false"
     inkscape:zoom="3.9560599"
     inkscape:cx="75"
     inkscape:cy="85.666422"
     inkscape:window-x="0"
     inkscape:window-y="0"
     inkscape:window-maximized="0"
     inkscape:current-layer="svg21" />
  <defs
     id="defs6">
    <style
       type="text/css"
       id="style2">.b{fill:#cedc00}</style>
    <clipPath
       id="b">
      <path
         id="svg_1"
         d="M 0,0 H 150 V 50 H 0 Z" />
    </clipPath>
  </defs>
  <g
     id="g11">
    <title
       id="title8">background</title>
    <rect
       fill="none"
       id="canvas_background"
       height="402"
       width="582"
       y="-1"
       x="-1" />
  </g>
  <g
     id="g19"
     transform="translate(0.0025,50)">
    <title
       id="title13">Layer 1</title>
    <g
       clip-path="url(#b)"
       id="a">
      <path
         id="svg_2"
         class="b"
         d="M 50.464,6.206 V 1.034 H 37.935 V 24.827 A 13.012,13.012 0 0 1 25.058,37.934 12.806,12.806 0 0 1 12.181,26.551 v -0.69 H 0 v 0.69 A 22.833,22.833 0 0 0 8,42.758 25.635,25.635 0 0 0 25.053,49.31 24.216,24.216 0 0 0 46.636,36.896 29.32,29.32 0 0 1 44.2,24.482 27.205,27.205 0 0 1 50.464,6.206" />
      <path
         id="svg_3"
         class="b"
         d="m 137.819,25.862 v 0.69 a 12.806,12.806 0 0 1 -12.877,11.379 17.617,17.617 0 0 1 -4.176,-0.69 l 25.405,-25.172 -0.348,-0.69 A 24.552,24.552 0 0 0 124.942,0 a 25.486,25.486 0 0 0 -21.578,12.069 31.111,31.111 0 0 1 2.784,12.759 32.382,32.382 0 0 1 -2.784,12.758 25.045,25.045 0 0 0 21.578,12.069 25.635,25.635 0 0 0 17.053,-6.555 25.859,25.859 0 0 0 8,-16.207 v -0.69 h -12.176 z m -26.1,-0.349 c 0,-7.241 5.916,-12.759 13.225,-12.759 a 17.784,17.784 0 0 1 4.52,0.346 l -16.7,16.555 a 10.538,10.538 0 0 1 -1.044,-4.483" />
      <path
         id="svg_4"
         class="b"
         d="M 75.174,0.345 A 24.829,24.829 0 1 0 75.174,50 24.84,24.84 0 0 0 100.232,25.173 25.29,25.29 0 0 0 75.174,0.345 m 0,37.586 A 13.093,13.093 0 0 1 61.949,25.173 c 0,-7.241 5.916,-12.759 13.225,-12.759 A 13.093,13.093 0 0 1 88.399,25.173 13.573,13.573 0 0 1 75.174,37.931" />
    </g>
  </g>
</svg>
