<svg width="144" height="160" viewBox="0 0 144 160" fill="none" xmlns="http://www.w3.org/2000/svg">
<path d="M64.2127 81.3271C58.7936 75.8937 58.7936 67.084 64.2127 61.6507L87.9159 37.8854C93.335 32.4521 102.122 32.4521 107.541 37.8854C112.96 43.3187 112.96 52.1284 107.541 57.5617L83.8376 81.3271C78.4185 86.7604 69.6325 86.7604 64.2127 81.3271Z" fill="#1042DF"/>
<path d="M107.541 105.099C102.122 110.532 93.3357 110.532 87.9166 105.099L64.2134 81.3332C58.7943 75.8999 58.7943 67.0902 64.2134 61.6569C69.6325 56.2236 78.4192 56.2236 83.8382 61.6569L107.541 85.4223C112.961 90.8556 112.961 99.6646 107.541 105.099Z" fill="white"/>
<path d="M97.7287 109.173C105.393 109.173 111.605 102.944 111.605 95.2601C111.605 87.5761 105.393 81.347 97.7287 81.347C90.0648 81.347 83.8519 87.5761 83.8519 95.2601C83.8519 102.944 90.0648 109.173 97.7287 109.173Z" fill="#1042DF"/>
<path d="M46.2713 95.0457C38.6074 95.0457 32.3946 88.8166 32.3946 81.1326V13.9131C32.3946 6.22913 38.6074 0 46.2713 0C53.9352 0 60.1481 6.22913 60.1481 13.9131V81.1326C60.1487 88.8166 53.9352 95.0457 46.2713 95.0457Z" fill="#1042DF"/>
<path d="M144 116.705H0V160H144V116.705Z" fill="#1042DF"/>
<path d="M17.7968 139.652L14.959 142.652V149.177H10.7957V127.53H14.9597V137.24L24.12 127.53H29.271L20.7887 136.498L29.4561 149.177H24.305L17.7968 139.652Z" fill="white"/>
<path d="M48.608 145.466V149.177H31.9525V127.529H48.3002V131.24H36.1165V136.22H46.4488V139.931H36.1165V145.466H48.608V145.466Z" fill="white"/>
<path d="M57.8285 131.24H50.3641V127.529H69.4872V131.24H61.9926V149.176H57.8285V131.24Z" fill="white"/>
<path d="M90.6131 127.529V149.176H85.216L76.7337 133.25V149.176H72.5696V127.529H77.9668L86.4491 143.393V127.529H90.6131Z" fill="white"/>
<path d="M112.325 145.466V149.177H95.6696V127.529H112.017V131.24H99.8337V136.22H110.166V139.931H99.8337V145.466H112.325V145.466Z" fill="white"/>
<path d="M121.546 131.24H114.081V127.529H133.204V131.24H125.71V149.176H121.546V131.24Z" fill="white"/>
</svg>