<?xml version="1.0" encoding="UTF-8" standalone="no"?>
<svg
   xmlns:dc="http://purl.org/dc/elements/1.1/"
   xmlns:cc="http://creativecommons.org/ns#"
   xmlns:rdf="http://www.w3.org/1999/02/22-rdf-syntax-ns#"
   xmlns:svg="http://www.w3.org/2000/svg"
   xmlns="http://www.w3.org/2000/svg"
   xmlns:sodipodi="http://sodipodi.sourceforge.net/DTD/sodipodi-0.dtd"
   xmlns:inkscape="http://www.inkscape.org/namespaces/inkscape"
   width="122"
   height="128"
   viewBox="0 0 122 128"
   fill="none"
   version="1.1"
   id="svg6"
   sodipodi:docname="klara.svg"
   inkscape:version="1.0.1 (3bc2e813f5, 2020-09-07)">
  <metadata
     id="metadata12">
    <rdf:RDF>
      <cc:Work
         rdf:about="">
        <dc:format>image/svg+xml</dc:format>
        <dc:type
           rdf:resource="http://purl.org/dc/dcmitype/StillImage" />
        <dc:title></dc:title>
      </cc:Work>
    </rdf:RDF>
  </metadata>
  <defs
     id="defs10" />
  <sodipodi:namedview
     pagecolor="#ffffff"
     bordercolor="#666666"
     borderopacity="1"
     objecttolerance="10"
     gridtolerance="10"
     guidetolerance="10"
     inkscape:pageopacity="0"
     inkscape:pageshadow="2"
     inkscape:window-width="1457"
     inkscape:window-height="928"
     id="namedview8"
     showgrid="false"
     inkscape:zoom="4.7986577"
     inkscape:cx="61"
     inkscape:cy="74.5"
     inkscape:window-x="0"
     inkscape:window-y="0"
     inkscape:window-maximized="0"
     inkscape:current-layer="svg6" />
  <path
     d="m 0.642,140.33 h 3.275 c 1.605,0 2.504,1.027 2.504,2.183 0,0.771 -0.45,1.349 -1.22,1.542 1.156,0.257 1.734,1.027 1.734,2.119 0,1.542 -1.092,2.633 -2.89,2.633 H 0.642 Z m 3.082,3.147 c 0.578,0 0.963,-0.321 0.963,-0.771 0,-0.514 -0.32,-0.771 -0.834,-0.771 H 2.376 v 1.606 h 1.348 z m 0.321,3.853 c 0.707,0 1.156,-0.449 1.156,-1.156 0,-0.706 -0.45,-1.156 -1.284,-1.156 H 2.376 v 2.376 h 1.67 v -0.064 z m 4.238,-7 h 1.734 v 7 h 3.853 v 1.542 H 8.283 Z m 7.063,0 h 1.734 v 8.542 h -1.734 z m 2.89,7.064 1.412,-0.835 c 0.257,0.514 0.514,0.9 1.156,0.9 0.578,0 0.963,-0.257 0.963,-1.092 v -5.973 h 1.734 v 5.973 c 0,1.798 -1.091,2.633 -2.633,2.633 -1.412,0 -2.247,-0.706 -2.632,-1.606 z m 6.934,-7.064 h 5.523 v 1.541 h -3.725 v 2.826 h 3.404 v 1.541 h -3.404 v 2.569 h -1.733 v -8.477 h -0.064 z m 9.118,0 h 1.863 l 1.476,3.275 c 0.321,0.707 0.642,1.927 0.642,1.927 0,0 0.322,-1.22 0.643,-1.927 l 1.412,-3.275 h 1.734 l -3.724,8.606 h -0.193 z m 8.926,0 h 5.65 v 1.541 h -3.917 v 2.698 h 3.403 v 1.477 h -3.403 v 1.22 h 4.046 v 1.541 H 43.15 v -8.477 z m 13.741,8.542 H 54.9 l -1.413,-2.184 c -0.192,0 -0.32,0.064 -0.513,0.064 h -0.578 v 2.12 h -1.734 v -8.542 h 2.376 c 2.376,0 3.788,1.156 3.788,3.211 0,1.349 -0.578,2.184 -1.67,2.633 z m -3.981,-3.661 c 1.412,0 2.054,-0.45 2.054,-1.67 0,-1.22 -0.642,-1.67 -2.054,-1.67 h -0.578 v 3.34 z m 4.559,-4.881 h 1.862 l 1.22,3.404 c 0.192,0.578 0.45,1.541 0.45,1.541 0,0 0.256,-0.963 0.513,-1.541 l 1.67,-3.468 h 0.192 l 1.67,3.468 c 0.256,0.578 0.513,1.541 0.513,1.541 0,0 0.257,-0.963 0.45,-1.541 l 1.22,-3.404 h 1.733 l -3.082,8.606 h -0.192 l -1.927,-4.111 c -0.257,-0.449 -0.45,-1.284 -0.45,-1.284 0,0 -0.256,0.771 -0.513,1.284 l -1.99,4.111 h -0.193 z m 11.75,4.303 c 0,-2.505 1.927,-4.367 4.43,-4.367 2.505,0 4.431,1.862 4.431,4.367 0,2.504 -1.926,4.367 -4.43,4.367 -2.504,0 -4.43,-1.863 -4.43,-4.367 z m 7.063,0 c 0,-1.606 -1.027,-2.826 -2.632,-2.826 -1.606,0 -2.633,1.22 -2.633,2.826 0,1.605 1.027,2.826 2.633,2.826 1.605,0 2.632,-1.221 2.632,-2.826 z m 5.844,0.321 c -0.45,-0.385 -1.028,-1.156 -1.028,-1.156 0,0 0.128,0.963 0.128,1.541 v 3.597 h -1.669 v -8.606 h 0.193 l 4.302,4.046 c 0.385,0.385 1.027,1.156 1.027,1.156 0,0 -0.128,-0.963 -0.128,-1.541 v -3.597 h 1.67 V 149 h -0.193 l -4.303,-4.046 z m 6.228,-4.624 h 2.632 c 2.633,0 4.495,1.734 4.495,4.239 0,2.504 -1.862,4.238 -4.495,4.238 h -2.632 z m 2.568,7 c 1.862,0 2.761,-1.156 2.761,-2.697 0,-1.606 -0.834,-2.698 -2.76,-2.698 h -0.771 v 5.459 h 0.77 z m 6.036,-7 h 5.651 v 1.541 h -3.917 v 2.698 h 3.403 v 1.477 h -3.403 v 1.22 h 4.045 v 1.541 h -5.843 v -8.477 z m 13.741,8.542 h -2.055 l -1.412,-2.184 c -0.193,0 -0.321,0.064 -0.514,0.064 h -0.578 v 2.12 h -1.733 v -8.542 h 2.375 c 2.376,0 3.789,1.156 3.789,3.211 0,1.349 -0.578,2.184 -1.67,2.633 z m -3.981,-3.661 c 1.413,0 2.055,-0.45 2.055,-1.67 0,-1.22 -0.642,-1.67 -2.055,-1.67 h -0.578 v 3.34 z m 5.394,-4.881 h 2.632 c 2.633,0 4.495,1.734 4.495,4.239 0,2.504 -1.862,4.238 -4.495,4.238 h -2.632 z m 2.504,7 c 1.862,0 2.761,-1.156 2.761,-2.697 0,-1.606 -0.835,-2.698 -2.761,-2.698 h -0.771 v 5.459 h 0.771 z m 5.201,0.578 c 0,-0.642 0.514,-1.027 1.092,-1.027 0.578,0 1.027,0.449 1.027,1.027 0,0.642 -0.514,1.092 -1.027,1.092 -0.578,-0.064 -1.092,-0.45 -1.092,-1.092 z m -7.315,-74.566 -6.418,-6.4 -2.952,-2.942 9.37,-9.344 c 6.225,-6.272 9.37,-14.464 9.37,-22.656 0,-8.191 -3.145,-16.383 -9.37,-22.655 A 32.276,32.276 0 0 0 89.847,0 32.277,32.277 0 0 0 67.13,9.344 l -6.803,6.848 V 0 H 0 v 96.318 c 0,8.128 3.08,16.191 9.306,22.399 7.123,7.104 16.814,10.112 26.12,9.088 1.604,-0.192 3.144,-0.448 4.684,-0.896 5.199,-1.408 10.076,-4.096 14.184,-8.192 a 31.904,31.904 0 0 0 5.519,-7.424 l 0.577,0.576 0.385,0.384 6.418,6.4 c 6.29,6.272 14.504,9.344 22.719,9.344 8.214,0 16.429,-3.136 22.718,-9.344 6.29,-6.272 9.37,-14.463 9.37,-22.655 -0.064,-8.192 -3.209,-16.384 -9.434,-22.656 z"
     fill="#000000"
     id="path2" />
  <path
     fill-rule="evenodd"
     clip-rule="evenodd"
     d="m 49.465,93.523 7.83,-18.171 h 0.128 l 7.83,18.17 h -2.992 l -1.018,-2.477 h -7.958 l -1.019,2.478 h -2.8 z m 7.958,-12.072 -2.992,7.053 h 5.92 z M 35.14,75.733 h -3.055 l -7.13,9.911 v -9.91 h -2.802 v 17.725 h 2.801 v -6.29 l 6.685,6.29 h 3.947 l -7.894,-7.37 z m 6.748,0 h -2.8 V 93.46 h 7.448 l 1.082,-2.478 h -5.73 z m 38.77,6.798 c 0,-4.13 -2.673,-6.798 -7.575,-6.798 H 68.5 v 17.79 h 2.801 v -4.257 h 1.783 c 0.445,0 0.89,0 1.273,-0.064 l 3.056,4.32 h 3.31 l -3.629,-5.019 c 2.356,-1.143 3.565,-3.24 3.565,-5.972 z m -7.703,4.32 H 71.3 v -8.64 h 1.655 c 3.438,0 4.839,1.652 4.839,4.32 0,2.669 -1.4,4.32 -4.839,4.32 z m 17.89,-11.5 h 0.127 l 7.83,18.172 H 95.81 l -1.019,-2.478 h -7.957 l -1.019,2.478 h -2.801 l 7.83,-18.171 z m 0.063,6.1 -2.992,7.053 h 5.92 L 90.91,81.45 Z"
     fill="#ffffff"
     id="path4" />
</svg>
