<?xml version="1.0" encoding="UTF-8" standalone="no"?>
<svg
   xmlns:dc="http://purl.org/dc/elements/1.1/"
   xmlns:cc="http://creativecommons.org/ns#"
   xmlns:rdf="http://www.w3.org/1999/02/22-rdf-syntax-ns#"
   xmlns:svg="http://www.w3.org/2000/svg"
   xmlns="http://www.w3.org/2000/svg"
   xmlns:xlink="http://www.w3.org/1999/xlink"
   xmlns:sodipodi="http://sodipodi.sourceforge.net/DTD/sodipodi-0.dtd"
   xmlns:inkscape="http://www.inkscape.org/namespaces/inkscape"
   version="1.1"
   id="Layer_1"
   x="0px"
   y="0px"
   viewBox="0 0 212.2 212.2"
   xml:space="preserve"
   sodipodi:docname="mnmhits.svg"
   inkscape:version="1.0.1 (3bc2e813f5, 2020-09-07)"
   width="212.2"
   height="212.2"><metadata
   id="metadata28"><rdf:RDF><cc:Work
       rdf:about=""><dc:format>image/svg+xml</dc:format><dc:type
         rdf:resource="http://purl.org/dc/dcmitype/StillImage" /><dc:title></dc:title></cc:Work></rdf:RDF></metadata><defs
   id="defs26"><rect
   x="15.462578"
   y="81.573537"
   width="153.85427"
   height="58.272319"
   id="rect127" />
	
	
	
	
	
<clipPath
   id="SVGID_2_-3"><use
     xlink:href="#SVGID_1_-3"
     style="overflow:visible"
     id="use14-6"
     x="0"
     y="0"
     width="100%"
     height="100%" /></clipPath><rect
   id="SVGID_1_-3"
   x="0"
   y="31.200001"
   width="212.2"
   height="73.699997" /><clipPath
   id="SVGID_2_-6"><use
     xlink:href="#SVGID_1_-2"
     style="overflow:visible"
     id="use14-2"
     x="0"
     y="0"
     width="100%"
     height="100%" /></clipPath><rect
   id="SVGID_1_-2"
   x="0"
   y="31.200001"
   width="212.2"
   height="73.699997" /><mask
   maskUnits="userSpaceOnUse"
   id="mask91"><rect
     style="fill:#ffffff"
     id="rect93"
     width="83.960876"
     height="29.944407"
     x="-1.3971614"
     y="78.487007" /></mask><mask
   maskUnits="userSpaceOnUse"
   id="mask97"><rect
     style="fill:#ffffff"
     id="rect99"
     width="56.545177"
     height="37.724472"
     x="82.393402"
     y="75.843208" /></mask><mask
   maskUnits="userSpaceOnUse"
   id="mask103"><rect
     style="fill:#ffffff"
     id="rect105"
     width="71.488586"
     height="30.444057"
     x="139.16284"
     y="81.566902" /></mask></defs><sodipodi:namedview
   pagecolor="#2c2a79"
   bordercolor="#666666"
   borderopacity="1"
   objecttolerance="10"
   gridtolerance="10"
   guidetolerance="10"
   inkscape:pageopacity="1"
   inkscape:pageshadow="2"
   inkscape:window-width="1488"
   inkscape:window-height="945"
   id="namedview24"
   showgrid="false"
   inkscape:zoom="2.405"
   inkscape:cx="72.420166"
   inkscape:cy="143.46008"
   inkscape:window-x="212"
   inkscape:window-y="37"
   inkscape:window-maximized="0"
   inkscape:current-layer="Layer_1"
   inkscape:document-rotation="0" />
<style
   type="text/css"
   id="style2">
	.st0{display:none;}
	.st1{fill:#FFFFFF;}
	.st2{clip-path:url(#SVGID_2_);fill:#FFFFFF;}
</style>
<g
   id="Layer_2_1_"
   class="st0">
	</g><polygon
   class="st1"
   points="65,52.4 65,77.1 77.9,77.1 77.9,31.2 66.2,31.2 48.3,54.5 48.3,31.2 35.2,31.2 0,77.1 16.9,77.1 35.9,52.4 35.9,77.1 46,77.1 "
   id="polygon5"
   transform="translate(0,-12)" /><polygon
   class="st1"
   points="176.3,52.4 195.3,77.1 212.2,77.1 177,31.2 163.9,31.2 163.9,54.5 146,31.2 134.3,31.2 134.3,77.1 147.2,77.1 147.2,52.4 166.2,77.1 176.3,77.1 "
   id="polygon7"
   transform="translate(0,-12)" /><polygon
   class="st1"
   points="127,31.2 114.6,31.2 114.6,54.5 96.7,31.2 85.1,31.2 85.1,77.1 97.9,77.1 97.9,52.4 116.9,77.1 127,77.1 "
   id="polygon9"
   transform="translate(0,-12)" />
<text
   xml:space="preserve"
   id="text125"
   style="fill:black;fill-opacity:1;line-height:1.25;stroke:none;font-family:'Liberation Sans';font-style:normal;font-weight:normal;font-size:40px;white-space:pre;shape-inside:url(#rect127);-inkscape-font-specification:'Liberation Sans';font-stretch:normal;font-variant:normal;" /><text
   xml:space="preserve"
   style="font-style:normal;font-variant:normal;font-weight:bold;font-stretch:normal;font-size:42.6667px;line-height:1.25;font-family:sans-serif;-inkscape-font-specification:'sans-serif Bold';fill:#ffffff;fill-opacity:1;stroke:none"
   x="10.903442"
   y="153.66551"
   id="text133"><tspan
     sodipodi:role="line"
     id="tspan131"
     x="10.903442"
     y="153.66551">HITS</tspan></text><path
   sodipodi:type="star"
   style="fill:#ffffff;stroke-width:1.09463"
   id="path143"
   sodipodi:sides="5"
   sodipodi:cx="148.27173"
   sodipodi:cy="137.1487"
   sodipodi:r1="55.719479"
   sodipodi:r2="27.859739"
   sodipodi:arg1="1.2513045"
   sodipodi:arg2="1.879623"
   inkscape:flatsided="false"
   inkscape:rounded="0"
   inkscape:randomized="0"
   d="m 165.77233,190.0485 -25.96832,-26.35808 -36.435,6.44928 17.04338,-32.84244 -17.39267,-32.65881 36.50171,6.06035 25.68574,-26.63354 5.51592,36.58794 33.26732,16.19837 -33.09268,16.55225 z"
   inkscape:transform-center-x="-5.2333392"
   inkscape:transform-center-y="-0.091820009" /></svg>
