<?xml version="1.0" encoding="UTF-8" standalone="no"?>
<svg
   xmlns:dc="http://purl.org/dc/elements/1.1/"
   xmlns:cc="http://creativecommons.org/ns#"
   xmlns:rdf="http://www.w3.org/1999/02/22-rdf-syntax-ns#"
   xmlns:svg="http://www.w3.org/2000/svg"
   xmlns="http://www.w3.org/2000/svg"
   xmlns:sodipodi="http://sodipodi.sourceforge.net/DTD/sodipodi-0.dtd"
   xmlns:inkscape="http://www.inkscape.org/namespaces/inkscape"
   width="374"
   height="374"
   viewBox="0 0 374 374"
   version="1.1"
   id="svg15"
   sodipodi:docname="qmusic.svg"
   inkscape:version="1.0.1 (3bc2e813f5, 2020-09-07)">
  <metadata
     id="metadata21">
    <rdf:RDF>
      <cc:Work
         rdf:about="">
        <dc:format>image/svg+xml</dc:format>
        <dc:type
           rdf:resource="http://purl.org/dc/dcmitype/StillImage" />
        <dc:title>q_master_stacked_cmyk</dc:title>
      </cc:Work>
    </rdf:RDF>
  </metadata>
  <defs
     id="defs19" />
  <sodipodi:namedview
     pagecolor="#ffffff"
     bordercolor="#666666"
     borderopacity="1"
     objecttolerance="10"
     gridtolerance="10"
     guidetolerance="10"
     inkscape:pageopacity="0"
     inkscape:pageshadow="2"
     inkscape:window-width="1264"
     inkscape:window-height="891"
     id="namedview17"
     showgrid="false"
     inkscape:zoom="1.1756216"
     inkscape:cx="156.5"
     inkscape:cy="187"
     inkscape:window-x="193"
     inkscape:window-y="18"
     inkscape:window-maximized="0"
     inkscape:current-layer="svg15" />
  <!-- Generator: Sketch 42 (36781) - http://www.bohemiancoding.com/sketch -->
  <title
     id="title2">q_master_stacked_cmyk</title>
  <desc
     id="desc4">Created with Sketch.</desc>
  <g
     id="Page-7"
     stroke="none"
     stroke-width="1"
     fill="none"
     fill-rule="evenodd"
     transform="translate(30.856434,-0.13753475)">
    <g
       id="q_master_stacked_cmyk">
      <path
         d="m 295.706,360.797 c -6.63,9.208 -15.007,13.203 -25.594,13.203 -17.451,0 -30.248,-13.566 -30.248,-30.526 0,-17.081 13.146,-30.649 30.365,-30.649 9.771,0 18.498,4.725 23.733,11.75 l -10.705,9.813 c -3.024,-4.12 -7.56,-7.027 -13.028,-7.027 -8.725,0 -15.24,7.147 -15.24,16.113 0,9.208 6.398,15.99 15.589,15.99 6.164,0 11.05,-3.878 13.494,-7.753 l 11.634,9.086"
         id="Fill-1"
         fill="#313533" />
      <polygon
         id="Fill-2"
         fill="#313533"
         points="234.05,314.036 218.925,314.036 218.925,372.789 234.05,372.789 " />
      <path
         d="m 176.616,354.861 c 3.839,3.634 9.772,5.813 15.473,5.813 4.072,0 7.212,-2.058 7.212,-4.965 0,-8.843 -27.339,-5.694 -27.339,-24.593 0,-11.267 10.47,-18.291 21.638,-18.291 7.329,0 15.358,2.907 19.082,5.936 l -7.099,11.387 c -2.907,-2.181 -6.746,-3.997 -10.818,-3.997 -4.189,0 -7.68,1.696 -7.68,4.723 0,7.632 27.341,4.605 27.341,24.955 0,11.267 -10.587,18.171 -22.455,18.171 -7.793,0 -16.054,-2.784 -22.685,-7.872 l 7.33,-11.267"
         id="Fill-3"
         fill="#313533" />
      <path
         d="m 112.739,347.702 v -32.895 h 15.125 v 30.36 c 0,5.331 1.045,7.995 2.791,10.056 2.328,2.665 5.583,3.633 8.493,3.633 5.001,0 12.105,-2.688 12.105,-14.061 v -29.988 h 15.125 v 32.743 c 0,15.853 -10.835,25.845 -27.713,25.845 -15.344,0 -25.926,-10.953 -25.926,-25.693"
         id="Fill-4"
         fill="#313533" />
      <g
         id="Group-8">
        <path
           d="m 80.949,312.423 c -9.379,0 -15.058,5.593 -19.289,10.545 -4.231,-4.952 -9.91,-10.545 -19.289,-10.545 -14.532,0 -26.181,9.989 -26.181,25.842 v 34.122 h 14.925 v -31.365 c 0,-11.372 7.01,-14.063 11.946,-14.063 2.87,0 6.085,0.968 8.38,3.635 1.723,2.059 2.754,4.725 2.754,10.054 v 31.739 h 14.929 v -31.739 c 0,-5.329 1.032,-7.995 2.755,-10.054 2.295,-2.667 5.509,-3.635 8.38,-3.635 4.936,0 11.945,2.691 11.945,14.063 v 31.365 h 14.925 v -34.122 c 0,-15.853 -11.649,-25.842 -26.18,-25.842"
           id="Fill-5"
           fill="#313533" />
        <path
           d="m 161.639,184.072 c 0.377,-8.171 5.677,-14.087 12.68,-14.087 7.003,0 12.68,6.307 12.68,14.087 0,1.3 -0.155,2.541 -0.371,3.752 -0.539,3.48 -3.496,11.525 -12.437,21.738 -1.499,-1.77 -2.933,-3.511 -4.281,-5.197 -4.198,-5.246 -8.649,-12.122 -8.271,-20.293 z M 310.244,86.649 c -0.04,-0.215 -0.082,-0.429 -0.123,-0.643 -0.109,-0.584 -0.222,-1.166 -0.34,-1.746 C 306.814,69.822 301.264,56.483 293.264,44.935 284.125,31.742 271.977,21.163 257.158,13.491 242.637,5.973 226.219,1.615 208.361,0.538 200.194,0.045 191.765,0.246 183.306,1.135 153.304,4.288 122.799,15.762 92.638,35.235 33.487,73.428 -1.85,134.747 0.075,187.345 c 0.57,14.702 4.054,28.719 10.75,41.352 13.696,25.842 36.779,44.303 64.995,51.982 13.438,3.657 27.603,4.739 42.102,3.215 0.701,-0.074 1.402,-0.153 2.106,-0.239 15.61,-1.917 31.206,-6.829 46.354,-14.6 3.892,-1.997 7.848,-4.434 11.78,-7.259 10.975,8.738 21.179,16.067 28.298,21.079 3.338,1.73 7.121,2.403 10.898,1.972 h 0.001 c 5.512,-0.432 10.516,-3.412 13.727,-7.924 2.991,-4.205 4.167,-9.278 3.309,-14.367 -0.857,-5.088 -3.645,-9.517 -7.849,-12.508 -4.965,-3.533 -12.451,-8.976 -20.729,-15.447 l -0.118,-0.09 0.111,-0.142 c 0.167,-0.223 0.333,-0.445 0.496,-0.667 7.138,-9.678 19.052,-28.825 18.691,-48.367 -0.294,-12.879 -5,-25.332 -13.271,-35.086 -9.366,-11.047 -22.236,-17.323 -36.239,-17.671 -2.086,-0.052 -4.206,0.033 -6.301,0.253 -19.555,2.056 -36.867,15.548 -43.078,33.575 -2.375,6.896 -3.384,13.944 -3.083,20.961 0.735,15.569 7.931,30.981 21.047,44.254 1.166,1.18 2.376,2.381 3.617,3.592 l 0.153,0.151 -0.145,0.087 c -11.313,5.663 -22.697,9.127 -33.854,10.3 -9.619,1.011 -18.995,0.299 -27.868,-2.115 -17.8,-4.845 -32.362,-16.492 -41.002,-32.794 -3.851,-7.265 -5.928,-15.757 -6.256,-25.037 -0.522,-13.506 2.673,-28.693 9.523,-44.204 12.729,-28.823 35.937,-55.154 65.348,-74.144 25.01,-16.148 49.817,-25.61 73.733,-28.124 6.391,-0.672 12.685,-0.829 18.705,-0.466 24.354,1.469 44.052,11.353 55.468,27.832 5.227,7.545 8.827,16.57 10.687,26.518 0.02,0.108 0.039,0.216 0.059,0.324 0.072,0.395 0.143,0.79 0.21,1.187 0.074,0.436 0.143,0.874 0.211,1.313 0.008,0.057 0.017,0.114 0.026,0.171 1.372,9.045 1.329,18.788 -0.203,28.884 -3.304,21.762 -13.494,43.367 -28.977,61.742 -5.239,8.129 -3.664,18.923 3.988,25.203 4.026,3.303 9.095,5.096 14.275,4.096 h 0.001 c 5.083,0 9.67,-2.823 12.914,-6.775 20.845,-25.402 33.575,-54.791 36.814,-85.163 1.384,-12.975 0.932,-25.575 -1.255,-37.55 z"
           id="Fill-7"
           fill="#db342a" />
      </g>
    </g>
  </g>
</svg>
