<?xml version="1.0" encoding="UTF-8" standalone="no"?>
<svg
   xmlns:dc="http://purl.org/dc/elements/1.1/"
   xmlns:cc="http://creativecommons.org/ns#"
   xmlns:rdf="http://www.w3.org/1999/02/22-rdf-syntax-ns#"
   xmlns:svg="http://www.w3.org/2000/svg"
   xmlns="http://www.w3.org/2000/svg"
   xmlns:sodipodi="http://sodipodi.sourceforge.net/DTD/sodipodi-0.dtd"
   xmlns:inkscape="http://www.inkscape.org/namespaces/inkscape"
   width="116"
   height="116"
   version="1.1"
   id="svg23"
   sodipodi:docname="radio2.svg"
   inkscape:version="1.0.1 (3bc2e813f5, 2020-09-07)">
  <metadata
     id="metadata27">
    <rdf:RDF>
      <cc:Work
         rdf:about="">
        <dc:format>image/svg+xml</dc:format>
        <dc:type
           rdf:resource="http://purl.org/dc/dcmitype/StillImage" />
        <dc:title></dc:title>
      </cc:Work>
    </rdf:RDF>
  </metadata>
  <sodipodi:namedview
     pagecolor="#ffffff"
     bordercolor="#666666"
     borderopacity="1"
     objecttolerance="10"
     gridtolerance="10"
     guidetolerance="10"
     inkscape:pageopacity="0"
     inkscape:pageshadow="2"
     inkscape:window-width="1519"
     inkscape:window-height="876"
     id="namedview25"
     showgrid="false"
     inkscape:zoom="4.7986577"
     inkscape:cx="70.806324"
     inkscape:cy="72.905194"
     inkscape:window-x="0"
     inkscape:window-y="0"
     inkscape:window-maximized="0"
     inkscape:current-layer="svg23" />
  <defs
     id="defs15">
    <filter
       x="-0.5"
       y="-0.5"
       width="2"
       height="2"
       filterUnits="objectBoundingBox"
       id="a">
      <feOffset
         in="SourceAlpha"
         result="shadowOffsetOuter1"
         id="feOffset2" />
      <feGaussianBlur
         stdDeviation="8.5"
         in="shadowOffsetOuter1"
         result="shadowBlurOuter1"
         id="feGaussianBlur4" />
      <feColorMatrix
         values="0 0 0 0 0 0 0 0 0 0 0 0 0 0 0 0 0 0 0.140341938 0"
         in="shadowBlurOuter1"
         result="shadowMatrixOuter1"
         id="feColorMatrix6" />
      <feMerge
         id="feMerge12">
        <feMergeNode
           in="shadowMatrixOuter1"
           id="feMergeNode8" />
        <feMergeNode
           in="SourceGraphic"
           id="feMergeNode10" />
      </feMerge>
    </filter>
  </defs>
  <path
     d="m 115.54078,57.146387 a 47.877,47.877 0 0 0 -0.046,-1.61 57.486,57.486 0 0 0 -0.093,-1.6 63.053,63.053 0 0 0 -0.135,-1.587 69.409,69.409 0 0 0 -0.082,-0.79 38.01,38.01 0 0 1 -0.82,1.56 37.848,37.848 0 0 1 -0.905,1.527 37.8,37.8 0 0 1 -2.062,2.966 l -10.85,11.434 -16.451002,14.701 h 25.344002 a 57.998,57.998 0 0 0 2.599,-5.999 56.888,56.888 0 0 0 2.603,-9.601 57.249,57.249 0 0 0 0.898,-11.001 z m -86.021001,1.746 a 1.7,1.7 0 0 1 -0.191,0.093 c -0.07,0.03 -0.145,0.056 -0.228,0.081 a 5.645,5.645 0 0 1 -0.582,0.135 12.248,12.248 0 0 1 -0.776,0.115 l -0.297,0.037 -0.299,0.038 -0.297,0.036 -0.298,0.038 -0.298,0.037 -0.298,0.037 -0.596,0.074 a 9.945,9.945 0 0 0 -0.58,0.092 5.47,5.47 0 0 0 -0.506,0.12 c -0.156,0.044 -0.3,0.095 -0.43,0.152 -0.132,0.057 -0.25,0.12 -0.356,0.191 -0.105,0.071 -0.198,0.15 -0.278,0.237 a 1.297,1.297 0 0 0 -0.32,0.63 c -0.027,0.125 -0.04,0.26 -0.04,0.405 a 1.422,1.422 0 0 0 0.185,0.714 c 0.061,0.108 0.136,0.208 0.223,0.301 0.087,0.094 0.188,0.18 0.301,0.257 0.113,0.078 0.237,0.147 0.373,0.208 0.136,0.06 0.283,0.112 0.44,0.154 a 3.853,3.853 0 0 0 1.051,0.129 6.107,6.107 0 0 0 1.69,-0.228 5.26,5.26 0 0 0 0.746,-0.272 4.35,4.35 0 0 0 0.652,-0.368 c 0.2,-0.138 0.38,-0.29 0.54,-0.454 a 2.93,2.93 0 0 0 0.41,-0.532 2.468,2.468 0 0 0 0.35,-1.268 v -1.424 a 1.067,1.067 0 0 1 -0.291,0.235 z m 35.322,1.522 c 0.076,0.243 0.171,0.479 0.29,0.702 0.118,0.225 0.258,0.438 0.422,0.635 0.164,0.198 0.352,0.379 0.565,0.54 0.212,0.16 0.45,0.302 0.715,0.418 0.265,0.117 0.558,0.208 0.878,0.27 0.32,0.064 0.669,0.098 1.048,0.098 0.38,0 0.727,-0.034 1.047,-0.097 a 4.2,4.2 0 0 0 0.878,-0.27 3.444,3.444 0 0 0 1.703,-1.593 4.1,4.1 0 0 0 0.29,-0.703 c 0.075,-0.242 0.13,-0.492 0.167,-0.744 a 5.284,5.284 0 0 0 -0.167,-2.26 4.128,4.128 0 0 0 -0.29,-0.702 3.66,3.66 0 0 0 -0.422,-0.634 3.444,3.444 0 0 0 -1.28,-0.958 4.11,4.11 0 0 0 -0.879,-0.271 5.474,5.474 0 0 0 -1.047,-0.096 c -0.38,0 -0.728,0.034 -1.048,0.096 a 4.12,4.12 0 0 0 -0.878,0.27 3.503,3.503 0 0 0 -0.715,0.419 3.38,3.38 0 0 0 -0.565,0.54 3.64,3.64 0 0 0 -0.422,0.634 c -0.119,0.224 -0.214,0.46 -0.29,0.702 a 4.973,4.973 0 0 0 -0.168,0.744 5.42,5.42 0 0 0 0,1.516 c 0.037,0.252 0.093,0.502 0.168,0.744 z m -9.238,-8.895 h 2.099 v -2.337 h -2.099 z m 0,12.96 h 2.099 v -11.132 h -2.099 z m -5.772,0 h -2.133 v -1.425 h -0.043 a 3.08,3.08 0 0 1 -0.353,0.414 3.69,3.69 0 0 1 -0.43,0.362 4.66,4.66 0 0 1 -0.493,0.31 5.642,5.642 0 0 1 -1.123,0.458 6.697,6.697 0 0 1 -1.846,0.262 c -0.421,0 -0.833,-0.033 -1.229,-0.1 a 6.632,6.632 0 0 1 -1.143,-0.294 5.97,5.97 0 0 1 -1.033,-0.482 5.264,5.264 0 0 1 -2.199,-2.511 5.907,5.907 0 0 1 -0.353,-1.171 6.983,6.983 0 0 1 -0.123,-1.326 c 0,-0.467 0.043,-0.91 0.123,-1.326 0.081,-0.417 0.2,-0.807 0.354,-1.17 a 5.232,5.232 0 0 1 1.3,-1.848 5.45,5.45 0 0 1 0.898,-0.665 6,6 0 0 1 1.033,-0.482 6.67,6.67 0 0 1 1.143,-0.294 7.434,7.434 0 0 1 1.854,-0.071 6.672,6.672 0 0 1 1.224,0.224 5.434,5.434 0 0 1 1.117,0.45 c 0.172,0.093 0.336,0.197 0.49,0.31 0.154,0.112 0.298,0.236 0.43,0.368 0.132,0.132 0.253,0.273 0.36,0.425 h 0.042 v -5.715 h 2.133 z m -16.302,0 a 7.46,7.46 0 0 1 -0.613,0.076 7.786,7.786 0 0 1 -0.215,0.018 7.648,7.648 0 0 1 -0.632,0.03 l -0.196,0.002 a 4.36,4.36 0 0 1 -0.38,-0.015 2.795,2.795 0 0 1 -0.344,-0.05 1.873,1.873 0 0 1 -0.307,-0.095 1.365,1.365 0 0 1 -0.266,-0.145 1.227,1.227 0 0 1 -0.4,-0.475 1.793,1.793 0 0 1 -0.13,-0.344 2.785,2.785 0 0 1 -0.082,-0.426 2.831,2.831 0 0 1 -0.373,0.406 3.77,3.77 0 0 1 -0.471,0.36 4.993,4.993 0 0 1 -0.551,0.309 c -0.195,0.094 -0.4,0.18 -0.613,0.258 a 7.748,7.748 0 0 1 -1.344,0.352 8.505,8.505 0 0 1 -1.381,0.12 c -0.462,0 -0.879,-0.03 -1.255,-0.085 a 5.68,5.68 0 0 1 -1.01,-0.236 c -0.298,-0.1 -0.56,-0.222 -0.788,-0.36 a 3.165,3.165 0 0 1 -0.593,-0.455 2.866,2.866 0 0 1 -0.688,-1.087 3.238,3.238 0 0 1 -0.144,-0.574 4.122,4.122 0 0 1 0.016,-1.278 c 0.04,-0.224 0.101,-0.433 0.186,-0.629 0.084,-0.195 0.192,-0.376 0.326,-0.543 a 2.66,2.66 0 0 1 0.48,-0.461 c 0.187,-0.141 0.401,-0.27 0.646,-0.385 a 5.89,5.89 0 0 1 0.828,-0.31 9.622,9.622 0 0 1 1.021,-0.24 c 0.375,-0.07 0.783,-0.128 1.229,-0.176 l 0.303,-0.032 0.302,-0.032 0.303,-0.031 0.302,-0.032 0.302,-0.032 0.303,-0.032 0.302,-0.032 0.303,-0.032 c 0.148,-0.016 0.29,-0.033 0.424,-0.053 0.134,-0.02 0.26,-0.042 0.379,-0.07 a 2.7,2.7 0 0 0 0.33,-0.093 1.68,1.68 0 0 0 0.278,-0.126 c 0.084,-0.049 0.158,-0.104 0.223,-0.168 a 0.927,0.927 0 0 0 0.163,-0.216 1.05,1.05 0 0 0 0.1,-0.273 1.882,1.882 0 0 0 -0.033,-0.856 1.39,1.39 0 0 0 -0.493,-0.733 1.943,1.943 0 0 0 -0.397,-0.237 2.95,2.95 0 0 0 -0.478,-0.165 4.583,4.583 0 0 0 -0.544,-0.104 7.396,7.396 0 0 0 -0.595,-0.055 11.724,11.724 0 0 0 -0.63,-0.016 8.13,8.13 0 0 0 -0.67,0.025 6.235,6.235 0 0 0 -0.629,0.078 4.306,4.306 0 0 0 -0.575,0.143 2.99,2.99 0 0 0 -0.507,0.214 2.22,2.22 0 0 0 -0.423,0.294 1.837,1.837 0 0 0 -0.543,0.866 2.427,2.427 0 0 0 -0.092,0.59 h -1.995 c 0.034,-0.348 0.094,-0.67 0.18,-0.966 0.085,-0.295 0.195,-0.566 0.33,-0.813 a 3.396,3.396 0 0 1 1.103,-1.198 c 0.232,-0.155 0.488,-0.288 0.767,-0.4 a 5.84,5.84 0 0 1 0.91,-0.277 8.453,8.453 0 0 1 1.046,-0.16 12.42,12.42 0 0 1 1.183,-0.053 c 0.283,0 0.576,0.009 0.87,0.03 0.297,0.02 0.594,0.053 0.887,0.1 0.293,0.047 0.581,0.109 0.859,0.188 0.277,0.08 0.544,0.176 0.792,0.293 0.249,0.116 0.48,0.254 0.687,0.414 a 2.482,2.482 0 0 1 0.892,1.26 c 0.082,0.264 0.127,0.556 0.127,0.88 v 5.99 c 0,0.083 0.005,0.16 0.014,0.231 0.01,0.072 0.024,0.137 0.043,0.197 0.019,0.06 0.043,0.115 0.071,0.165 a 0.624,0.624 0 0 0 0.236,0.235 0.74,0.74 0 0 0 0.165,0.073 c 0.06,0.019 0.125,0.032 0.197,0.042 a 1.612,1.612 0 0 0 0.32,0.013 l 0.094,-0.006 0.097,-0.008 0.098,-0.011 a 2.392,2.392 0 0 0 0.19,-0.028 6.916,6.916 0 0 0 0.173,-0.03 v 1.486 z m -16.3,-9.094 -0.192,-0.045 c -0.062,-0.015 -0.123,-0.028 -0.184,-0.041 a 7.62,7.62 0 0 0 -0.535,-0.092 5.232,5.232 0 0 0 -0.584,-0.034 c -0.261,0 -0.512,0.02 -0.751,0.058 -0.24,0.038 -0.468,0.096 -0.683,0.173 a 3.259,3.259 0 0 0 -0.604,0.287 2.917,2.917 0 0 0 -0.934,0.916 c -0.12,0.19 -0.225,0.4 -0.309,0.628 -0.085,0.228 -0.15,0.475 -0.193,0.74 -0.044,0.265 -0.067,0.55 -0.067,0.853 v 5.65 h -2.106 v -11.131 h 2.107 v 2.038 h 0.042 c 0.124,-0.22 0.254,-0.423 0.39,-0.61 0.137,-0.186 0.278,-0.357 0.426,-0.512 a 4.388,4.388 0 0 1 0.93,-0.75 3.925,3.925 0 0 1 2.047,-0.55 9.026,9.026 0 0 1 0.506,0.013 c 0.049,0.003 0.097,0.008 0.142,0.012 a 2.806,2.806 0 0 1 0.271,0.039 3.429,3.429 0 0 1 0.283,0.064 v 2.294 z m 45.273,2.351 a 6.2,6.2 0 0 1 0.295,-1.107 c 0.131,-0.353 0.296,-0.692 0.493,-1.009 a 5.274,5.274 0 0 1 1.584,-1.62 c 0.33,-0.217 0.695,-0.404 1.093,-0.558 a 6.85,6.85 0 0 1 1.294,-0.354 c 0.466,-0.081 0.965,-0.124 1.498,-0.124 0.533,0 1.032,0.043 1.497,0.124 0.465,0.08 0.897,0.2 1.294,0.354 0.398,0.154 0.762,0.341 1.093,0.558 a 5.263,5.263 0 0 1 1.584,1.62 c 0.197,0.317 0.362,0.656 0.492,1.01 0.132,0.353 0.23,0.724 0.296,1.106 0.065,0.382 0.098,0.775 0.098,1.177 0,0.4 -0.033,0.794 -0.098,1.176 a 6.195,6.195 0 0 1 -0.296,1.106 5.55,5.55 0 0 1 -0.492,1.01 5.264,5.264 0 0 1 -1.584,1.62 c -0.33,0.216 -0.695,0.403 -1.093,0.557 a 6.876,6.876 0 0 1 -1.294,0.354 8.662,8.662 0 0 1 -1.497,0.124 8.674,8.674 0 0 1 -1.498,-0.124 6.944,6.944 0 0 1 -1.294,-0.354 5.855,5.855 0 0 1 -1.093,-0.558 5.314,5.314 0 0 1 -0.892,-0.735 5.307,5.307 0 0 1 -0.692,-0.885 5.609,5.609 0 0 1 -0.493,-1.009 6.23,6.23 0 0 1 -0.295,-1.106 6.955,6.955 0 0 1 -0.098,-1.176 c 0,-0.402 0.032,-0.795 0.098,-1.177 z m -0.108,26.011 29.751999,-27.651 c 0.657,-0.613 1.312,-1.23 1.958,-1.854 a 64.827,64.827 0 0 0 1.898,-1.902 40.334,40.334 0 0 0 1.774,-1.98 28.195,28.195 0 0 0 1.589,-2.082 c 0.492,-0.715 0.943002,-1.451 1.343002,-2.214 0.4,-0.763 0.75,-1.552 1.036,-2.373 a 16.055,16.055 0 0 0 0.902,-5.33 c 0,-0.905 -0.08,-1.78 -0.234,-2.619 a 13.168,13.168 0 0 0 -0.68,-2.402 12.218,12.218 0 0 0 -1.091,-2.145 11.53,11.53 0 0 0 -3.270002,-3.355 11.744,11.744 0 0 0 -2.107,-1.128 12.469,12.469 0 0 0 -2.377,-0.707 13.71,13.71 0 0 0 -2.608,-0.245 c -1.152,0 -2.233,0.12 -3.241,0.348 a 12.48,12.48 0 0 0 -2.808,0.988 c -0.862001,0.428 -1.649999,0.949 -2.363999,1.55 -0.713,0.6 -1.352,1.281 -1.913,2.03 a 13.77,13.77 0 0 0 -1.453,2.427 15.876,15.876 0 0 0 -0.986,2.748 c -0.25,0.96 -0.42,1.958 -0.51,2.985 a 20.18,20.18 0 0 0 -0.026,3.142 h -15.518 v -3.15 a 28.23,28.23 0 0 1 2.192,-10.909 28.596,28.596 0 0 1 5.976,-8.984 28.39,28.39 0 0 1 4.127,-3.47 27.77,27.77 0 0 1 4.736,-2.627 27.294,27.294 0 0 1 10.854999,-2.246 h 0.172 l 0.172,0.002 0.171,0.003 0.172,0.004 0.17,0.004 0.172,0.006 0.17,0.006 0.17,0.007 a 57.634,57.634 0 0 0 -11.226999,-6.0570005 56.938,56.938 0 0 0 -8.241,-2.618 57.218,57.218 0 0 0 -8.728,-1.35999996 58.307,58.307 0 0 0 -4.514,-0.175 c -3.972,0 -7.85,0.403 -11.596,1.16999996 a 57.18,57.18 0 0 0 -20.576,8.6570005 57.893,57.893 0 0 0 -15.542,15.543 57.407,57.407 0 0 0 -5.306,9.774 57.1,57.1 0 0 0 -3.352,10.801 57.804,57.804 0 0 0 -1.16999995,11.596 c 0,3.973 0.403,7.852 1.16999995,11.597 a 57.104,57.104 0 0 0 3.352,10.802 57.423,57.423 0 0 0 5.306,9.774004 57.87,57.87 0 0 0 15.542,15.542999 57.393,57.393 0 0 0 9.775,5.304 57.121,57.121 0 0 0 10.8,3.353 57.774,57.774 0 0 0 11.597,1.169 57.528,57.528 0 0 0 11.665,-1.183 57.054,57.054 0 0 0 10.857,-3.394 57.577,57.577 0 0 0 14.257999,-8.717 57.974,57.974 0 0 0 4.094,-3.754999 H 62.394779 V 83.748387 Z m -15.22,-27.188 a 3.484,3.484 0 0 0 -1.08,-1.057 3.825,3.825 0 0 0 -0.707,-0.343 4.513,4.513 0 0 0 -0.805,-0.21 5.404,5.404 0 0 0 -0.894,-0.072 c -0.31,0 -0.606,0.024 -0.887,0.071 a 4.427,4.427 0 0 0 -0.797,0.21 c -0.25,0.094 -0.484,0.208 -0.7,0.344 a 3.488,3.488 0 0 0 -1.069,1.057 c -0.138,0.216 -0.256,0.45 -0.351,0.702 a 4.412,4.412 0 0 0 -0.218,0.807 5.376,5.376 0 0 0 -0.016,1.689 4.417,4.417 0 0 0 0.478,1.442 c 0.122,0.22 0.266,0.427 0.432,0.617 a 3.4,3.4 0 0 0 0.566,0.519 c 0.212,0.153 0.448,0.287 0.707,0.397 0.26,0.11 0.543,0.197 0.852,0.255 0.309,0.06 0.643,0.09 1.003,0.09 0.363,0 0.699,-0.03 1.01,-0.09 0.312,-0.058 0.598,-0.145 0.86,-0.255 a 3.45,3.45 0 0 0 1.724,-1.533 c 0.123,-0.22 0.224,-0.453 0.305,-0.695 0.08,-0.24 0.14,-0.491 0.18,-0.747 a 5.332,5.332 0 0 0 -0.016,-1.688 4.382,4.382 0 0 0 -0.22,-0.808 3.701,3.701 0 0 0 -0.356,-0.702 z"
     fill="#d10013"
     id="path19"
     style="display:inline;fill-rule:evenodd;filter:url(#a)" />
</svg>
