<svg xmlns="http://www.w3.org/2000/svg" version="1.1" viewBox="0 0 68 64" role="img" aria-label="Home">
    <title>Home</title>
    <path fill="#FFFFFF" stroke="#FFFFFF" stroke-width="4" className="logo--radio1__bg--stroke" d="M65.6 21.3C65.6 35.2 51.4 62 34 62 16.6 62 2.4 35.2 2.4 21.3 2.4 7.4 16.6 2 34 2 51.4 2 65.6 7.4 65.6 21.3"/>
    <path fill="#0072bb" transition="fill .15s linear" className="logo--radio1__bg--fill" d="M65.6 21.3C65.6 35.2 51.4 62 34 62 16.6 62 2.4 35.2 2.4 21.3 2.4 7.4 16.6 2 34 2 51.4 2 65.6 7.4 65.6 21.3"/>
    <path fill="#FFFFFF" className="logo--radio1__fg" d="M29.6 23.7l1.3-0.9 1.7-1.2c1.6-1.1 1.9-2.7 1-4l0 0c-0.9-1.3-2.5-1.6-4.1-0.4l-1.7 1.2 3.1 4.4 -5-3.1 -1.2 0.8 1.2 5.7 -2-0.8c0.4-0.6 0.4-1.3 0-2l0 0c-0.3-0.4-0.7-0.7-1.1-0.8 -0.5-0.1-1.1 0.1-1.8 0.5l-2.1 1.5 3.1 4.5 1.2-0.9 -0.9-1.4 0.5-0.4 1.8 0.7 1.4-1 1.2-0.8 -0.2-1 1.7-1.2L29.6 23.7zM30.3 18.2c0.7-0.5 1.5-0.4 2 0.3l0 0c0.5 0.7 0.3 1.5-0.4 2l-0.5 0.4 -1.6-2.3L30.3 18.2zM22.4 25.3l-0.8 0.6 -0.8-1.1 0.8-0.6c0.4-0.3 0.8-0.3 1 0.1l0 0C22.9 24.6 22.8 25 22.4 25.3L22.4 25.3zM26.7 23.1l-0.4-1.6 1.4 0.9L26.7 23.1zM36.8 18.7l-3.1-4.5 -1.2 0.9 3.1 4.5L36.8 18.7zM35.6 16.2c0.9 1.3 2.6 1.6 4 0.6 1.4-1 1.7-2.7 0.8-4l0 0c-0.9-1.3-2.6-1.6-4-0.6C35 13.1 34.6 14.9 35.6 16.2L35.6 16.2zM37.1 13.3c0.7-0.5 1.5-0.2 2 0.4l0 0c0.5 0.6 0.4 1.5-0.3 2 -0.7 0.5-1.5 0.2-2-0.4l0 0C36.3 14.6 36.4 13.8 37.1 13.3zM29.5 49.1h11.3V17.8l-11.3 7.9V49.1z"/>
</svg>