<?xml version="1.0" encoding="UTF-8" standalone="no"?><!DOCTYPE svg PUBLIC "-//W3C//DTD SVG 1.1//EN" "http://www.w3.org/Graphics/SVG/1.1/DTD/svg11.dtd"><svg width="100%" height="100%" viewBox="0 0 61 61" version="1.1" xmlns="http://www.w3.org/2000/svg" xmlns:xlink="http://www.w3.org/1999/xlink" xml:space="preserve" xmlns:serif="http://www.serif.com/" style="fill-rule:evenodd;clip-rule:evenodd;stroke-linejoin:round;stroke-miterlimit:1.41421;"><g id="Design"><rect x="2.34" y="2.351" width="55.994" height="55.994" style="fill:#e2e778;fill-rule:nonzero;"/><path d="M15.594,51.168l-5.014,0l0,-6.367l5.014,0c1.881,0 3.233,0.627 3.696,2.011c0.099,0.364 0.164,0.76 0.164,1.189c0,2.144 -1.452,3.167 -3.86,3.167Zm-5.014,-15.704l4.783,0c1.947,0 3.497,0.824 3.497,2.804c0,1.814 -1.22,2.805 -3.497,2.805l-4.783,0l0,-5.609Zm8.544,7.522l0,-0.396c2.74,-0.561 4.421,-2.111 4.421,-4.784c0,-2.475 -1.22,-4.421 -3.299,-5.476c-1.154,-0.594 -2.672,-0.891 -4.685,-0.891l-9.766,0l0,23.754l10.426,0c1.947,0 3.696,-0.43 4.95,-1.155c1.979,-1.155 3.166,-3.168 3.166,-5.641c0,-0.561 -0.065,-1.09 -0.23,-1.585c-0.693,-2.408 -2.871,-3.628 -4.983,-3.826Z" style="fill:#03050b;fill-rule:nonzero;"/><path d="M50.797,47.407c0,2.474 -0.859,4.52 -3.267,4.52c-2.144,0 -3.002,-1.287 -3.002,-3.465l0,-10.095l-4.453,0l0,10.294c0,4.321 1.846,6.895 5.608,6.895c2.441,0 3.892,-1.287 5.015,-2.903l0.297,0l0,2.54l4.256,0l0,-16.826l-4.454,0l0,9.04Z" style="fill:#03050b;fill-rule:nonzero;"/><path d="M32.882,41.929l-0.33,0l0,-3.562l-4.256,0l0,12.372l-2.64,0l0,4.454l4.455,0l0,-4.454l2.64,0l0,-3.927c0,-2.969 1.517,-4.586 4.651,-4.586l1.023,0l0,-4.223l-0.494,0c-2.706,0 -4.126,1.519 -5.049,3.926Z" style="fill:#03050b;fill-rule:nonzero;"/><path d="M18.563,15.503l-2.969,-0.463c-2.475,-0.395 -3.464,-0.99 -3.63,-2.375c-0.032,-0.165 -0.032,-0.329 -0.032,-0.495c0,-1.848 1.55,-2.838 4.156,-2.838c2.772,0 4.322,1.287 4.422,3.663l4.784,0c-0.133,-4.586 -3.464,-7.555 -9.106,-7.555c-5.345,0 -8.974,2.87 -8.974,7.027l0,0.198c0.065,4.091 2.804,6.038 7.127,6.698l3.299,0.495c1.319,0.198 2.277,0.593 2.836,1.253l-2.639,0c0.396,0.496 0.595,1.056 0.595,1.881c0,2.112 -2.146,2.969 -4.587,2.969c-3.497,0 -4.817,-1.617 -5.081,-4.223l-4.849,0c0.098,4.982 3.596,8.116 10.129,8.116c5.873,0 9.138,-2.936 9.138,-6.862c0,-0.693 -0.066,-1.287 -0.165,-1.881l2.639,0c-0.659,-3.2 -3.101,-4.981 -7.093,-5.608Z" style="fill:#03050b;fill-rule:nonzero;"/><path d="M35.455,24.179l0,-3.068l-2.309,0l0,-5.146l3.134,0l0,-3.3l-3.134,0l0,-4.289l-4.454,0l0,4.289l-2.475,0l0,3.3l2.475,0l0,5.146l2.309,0l0,3.266c0,3.267 1.42,5.115 5.015,5.115l2.573,0l0,-3.794l-1.682,0c-1.122,0 -1.452,-0.43 -1.452,-1.519Z" style="fill:#03050b;fill-rule:nonzero;"/><path d="M50.796,12.665l0,9.04c0,2.474 -0.857,4.52 -3.266,4.52c-2.144,0 -3.002,-1.287 -3.002,-3.464l0,-10.096l-4.454,0l0,10.294c0,4.322 1.847,6.895 5.609,6.895c2.441,0 3.893,-1.287 5.015,-2.903l0.297,0l0,2.541l4.256,0l0,-16.827l-4.455,0Z" style="fill:#03050b;fill-rule:nonzero;"/></g></svg>