<?xml version="1.0" encoding="UTF-8" standalone="no"?>
<svg
   xmlns:dc="http://purl.org/dc/elements/1.1/"
   xmlns:cc="http://creativecommons.org/ns#"
   xmlns:rdf="http://www.w3.org/1999/02/22-rdf-syntax-ns#"
   xmlns:svg="http://www.w3.org/2000/svg"
   xmlns="http://www.w3.org/2000/svg"
   xmlns:sodipodi="http://sodipodi.sourceforge.net/DTD/sodipodi-0.dtd"
   xmlns:inkscape="http://www.inkscape.org/namespaces/inkscape"
   version="1.1"
   id="Layer_1"
   x="0px"
   y="0px"
   viewBox="0 0 301.5 301.50001"
   xml:space="preserve"
   sodipodi:docname="vrtnws.svg"
   width="301.5"
   height="301.5"
   inkscape:version="1.0.1 (3bc2e813f5, 2020-09-07)"><metadata
   id="metadata25"><rdf:RDF><cc:Work
       rdf:about=""><dc:format>image/svg+xml</dc:format><dc:type
         rdf:resource="http://purl.org/dc/dcmitype/StillImage" /><dc:title></dc:title></cc:Work></rdf:RDF></metadata><defs
   id="defs23" /><sodipodi:namedview
   pagecolor="#ffffff"
   bordercolor="#666666"
   borderopacity="1"
   objecttolerance="10"
   gridtolerance="10"
   guidetolerance="10"
   inkscape:pageopacity="0"
   inkscape:pageshadow="2"
   inkscape:window-width="1920"
   inkscape:window-height="930"
   id="namedview21"
   showgrid="false"
   inkscape:zoom="2.7897686"
   inkscape:cx="150.75"
   inkscape:cy="181.98106"
   inkscape:window-x="0"
   inkscape:window-y="0"
   inkscape:window-maximized="0"
   inkscape:current-layer="Layer_1" />
<style
   type="text/css"
   id="style2">
	.st0{fill:#5DFC71;}
	.st1{fill:#16284A;}
</style>
<path
   class="st0"
   d="M 146.55,210.5 C 89.23694,210.5 42.6,163.86319 42.6,106.55 42.6,49.237002 89.23694,2.6 146.55,2.6 H 250.5 V 106.55 C 250.21871,163.86319 203.58181,210.5 146.55,210.5"
   id="path4"
   style="stroke-width:2.80925" />
<path
   class="st1"
   d="m 249.65437,238.72345 c -0.54064,0 -0.97331,-0.43254 -1.08141,-0.97331 -0.75704,-6.70456 -7.24547,-10.3814 -16.7617,-10.3814 -7.67808,0 -15.03162,2.91973 -15.03162,9.40817 0,20.11411 49.85283,-2.27097 49.85283,35.57824 0,0 0,24.43985 -34.0644,24.43985 -30.38742,0 -32.87456,-19.8979 -33.0909,-26.49435 0,-0.64904 0.43264,-1.08167 1.08142,-1.08167 h 13.95015 c 0.54059,0 1.08129,0.43263 1.08129,1.08167 0.86519,10.81411 9.40825,13.73365 17.95148,13.73365 8.65118,0 16.8698,-3.24417 16.8698,-11.35471 0,-20.54665 -49.85272,0.97337 -49.85272,-35.47005 0,-11.13855 10.48972,-22.70954 32.22598,-22.70954 20.97911,0 30.92804,10.48966 31.68497,23.03401 0,0.6488 -0.4325,1.18944 -1.08128,1.18944 z"
   id="path6"
   style="fill:#5dfc71;fill-opacity:1;stroke-width:1.08135" />
<g
   id="g14"
   transform="matrix(2.5891921,0,0,2.5891921,55.046487,-4.131891)">
	<path
   class="st1"
   d="m 56.3,49.7 c 4,0 7.1,-3.3 7.1,-7.3 0,0 0,-0.1 0,-0.1 0,-0.2 -0.2,-0.4 -0.5,-0.4 h -3.6 c -0.3,0 -0.6,0.2 -0.7,0.6 v 0 c -0.1,1.5 -1,2.4 -2.3,2.4 -1.4,0 -2.3,-1 -2.3,-2.7 V 42 c 0,-0.2 0,-7.7 0,-7.7 h 6.4 c 0.3,0 0.5,-0.2 0.5,-0.5 v -3.4 c 0,-0.3 -0.2,-0.5 -0.5,-0.5 H 54 V 25 c 0,-0.3 -0.2,-0.5 -0.5,-0.5 h -4.2 c -0.3,0 -0.5,0.2 -0.5,0.5 v 16.8 c 0.2,4.7 3.2,7.9 7.5,7.9"
   id="path8" />
	<path
   class="st1"
   d="m 38.9,47.6 v -6.4 c 0.1,-4 2.9,-7.1 6.9,-7 0.1,0 0.1,0 0.2,0 0.3,0 0.5,-0.2 0.5,-0.5 V 30.3 C 46.5,30 46.3,29.8 46,29.8 43.5,29.6 40.8,30 38.7,32.6 v -2.2 c 0,-0.3 -0.2,-0.5 -0.5,-0.5 h -3.9 c -0.3,0 -0.5,0.2 -0.5,0.5 v 18.5 c 0,0.3 0.2,0.5 0.5,0.5 h 4.1 c 0.3,0 0.5,-0.2 0.5,-0.5 z"
   id="path10" />
	<path
   class="st1"
   d="m 30.7,29.9 h -4.2 c -0.2,0 -0.4,0.1 -0.5,0.4 L 22,43 v 0 L 17.9,30.3 c -0.1,-0.2 -0.3,-0.4 -0.5,-0.4 h -4.2 c -0.3,0 -0.6,0.3 -0.5,0.7 L 19,49 c 0.1,0.2 0.3,0.4 0.5,0.4 h 4.9 c 0.2,0 0.4,-0.1 0.5,-0.4 l 6.3,-18.5 c 0.1,-0.3 -0.1,-0.6 -0.5,-0.6"
   id="path12" />
</g>
<path
   class="st1"
   d="m 200.99107,216.77113 h -13.08492 c -0.54073,0 -0.97324,0.32423 -1.08141,0.86493 l -12.97688,59.04472 -11.89547,-59.04472 c -0.10819,-0.5407 -0.54074,-0.86493 -1.08142,-0.86493 h -19.14094 c -0.54075,0 -0.97324,0.32423 -1.08133,0.86493 l -11.89545,59.04472 -13.08502,-59.04472 c -0.10804,-0.5407 -0.54065,-0.86493 -1.08131,-0.86493 h -13.08501 c -0.757,0 -1.18964,0.64868 -1.08157,1.29756 l 17.95146,75.59019 c 0.10809,0.54068 0.54062,0.86509 1.08128,0.86509 h 18.70843 c 0.54068,0 0.97324,-0.32441 1.08144,-0.86509 l 12.00355,-58.82841 12.00358,58.82841 c 0.10834,0.54068 0.54079,0.86509 1.08139,0.86509 h 18.7084 c 0.54073,0 0.97316,-0.32441 1.08139,-0.86509 l 17.95128,-75.59019 c 0.10864,-0.64888 -0.32441,-1.29756 -1.08147,-1.29756 z"
   id="path16"
   style="fill:#5dfc71;fill-opacity:1;stroke-width:1.08135" />
<path
   class="st1"
   d="m 47.64781,239.91317 h -0.216273 v 53.63764 c 0,0.64875 -0.540709,1.08119 -1.081411,1.08119 H 33.481405 C 32.832563,294.632 32.4,294.09139 32.4,293.55081 v -75.69844 c 0,-0.64875 0.540701,-1.08124 1.081405,-1.08124 h 17.086208 c 0.432567,0 0.756981,0.21605 0.97327,0.54051 l 30.495627,53.31335 h 0.21628 v -52.77262 c 0,-0.64875 0.54071,-1.08124 1.08141,-1.08124 h 12.86878 c 0.64881,0 1.08136,0.54051 1.08136,1.08124 v 75.69844 c 0,0.64875 -0.43255,1.08119 -1.08136,1.08119 H 79.441138 c -0.432551,0 -0.756969,-0.21608 -0.973256,-0.54061 z"
   id="path18"
   style="fill:#5dfc71;fill-opacity:1;stroke-width:1.08135" />
</svg>
