<?xml version="1.0" encoding="UTF-8" standalone="no"?>
<svg
   xmlns:dc="http://purl.org/dc/elements/1.1/"
   xmlns:cc="http://creativecommons.org/ns#"
   xmlns:rdf="http://www.w3.org/1999/02/22-rdf-syntax-ns#"
   xmlns:svg="http://www.w3.org/2000/svg"
   xmlns="http://www.w3.org/2000/svg"
   xmlns:sodipodi="http://sodipodi.sourceforge.net/DTD/sodipodi-0.dtd"
   xmlns:inkscape="http://www.inkscape.org/namespaces/inkscape"
   version="1.2"
   id="Layer_1"
   x="0px"
   y="0px"
   viewBox="0 0 358.8 358.79997"
   xml:space="preserve"
   sodipodi:docname="willy.svg"
   width="358.79999"
   height="358.79999"
   inkscape:version="1.0.1 (3bc2e813f5, 2020-09-07)"><metadata
   id="metadata31"><rdf:RDF><cc:Work
       rdf:about=""><dc:format>image/svg+xml</dc:format><dc:type
         rdf:resource="http://purl.org/dc/dcmitype/StillImage" /><dc:title></dc:title></cc:Work></rdf:RDF></metadata><defs
   id="defs29" /><sodipodi:namedview
   pagecolor="#ffffff"
   bordercolor="#666666"
   borderopacity="1"
   objecttolerance="10"
   gridtolerance="10"
   guidetolerance="10"
   inkscape:pageopacity="0"
   inkscape:pageshadow="2"
   inkscape:window-width="1658"
   inkscape:window-height="837"
   id="namedview27"
   showgrid="false"
   inkscape:zoom="2.5098587"
   inkscape:cx="179.39999"
   inkscape:cy="172.42291"
   inkscape:window-x="64"
   inkscape:window-y="15"
   inkscape:window-maximized="0"
   inkscape:current-layer="Layer_1" />
<g
   id="g24"
   transform="translate(0,102.59999)"
   style="fill:#ffffff">
	<g
   id="g6"
   style="fill:#ffffff">
		<polygon
   fill="#100E0A"
   points="229.6,114.6 229.6,115.4 187,115.4 187,114.6 193.1,101.5 193.1,47.2 187.3,37.8 187.3,36.9 222.8,21.3 223.6,22 223.6,101.3 "
   id="polygon2"
   style="fill:#ffffff" />
		<polygon
   fill="#100E0A"
   points="242.7,26 242.7,101.5 236.6,114.6 236.6,115.4 279.2,115.4 279.2,114.6 273.2,101.3 273.2,0.8 272.4,0 236.9,15.7 236.9,16.6 "
   id="polygon4"
   style="fill:#ffffff" />
	</g>
	<g
   id="g16"
   style="fill:#ffffff">
		<path
   fill="#100E0A"
   d="m 315.6,131.2 h -5.4 c 0,0 -22.4,-0.1 -24.3,-0.1 -0.6,0 -1.1,0.1 -1.4,0.1 l -0.8,1.6 10.8,20.8 19.1,-18.3 z"
   id="path8"
   style="fill:#ffffff" />
		<path
   fill="#100E0A"
   d="M 332.8,86.2 321.4,57.1 326.8,43.9 V 43 h -46.9 v 0.8 l 7.7,13.1 29,63.3 1.8,3.8 c 1,-1.9 2,-3.9 3,-6.1 l 13,-28.4 z"
   id="path10"
   style="fill:#ffffff" />
		<polygon
   fill="#100E0A"
   points="339.6,43.8 345.7,57.1 347.1,59.8 349.1,57.3 358.8,43.8 358.8,43 339.6,43 "
   id="polygon12"
   style="fill:#ffffff" />
		<polygon
   fill="#100E0A"
   points="172.5,42.3 172.4,42.3 172.4,42.2 136.6,57.8 136.6,58.7 142.5,68.6 142.5,101.5 136.5,114.6 136.5,115.4 179.1,115.4 179.1,114.6 173.1,101.3 173.1,43 172.4,42.3 "
   id="polygon14"
   style="fill:#ffffff" />
	</g>
	<polygon
   fill="#100E0A"
   points="46.1,32 54.1,14.9 54.1,13.8 0,13.8 0,14.9 11,31.7 40.2,115.5 53.5,115.5 63.5,88.8 "
   id="polygon18"
   style="fill:#ffffff" />
	<polygon
   fill="#100E0A"
   points="104,31.7 114.6,15.1 114.6,14.1 60.5,14.1 60.5,15.1 68.1,32 97.6,115.8 111.4,115.8 121.3,88.5 "
   id="polygon20"
   style="fill:#ffffff" />
	<path
   fill="#100E0A"
   d="m 156,8.6 c -2,0 -3.9,0.3 -5.7,0.8 L 141,35.3 c 3.5,3.8 8.9,6.3 15,6.3 10.5,0 19,-7.4 19,-16.5 C 175,16 166.5,8.6 156,8.6 Z"
   id="path22"
   style="fill:#ffffff" />
</g>
</svg>
