<?xml version="1.0" encoding="UTF-8" standalone="no"?>
<!-- Generator: Adobe Illustrator 17.0.0, SVG Export Plug-In . SVG Version: 6.00 Build 0)  -->

<svg
   xmlns:dc="http://purl.org/dc/elements/1.1/"
   xmlns:cc="http://creativecommons.org/ns#"
   xmlns:rdf="http://www.w3.org/1999/02/22-rdf-syntax-ns#"
   xmlns:svg="http://www.w3.org/2000/svg"
   xmlns="http://www.w3.org/2000/svg"
   xmlns:sodipodi="http://sodipodi.sourceforge.net/DTD/sodipodi-0.dtd"
   xmlns:inkscape="http://www.inkscape.org/namespaces/inkscape"
   version="1.1"
   id="Layer_1"
   x="0px"
   y="0px"
   width="644px"
   height="418px"
   viewBox="0 0 644 418"
   enable-background="new 0 0 644 418"
   xml:space="preserve"
   inkscape:version="0.48.5 r10040"
   sodipodi:docname="brugge.svg"><metadata
     id="metadata23"><rdf:RDF><cc:Work
         rdf:about=""><dc:format>image/svg+xml</dc:format><dc:type
           rdf:resource="http://purl.org/dc/dcmitype/StillImage" /></cc:Work></rdf:RDF></metadata><defs
     id="defs21" /><sodipodi:namedview
     pagecolor="#ffffff"
     bordercolor="#666666"
     borderopacity="1"
     objecttolerance="10"
     gridtolerance="10"
     guidetolerance="10"
     inkscape:pageopacity="0"
     inkscape:pageshadow="2"
     inkscape:window-width="640"
     inkscape:window-height="480"
     id="namedview19"
     showgrid="false"
     inkscape:zoom="0.5645933"
     inkscape:cx="322"
     inkscape:cy="209"
     inkscape:window-x="901"
     inkscape:window-y="300"
     inkscape:window-maximized="0"
     inkscape:current-layer="Layer_1" /><g
     id="g5"><path
       fill="#B00F0A"
       d="M73.986,72.761c0-6.641,0-21.998-1.775-27.603c-2.169-7.264-10.45-7.056-16.759-7.056v-4.773   c9.464,0.207,18.731,0.621,28.195,0.83c7.886-0.208,15.576-0.623,23.463-0.83c20.702-0.623,48.502,4.98,48.502,32.583   c0,18.886-14.59,26.98-29.575,31.753v0.417c11.041,1.036,21.097,2.906,28.786,8.509c9.266,6.641,15.182,16.604,15.182,28.641   c0,13.697-8.084,23.866-19.125,30.092c-10.647,5.811-24.843,5.396-36.279,5.396c-8.675-0.207-17.153-0.623-25.828-0.83   c-11.041,0.206-22.279,0.623-33.321,0.83v-4.773c6.309,0,14.59,0.208,16.759-7.056c1.775-5.605,1.775-20.962,1.775-27.603V72.761z    M94.294,95.797h6.309c8.676,0,15.773,0.415,23.463-4.358c8.281-5.603,10.056-14.528,10.056-24.489   c0-18.472-9.464-27.603-27.011-27.603c-2.563,0-10.056-0.415-11.633,1.038c-1.38,1.244-1.183,7.056-1.183,8.717V95.797z    M94.294,130.249c0,7.056,0,19.924,2.366,26.15c3.351,8.923,13.21,8.717,20.701,8.717c19.322,0,27.998-12.037,27.998-31.755   c0-11.829-3.944-21.79-14.196-27.601c-9.07-4.982-20.701-4.358-30.757-4.358h-6.112V130.249z"
       id="path7" /><path
       fill="#92ACBE"
       d="M366.773,153.7c6.31,7.679,9.268,10.584,19.324,12.246v4.773c-5.916-0.207-11.831-0.623-17.745-0.83   c-4.929,0.206-9.858,0.623-14.787,0.83l-9.266-12.037l-32.73-42.752c-6.507-7.887-5.718-9.133-16.168-9.133v24.491   c0,6.641,0,21.998,1.775,27.603c2.366,7.264,10.449,7.056,16.759,7.056v4.773c-9.07-0.207-18.337-0.623-27.8-0.83   c-9.859,0.206-19.717,0.623-29.575,0.83v-4.773c6.309,0,14.59,0,16.759-7.056c1.775-5.605,1.775-20.962,1.775-27.603V72.761   c0-6.641,0-21.998-1.775-27.603c-2.169-7.264-10.45-7.056-16.759-7.056v-4.773c11.238,0.207,22.674,0.621,33.912,0.83   c8.281-0.208,16.759-0.623,25.04-0.83c22.477,0,45.151,5.395,45.151,34.244c0,22.413-16.168,33.829-35.688,35.697L366.773,153.7z    M295.401,101.193c24.645,0,42.588-0.623,42.588-30.715c0-18.265-9.86-31.132-27.603-31.132c-2.366,0-11.041-0.623-12.816,0.208   c-2.563,1.244-2.169,5.188-2.169,7.47V101.193z"
       id="path9" /><path
       fill="#B00F0A"
       d="M577.148,115.721c0,37.773-13.999,57.28-51.46,57.28c-35.291,0-52.444-13.075-52.444-50.639V72.761   c0-6.641,0-21.998-1.973-27.603c-2.563-7.056-10.647-7.056-16.956-7.056v-4.773c9.267,0.207,18.731,0.621,27.997,0.83   c10.056-0.208,19.914-0.623,29.97-0.83v4.773c-6.31,0-14.589-0.208-16.956,7.056c-1.775,5.605-1.775,20.962-1.775,27.603v51.054   c0,26.565,9.858,41.716,36.869,41.716c27.208,0,40.813-14.943,40.813-42.754V77.326c0-7.262,0-23.243-1.973-29.677   c-2.759-8.717-10.646-9.546-18.335-9.546v-4.773c7.689,0.207,15.181,0.621,22.872,0.83c7.294-0.208,14.589-0.623,22.083-0.83v4.773   c-6.31,0.207-13.212,0-15.97,7.471c-2.762,7.472-2.762,23.453-2.762,31.753V115.721z"
       id="path11" /><path
       fill="#92ACBE"
       d="M170.669,296.127h-4.141c-1.379-23.245-15.772-40.055-38.643-40.055c-38.447,0-46.728,37.358-46.728,70.149   c0,31.13,11.436,61.639,44.953,61.639c19.717,0,32.927-9.755,32.927-31.132c0-13.905-4.929-16.602-16.957-17.64v-4.773h51.657   v4.773c-10.647-0.208-12.224,5.396-12.224,15.772v22c-14.393,0-15.575,1.659-27.8,8.717c-10.056,5.396-19.717,7.885-30.955,7.885   c-38.447,0-66.247-26.565-66.247-67.658c0-42.338,27.801-74.506,69.008-74.506c14.59,0,29.18,3.735,41.01,13.075l4.141-9.34h2.169   L170.669,296.127z"
       id="path13" /><path
       fill="#B00F0A"
       d="M377.51,296.127h-4.141c-1.379-23.245-15.772-40.055-38.644-40.055c-38.447,0-46.727,37.358-46.727,70.149   c0,31.13,11.436,61.639,44.952,61.639c19.718,0,32.928-9.755,32.928-31.132c0-13.905-4.929-16.602-16.957-17.64v-4.773h51.658   v4.773c-10.647-0.208-12.224,5.396-12.224,15.772v22c-14.393,0-15.577,1.659-27.801,8.717c-10.054,5.396-19.716,7.885-30.953,7.885   c-38.447,0-66.248-26.565-66.248-67.658c0-42.338,27.801-74.506,69.007-74.506c14.591,0,29.182,3.735,41.011,13.075l4.141-9.34   h2.169L377.51,296.127z"
       id="path15" /><path
       fill="#92ACBE"
       d="M488.027,294.051c0-6.641,0-21.998-1.973-27.603c-2.564-7.056-10.647-7.056-16.956-7.056v-5.603h97.99   v31.338h-4.535c-3.746-24.283-13.999-25.735-34.898-25.735H513.46c-2.958,0-4.337-0.208-4.929,0.83   c-0.394,0.831-0.196,3.114-0.196,7.679v49.188c27.011,1.245,30.953-10.586,32.137-25.529h4.535   c-0.198,9.34-0.394,18.886-0.79,28.226c0.396,8.509,0.592,17.225,0.79,25.735h-4.535c-2.759-21.792-13.208-22.83-32.137-22.83   v34.036c0,6.228,0,15.981,3.548,20.962c5.127,7.264,17.351,7.679,25.238,7.472c20.504-0.417,33.911-3.114,36.474-27.811h4.535   l-1.773,33.414H469.099v-4.773c6.308,0,14.391,0,16.956-7.057c1.973-5.603,1.973-20.96,1.973-27.601V294.051z"
       id="path17" /></g></svg>