<?xml version="1.0" encoding="utf-8"?>
<!-- Generator: Adobe Illustrator 20.1.0, SVG Export Plug-In . SVG Version: 6.00 Build 0)  -->
<svg version="1.1" xmlns="http://www.w3.org/2000/svg" xmlns:xlink="http://www.w3.org/1999/xlink" x="0px" y="0px"
	 viewBox="0 0 48 48" style="enable-background:new 0 0 48 48;" xml:space="preserve">
<style type="text/css">
	.st0{fill:none;}
	.st1{fill:#2172B9;}
</style>
<g id="Layer_2">
	<rect y="0" class="st0" width="48" height="48"/>
</g>
<g id="Layer_1">
	<title>Box-logo</title>
	<desc>Created with Sketch.</desc>
	<g id="_x5B_Desktop_x5D_-AppBridge.io-">
		<g id="_x5B_Desktop_x5D_-Surveyor-V2" transform="translate(-1071.000000, -551.000000)">
			<g id="Supported-Sources" transform="translate(196.000000, 435.000000)">
				<g id="Sources-List" transform="translate(77.000000, 112.000000)">
					<g id="Fileshare-logo" transform="translate(791.000000, 0.000000)">
						<rect id="Rectangle" x="7" y="4" class="st0" width="48" height="48"/>
						<g id="Group-3" transform="translate(7.000000, 4.000000)">
							<path id="Shape" class="st1" d="M24.3,7.2h5.4h7.8c1.5,0,2.5,1,2.5,2.5c0,6.7,0,13.4,0,20.2c0,1.5-1,2.5-2.5,2.5
								c-8.8,0-17.7,0-26.5,0c-1.4,0-2.4-1-2.4-2.4c0-7.8,0-15.7,0-23.5c0-0.6,0.2-1.2,0.7-1.7c0.4-0.4,1-0.7,1.7-0.7
								c3.7,0,7.3,0,11,0c1.4,0,2.4,1,2.4,2.4C24.3,6.7,24.3,6.9,24.3,7.2z M36.9,12c0-0.3,0-0.5,0-0.7c0-0.6-0.3-0.9-0.9-0.9H12.6
								c-0.7,0-0.9,0.3-1,1v3v0.7h12.6v-0.6c0-1.5,1-2.5,2.5-2.5H36.9z"/>
							<path id="Shape_1_" class="st1" d="M22.7,34h3.1v1.3c0,1,0,2,0,2.9c0,0.5,0.1,0.9,0.6,1.3c1.4,1.2,1.4,3.2,0.1,4.5
								C25.9,44.7,25,45,24.2,45c-0.9,0-1.7-0.4-2.2-1.1c-0.6-0.6-0.8-1.5-0.8-2.3c0.1-0.9,0.5-1.6,1.2-2.2c0.3-0.2,0.4-0.5,0.4-0.8
								c0-1.4,0-2.7,0-4.1C22.7,34.4,22.7,34.2,22.7,34z"/>
							<path id="Shape_2_" class="st1" d="M19.5,40.3v3.1H19H8.7c-1,0-1.7-0.6-1.7-1.6s0.7-1.5,1.7-1.6H19.5z"/>
							<path id="Shape_3_" class="st1" d="M29,43.4v-3.1c0.1,0,0.3,0,0.4,0h10.4c1,0,1.7,0.6,1.7,1.6c0,0.9-0.7,1.6-1.7,1.6H29.6
								L29,43.4z"/>
						</g>
					</g>
				</g>
			</g>
		</g>
	</g>
</g>
</svg>
