<?xml version="1.0" encoding="UTF-8"?>
<!-- Generator: Adobe Illustrator 23.0.0, SVG Export Plug-In . SVG Version: 6.00 Build 0)  -->
<svg version="1.1" id="Layer_1" xmlns="http://www.w3.org/2000/svg" xmlns:xlink="http://www.w3.org/1999/xlink" x="0px" y="0px" viewBox="0 0 200 200" style="enable-background:new 0 0 200 200;" xml:space="preserve">
<style type="text/css">
	.st0{fill:#2DA79B;}
	.st1{fill:#1E6075;}
</style>
<g>
	<path class="st0" d="M98.9,116.6c14,0,26.4,3.3,36.4,9.7l10.7-15.1c-13.1-8.5-29.4-13.1-47.1-13.1c-17.2,0-33.1,5.4-46.1,14.6   l10.7,15.1C73.6,120.7,85.8,116.6,98.9,116.6z"/>
	<path class="st0" d="M98.9,60.4c-25.3,0-48.8,8-68,21.5L41.7,97c16.2-11.4,36-18.1,57.3-18.1c22.6,0,42.7,5.5,58.8,15.9l10.7-15.1   C149.2,67.2,125.1,60.4,98.9,60.4z"/>
	<path class="st0" d="M9,51.1l10.7,15.1c22.4-15.8,49.7-25.1,79.2-25.1c31.3,0,59,7.6,81.3,22.1l10.7-15   c-25.5-16.6-57.4-25.5-92.1-25.5C65.5,22.6,34.4,33.2,9,51.1z"/>
	<path class="st1" d="M99.2,142.7c5,0,9.9,0.8,14.5,2.2l-14.7,20.6l-14.4-20.2C89.2,143.6,94.1,142.7,99.2,142.7 M99.2,135.8   c-9.1,0-17.6,2.6-24.9,7l24.6,34.6l25.2-35.4C116.9,138,108.4,135.8,99.2,135.8L99.2,135.8z"/>
</g>
</svg>