<?xml version="1.0" encoding="UTF-8" standalone="no"?>
<svg
   id="Layer_1"
   data-name="Layer 1"
   viewBox="0 0 100 100"
   version="1.1"
   xmlns="http://www.w3.org/2000/svg"
   xmlns:svg="http://www.w3.org/2000/svg"
   xmlns:rdf="http://www.w3.org/1999/02/22-rdf-syntax-ns#"
   xmlns:cc="http://creativecommons.org/ns#"
   xmlns:dc="http://purl.org/dc/elements/1.1/">
  <defs
     id="defs1">
    <style
       id="style1">.cls-1{fill:#9bc5da;}.cls-2{fill:#4f4f4f;}.cls-3{fill:#bcd2de;}.cls-4{fill:#7d7d7d;}</style>
  </defs>
  <title
     id="title1">tablet</title>
  <g
     id="g3"
     transform="rotate(90,50,50)">
    <rect
       class="cls-1"
       x="15.04"
       y="1.95"
       width="69.910004"
       height="96.099998"
       rx="3.8699999"
       ry="3.8699999"
       id="rect1" />
    <path
       class="cls-2"
       d="M 81.09,3.9 A 1.92,1.92 0 0 1 83,5.82 V 94.18 A 1.92,1.92 0 0 1 81.08,96.1 H 18.91 A 1.92,1.92 0 0 1 17,94.18 V 5.82 A 1.92,1.92 0 0 1 18.91,3.9 h 62.18 m 0,-3.9 H 18.91 a 5.82,5.82 0 0 0 -5.82,5.82 v 88.36 a 5.82,5.82 0 0 0 5.82,5.82 h 62.18 a 5.82,5.82 0 0 0 5.82,-5.82 V 5.82 A 5.82,5.82 0 0 0 81.09,0"
       id="path1" />
    <rect
       class="cls-1"
       x="17.68"
       y="91.5"
       width="64.639999"
       height="3.55"
       id="rect2" />
    <rect
       class="cls-2"
       x="15.73"
       y="89.550003"
       width="68.550003"
       height="7.4499998"
       id="rect3" />
    <path
       class="cls-4"
       d="m 53,94.82 a 3,3 0 1 1 -3,-3 3,3 0 0 1 3,3"
       id="path3" />
  </g>
  <g
     id="g17"
     transform="matrix(2.4,0,0,2.4,-22.785742,-54.738924)">
    <g
       id="g13">
      <path
         d="m 19.999,39 h -2 c -0.55,0 -1,0.45 -1,1 v 4 4 c 0,0.55 0.45,1 1,1 h 2 c 2.587,0 3.962,-3.088 2.23,-5 1.729,-1.909 0.361,-5 -2.23,-5 z m 1,7 c 0,0.55 -0.45,1 -1,1 h -1 v -2 h 1 c 0.55,0 1,0.45 1,1 z m -2,-3 v -2 h 1 c 0.55,0 1,0.45 1,1 0,0.55 -0.45,1 -1,1 z"
         fill="#00325a"
         id="path12" />
    </g>
    <g
       id="g14">
      <path
         d="m 30.001,41 c 0.553,0 1,-0.448 1,-1 0,-0.552 -0.447,-1 -1,-1 h -4 c -0.553,0 -1,0.448 -1,1 v 8 c 0,0.552 0.447,1 1,1 h 4 c 0.553,0 1,-0.448 1,-1 0,-0.552 -0.447,-1 -1,-1 h -3 v -2 h 3 c 0.553,0 1,-0.448 1,-1 0,-0.552 -0.447,-1 -1,-1 h -3 v -2 z"
         fill="#00325a"
         id="path13" />
    </g>
    <g
       id="g15">
      <path
         d="m 38.001,39 h -4 c -0.553,0 -1,0.448 -1,1 0,0.552 0.447,1 1,1 h 1 v 7 c 0,0.552 0.447,1 1,1 0.553,0 1,-0.448 1,-1 v -7 h 1 c 0.553,0 1,-0.448 1,-1 0,-0.552 -0.448,-1 -1,-1 z"
         fill="#00325a"
         id="path14" />
    </g>
    <g
       id="g16">
      <path
         d="m 44.001,39 c -1.654,0 -3,1.346 -3,3 v 6 c 0,0.552 0.447,1 1,1 0.553,0 1,-0.448 1,-1 v -3 h 2 v 3 c 0,0.552 0.447,1 1,1 0.553,0 1,-0.448 1,-1 v -6 c 0,-1.654 -1.346,-3 -3,-3 z m -1,4 v -1 c 0,-0.551 0.448,-1 1,-1 0.552,0 1,0.449 1,1 v 1 z"
         fill="#00325a"
         id="path15" />
    </g>
  </g>
  <metadata
     id="metadata3">
    <rdf:RDF>
      <cc:Work
         rdf:about="">
        <dc:title>tablet</dc:title>
      </cc:Work>
    </rdf:RDF>
  </metadata>
</svg>
