<?xml version="1.0" encoding="UTF-8" standalone="no"?>
<svg
   width="27"
   height="27"
   viewBox="0 0 27 27"
   version="1.1"
   id="svg2"
   xmlns:xlink="http://www.w3.org/1999/xlink"
   xmlns="http://www.w3.org/2000/svg"
   xmlns:svg="http://www.w3.org/2000/svg"
   xmlns:rdf="http://www.w3.org/1999/02/22-rdf-syntax-ns#"
   xmlns:cc="http://creativecommons.org/ns#"
   xmlns:dc="http://purl.org/dc/elements/1.1/">
  <!-- Generator: Sketch 42 (36781) - http://www.bohemiancoding.com/sketch -->
  <title
     id="title1">gear</title>
  <desc
     id="desc1">Created with Sketch.</desc>
  <defs
     id="defs2">
    <linearGradient
       x1="0.5"
       y1="0"
       x2="0.5"
       y2="1"
       id="linearGradient-1">
      <stop
         stop-color="#1AD6FD"
         offset="0%"
         id="stop1" />
      <stop
         stop-color="#1D67F0"
         offset="100%"
         id="stop2" />
    </linearGradient>
    <linearGradient
       xlink:href="#linearGradient-1"
       id="linearGradient2"
       x1="12.5"
       y1="0"
       x2="12.5"
       y2="25"
       gradientUnits="userSpaceOnUse" />
    <linearGradient
       xlink:href="#linearGradient-1"
       id="linearGradient3"
       x1="12.5"
       y1="0"
       x2="12.5"
       y2="25"
       gradientUnits="userSpaceOnUse" />
    <linearGradient
       xlink:href="#linearGradient-1"
       id="linearGradient4"
       x1="212.5"
       y1="300"
       x2="212.5"
       y2="325"
       gradientUnits="userSpaceOnUse" />
  </defs>
  <g
     id="g2"
     stroke="none"
     stroke-width="1"
     fill="none"
     fill-rule="evenodd"
     transform="translate(1,1)">
    <g
       id="Filled"
       transform="translate(-200,-300)"
       fill="url(#linearGradient-1)"
       style="fill:url(#linearGradient4)">
      <g
         id="gear"
         transform="translate(200,300)"
         style="fill:url(#linearGradient3)">
        <path
           d="M 16,12.5 C 16,14.43 14.43,16 12.5,16 10.57,16 9,14.43 9,12.5 9,10.57 10.57,9 12.5,9 14.43,9 16,10.57 16,12.5 m 7.795,-2.151 H 23.794 L 21.902,9.971 C 21.413,9.873 21.006,9.535 20.805,9.046 20.611,8.579 20.661,8.054 20.937,7.64 l 1.07,-1.605 C 22.403,5.441 22.324,4.646 21.819,4.143 L 20.857,3.18 C 20.354,2.676 19.558,2.597 18.965,2.993 L 17.36,4.062 C 16.944,4.338 16.419,4.387 15.934,4.187 15.465,3.994 15.127,3.587 15.029,3.098 L 14.651,1.205 C 14.512,0.507 13.893,0 13.18,0 H 11.82 C 11.107,0 10.488,0.507 10.349,1.206 L 9.971,3.098 C 9.873,3.587 9.535,3.994 9.046,4.195 8.579,4.389 8.054,4.34 7.64,4.062 L 6.035,2.993 C 5.442,2.598 4.646,2.676 4.143,3.18 L 3.181,4.142 C 2.676,4.646 2.597,5.441 2.993,6.035 L 4.062,7.64 C 4.339,8.054 4.389,8.579 4.187,9.066 3.994,9.535 3.587,9.873 3.098,9.971 L 1.205,10.349 C 0.507,10.489 0,11.107 0,11.819 v 1.361 c 0,0.713 0.507,1.331 1.206,1.471 l 1.892,0.378 c 0.489,0.098 0.896,0.436 1.097,0.925 0.194,0.467 0.144,0.992 -0.133,1.406 l -1.069,1.605 c -0.396,0.594 -0.317,1.389 0.188,1.892 l 0.961,0.962 c 0.504,0.503 1.3,0.584 1.893,0.188 L 7.64,20.938 c 0.415,-0.278 0.94,-0.327 1.426,-0.125 0.469,0.193 0.807,0.6 0.905,1.089 l 0.378,1.893 C 10.489,24.493 11.107,25 11.82,25 h 1.36 c 0.713,0 1.331,-0.507 1.471,-1.206 l 0.378,-1.892 c 0.098,-0.489 0.436,-0.896 0.925,-1.097 0.468,-0.195 0.992,-0.144 1.406,0.133 l 1.605,1.069 c 0.594,0.396 1.39,0.316 1.892,-0.188 l 0.962,-0.961 c 0.505,-0.504 0.584,-1.299 0.188,-1.893 l -1.07,-1.605 c -0.276,-0.414 -0.326,-0.939 -0.125,-1.426 0.194,-0.469 0.601,-0.807 1.09,-0.905 l 1.893,-0.378 C 24.493,14.511 25,13.893 25,13.18 v -1.361 c 0,-0.712 -0.507,-1.33 -1.205,-1.47"
           id="Page-1"
           style="fill:url(#linearGradient2)" />
      </g>
    </g>
  </g>
  <metadata
     id="metadata2">
    <rdf:RDF>
      <cc:Work
         rdf:about="">
        <dc:title>gear</dc:title>
      </cc:Work>
    </rdf:RDF>
  </metadata>
</svg>
