<svg id="Layer_1" data-name="Layer 1" xmlns="http://www.w3.org/2000/svg" xmlns:xlink="http://www.w3.org/1999/xlink" viewBox="0 0 512 512"><defs><linearGradient id="linear-gradient" x1="256" x2="256" y2="512" gradientUnits="userSpaceOnUse"><stop offset="0" stop-color="#e9ebf5"/><stop offset="0.76" stop-color="#b0c7e1"/><stop offset="1" stop-color="#7697c6"/></linearGradient><linearGradient id="linear-gradient-2" x1="256" y1="426.36" x2="256" y2="85.64" gradientUnits="userSpaceOnUse"><stop offset="0" stop-color="#000013"/><stop offset="1" stop-color="#005c92"/></linearGradient></defs><title>process</title><path d="M256,512c141,0,256-115,256-256S397,0,256,0,0,115,0,256,115,512,256,512Z" fill-rule="evenodd" fill="url(#linear-gradient)"/><path d="M245.1,185a71,71,0,1,1-71,71,71.06,71.06,0,0,1,71-71Zm93.65-22.72A15,15,0,0,1,336.5,144c.26-.46,1.83-3.07,2.23-3.77a23.29,23.29,0,0,0-40.34-23.29c-.4.7-1.88,3.36-2.15,3.82a15.17,15.17,0,0,1-16.92,7.2,15,15,0,0,1-11.07-14.65c0-.53.05-3.57.05-4.38a23.29,23.29,0,1,0-46.58,0c0,.81.05,3.85.05,4.38A15.18,15.18,0,0,1,210.72,128a15,15,0,0,1-16.91-7.16c-.27-.46-1.75-3.12-2.15-3.82a23.29,23.29,0,0,0-40.34,23.29c.4.7,2,3.32,2.24,3.77a15.18,15.18,0,0,1-2.22,18.25,15,15,0,0,1-18.23,2.26l-3.77-2.24A23.29,23.29,0,1,0,106,202.71c.7.4,3.37,1.88,3.83,2.14a15.19,15.19,0,0,1,7.2,16.93,15,15,0,0,1-14.66,11.07L98,232.79a23.29,23.29,0,0,0,0,46.58l4.38-.05a15.18,15.18,0,0,1,14.69,11.06,15,15,0,0,1-7.16,16.92c-.46.26-3.12,1.74-3.82,2.15a23.29,23.29,0,1,0,23.29,40.34l3.77-2.24a15.18,15.18,0,0,1,18.26,2.23A15,15,0,0,1,153.7,368c-.26.47-1.84,3.08-2.24,3.77a23.3,23.3,0,0,0,40.35,23.3c.4-.71,1.88-3.36,2.15-3.82a15.18,15.18,0,0,1,16.92-7.2,15,15,0,0,1,11.06,14.66c0,.52,0,3.57,0,4.37a23.29,23.29,0,1,0,46.58,0c0-.8-.05-3.86-.05-4.37A15.18,15.18,0,0,1,279.48,384a15,15,0,0,1,16.91,7.16c.27.45,1.74,3.12,2.15,3.82a23.29,23.29,0,1,0,40.34-23.3c-.4-.7-2-3.31-2.24-3.77a15.18,15.18,0,0,1,2.22-18.25,15,15,0,0,1,18.23-2.27l3.77,2.24a23.29,23.29,0,0,0,23.3-40.34c-.7-.4-3.37-1.88-3.82-2.15a15.17,15.17,0,0,1-7.21-16.92,15,15,0,0,1,14.66-11.07c.53,0,3.58.06,4.38.06a23.29,23.29,0,1,0,0-46.59l-4.38.05a15.17,15.17,0,0,1-14.69-11.05,15,15,0,0,1,7.16-16.91c.46-.27,3.12-1.74,3.82-2.15a23.29,23.29,0,0,0-23.28-40.34c-.71.4-3.32,2-3.77,2.24a15.19,15.19,0,0,1-18.26-2.22ZM245.1,175.32A80.67,80.67,0,1,0,325.77,256a80.68,80.68,0,0,0-80.67-80.68Zm0,23.75A56.92,56.92,0,1,0,302,256,56.93,56.93,0,0,0,245.1,199.08Z" fill="#fff" fill-rule="evenodd"/><path d="M256,185a71,71,0,1,1-71,71,71.06,71.06,0,0,1,71-71Zm93.66-22.72A15,15,0,0,1,347.39,144c.27-.46,1.84-3.07,2.24-3.77a23.29,23.29,0,0,0-40.34-23.29c-.4.7-1.88,3.36-2.14,3.82a15.18,15.18,0,0,1-16.93,7.2,15,15,0,0,1-11.07-14.65c0-.53.05-3.57.05-4.38a23.29,23.29,0,1,0-46.58,0c0,.81.05,3.85.05,4.38A15.18,15.18,0,0,1,221.62,128a15,15,0,0,1-16.91-7.16c-.26-.46-1.75-3.12-2.15-3.82a23.29,23.29,0,0,0-40.34,23.29c.41.7,2,3.32,2.24,3.77a15.16,15.16,0,0,1-2.22,18.25A15,15,0,0,1,144,164.6l-3.77-2.24a23.29,23.29,0,0,0-23.3,40.34l3.82,2.14A15.18,15.18,0,0,1,128,221.78a15,15,0,0,1-14.66,11.07l-4.38-.05a23.29,23.29,0,0,0,0,46.58l4.38-.05A15.19,15.19,0,0,1,128,290.38a15,15,0,0,1-7.16,16.92c-.46.26-3.12,1.74-3.82,2.15a23.29,23.29,0,1,0,23.29,40.34l3.77-2.24a15.18,15.18,0,0,1,18.26,2.23A15,15,0,0,1,164.6,368c-.26.47-1.83,3.08-2.24,3.77a23.29,23.29,0,0,0,40.34,23.3c.4-.71,1.88-3.36,2.15-3.82a15.18,15.18,0,0,1,16.92-7.2,15,15,0,0,1,11.07,14.66c0,.52-.05,3.57-.05,4.37a23.29,23.29,0,1,0,46.58,0c0-.8-.05-3.86-.05-4.37A15.18,15.18,0,0,1,290.38,384a15,15,0,0,1,16.91,7.16c.26.45,1.74,3.12,2.15,3.82a23.29,23.29,0,1,0,40.34-23.3c-.4-.7-2-3.31-2.24-3.77a15.17,15.17,0,0,1,2.23-18.25A15,15,0,0,1,368,347.39c.46.27,3.07,1.83,3.77,2.24A23.29,23.29,0,1,0,395,309.29c-.69-.4-3.35-1.88-3.81-2.15a15.17,15.17,0,0,1-7.2-16.92,15,15,0,0,1,14.66-11.07c.53,0,3.57.06,4.38.06a23.29,23.29,0,0,0,0-46.59l-4.38.05A15.17,15.17,0,0,1,384,221.62a15,15,0,0,1,7.16-16.91c.46-.27,3.11-1.74,3.82-2.15a23.29,23.29,0,0,0-23.3-40.34c-.7.4-3.31,2-3.77,2.24a15.19,15.19,0,0,1-18.26-2.22ZM256,175.32A80.67,80.67,0,1,0,336.67,256,80.68,80.68,0,0,0,256,175.32Zm0,23.75A56.92,56.92,0,1,0,312.92,256,56.93,56.93,0,0,0,256,199.08Z" fill-rule="evenodd" fill="url(#linear-gradient-2)"/></svg>