<?xml version="1.0" encoding="UTF-8" standalone="no"?>
<!-- Created with Inkscape (http://www.inkscape.org/) -->

<svg
   xmlns:dc="http://purl.org/dc/elements/1.1/"
   xmlns:cc="http://creativecommons.org/ns#"
   xmlns:rdf="http://www.w3.org/1999/02/22-rdf-syntax-ns#"
   xmlns:svg="http://www.w3.org/2000/svg"
   xmlns="http://www.w3.org/2000/svg"
   xmlns:xlink="http://www.w3.org/1999/xlink"
   xmlns:sodipodi="http://sodipodi.sourceforge.net/DTD/sodipodi-0.dtd"
   xmlns:inkscape="http://www.inkscape.org/namespaces/inkscape"
   version="1.0"
   width="70"
   height="68"
   id="svg2408"
   sodipodi:docname="keyring.svg"
   inkscape:version="0.92.2 5c3e80d, 2017-08-06">
  <sodipodi:namedview
     pagecolor="#ffffff"
     bordercolor="#666666"
     borderopacity="1"
     objecttolerance="10"
     gridtolerance="10"
     guidetolerance="10"
     inkscape:pageopacity="0"
     inkscape:pageshadow="2"
     inkscape:window-width="2773"
     inkscape:window-height="1731"
     id="namedview193"
     showgrid="false"
     inkscape:zoom="10.48"
     inkscape:cx="35"
     inkscape:cy="35"
     inkscape:window-x="0"
     inkscape:window-y="0"
     inkscape:window-maximized="0"
     inkscape:current-layer="svg2408"
     fit-margin-top="0"
     fit-margin-left="0"
     fit-margin-right="0"
     fit-margin-bottom="0" />
  <defs
     id="defs2410">
    <linearGradient
       id="linearGradient3831">
      <stop
         id="stop3833"
         style="stop-color:#267387;stop-opacity:1"
         offset="0" />
      <stop
         id="stop3835"
         style="stop-color:#5bb9d2;stop-opacity:1"
         offset="1" />
    </linearGradient>
    <linearGradient
       id="linearGradient3824">
      <stop
         id="stop3826"
         style="stop-color:#e4e4e4;stop-opacity:1"
         offset="0" />
      <stop
         id="stop3828"
         style="stop-color:#989898;stop-opacity:1"
         offset="1" />
    </linearGradient>
    <linearGradient
       id="linearGradient3763">
      <stop
         id="stop3765"
         style="stop-color:#dadada;stop-opacity:1"
         offset="0" />
      <stop
         id="stop3767"
         style="stop-color:#ffffff;stop-opacity:1"
         offset="0.39128959" />
      <stop
         id="stop3769"
         style="stop-color:#b9b9b9;stop-opacity:1"
         offset="1" />
    </linearGradient>
    <linearGradient
       id="linearGradient3755">
      <stop
         id="stop3757"
         style="stop-color:#ffffff;stop-opacity:1"
         offset="0" />
      <stop
         id="stop3759"
         style="stop-color:#ffffff;stop-opacity:0"
         offset="1" />
    </linearGradient>
    <linearGradient
       id="linearGradient3742">
      <stop
         id="stop3744"
         style="stop-color:#000000;stop-opacity:1"
         offset="0" />
      <stop
         id="stop3746"
         style="stop-color:#000000;stop-opacity:0"
         offset="1" />
    </linearGradient>
    <linearGradient
       id="linearGradient4120">
      <stop
         id="stop4122"
         style="stop-color:#ffffff;stop-opacity:1"
         offset="0" />
      <stop
         id="stop4124"
         style="stop-color:#989898;stop-opacity:1"
         offset="1" />
    </linearGradient>
    <linearGradient
       id="linearGradient3859">
      <stop
         id="stop3861"
         style="stop-color:#808080;stop-opacity:1"
         offset="0" />
      <stop
         id="stop3863"
         style="stop-color:#d0d0d0;stop-opacity:1"
         offset="1" />
    </linearGradient>
    <linearGradient
       id="linearGradient3677">
      <stop
         id="stop3679"
         style="stop-color:#ffffff;stop-opacity:1"
         offset="0" />
      <stop
         id="stop3681"
         style="stop-color:#ffffff;stop-opacity:0"
         offset="1" />
    </linearGradient>
    <linearGradient
       id="linearGradient3614">
      <stop
         id="stop3616"
         style="stop-color:#b9b9b9;stop-opacity:1"
         offset="0" />
      <stop
         id="stop3618"
         style="stop-color:#dedede;stop-opacity:1"
         offset="1" />
    </linearGradient>
    <linearGradient
       x1="45.447727"
       y1="92.539597"
       x2="45.447727"
       y2="7.0165396"
       id="ButtonShadow"
       gradientUnits="userSpaceOnUse"
       gradientTransform="scale(1.0058652,0.994169)">
      <stop
         id="stop3750"
         style="stop-color:#000000;stop-opacity:1"
         offset="0" />
      <stop
         id="stop3752"
         style="stop-color:#000000;stop-opacity:0.58823532"
         offset="1" />
    </linearGradient>
    <linearGradient
       id="linearGradient3737">
      <stop
         id="stop3739"
         style="stop-color:#ffffff;stop-opacity:1"
         offset="0" />
      <stop
         id="stop3741"
         style="stop-color:#ffffff;stop-opacity:0"
         offset="1" />
    </linearGradient>
    <filter
       id="filter3174"
       style="color-interpolation-filters:sRGB">
      <feGaussianBlur
         id="feGaussianBlur3176"
         stdDeviation="1.71" />
    </filter>
    <linearGradient
       x1="36.357143"
       y1="6"
       x2="36.357143"
       y2="63.893143"
       id="linearGradient3188"
       xlink:href="#linearGradient3737"
       gradientUnits="userSpaceOnUse" />
    <filter
       x="-0.192"
       y="-0.192"
       width="1.3839999"
       height="1.3839999"
       id="filter3794"
       style="color-interpolation-filters:sRGB">
      <feGaussianBlur
         id="feGaussianBlur3796"
         stdDeviation="5.28" />
    </filter>
    <linearGradient
       x1="48"
       y1="20.220806"
       x2="48"
       y2="138.66119"
       id="linearGradient3613"
       xlink:href="#linearGradient3737"
       gradientUnits="userSpaceOnUse" />
    <radialGradient
       cx="48"
       cy="90.171875"
       r="42"
       fx="48"
       fy="90.171875"
       id="radialGradient3619"
       xlink:href="#linearGradient3737"
       gradientUnits="userSpaceOnUse"
       gradientTransform="matrix(1.1573129,0,0,0.99590774,-7.5510206,0.19713193)" />
    <clipPath
       id="clipPath3613">
      <rect
         width="84"
         height="84"
         rx="6"
         ry="6"
         x="6"
         y="6"
         id="rect3615"
         style="fill:#ffffff;fill-opacity:1;fill-rule:nonzero;stroke:none" />
    </clipPath>
    <linearGradient
       x1="48"
       y1="90"
       x2="48"
       y2="5.9877172"
       id="linearGradient3617"
       xlink:href="#linearGradient3614"
       gradientUnits="userSpaceOnUse" />
    <linearGradient
       x1="15"
       y1="48"
       x2="81"
       y2="48"
       id="linearGradient3628"
       xlink:href="#linearGradient3859"
       gradientUnits="userSpaceOnUse"
       gradientTransform="matrix(0.96969697,0,0,0.96969697,-94.545455,1.4545455)" />
    <linearGradient
       x1="82"
       y1="76"
       x2="88"
       y2="76"
       id="linearGradient3867"
       xlink:href="#linearGradient3763"
       gradientUnits="userSpaceOnUse"
       gradientTransform="matrix(0.66666667,0,0,1.5,23.333333,-84)" />
    <linearGradient
       x1="-83"
       y1="48"
       x2="-15"
       y2="48"
       id="linearGradient3748"
       xlink:href="#linearGradient3742"
       gradientUnits="userSpaceOnUse"
       gradientTransform="translate(1,1)" />
    <linearGradient
       x1="38.75"
       y1="15"
       x2="38.75"
       y2="104.19522"
       id="linearGradient3761"
       xlink:href="#linearGradient3755"
       gradientUnits="userSpaceOnUse" />
    <linearGradient
       x1="82"
       y1="76"
       x2="88"
       y2="76"
       id="linearGradient3779"
       xlink:href="#linearGradient3763"
       gradientUnits="userSpaceOnUse"
       gradientTransform="matrix(0.66666667,0,0,1.5,23.333333,-48)" />
    <linearGradient
       x1="-83"
       y1="48"
       x2="-15"
       y2="48"
       id="linearGradient3942"
       xlink:href="#linearGradient3742"
       gradientUnits="userSpaceOnUse"
       gradientTransform="translate(1,1)" />
    <linearGradient
       id="linearGradient3738">
      <stop
         id="stop3740"
         style="stop-color:#9ae8fb;stop-opacity:1"
         offset="0" />
      <stop
         id="stop3742"
         style="stop-color:#50bad4;stop-opacity:1"
         offset="1" />
    </linearGradient>
    <radialGradient
       cx="57"
       cy="43.639278"
       r="11"
       fx="57"
       fy="43.639278"
       id="radialGradient3816"
       xlink:href="#linearGradient3738"
       gradientUnits="userSpaceOnUse"
       gradientTransform="matrix(1.4247695,-5.0547426e-8,1.8199729e-8,0.51299189,-24.211861,14.391327)" />
    <linearGradient
       x1="55.732872"
       y1="40.798225"
       x2="55.732872"
       y2="30.783098"
       id="linearGradient3822"
       xlink:href="#linearGradient3824"
       gradientUnits="userSpaceOnUse"
       gradientTransform="translate(0,-2)" />
    <linearGradient
       x1="49.914341"
       y1="32.338196"
       x2="49.928932"
       y2="39.282997"
       id="linearGradient3837"
       xlink:href="#linearGradient3831"
       gradientUnits="userSpaceOnUse"
       gradientTransform="translate(0,-2)" />
    <linearGradient
       x1="48.90419"
       y1="46.020306"
       x2="48.90419"
       y2="41.967209"
       id="linearGradient3860"
       xlink:href="#linearGradient2949"
       gradientUnits="userSpaceOnUse"
       gradientTransform="translate(0,-88)" />
    <linearGradient
       id="linearGradient2949">
      <stop
         id="stop2951"
         style="stop-color:#323232;stop-opacity:1"
         offset="0" />
      <stop
         id="stop2953"
         style="stop-color:#505050;stop-opacity:1"
         offset="1" />
    </linearGradient>
    <linearGradient
       x1="48.90419"
       y1="46.020306"
       x2="48.90419"
       y2="41.967209"
       id="linearGradient3980"
       xlink:href="#linearGradient2949"
       gradientUnits="userSpaceOnUse"
       gradientTransform="translate(8,-88)" />
    <linearGradient
       x1="48.90419"
       y1="46.020306"
       x2="48.90419"
       y2="41.967209"
       id="linearGradient3990"
       xlink:href="#linearGradient2949"
       gradientUnits="userSpaceOnUse"
       gradientTransform="translate(16,-88)" />
    <linearGradient
       x1="48.90419"
       y1="46.020306"
       x2="48.90419"
       y2="41.967209"
       id="linearGradient4016"
       xlink:href="#linearGradient2949"
       gradientUnits="userSpaceOnUse"
       gradientTransform="translate(0,-94)" />
    <linearGradient
       x1="48.90419"
       y1="46.020306"
       x2="48.90419"
       y2="41.967209"
       id="linearGradient4018"
       xlink:href="#linearGradient2949"
       gradientUnits="userSpaceOnUse"
       gradientTransform="translate(8,-94)" />
    <linearGradient
       x1="48.90419"
       y1="46.020306"
       x2="48.90419"
       y2="41.967209"
       id="linearGradient4020"
       xlink:href="#linearGradient2949"
       gradientUnits="userSpaceOnUse"
       gradientTransform="translate(16,-94)" />
    <linearGradient
       x1="48.90419"
       y1="46.020306"
       x2="48.90419"
       y2="41.967209"
       id="linearGradient4046"
       xlink:href="#linearGradient2949"
       gradientUnits="userSpaceOnUse"
       gradientTransform="translate(0,-100)" />
    <linearGradient
       x1="48.90419"
       y1="46.020306"
       x2="48.90419"
       y2="41.967209"
       id="linearGradient4048"
       xlink:href="#linearGradient2949"
       gradientUnits="userSpaceOnUse"
       gradientTransform="translate(8,-100)" />
    <linearGradient
       x1="48.90419"
       y1="46.020306"
       x2="48.90419"
       y2="41.967209"
       id="linearGradient4051"
       xlink:href="#linearGradient2949"
       gradientUnits="userSpaceOnUse"
       gradientTransform="translate(16,-100)" />
    <linearGradient
       x1="48.90419"
       y1="46.020306"
       x2="48.90419"
       y2="41.967209"
       id="linearGradient4077"
       xlink:href="#linearGradient2949"
       gradientUnits="userSpaceOnUse"
       gradientTransform="translate(0,-106)" />
    <linearGradient
       x1="48.90419"
       y1="46.020306"
       x2="48.90419"
       y2="41.967209"
       id="linearGradient4079"
       xlink:href="#linearGradient2949"
       gradientUnits="userSpaceOnUse"
       gradientTransform="translate(8,-106)" />
    <linearGradient
       x1="48.90419"
       y1="46.020306"
       x2="48.90419"
       y2="41.967209"
       id="linearGradient4081"
       xlink:href="#linearGradient2949"
       gradientUnits="userSpaceOnUse"
       gradientTransform="translate(16,-106)" />
    <linearGradient
       x1="24.117392"
       y1="38.35817"
       x2="36.618031"
       y2="38.35817"
       id="linearGradient3820"
       xlink:href="#linearGradient4120"
       gradientUnits="userSpaceOnUse" />
    <linearGradient
       x1="27"
       y1="52.359375"
       x2="35"
       y2="52"
       id="linearGradient3841"
       xlink:href="#linearGradient3677"
       gradientUnits="userSpaceOnUse"
       gradientTransform="translate(1)" />
    <linearGradient
       x1="27"
       y1="52"
       x2="33"
       y2="52"
       id="linearGradient3849"
       xlink:href="#linearGradient4120"
       gradientUnits="userSpaceOnUse"
       gradientTransform="translate(1)" />
    <linearGradient
       x1="28.80513"
       y1="36.795589"
       x2="36.618031"
       y2="38.35817"
       id="linearGradient3891"
       xlink:href="#linearGradient3824"
       gradientUnits="userSpaceOnUse" />
    <filter
       x="-0.30000001"
       y="-0.075000003"
       width="1.6"
       height="1.15"
       id="filter3901"
       style="color-interpolation-filters:sRGB">
      <feGaussianBlur
         id="feGaussianBlur3903"
         stdDeviation="0.75" />
    </filter>
    <radialGradient
       cx="53"
       cy="47"
       r="3"
       fx="53"
       fy="47"
       id="radialGradient3916"
       xlink:href="#linearGradient3677"
       gradientUnits="userSpaceOnUse" />
    <radialGradient
       cx="53"
       cy="47"
       r="3"
       fx="53"
       fy="47"
       id="radialGradient3920"
       xlink:href="#linearGradient3677"
       gradientUnits="userSpaceOnUse"
       gradientTransform="translate(8)" />
    <radialGradient
       cx="53"
       cy="47"
       r="3"
       fx="53"
       fy="47"
       id="radialGradient3926"
       xlink:href="#linearGradient3677"
       gradientUnits="userSpaceOnUse"
       gradientTransform="translate(0,6)" />
    <radialGradient
       cx="53"
       cy="47"
       r="3"
       fx="53"
       fy="47"
       id="radialGradient3928"
       xlink:href="#linearGradient3677"
       gradientUnits="userSpaceOnUse"
       gradientTransform="translate(8,6)" />
    <radialGradient
       cx="53"
       cy="47"
       r="3"
       fx="53"
       fy="47"
       id="radialGradient3934"
       xlink:href="#linearGradient3677"
       gradientUnits="userSpaceOnUse"
       gradientTransform="translate(0,12)" />
    <radialGradient
       cx="53"
       cy="47"
       r="3"
       fx="53"
       fy="47"
       id="radialGradient3936"
       xlink:href="#linearGradient3677"
       gradientUnits="userSpaceOnUse"
       gradientTransform="translate(8,12)" />
    <linearGradient
       x1="45.447727"
       y1="92.539597"
       x2="45.447727"
       y2="7.0165396"
       id="ButtonShadow-0"
       gradientUnits="userSpaceOnUse"
       gradientTransform="matrix(1.0058652,0,0,0.994169,100,0)">
      <stop
         id="stop3750-8"
         style="stop-color:#000000;stop-opacity:1"
         offset="0" />
      <stop
         id="stop3752-5"
         style="stop-color:#000000;stop-opacity:0.58823532"
         offset="1" />
    </linearGradient>
    <linearGradient
       x1="32.251034"
       y1="6.1317081"
       x2="32.251034"
       y2="90.238609"
       id="linearGradient3780"
       xlink:href="#ButtonShadow-0"
       gradientUnits="userSpaceOnUse"
       gradientTransform="matrix(1.0238095,0,0,1.0119048,-1.1428571,-98.071429)" />
    <linearGradient
       x1="32.251034"
       y1="6.1317081"
       x2="32.251034"
       y2="90.238609"
       id="linearGradient3772"
       xlink:href="#ButtonShadow-0"
       gradientUnits="userSpaceOnUse"
       gradientTransform="matrix(1.0238095,0,0,1.0119048,-1.1428571,-98.071429)" />
    <linearGradient
       x1="32.251034"
       y1="6.1317081"
       x2="32.251034"
       y2="90.238609"
       id="linearGradient3725"
       xlink:href="#ButtonShadow-0"
       gradientUnits="userSpaceOnUse"
       gradientTransform="matrix(1.0238095,0,0,1.0119048,-1.1428571,-98.071429)" />
    <linearGradient
       x1="32.251034"
       y1="6.1317081"
       x2="32.251034"
       y2="90.238609"
       id="linearGradient3721"
       xlink:href="#ButtonShadow-0"
       gradientUnits="userSpaceOnUse"
       gradientTransform="translate(0,-97)" />
    <linearGradient
       x1="32.251034"
       y1="6.1317081"
       x2="32.251034"
       y2="90.238609"
       id="linearGradient2918"
       xlink:href="#ButtonShadow-0"
       gradientUnits="userSpaceOnUse"
       gradientTransform="matrix(1.0238095,0,0,1.0119048,-1.1428571,-98.071429)" />
  </defs>
  <metadata
     id="metadata2413">
    <rdf:RDF>
      <cc:Work
         rdf:about="">
        <dc:format>image/svg+xml</dc:format>
        <dc:type
           rdf:resource="http://purl.org/dc/dcmitype/StillImage" />
        <dc:title></dc:title>
      </cc:Work>
    </rdf:RDF>
  </metadata>
  <g
     id="layer2"
     style="display:none"
     transform="translate(-13,-15)">
    <rect
       width="86"
       height="85"
       rx="6"
       ry="6"
       x="5"
       y="7"
       id="rect3745"
       style="opacity:0.9;fill:url(#ButtonShadow);fill-opacity:1;fill-rule:nonzero;stroke:none;filter:url(#filter3174)" />
  </g>
  <g
     id="layer4"
     style="display:inline"
     transform="translate(-13,-15)">
    <path
       d="m -79,13 c -2.204152,0 -4,1.795848 -4,4 v 62 c 0,2.204152 1.795848,4 4,4 h 60 c 2.204152,0 4,-1.795848 4,-4 V 17 c 0,-2.204152 -1.795848,-4 -4,-4 z"
       transform="rotate(-90)"
       id="path3940"
       style="opacity:0.1;fill:url(#linearGradient3942);fill-opacity:1;fill-rule:nonzero;stroke:none"
       inkscape:connector-curvature="0" />
    <rect
       width="66"
       height="68"
       rx="3"
       ry="3"
       x="-82"
       y="14"
       transform="rotate(-90)"
       id="rect3740"
       style="opacity:0.2;fill:url(#linearGradient3748);fill-opacity:1;fill-rule:nonzero;stroke:none" />
    <rect
       width="66"
       height="66"
       rx="2"
       ry="2"
       x="-81"
       y="15"
       transform="rotate(-90)"
       id="rect3736"
       style="opacity:0.4;fill:#000000;fill-opacity:1;fill-rule:nonzero;stroke:none" />
    <rect
       width="64"
       height="64"
       x="-80"
       y="16"
       transform="rotate(-90)"
       id="rect3620"
       style="fill:url(#linearGradient3628);fill-opacity:1;fill-rule:nonzero;stroke:none" />
    <rect
       width="6"
       height="14"
       rx="2"
       ry="2"
       x="77"
       y="23"
       id="rect3771"
       style="opacity:0.4;fill:#000000;fill-opacity:1;stroke:none" />
    <path
       d="M 16,16 V 80 H 80 V 16 Z m 2,2 H 78 V 78 H 18 Z"
       inkscape:connector-curvature="0"
       id="rect3750"
       style="opacity:0.5;fill:url(#linearGradient3761);fill-opacity:1;fill-rule:nonzero;stroke:none" />
    <rect
       width="4"
       height="12"
       rx="1"
       ry="1"
       x="78"
       y="24"
       id="rect3789"
       style="fill:url(#linearGradient3867);fill-opacity:1;stroke:none" />
    <rect
       width="6"
       height="14"
       rx="2"
       ry="2"
       x="77"
       y="59"
       id="rect3775"
       style="opacity:0.4;fill:#000000;fill-opacity:1;stroke:none" />
    <rect
       width="4"
       height="12"
       rx="1"
       ry="1"
       x="78"
       y="60"
       id="rect3777"
       style="fill:url(#linearGradient3779);fill-opacity:1;stroke:none" />
    <rect
       width="4"
       height="1"
       x="78"
       y="30"
       id="rect3912"
       style="opacity:0.2;fill:#000000;fill-opacity:1;stroke:none" />
    <rect
       width="4"
       height="1"
       x="78"
       y="66"
       id="rect3914"
       style="opacity:0.2;fill:#000000;fill-opacity:1;stroke:none" />
    <path
       d="m 79,24 c -0.554,0 -1,0.446 -1,1 v 1 c 0,-0.554 0.446,-1 1,-1 h 2 c 0.554,0 1,0.446 1,1 v -1 c 0,-0.554 -0.446,-1 -1,-1 z"
       inkscape:connector-curvature="0"
       id="rect3916"
       style="fill:#ffffff;fill-opacity:1;stroke:none" />
    <path
       d="m 79,60 c -0.554,0 -1,0.446 -1,1 v 1 c 0,-0.554 0.446,-1 1,-1 h 2 c 0.554,0 1,0.446 1,1 v -1 c 0,-0.554 -0.446,-1 -1,-1 z"
       inkscape:connector-curvature="0"
       id="path3926"
       style="fill:#ffffff;fill-opacity:1;stroke:none" />
  </g>
  <g
     id="layer3"
     style="display:inline"
     transform="translate(-13,-15)">
    <rect
       width="6"
       height="24"
       rx="1"
       ry="1"
       x="32"
       y="42"
       id="rect3893"
       style="opacity:0.1;fill:#000000;fill-opacity:1;stroke:none;filter:url(#filter3901)" />
    <path
       d="m 36.618029,38.35817 a 6.250319,6.250319 0 1 1 -12.500638,0 6.250319,6.250319 0 1 1 12.500638,0 z"
       transform="matrix(0,1.1199429,1.1199429,0,-11.958959,3.9898994)"
       id="path3865"
       style="opacity:0.15;fill:#000000;fill-opacity:1;stroke:none"
       inkscape:connector-curvature="0" />
    <path
       d="m 36.618029,38.35817 a 6.250319,6.250319 0 1 1 -12.500638,0 6.250319,6.250319 0 1 1 12.500638,0 z"
       transform="matrix(0,0.959951,0.959951,0,-5.8219633,9.8484866)"
       id="path3871"
       style="opacity:0.4;fill:#000000;fill-opacity:1;stroke:none"
       inkscape:connector-curvature="0" />
    <rect
       width="24"
       height="10"
       rx="2"
       ry="2"
       x="45"
       y="29"
       id="rect3818"
       style="display:inline;fill:url(#linearGradient3822);fill-opacity:1;stroke:none" />
    <rect
       width="21"
       height="7"
       rx="1"
       ry="1"
       x="46.5"
       y="30.5"
       id="rect3718"
       style="display:inline;fill:url(#radialGradient3816);fill-opacity:1;stroke:url(#linearGradient3837);stroke-width:0.99999988;stroke-miterlimit:4;stroke-dasharray:none;stroke-opacity:1" />
    <rect
       width="6"
       height="4"
       rx="0.5"
       ry="0.5"
       x="46"
       y="-46"
       transform="scale(1,-1)"
       id="rect3760"
       style="fill:url(#linearGradient3860);fill-opacity:1;stroke:none" />
    <text
       x="48.368675"
       y="34.94722"
       id="text3812"
       xml:space="preserve"
       style="font-style:normal;font-variant:normal;font-weight:normal;font-stretch:normal;font-size:1.94439244px;line-height:125%;font-family:'Lilliput Steps';-inkscape-font-specification:'Lilliput Steps';text-align:start;writing-mode:lr-tb;text-anchor:start;opacity:0.4;fill:#000000;fill-opacity:1;stroke:none"><tspan
         x="48.368675"
         y="34.94722"
         id="tspan3814">ENTER CODE</tspan></text>
    <path
       d="m 46,45.5 v 1 c 0,0.277 0.223,0.5 0.5,0.5 h 5 c 0.277,0 0.5,-0.223 0.5,-0.5 v -1 c 0,0.277 -0.223,0.5 -0.5,0.5 h -5 C 46.223,46 46,45.777 46,45.5 Z"
       inkscape:connector-curvature="0"
       id="rect3950"
       style="opacity:0.2;fill:#000000;fill-opacity:1;stroke:none" />
    <text
       x="49.001682"
       y="45.18573"
       id="text3968"
       xml:space="preserve"
       style="font-style:normal;font-variant:normal;font-weight:normal;font-stretch:normal;font-size:3.44449735px;line-height:125%;font-family:'Liberation Sans';-inkscape-font-specification:'Liberation Sans';text-align:center;writing-mode:lr-tb;text-anchor:middle;fill:#ffffff;fill-opacity:1;stroke:none"><tspan
         x="49.001682"
         y="45.18573"
         id="tspan3970">7</tspan></text>
    <rect
       width="6"
       height="4"
       rx="0.5"
       ry="0.5"
       x="54"
       y="-46"
       transform="scale(1,-1)"
       id="rect3972"
       style="fill:url(#linearGradient3980);fill-opacity:1;stroke:none" />
    <path
       d="m 54,45.5 v 1 c 0,0.277 0.223,0.5 0.5,0.5 h 5 c 0.277,0 0.5,-0.223 0.5,-0.5 v -1 c 0,0.277 -0.223,0.5 -0.5,0.5 h -5 C 54.223,46 54,45.777 54,45.5 Z"
       inkscape:connector-curvature="0"
       id="path3974"
       style="opacity:0.2;fill:#000000;fill-opacity:1;stroke:none" />
    <text
       x="57.001682"
       y="45.18573"
       id="text3976"
       xml:space="preserve"
       style="font-style:normal;font-variant:normal;font-weight:normal;font-stretch:normal;font-size:3.44449735px;line-height:125%;font-family:'Liberation Sans';-inkscape-font-specification:'Liberation Sans';text-align:center;writing-mode:lr-tb;text-anchor:middle;fill:#ffffff;fill-opacity:1;stroke:none"><tspan
         x="57.001682"
         y="45.18573"
         id="tspan3978">8</tspan></text>
    <rect
       width="6"
       height="4"
       rx="0.5"
       ry="0.5"
       x="62"
       y="-46"
       transform="scale(1,-1)"
       id="rect3982"
       style="fill:url(#linearGradient3990);fill-opacity:1;stroke:none" />
    <path
       d="m 62,45.5 v 1 c 0,0.277 0.223,0.5 0.5,0.5 h 5 c 0.277,0 0.5,-0.223 0.5,-0.5 v -1 c 0,0.277 -0.223,0.5 -0.5,0.5 h -5 C 62.223,46 62,45.777 62,45.5 Z"
       inkscape:connector-curvature="0"
       id="path3984"
       style="opacity:0.2;fill:#000000;fill-opacity:1;stroke:none" />
    <text
       x="65.001678"
       y="45.18573"
       id="text3986"
       xml:space="preserve"
       style="font-style:normal;font-variant:normal;font-weight:normal;font-stretch:normal;font-size:3.44449735px;line-height:125%;font-family:'Liberation Sans';-inkscape-font-specification:'Liberation Sans';text-align:center;writing-mode:lr-tb;text-anchor:middle;fill:#ffffff;fill-opacity:1;stroke:none"><tspan
         x="65.001678"
         y="45.18573"
         id="tspan3988">9</tspan></text>
    <rect
       width="6"
       height="4"
       rx="0.5"
       ry="0.5"
       x="46"
       y="-52"
       transform="scale(1,-1)"
       id="rect3992"
       style="fill:url(#linearGradient4016);fill-opacity:1;stroke:none" />
    <path
       d="m 46,51.5 v 1 c 0,0.277 0.223,0.5 0.5,0.5 h 5 c 0.277,0 0.5,-0.223 0.5,-0.5 v -1 c 0,0.277 -0.223,0.5 -0.5,0.5 h -5 C 46.223,52 46,51.777 46,51.5 Z"
       inkscape:connector-curvature="0"
       id="path3994"
       style="opacity:0.2;fill:#000000;fill-opacity:1;stroke:none" />
    <text
       x="49.001682"
       y="51.18573"
       id="text3996"
       xml:space="preserve"
       style="font-style:normal;font-variant:normal;font-weight:normal;font-stretch:normal;font-size:3.44449735px;line-height:125%;font-family:'Liberation Sans';-inkscape-font-specification:'Liberation Sans';text-align:center;writing-mode:lr-tb;text-anchor:middle;fill:#ffffff;fill-opacity:1;stroke:none"><tspan
         x="49.001682"
         y="51.18573"
         id="tspan3998">4</tspan></text>
    <rect
       width="6"
       height="4"
       rx="0.5"
       ry="0.5"
       x="54"
       y="-52"
       transform="scale(1,-1)"
       id="rect4000"
       style="fill:url(#linearGradient4018);fill-opacity:1;stroke:none" />
    <path
       d="m 54,51.5 v 1 c 0,0.277 0.223,0.5 0.5,0.5 h 5 c 0.277,0 0.5,-0.223 0.5,-0.5 v -1 c 0,0.277 -0.223,0.5 -0.5,0.5 h -5 C 54.223,52 54,51.777 54,51.5 Z"
       inkscape:connector-curvature="0"
       id="path4002"
       style="opacity:0.2;fill:#000000;fill-opacity:1;stroke:none" />
    <text
       x="57.001682"
       y="51.18573"
       id="text4004"
       xml:space="preserve"
       style="font-style:normal;font-variant:normal;font-weight:normal;font-stretch:normal;font-size:3.44449735px;line-height:125%;font-family:'Liberation Sans';-inkscape-font-specification:'Liberation Sans';text-align:center;writing-mode:lr-tb;text-anchor:middle;fill:#ffffff;fill-opacity:1;stroke:none"><tspan
         x="57.001682"
         y="51.18573"
         id="tspan4006">5</tspan></text>
    <rect
       width="6"
       height="4"
       rx="0.5"
       ry="0.5"
       x="62"
       y="-52"
       transform="scale(1,-1)"
       id="rect4008"
       style="fill:url(#linearGradient4020);fill-opacity:1;stroke:none" />
    <path
       d="m 62,51.5 v 1 c 0,0.277 0.223,0.5 0.5,0.5 h 5 c 0.277,0 0.5,-0.223 0.5,-0.5 v -1 c 0,0.277 -0.223,0.5 -0.5,0.5 h -5 C 62.223,52 62,51.777 62,51.5 Z"
       inkscape:connector-curvature="0"
       id="path4010"
       style="opacity:0.2;fill:#000000;fill-opacity:1;stroke:none" />
    <text
       x="65.001678"
       y="51.18573"
       id="text4012"
       xml:space="preserve"
       style="font-style:normal;font-variant:normal;font-weight:normal;font-stretch:normal;font-size:3.44449735px;line-height:125%;font-family:'Liberation Sans';-inkscape-font-specification:'Liberation Sans';text-align:center;writing-mode:lr-tb;text-anchor:middle;fill:#ffffff;fill-opacity:1;stroke:none"><tspan
         x="65.001678"
         y="51.18573"
         id="tspan4014">6</tspan></text>
    <rect
       width="6"
       height="4"
       rx="0.5"
       ry="0.5"
       x="46"
       y="-58"
       transform="scale(1,-1)"
       id="rect4022"
       style="fill:url(#linearGradient4046);fill-opacity:1;stroke:none" />
    <path
       d="m 46,57.5 v 1 c 0,0.277 0.223,0.5 0.5,0.5 h 5 c 0.277,0 0.5,-0.223 0.5,-0.5 v -1 c 0,0.277 -0.223,0.5 -0.5,0.5 h -5 C 46.223,58 46,57.777 46,57.5 Z"
       inkscape:connector-curvature="0"
       id="path4024"
       style="opacity:0.2;fill:#000000;fill-opacity:1;stroke:none" />
    <text
       x="49.001682"
       y="57.18573"
       id="text4026"
       xml:space="preserve"
       style="font-style:normal;font-variant:normal;font-weight:normal;font-stretch:normal;font-size:3.44449735px;line-height:125%;font-family:'Liberation Sans';-inkscape-font-specification:'Liberation Sans';text-align:center;writing-mode:lr-tb;text-anchor:middle;fill:#ffffff;fill-opacity:1;stroke:none"><tspan
         x="49.001682"
         y="57.18573"
         id="tspan4028">1</tspan></text>
    <rect
       width="6"
       height="4"
       rx="0.5"
       ry="0.5"
       x="54"
       y="-58"
       transform="scale(1,-1)"
       id="rect4030"
       style="fill:url(#linearGradient4048);fill-opacity:1;stroke:none" />
    <path
       d="m 54,57.5 v 1 c 0,0.277 0.223,0.5 0.5,0.5 h 5 c 0.277,0 0.5,-0.223 0.5,-0.5 v -1 c 0,0.277 -0.223,0.5 -0.5,0.5 h -5 C 54.223,58 54,57.777 54,57.5 Z"
       inkscape:connector-curvature="0"
       id="path4032"
       style="opacity:0.2;fill:#000000;fill-opacity:1;stroke:none" />
    <text
       x="57.001682"
       y="57.18573"
       id="text4034"
       xml:space="preserve"
       style="font-style:normal;font-variant:normal;font-weight:normal;font-stretch:normal;font-size:3.44449735px;line-height:125%;font-family:'Liberation Sans';-inkscape-font-specification:'Liberation Sans';text-align:center;writing-mode:lr-tb;text-anchor:middle;fill:#ffffff;fill-opacity:1;stroke:none"><tspan
         x="57.001682"
         y="57.18573"
         id="tspan4036">2</tspan></text>
    <rect
       width="6"
       height="4"
       rx="0.5"
       ry="0.5"
       x="62"
       y="-58"
       transform="scale(1,-1)"
       id="rect4038"
       style="fill:url(#linearGradient4051);fill-opacity:1;stroke:none" />
    <path
       d="m 62,57.5 v 1 c 0,0.277 0.223,0.5 0.5,0.5 h 5 c 0.277,0 0.5,-0.223 0.5,-0.5 v -1 c 0,0.277 -0.223,0.5 -0.5,0.5 h -5 C 62.223,58 62,57.777 62,57.5 Z"
       inkscape:connector-curvature="0"
       id="path4040"
       style="opacity:0.2;fill:#000000;fill-opacity:1;stroke:none" />
    <text
       x="65.001678"
       y="57.18573"
       id="text4042"
       xml:space="preserve"
       style="font-style:normal;font-variant:normal;font-weight:normal;font-stretch:normal;font-size:3.44449735px;line-height:125%;font-family:'Liberation Sans';-inkscape-font-specification:'Liberation Sans';text-align:center;writing-mode:lr-tb;text-anchor:middle;fill:#ffffff;fill-opacity:1;stroke:none"><tspan
         x="65.001678"
         y="57.18573"
         id="tspan4044">3</tspan></text>
    <rect
       width="6"
       height="4"
       rx="0.5"
       ry="0.5"
       x="46"
       y="-64"
       transform="scale(1,-1)"
       id="rect4053"
       style="fill:url(#linearGradient4077);fill-opacity:1;stroke:none" />
    <path
       d="m 46,63.5 v 1 c 0,0.277 0.223,0.5 0.5,0.5 h 5 c 0.277,0 0.5,-0.223 0.5,-0.5 v -1 c 0,0.277 -0.223,0.5 -0.5,0.5 h -5 C 46.223,64 46,63.777 46,63.5 Z"
       inkscape:connector-curvature="0"
       id="path4055"
       style="opacity:0.2;fill:#000000;fill-opacity:1;stroke:none" />
    <text
       x="49.001682"
       y="63.18573"
       id="text4057"
       xml:space="preserve"
       style="font-style:normal;font-variant:normal;font-weight:normal;font-stretch:normal;font-size:3.44449735px;line-height:125%;font-family:'Liberation Sans';-inkscape-font-specification:'Liberation Sans';text-align:center;writing-mode:lr-tb;text-anchor:middle;fill:#ffffff;fill-opacity:1;stroke:none"><tspan
         x="49.001682"
         y="63.18573"
         id="tspan4059">*</tspan></text>
    <rect
       width="6"
       height="4"
       rx="0.5"
       ry="0.5"
       x="54"
       y="-64"
       transform="scale(1,-1)"
       id="rect4061"
       style="fill:url(#linearGradient4079);fill-opacity:1;stroke:none" />
    <path
       d="m 54,63.5 v 1 c 0,0.277 0.223,0.5 0.5,0.5 h 5 c 0.277,0 0.5,-0.223 0.5,-0.5 v -1 c 0,0.277 -0.223,0.5 -0.5,0.5 h -5 C 54.223,64 54,63.777 54,63.5 Z"
       inkscape:connector-curvature="0"
       id="path4063"
       style="opacity:0.2;fill:#000000;fill-opacity:1;stroke:none" />
    <text
       x="57.001682"
       y="63.18573"
       id="text4065"
       xml:space="preserve"
       style="font-style:normal;font-variant:normal;font-weight:normal;font-stretch:normal;font-size:3.44449735px;line-height:125%;font-family:'Liberation Sans';-inkscape-font-specification:'Liberation Sans';text-align:center;writing-mode:lr-tb;text-anchor:middle;fill:#ffffff;fill-opacity:1;stroke:none"><tspan
         x="57.001682"
         y="63.18573"
         id="tspan4067">0</tspan></text>
    <rect
       width="6"
       height="4"
       rx="0.5"
       ry="0.5"
       x="62"
       y="-64"
       transform="scale(1,-1)"
       id="rect4069"
       style="fill:url(#linearGradient4081);fill-opacity:1;stroke:none" />
    <path
       d="m 62,63.5 v 1 c 0,0.277 0.223,0.5 0.5,0.5 h 5 c 0.277,0 0.5,-0.223 0.5,-0.5 v -1 c 0,0.277 -0.223,0.5 -0.5,0.5 h -5 C 62.223,64 62,63.777 62,63.5 Z"
       inkscape:connector-curvature="0"
       id="path4071"
       style="opacity:0.2;fill:#000000;fill-opacity:1;stroke:none" />
    <text
       x="65.001678"
       y="63.18573"
       id="text4073"
       xml:space="preserve"
       style="font-style:normal;font-variant:normal;font-weight:normal;font-stretch:normal;font-size:3.44449735px;line-height:125%;font-family:'Liberation Sans';-inkscape-font-specification:'Liberation Sans';text-align:center;writing-mode:lr-tb;text-anchor:middle;fill:#ffffff;fill-opacity:1;stroke:none"><tspan
         x="65.001678"
         y="63.18573"
         id="tspan4075">#</tspan></text>
    <path
       d="m 36.618029,38.35817 a 6.250319,6.250319 0 1 1 -12.500638,0 6.250319,6.250319 0 1 1 12.500638,0 z"
       transform="matrix(0,0.959951,0.959951,0,-5.8219633,8.8484866)"
       id="path3806"
       style="fill:url(#linearGradient3820);fill-opacity:1;stroke:none"
       inkscape:connector-curvature="0" />
    <path
       d="m 32,34 c -1.876884,0 -3.443707,1.287639 -3.875,3.03125 -0.632368,0.0919 -1.125,0.544818 -1.125,1.125 v 25.6875 C 27,64.490083 27.605083,65 28.34375,65 h 1 4.3125 1 C 35.394917,65 36,64.490083 36,63.84375 v -25.6875 c 0,-0.02262 0.0014,-0.0402 0,-0.0625 7.22e-4,-0.03127 0,-0.06231 0,-0.09375 0,-2.209139 -1.790861,-4 -4,-4 z"
       inkscape:connector-curvature="0"
       id="path3880"
       style="opacity:0.15;fill:#000000;fill-opacity:1;stroke:none" />
    <path
       d="M 28.34375,37 C 28.26815,37 28.197102,37.02077 28.125,37.03125 28.048651,37.339912 28,37.667745 28,38 c 0,0.03144 -7.22e-4,0.06248 0,0.09375 -0.0014,0.0223 0,0.03988 0,0.0625 v 25.6875 C 28,64.490083 28.605083,65 29.34375,65 h 4.3125 C 34.394917,65 35,64.490083 35,63.84375 V 38.15625 C 35,37.509917 34.394917,37 33.65625,37 Z"
       inkscape:connector-curvature="0"
       id="rect3875"
       style="opacity:0.4;fill:#000000;fill-opacity:1;stroke:none" />
    <rect
       width="6"
       height="24"
       rx="1"
       ry="1"
       x="28"
       y="40"
       id="rect3808"
       style="fill:url(#linearGradient3849);fill-opacity:1;stroke:none" />
    <path
       d="m 36.618029,38.35817 a 6.250319,6.250319 0 1 1 -12.500638,0 6.250319,6.250319 0 1 1 12.500638,0 z"
       transform="matrix(0.63996732,0,0,0.63996732,11.565658,13.452025)"
       id="path3811"
       style="fill:url(#linearGradient3891);fill-opacity:1;stroke:none"
       inkscape:connector-curvature="0" />
    <path
       d="M 28.0625,40.71875 C 28.033734,40.812267 28,40.896804 28,41 v 22 c 0,0.554 0.446,1 1,1 h 4 c 0.554,0 1,-0.446 1,-1 V 41 C 34,40.896804 33.966266,40.812267 33.9375,40.71875 33.665941,41.012591 33.348369,41.235538 33,41.4375 V 62.5 c 0,0.277 -0.223,0.5 -0.5,0.5 h -3 C 29.223,63 29,62.777 29,62.5 V 41.4375 c -0.348369,-0.201962 -0.665941,-0.424909 -0.9375,-0.71875 z"
       inkscape:connector-curvature="0"
       id="rect3822"
       style="fill:url(#linearGradient3841);fill-opacity:1;stroke:none" />
    <path
       d="m 31,34 c -2.209139,0 -4,1.790861 -4,4 0,0.17012 0.04189,0.335468 0.0625,0.5 C 27.309566,36.527954 28.960981,35 31,35 c 2.039019,0 3.690434,1.527954 3.9375,3.5 C 34.958113,38.335468 35,38.17012 35,38 35,35.790861 33.209139,34 31,34 Z"
       inkscape:connector-curvature="0"
       id="path3886"
       style="opacity:0.2;fill:#000000;fill-opacity:1;stroke:none" />
    <path
       d="m 52,44 v 3 h -2 v 1 h 2 v 2 h 2 v -2 h 2 v -1 h -2 v -3 z"
       inkscape:connector-curvature="0"
       id="rect3905"
       style="opacity:0.4;fill:url(#radialGradient3916);fill-opacity:1;stroke:none" />
    <path
       d="m 60,44 v 3 h -2 v 1 h 2 v 2 h 2 v -2 h 2 v -1 h -2 v -3 z"
       inkscape:connector-curvature="0"
       id="path3918"
       style="opacity:0.4;fill:url(#radialGradient3920);fill-opacity:1;stroke:none" />
    <path
       d="m 52,50 v 3 h -2 v 1 h 2 v 2 h 2 v -2 h 2 v -1 h -2 v -3 z"
       inkscape:connector-curvature="0"
       id="path3922"
       style="opacity:0.4;fill:url(#radialGradient3926);fill-opacity:1;stroke:none" />
    <path
       d="m 60,50 v 3 h -2 v 1 h 2 v 2 h 2 v -2 h 2 v -1 h -2 v -3 z"
       inkscape:connector-curvature="0"
       id="path3924"
       style="opacity:0.4;fill:url(#radialGradient3928);fill-opacity:1;stroke:none" />
    <path
       d="m 52,56 v 3 h -2 v 1 h 2 v 2 h 2 v -2 h 2 v -1 h -2 v -3 z"
       inkscape:connector-curvature="0"
       id="path3930"
       style="opacity:0.4;fill:url(#radialGradient3934);fill-opacity:1;stroke:none" />
    <path
       d="m 60,56 v 3 h -2 v 1 h 2 v 2 h 2 v -2 h 2 v -1 h -2 v -3 z"
       inkscape:connector-curvature="0"
       id="path3932"
       style="opacity:0.4;fill:url(#radialGradient3936);fill-opacity:1;stroke:none" />
  </g>
</svg>
