<?xml version="1.0" encoding="UTF-8" standalone="no"?>
<svg
   xmlns:dc="http://purl.org/dc/elements/1.1/"
   xmlns:cc="http://creativecommons.org/ns#"
   xmlns:rdf="http://www.w3.org/1999/02/22-rdf-syntax-ns#"
   xmlns:svg="http://www.w3.org/2000/svg"
   xmlns="http://www.w3.org/2000/svg"
   xmlns:sodipodi="http://sodipodi.sourceforge.net/DTD/sodipodi-0.dtd"
   xmlns:inkscape="http://www.inkscape.org/namespaces/inkscape"
   width="881.9444mm"
   height="881.9444mm"
   viewBox="0 0 881.9444 881.9444"
   version="1.1"
   id="svg8"
   inkscape:version="1.0.1 (3bc2e813f5, 2020-09-07)"
   sodipodi:docname="ledlamp_ok.svg">
  <defs
     id="defs2" />
  <sodipodi:namedview
     id="base"
     pagecolor="#ffffff"
     bordercolor="#666666"
     borderopacity="1.0"
     inkscape:pageopacity="0.0"
     inkscape:pageshadow="2"
     inkscape:zoom="0.26124924"
     inkscape:cx="1748.5756"
     inkscape:cy="225.52239"
     inkscape:document-units="mm"
     inkscape:current-layer="layer1"
     inkscape:document-rotation="0"
     showgrid="false"
     inkscape:window-width="1664"
     inkscape:window-height="840"
     inkscape:window-x="127"
     inkscape:window-y="71"
     inkscape:window-maximized="0"
     inkscape:object-paths="false"
     inkscape:snap-grids="true"
     inkscape:snap-page="false" />
  <metadata
     id="metadata5">
    <rdf:RDF>
      <cc:Work
         rdf:about="">
        <dc:format>image/svg+xml</dc:format>
        <dc:type
           rdf:resource="http://purl.org/dc/dcmitype/StillImage" />
        <dc:title></dc:title>
      </cc:Work>
    </rdf:RDF>
  </metadata>
  <g
     inkscape:label="Laag 1"
     inkscape:groupmode="layer"
     id="layer1"
     transform="translate(335.13885,-101.95277)">
    <path
       style="fill:#000000;stroke-width:0.352778"
       d="m 484.71666,186.19688 c -17.36548,-0.14342 -206.27797,-0.34626 -419.80553,-0.45076 l -388.23193,-0.18999 -0.95282,-1.04203 c -1.51204,-1.65361 -1.80465,-3.41059 -1.55878,-9.35994 0.12028,-2.91042 0.22834,-7.91104 0.24014,-11.1125 0.0242,-6.56563 0.56865,-16.03226 1.04626,-18.19175 0.17454,-0.78914 0.72869,-6.02789 1.23146,-11.64167 0.50276,-5.61377 1.13939,-11.01058 1.41473,-11.99291 0.76826,-2.74094 1.83953,-4.07754 4.22346,-5.2695 l 2.11667,-1.05834 422.62775,-0.17639 c 326.51452,-0.13627 422.83526,-0.0808 423.54018,0.24379 2.12648,0.97928 3.93157,4.43921 5.07034,9.71855 1.29511,6.00443 1.95456,12.84873 2.84702,29.54878 1.35435,25.34344 1.34444,26.62669 -0.22571,29.16721 -1.31413,2.12636 -1.97682,2.23974 -12.5615,2.14911 -5.19645,-0.0445 -23.65625,-0.19824 -41.02174,-0.34166 z m 51.34088,-1.05807 c 0.50976,-0.23226 1.27127,-1.0657 1.69228,-1.85208 0.68943,-1.28781 0.76249,-1.93776 0.73578,-6.54507 -0.0162,-2.8134 -0.21332,-8.29028 -0.43776,-12.17083 -0.22447,-3.88056 -0.57714,-10.30993 -0.78373,-14.2875 -0.36332,-6.99584 -0.50849,-8.79575 -1.37996,-17.10973 -0.8697,-8.29742 -2.93448,-14.51559 -5.30444,-15.97479 -0.59707,-0.36761 -79.96777,-0.44932 -422.77511,-0.43525 -367.59429,0.0151 -422.26199,0.0833 -423.7605,0.52879 -4.32442,1.28559 -5.11662,3.18534 -6.1287,14.69697 -0.39844,4.53191 -1.04321,10.54171 -1.43283,13.35512 -0.53347,3.8521 -0.80077,8.72071 -1.08245,19.7156 -0.20573,8.03018 -0.27133,15.2854 -0.14576,16.1227 0.14418,0.96145 0.59837,1.91856 1.23269,2.5976 l 1.0044,1.07521 373.185521,0.051 c 205.252029,0.028 389.774899,0.15517 410.050809,0.28249 66.29406,0.41631 74.31754,0.41096 75.32976,-0.0502 z m -732.81931,-8.62866 c -0.59104,-0.24134 -0.57091,-3.7838 0.0982,-17.28646 1.26623,-25.55162 1.87057,-34.0791 2.45672,-34.66526 0.50672,-0.50673 29.36407,-0.55705 319.43791,-0.55705 212.12276,0 318.99598,0.11811 319.22475,0.35278 0.18916,0.19403 0.50666,1.5434 0.70559,2.99861 0.84568,6.1866 3.24072,36.66411 3.64554,46.39028 l 0.10276,2.46944 -107.94999,0.17639 c -152.90553,0.24985 -537.19438,0.33651 -537.7215,0.12127 z m 644.83061,-1.11847 c 0.11963,-0.13064 0.0902,-1.50752 -0.0653,-3.05974 -0.29404,-2.93405 -0.5848,-6.45631 -1.73274,-20.99028 -1.21673,-15.40539 -2.18804,-26.27789 -2.36365,-26.45833 -0.29517,-0.30326 -637.38932,0.0382 -637.70283,0.34181 -0.16342,0.15825 -0.51108,5.34514 -0.77257,11.52643 -0.49986,11.81629 -0.99416,21.12403 -1.70229,32.05506 -0.33342,5.14683 -0.33312,6.62669 0.001,6.81392 0.55663,0.31152 644.05249,0.0829 644.33799,-0.22887 z m 41.05755,-1.11946 2.46944,-0.22819 -2.82222,-0.0871 c -4.10224,-0.12659 -2.29905,-0.69891 2.11667,-0.67182 2.43988,0.015 3.14702,0.10179 2.29305,0.28154 l -1.23472,0.2599 1.05833,0.0712 c 0.9234,0.0622 0.96838,0.10989 0.35278,0.37443 -0.38806,0.16675 -2.05493,0.28631 -3.70417,0.26568 l -2.99861,-0.0375 z m 1.14652,-4.48854 c 0.63059,-0.0782 1.66247,-0.0782 2.29306,0 0.63059,0.0783 0.11465,0.14229 -1.14653,0.14229 -1.26118,0 -1.77712,-0.064 -1.14653,-0.14229 z m -0.94075,-0.58006 c 0.33384,-0.29458 4.88611,-0.47065 4.70779,-0.18208 -0.10598,0.17148 -1.24168,0.31179 -2.52374,0.31179 -1.28207,0 -2.26487,-0.0584 -2.18405,-0.12971 z m 8.0845,-1.63623 c -3.8487,-0.38044 -7.15182,-1.77213 -9.70138,-4.08743 l -1.41112,-1.28147 1.29484,0.75662 c 1.05837,0.61844 1.31611,0.66272 1.41111,0.24247 0.0913,-0.4036 0.65557,-0.2497 2.62431,0.71573 3.47839,1.70574 8.25638,2.55244 10.81554,1.9166 8.01278,-1.99081 12.95837,-8.01366 12.95837,-15.78095 0,-1.44622 -0.11906,-2.55659 -0.26458,-2.46748 -0.14552,0.0891 -0.27588,-0.49684 -0.28967,-1.3021 -0.0138,-0.80526 -0.27986,-2.05069 -0.59126,-2.76763 l -0.56617,-1.30351 -1.34902,0.64259 c -1.52308,0.72551 -2.93652,1.20085 -2.93652,0.98757 0,-0.0784 0.87273,-0.58405 1.93943,-1.12375 l 1.93946,-0.98127 -0.762,-1.35582 c -1.10394,-1.96421 -5.16791,-5.74514 -7.38303,-6.86886 -1.04913,-0.53221 -2.85997,-1.23654 -4.02414,-1.56518 -1.46184,-0.41268 -2.15491,-0.79409 -2.24035,-1.23291 -0.10781,-0.55401 0.0729,-0.61282 1.41111,-0.45922 2.18624,0.25092 6.17382,1.93086 8.23757,3.47043 5.52426,4.12108 8.64306,9.86909 8.64306,15.92928 0,10.22077 -5.98724,16.73307 -16.58056,18.03459 -0.48507,0.0596 -1.91382,0.006 -3.175,-0.1183 z m 0.97427,-0.94589 c -0.33729,-0.0883 -0.97229,-0.0915 -1.41111,-0.007 -0.43886,0.0844 -0.16288,0.15663 0.61323,0.16054 0.77611,0.004 1.13514,-0.0651 0.79788,-0.15342 z m 4.05282,0.009 c -0.24254,-0.0979 -0.63941,-0.0979 -0.88195,0 -0.24253,0.0979 -0.0441,0.17794 0.44097,0.17794 0.48507,0 0.68351,-0.0801 0.44098,-0.17794 z m -6.53373,-0.33227 c -0.11723,-0.11723 -0.4215,-0.12976 -0.67617,-0.0278 -0.28141,0.11262 -0.19784,0.19621 0.21315,0.21314 0.37186,0.0153 0.58025,-0.0681 0.46302,-0.18529 z m -3.46163,-0.9738 c -0.0809,-0.0707 -0.54388,-0.31762 -1.02895,-0.54863 -0.8316,-0.39605 -0.84285,-0.3887 -0.19717,0.1286 0.56198,0.45024 1.71024,0.84359 1.22612,0.42003 z m 18.19744,-2.34084 c 0.35119,-0.38806 0.55915,-0.70556 0.46214,-0.70556 -0.097,0 -0.46373,0.3175 -0.81492,0.70556 -0.35119,0.38805 -0.55915,0.70555 -0.46214,0.70555 0.097,0 0.46373,-0.3175 0.81492,-0.70555 z m 2.11667,-2.11667 c 0.35119,-0.38806 0.55915,-0.70556 0.46214,-0.70556 -0.097,0 -0.46373,0.3175 -0.81492,0.70556 -0.35119,0.38806 -0.55915,0.70556 -0.46214,0.70556 0.097,0 0.46373,-0.3175 0.81492,-0.70556 z m 3.23959,-7.1217 c -0.11261,-0.28142 -0.19622,-0.19783 -0.21315,0.21314 -0.0152,0.37188 0.0681,0.58024 0.18532,0.46302 0.11722,-0.11723 0.12975,-0.4215 0.0279,-0.67616 z m 0.36879,-4.78455 c -0.0761,-0.7276 -0.13839,-0.13229 -0.13839,1.32292 0,1.45521 0.0623,2.05052 0.13839,1.32291 0.0761,-0.7276 0.0761,-1.91823 0,-2.64583 z m -0.72157,-4.0349 c -0.1126,-0.28142 -0.19621,-0.19783 -0.21315,0.21314 -0.0152,0.37189 0.0681,0.58025 0.18532,0.46302 0.11723,-0.11723 0.12975,-0.4215 0.0279,-0.67616 z m -3.41598,-6.73808 c 0,-0.0558 -0.83344,-0.88924 -1.85208,-1.85209 l -1.85209,-1.75062 1.75063,1.85208 c 1.62673,1.72099 1.95354,2.01387 1.95354,1.75063 z m -31.53322,16.14066 c -2.87895,-5.8796 -1.24199,-14.68577 3.62733,-19.51326 3.03463,-3.0086 7.44478,-4.95297 7.44478,-3.2823 0,0.4182 -0.50045,0.87764 -1.39566,1.28133 l -1.39569,0.62936 1.57208,2.20305 c 1.66606,2.33481 1.90687,3.1442 1.03487,3.47881 -0.62247,0.23887 -1.3112,-0.38518 -2.96217,-2.68415 -1.08761,-1.51444 -1.24273,-1.61059 -1.87928,-1.16473 -1.19186,0.83481 -3.35767,3.98897 -4.19054,6.10285 -0.66421,1.68584 -0.7983,2.70478 -0.80045,6.08205 0,2.23132 0.12562,4.33476 0.28236,4.67431 0.17491,0.3789 0.14055,0.61736 -0.089,0.61736 -0.43219,0 -1.04831,-1.94098 -1.3438,-4.23333 -0.27425,-2.1276 -0.47442,-2.24008 -0.47442,-0.26662 0,0.88818 0.32668,2.6212 0.72595,3.85116 0.39927,1.22996 0.86445,2.67285 1.03371,3.20643 0.525,1.65495 -0.1862,1.06792 -1.1901,-0.98232 z m -0.15772,-8.41817 c 1.7e-4,-0.10937 0.22856,-1.17742 0.50757,-2.37344 0.55252,-2.36841 0.40711,-3.34681 -0.16912,-1.13807 -0.55908,2.14292 -0.8678,4.20302 -0.59129,3.94556 0.13892,-0.12935 0.2527,-0.32467 0.25284,-0.43405 z m 3.18801,-8.58981 c 0.2019,-0.24329 0.2648,-0.44234 0.13974,-0.44234 -0.30367,0 -2.32964,3.21215 -2.32424,3.68504 0.004,0.20455 0.41222,-0.34186 0.91083,-1.21423 0.49862,-0.87237 1.07174,-1.78519 1.27367,-2.02847 z m 7.33626,0.4828 c 0,-0.0733 -0.27781,-0.35107 -0.61736,-0.61736 -0.55954,-0.43881 -0.57199,-0.42633 -0.13321,0.13319 0.46087,0.58764 0.75057,0.77452 0.75057,0.48417 z m -5.64444,-2.51264 c 0.65821,-0.6791 1.11735,-1.23472 1.02034,-1.23472 -0.097,0 -0.71491,0.55562 -1.37312,1.23472 -0.65821,0.6791 -1.11735,1.23472 -1.02034,1.23472 0.097,0 0.71491,-0.55562 1.37312,-1.23472 z m 3.88056,0.17639 c -0.41448,-0.58208 -0.83298,-1.05833 -0.93,-1.05833 -0.097,0 0.16274,0.47625 0.57722,1.05833 0.41448,0.58208 0.83298,1.05833 0.92999,1.05833 0.097,0 -0.16274,-0.47625 -0.57721,-1.05833 z m -0.85902,-2.50654 c 0.17096,-0.27662 0.0321,-0.27554 -0.48987,0.004 -0.40068,0.21443 -0.83587,0.5636 -0.9671,0.77595 -0.17096,0.27662 -0.0321,0.27554 0.48987,-0.004 0.40068,-0.21443 0.83587,-0.56361 0.9671,-0.77595 z m -2.86593,21.3626 c 0.7584,-0.56661 1.40381,-0.68422 1.10543,-0.20142 -0.10545,0.17061 -0.55136,0.40084 -0.99095,0.51162 -0.77111,0.19433 -0.77513,0.1834 -0.11448,-0.3102 z m 2.24769,-1.10538 c 0.25467,-0.10191 0.55894,-0.0894 0.67617,0.0278 0.11723,0.11723 -0.0912,0.20061 -0.46302,0.18529 -0.41099,-0.0169 -0.49456,-0.10052 -0.21315,-0.21313 z m 1.47726,-0.60321 c 0,-0.0763 0.24638,-0.23319 0.54747,-0.34874 0.31397,-0.12047 0.45558,-0.0613 0.33196,0.13864 -0.20715,0.33522 -0.87943,0.49581 -0.87943,0.2101 z m 10.51549,-4.8949 c 0.22673,-0.27319 1.08881,-0.69745 1.91572,-0.94279 0.82695,-0.24535 2.19365,-0.7583 3.03714,-1.13989 0.84352,-0.38159 1.60362,-0.62385 1.6891,-0.53835 0.0855,0.0855 -0.92213,0.58835 -2.23919,1.11746 -1.31706,0.5291 -2.93924,1.19561 -3.60482,1.48115 -1.01039,0.43344 -1.14212,0.43714 -0.79795,0.0224 z m 11.09214,-0.14853 c 0.33955,-0.0887 0.89518,-0.0887 1.23473,0 0.33954,0.0887 0.0617,0.16134 -0.61737,0.16134 -0.67909,0 -0.95691,-0.0726 -0.61736,-0.16134 z m -3.26319,-3.08099 c 0.98291,-0.59222 1.75595,-0.74672 1.21708,-0.24325 -0.18432,0.17221 -0.73201,0.41696 -1.21708,0.54388 l -0.88195,0.23075 z M 199.40765,123.21523 c 0.7276,-0.0761 1.91823,-0.0761 2.64583,0 0.72761,0.0761 0.1323,0.13838 -1.32291,0.13838 -1.45521,0 -2.05052,-0.0623 -1.32292,-0.13838 z m 5.47437,10e-4 c 0.63408,-0.0785 1.58658,-0.0769 2.11667,0.004 0.53012,0.0805 0.0113,0.14474 -1.15285,0.14276 -1.16416,-0.002 -1.59787,-0.0678 -0.96382,-0.14636 z m 11.81174,0.0125 c 0.33955,-0.0887 0.89517,-0.0887 1.23472,0 0.33955,0.0887 0.0617,0.16133 -0.61736,0.16133 -0.6791,0 -0.95691,-0.0726 -0.61736,-0.16133 z m 3.72622,0.002 c 0.25467,-0.10191 0.55894,-0.0894 0.67617,0.0279 0.11722,0.11723 -0.0912,0.2006 -0.46303,0.18529 -0.41098,-0.0169 -0.49455,-0.10052 -0.21314,-0.21314 z m 1.92493,-0.003 c 0.34325,-0.0894 0.8195,-0.0836 1.05833,0.0131 0.23887,0.0966 -0.042,0.16981 -0.62406,0.16262 -0.58209,-0.007 -0.77749,-0.0862 -0.43427,-0.1757 z m 6.54173,0.003 c 0.25467,-0.10191 0.55894,-0.0894 0.67617,0.0279 0.11723,0.11723 -0.0912,0.2006 -0.46302,0.18529 -0.41099,-0.0169 -0.49456,-0.10052 -0.21315,-0.21314 z m 8.10116,-0.0178 c 0.82976,-0.0745 2.09976,-0.0735 2.82222,0.002 0.72249,0.0758 0.0436,0.13678 -1.50862,0.1355 -1.55222,-0.001 -2.14334,-0.0633 -1.3136,-0.13783 z m 9.86846,-1.03321 c 0.24253,-0.0979 0.63941,-0.0979 0.88194,0 0.24254,0.0979 0.0441,0.17793 -0.44097,0.17793 -0.48507,0 -0.68351,-0.0801 -0.44097,-0.17793 z"
       id="path2889" />
    <path
       style="fill:#000000;fill-opacity:1;stroke:#000000;stroke-width:12.1958;stroke-miterlimit:4;stroke-dasharray:none"
       d="M 1040.8598,310.05092 43.727734,308.12617 42.524328,260.27914 C 41.194573,207.40851 51.354462,92.976676 59.041288,74.246984 62.955292,64.710138 66.818113,61.897993 78.700529,59.935002 86.833992,58.591342 807.6257,57.473027 1680.4598,57.449857 c 1506.6505,-0.04 1587.2674,0.296906 1592.8222,6.656457 13.7654,15.759577 20.2672,60.772066 24.461,169.346396 2.0533,53.15766 1.5514,69.9953 -2.2219,74.54187 -5.3419,6.43658 8.1674,6.42426 -2254.6613,2.05634 z m 1923.5033,-54.55649 c -1.1992,-15.2632 -4.7161,-58.4117 -7.8152,-95.88557 -3.099,-37.47386 -5.6346,-69.50312 -5.6346,-71.176139 0,-1.673018 -26.759,-4.195646 -59.4643,-5.605839 -74.7904,-3.224816 -2239.80523,-2.407451 -2309.92065,0.872071 l -51.6748,2.416995 -2.42362,28.708222 c -1.33302,15.78952 -3.731,60.14371 -5.32886,98.56488 l -2.90523,69.85666 H 1742.8697 2966.5435 Z m 170.2827,16.26799 c 0,-2.10527 -6.8899,-3.82776 -15.311,-3.82776 -8.4211,0 -15.3111,1.72249 -15.3111,3.82776 0,2.10527 6.89,3.82777 15.3111,3.82777 8.4211,0 15.311,-1.7225 15.311,-3.82777 z m -1.9138,-15.31105 c 1.3417,-2.17094 -1.8742,-3.82776 -7.4296,-3.82776 -5.3875,0 -9.7954,1.72249 -9.7954,3.82776 0,2.10527 3.3434,3.82777 7.4296,3.82777 4.0863,0 8.4942,-1.7225 9.7954,-3.82777 z m 64.9435,-20.69525 c 16.9961,-12.96356 25.0089,-30.12847 25.0089,-53.57399 0,-22.25139 -5.3267,-35.7226 -20.3305,-51.41656 -13.2138,-13.82146 -25.3613,-21.08794 -41.8707,-25.04655 -16.25,-3.89643 -12.5472,4.0077 5.7417,12.25618 8.9474,4.03536 21.295,12.69491 27.4391,19.24342 l 11.1711,11.9064 -21.8066,9.64391 c -11.9936,5.30415 -23.48,9.64391 -25.5252,9.64391 -2.0453,0 -3.7186,1.72249 -3.7186,3.82776 0,5.0346 -1.02,5.26126 26.3247,-5.8499 13.0993,-5.32271 25.4537,-8.66604 27.4543,-7.42962 2.0006,1.23642 3.6374,10.98616 3.6374,21.66608 0,25.34101 -10.426,42.15439 -32.8806,53.02447 -18.08,8.75238 -22.7366,8.60359 -56.1149,-1.79296 -21.834,-6.80077 -23.4973,-3.0392 -3.8277,8.65636 21.373,12.70846 59.3878,10.42707 79.2976,-4.75891 z m -108.4418,-53.97231 c -0.4938,-21.41733 6.3125,-44.49529 14.6407,-49.6424 2.4527,-1.51588 7.8065,0.27284 11.8973,3.97497 9.3652,8.47538 13.7604,4.55593 8.3086,-7.40932 -3.0042,-6.59359 -2.9821,-10.28746 0.08,-13.34955 8.5329,-8.53288 -1.9396,-9.77271 -15.6049,-1.84746 -25.5141,14.79691 -38.5183,54.62592 -27.3911,83.89269 5.6342,14.81909 8.6372,9.00671 8.0694,-15.61893 z m 30.0712,8.72073 c 0.015,-1.53382 -4.2763,-0.82671 -9.5395,1.57135 -5.2632,2.39806 -9.5694,5.64406 -9.5694,7.21333 0,1.56926 4.2928,0.86215 9.5395,-1.57136 5.2468,-2.43351 9.553,-5.67951 9.5694,-7.21332 z"
       id="path2891"
       transform="matrix(0.26458333,0,0,0.26458333,-335.13885,101.95277)" />
    <circle
       style="fill:#000000;fill-opacity:1;stroke:#ffffff;stroke-width:4;stroke-miterlimit:4;stroke-dasharray:none;stroke-opacity:1"
       id="path2895"
       cx="495.45694"
       cy="149.52843"
       r="17.940773" />
    <path
       style="fill:#ffffff;fill-opacity:1;stroke:#ffffff;stroke-width:4;stroke-linecap:butt;stroke-linejoin:miter;stroke-miterlimit:4;stroke-dasharray:none;stroke-opacity:1"
       d="m 484.65831,135.20978 8.22359,9.01264"
       id="path2899" />
    <rect
       style="fill:#ffffff;stroke:#ffffff;stroke-width:2.14036;stroke-miterlimit:4;stroke-dasharray:none"
       id="rect900"
       width="643.99023"
       height="51.336685"
       x="-194.87827"
       y="124.80779" />
  </g>
</svg>
