<?xml version="1.0" encoding="UTF-8" standalone="no"?>
<svg
   xmlns:dc="http://purl.org/dc/elements/1.1/"
   xmlns:cc="http://creativecommons.org/ns#"
   xmlns:rdf="http://www.w3.org/1999/02/22-rdf-syntax-ns#"
   xmlns:svg="http://www.w3.org/2000/svg"
   xmlns="http://www.w3.org/2000/svg"
   xmlns:xlink="http://www.w3.org/1999/xlink"
   xmlns:sodipodi="http://sodipodi.sourceforge.net/DTD/sodipodi-0.dtd"
   xmlns:inkscape="http://www.inkscape.org/namespaces/inkscape"
   id="svg2"
   sodipodi:docname="light-bulb-on.svg"
   inkscape:export-filename="C:\Documents and Settings\Dan\Skrivbord\Clipart egna (InkScape)\Original\Kanske Upload\Glödlampa.png"
   viewBox="0 0 88.688399 151.88015"
   sodipodi:version="0.32"
   inkscape:export-xdpi="310"
   version="1.0"
   inkscape:output_extension="org.inkscape.output.svg.inkscape"
   inkscape:export-ydpi="310"
   inkscape:version="1.0.1 (3bc2e813f5, 2020-09-07)"
   width="88.6884"
   height="151.88016">
  <defs
     id="defs4">
    <linearGradient
       inkscape:collect="always"
       id="linearGradient4204">
      <stop
         offset="0"
         style="stop-color:#fefef9;stop-opacity:0.31390134"
         id="stop4206" />
      <stop
         offset="1"
         style="stop-color:#3d3d3d;stop-opacity:.53589"
         id="stop4208" />
    </linearGradient>
    <linearGradient
       id="linearGradient4015"
       inkscape:collect="always">
      <stop
         id="stop4017"
         style="stop-color:#000000"
         offset="0" />
      <stop
         id="stop4019"
         style="stop-color:#000000;stop-opacity:0"
         offset="1" />
    </linearGradient>
    <linearGradient
       id="linearGradient3993"
       inkscape:collect="always">
      <stop
         id="stop3995"
         style="stop-color:#585858"
         offset="0" />
      <stop
         id="stop3997"
         style="stop-color:#434343"
         offset="1" />
    </linearGradient>
    <linearGradient
       id="linearGradient3951"
       inkscape:collect="always">
      <stop
         id="stop3953"
         style="stop-color:#808080"
         offset="0" />
      <stop
         id="stop3955"
         style="stop-color:#5b5b5b"
         offset="1" />
    </linearGradient>
    <linearGradient
       id="linearGradient4278"
       y2="650.59003"
       gradientUnits="userSpaceOnUse"
       x2="361.54999"
       gradientTransform="translate(7.48,-5.5)"
       y1="685.28998"
       x1="362.04999"
       inkscape:collect="always">
      <stop
         id="stop4195"
         style="stop-color:#e9e337;stop-opacity:1"
         offset="0" />
      <stop
         id="stop4197"
         style="stop-color:#f9fca2;stop-opacity:0"
         offset="1" />
    </linearGradient>
    <linearGradient
       inkscape:collect="always"
       xlink:href="#linearGradient3951"
       id="linearGradient4181"
       gradientUnits="userSpaceOnUse"
       gradientTransform="translate(7.48,-5.5)"
       x1="340.54999"
       y1="707.60999"
       x2="371.79999"
       y2="707.60999" />
    <linearGradient
       inkscape:collect="always"
       xlink:href="#linearGradient4015"
       id="linearGradient4183"
       gradientUnits="userSpaceOnUse"
       gradientTransform="translate(-61.28,-5.5)"
       x1="425.29999"
       y1="686.33002"
       x2="425.29999"
       y2="700.67999" />
    <linearGradient
       inkscape:collect="always"
       xlink:href="#linearGradient3993"
       id="linearGradient4185"
       gradientUnits="userSpaceOnUse"
       gradientTransform="translate(202.533,574.5)"
       x1="178.75"
       y1="127.11"
       x2="140.99001"
       y2="127.11" />
    <linearGradient
       inkscape:collect="always"
       xlink:href="#linearGradient3951"
       id="linearGradient4187"
       gradientUnits="userSpaceOnUse"
       gradientTransform="translate(7.48,-5.5)"
       x1="340.54999"
       y1="707.60999"
       x2="371.79999"
       y2="707.60999" />
    <linearGradient
       inkscape:collect="always"
       xlink:href="#linearGradient4015"
       id="linearGradient4189"
       gradientUnits="userSpaceOnUse"
       gradientTransform="translate(7.48,-5.5)"
       x1="353.85999"
       y1="690.17999"
       x2="353.85999"
       y2="693.88" />
    <linearGradient
       inkscape:collect="always"
       xlink:href="#linearGradient4204"
       id="linearGradient4191"
       gradientUnits="userSpaceOnUse"
       gradientTransform="translate(7.48,-5.5)"
       x1="316.29999"
       y1="614.85999"
       x2="388.54999"
       y2="640.85999" />
  </defs>
  <sodipodi:namedview
     id="base"
     fit-margin-left="0"
     inkscape:zoom="1"
     borderopacity="1.0"
     inkscape:current-layer="layer2"
     inkscape:cx="-98.545648"
     inkscape:cy="133.19108"
     inkscape:window-maximized="1"
     showgrid="false"
     fit-margin-right="0"
     inkscape:document-units="px"
     bordercolor="#666666"
     inkscape:window-x="0"
     guidetolerance="10"
     objecttolerance="10"
     inkscape:window-y="0"
     fit-margin-bottom="0"
     inkscape:window-width="1920"
     inkscape:pageopacity="0.0"
     inkscape:pageshadow="2"
     pagecolor="#ffffff"
     gridtolerance="10000"
     inkscape:window-height="1011"
     fit-margin-top="0"
     inkscape:document-rotation="0" />
  <g
     id="layer2"
     inkscape:groupmode="layer"
     transform="translate(-318.576,-575.5898)">
    <path
       inkscape:export-ydpi="310"
       inkscape:export-xdpi="310"
       id="path4189"
       sodipodi:nodetypes="sscccssccccss"
       style="opacity:0.68293;fill:#f9ff00;fill-opacity:1"
       inkscape:connector-curvature="0"
       d="m 362.92,575.59 c -24.493,0 -44.344,19.851 -44.344,44.344 0,11.167 4.1252,21.359 10.938,29.156 3.878,4.0518 6.5995,9.9233 7.4688,16.656 l 0.0191,12.429 c 0,4.4527 3.5756,8.0284 8.0284,8.0284 h 35.78 c 4.4527,0 8.0284,-3.5756 8.0284,-8.0284 l -0.0121,-12.429 c 0.86451,-6.7196 3.6103,-12.574 7.4688,-16.625 0.003,-0.01 -0.002,-0.0215 0,-0.0312 6.8156,-7.7976 10.969,-17.986 10.969,-29.156 0,-24.493 -19.851,-44.344 -44.344,-44.344 z" />
    <rect
       inkscape:export-ydpi="310"
       inkscape:export-xdpi="310"
       id="rect4155"
       style="color:#000000;fill:url(#linearGradient4181)"
       rx="0"
       ry="0"
       height="31.25"
       width="33.75"
       y="681.85999"
       x="346.04999" />
    <rect
       inkscape:export-ydpi="310"
       inkscape:export-xdpi="310"
       id="rect4157"
       style="color:#000000;fill:url(#linearGradient4183)"
       rx="0"
       ry="0"
       height="31.25"
       width="33.75"
       y="681.85999"
       x="346.04999" />
    <path
       inkscape:export-ydpi="310"
       inkscape:export-xdpi="310"
       id="path4159"
       d="m 344.03,690.34 v 2.4375 l 17.75,-2.4375 z m 37.75,0.25 -37.75,5.1875 v 2.0625 l 37.75,-5.1875 z m 0,5.0625 -37.75,5.1875 v 2.0625 l 37.75,-5.1875 z m 0,5.0625 -37.75,5.1875 v 2.0312 l 37.75,-5.1875 z m 0,5.0312 -37.75,5.1875 v 2.0625 l 37.75,-5.1875 z"
       style="fill:url(#linearGradient4185)"
       inkscape:connector-curvature="0" />
    <path
       inkscape:export-ydpi="310"
       inkscape:export-xdpi="310"
       id="path4161"
       d="m 343.67,682.72 v 5.25 c 0,1.385 1.115,2.5 2.5,2.5 h 33.5 c 1.385,0 2.5,-1.115 2.5,-2.5 v -5.25 z"
       sodipodi:nodetypes="csssscc"
       style="color:#000000;fill:url(#linearGradient4187)"
       inkscape:connector-curvature="0" />
    <path
       inkscape:export-ydpi="310"
       inkscape:export-xdpi="310"
       id="path4163"
       sodipodi:nodetypes="csssscc"
       style="color:#000000;fill:url(#linearGradient4189)"
       inkscape:connector-curvature="0"
       d="m 343.67,682.72 v 5.25 c 0,1.385 1.115,2.5 2.5,2.5 h 33.5 c 1.385,0 2.5,-1.115 2.5,-2.5 v -5.25 z" />
    <path
       inkscape:export-ydpi="310"
       inkscape:export-xdpi="310"
       id="path4165"
       d="m 362.92,575.59 c -24.493,0 -44.344,19.851 -44.344,44.344 0,11.167 4.1252,21.359 10.938,29.156 3.878,4.0518 6.5995,9.9233 7.4688,16.656 l 0.0191,12.429 c 0,4.4527 3.5756,8.0284 8.0284,8.0284 h 35.78 c 4.4527,0 8.0284,-3.5756 8.0284,-8.0284 l -0.0121,-12.429 c 0.86451,-6.7196 3.6103,-12.574 7.4688,-16.625 0.003,-0.01 -0.002,-0.0215 0,-0.0312 6.8156,-7.7976 10.969,-17.986 10.969,-29.156 0,-24.493 -19.851,-44.344 -44.344,-44.344 z"
       sodipodi:nodetypes="sscccssccccss"
       style="opacity:0.282;fill:url(#linearGradient4191)"
       inkscape:connector-curvature="0" />
    <path
       inkscape:export-ydpi="310"
       inkscape:export-xdpi="310"
       id="path4167"
       d="m 346.03,713.09 4.25,4.75 h 25.25 l 4.25,-4.75 z"
       sodipodi:nodetypes="ccccc"
       style="color:#000000;fill:#808080"
       inkscape:connector-curvature="0" />
    <path
       inkscape:export-ydpi="310"
       inkscape:export-xdpi="310"
       id="path4169"
       d="m 350.27,717.84 c 0,1.0374 0.52146,2.0748 1.5644,2.8696 l 7.3055,5.568 c 2.0859,1.5898 5.4444,1.5898 7.5303,0 l 7.3055,-5.568 c 1.043,-0.79489 1.5644,-1.8323 1.5644,-2.8696 z"
       sodipodi:nodetypes="csssscc"
       style="color:#000000;fill:#343434"
       inkscape:connector-curvature="0" />
    <path
       inkscape:export-ydpi="310"
       inkscape:export-xdpi="310"
       id="path4171"
       d="m 362.92,575.59 c -24.493,0 -44.344,19.851 -44.344,44.344 0,11.167 4.1252,21.359 10.938,29.156 3.878,4.0518 6.5995,9.9233 7.4688,16.656 l 0.0191,12.429 c 0,4.4527 3.5756,8.0284 8.0284,8.0284 h 35.78 c 4.4527,0 8.0284,-3.5756 8.0284,-8.0284 l -0.0121,-12.429 c 0.86451,-6.7196 3.6103,-12.574 7.4688,-16.625 0.003,-0.01 -0.002,-0.0215 0,-0.0312 6.8156,-7.7976 10.969,-17.986 10.969,-29.156 0,-24.493 -19.851,-44.344 -44.344,-44.344 z"
       sodipodi:nodetypes="sscccssccccss"
       style="fill:url(#linearGradient4278)"
       inkscape:connector-curvature="0" />
  </g>
  <metadata
     id="metadata53">
    <rdf:RDF>
      <cc:Work>
        <dc:format>image/svg+xml</dc:format>
        <dc:type
           rdf:resource="http://purl.org/dc/dcmitype/StillImage" />
        <cc:license
           rdf:resource="http://creativecommons.org/publicdomain/zero/1.0/" />
        <dc:publisher>
          <cc:Agent
             rdf:about="http://openclipart.org/">
            <dc:title>Openclipart</dc:title>
          </cc:Agent>
        </dc:publisher>
        <dc:title />
        <dc:date>2012-01-29T20:01:03</dc:date>
        <dc:description>Light Bulbs</dc:description>
        <dc:source>https://openclipart.org/detail/167552/light-bulbs-by-printerkiller</dc:source>
        <dc:creator>
          <cc:Agent>
            <dc:title>PrinterKiller</dc:title>
          </cc:Agent>
        </dc:creator>
        <dc:subject>
          <rdf:Bag>
            <rdf:li>Light Bulbs on/off bulb</rdf:li>
          </rdf:Bag>
        </dc:subject>
      </cc:Work>
      <cc:License
         rdf:about="http://creativecommons.org/publicdomain/zero/1.0/">
        <cc:permits
           rdf:resource="http://creativecommons.org/ns#Reproduction" />
        <cc:permits
           rdf:resource="http://creativecommons.org/ns#Distribution" />
        <cc:permits
           rdf:resource="http://creativecommons.org/ns#DerivativeWorks" />
      </cc:License>
    </rdf:RDF>
  </metadata>
</svg>
