<?xml version="1.0" encoding="UTF-8" standalone="no"?>
<svg
   xmlns:dc="http://purl.org/dc/elements/1.1/"
   xmlns:cc="http://creativecommons.org/ns#"
   xmlns:rdf="http://www.w3.org/1999/02/22-rdf-syntax-ns#"
   xmlns:svg="http://www.w3.org/2000/svg"
   xmlns="http://www.w3.org/2000/svg"
   xmlns:xlink="http://www.w3.org/1999/xlink"
   xmlns:sodipodi="http://sodipodi.sourceforge.net/DTD/sodipodi-0.dtd"
   xmlns:inkscape="http://www.inkscape.org/namespaces/inkscape"
   width="23.465471mm"
   height="40.184956mm"
   viewBox="0 0 23.465471 40.184956"
   version="1.1"
   id="svg69"
   inkscape:version="1.0.1 (3bc2e813f5, 2020-09-07)"
   sodipodi:docname="light-bulb-off.svg">
  <defs
     id="defs63">
    <linearGradient
       id="linearGradient4252"
       y2="707.60999"
       xlink:href="#linearGradient3951"
       gradientUnits="userSpaceOnUse"
       x2="371.79999"
       gradientTransform="matrix(0.26458333,0,0,0.26458333,-91.775694,-24.160581)"
       y1="707.60999"
       x1="340.54999"
       inkscape:collect="always" />
    <linearGradient
       id="linearGradient3951"
       inkscape:collect="always">
      <stop
         id="stop3953"
         style="stop-color:#808080"
         offset="0" />
      <stop
         id="stop3955"
         style="stop-color:#5b5b5b"
         offset="1" />
    </linearGradient>
    <linearGradient
       id="linearGradient4254"
       y2="700.67999"
       xlink:href="#linearGradient4015"
       gradientUnits="userSpaceOnUse"
       x2="425.29999"
       gradientTransform="matrix(0.26458333,0,0,0.26458333,-109.96844,-24.160581)"
       y1="686.33002"
       x1="425.29999"
       inkscape:collect="always" />
    <linearGradient
       id="linearGradient4015"
       inkscape:collect="always">
      <stop
         id="stop4017"
         style="stop-color:#000000"
         offset="0" />
      <stop
         id="stop4019"
         style="stop-color:#000000;stop-opacity:0"
         offset="1" />
    </linearGradient>
    <linearGradient
       id="linearGradient4256"
       y2="127.11"
       xlink:href="#linearGradient3993"
       gradientUnits="userSpaceOnUse"
       x2="140.99001"
       gradientTransform="matrix(0.26458333,0,0,0.26458333,-40.167922,129.29775)"
       y1="127.11"
       x1="178.75"
       inkscape:collect="always" />
    <linearGradient
       id="linearGradient3993"
       inkscape:collect="always">
      <stop
         id="stop3995"
         style="stop-color:#585858"
         offset="0" />
      <stop
         id="stop3997"
         style="stop-color:#434343"
         offset="1" />
    </linearGradient>
    <linearGradient
       id="linearGradient4260"
       y2="693.88"
       xlink:href="#linearGradient4015"
       gradientUnits="userSpaceOnUse"
       x2="353.85999"
       gradientTransform="matrix(0.26458333,0,0,0.26458333,-91.775694,-24.160581)"
       y1="690.17999"
       x1="353.85999"
       inkscape:collect="always" />
    <linearGradient
       id="linearGradient4262"
       y2="640.85999"
       xlink:href="#linearGradient4115"
       gradientUnits="userSpaceOnUse"
       x2="388.54999"
       gradientTransform="matrix(0.26458333,0,0,0.26458333,-91.775694,-24.160581)"
       y1="614.85999"
       x1="316.29999"
       inkscape:collect="always" />
    <linearGradient
       id="linearGradient4115"
       inkscape:collect="always">
      <stop
         id="stop4117"
         style="stop-color:#959595;stop-opacity:.30622"
         offset="0" />
      <stop
         id="stop4119"
         style="stop-color:#3d3d3d;stop-opacity:.53589"
         offset="1" />
    </linearGradient>
    <linearGradient
       id="linearGradient4264"
       y2="652.84003"
       gradientUnits="userSpaceOnUse"
       x2="362.04999"
       gradientTransform="matrix(0.26458333,0,0,0.26458333,-91.775694,-24.160581)"
       y1="685.28998"
       x1="362.04999"
       inkscape:collect="always">
      <stop
         id="stop4127"
         style="stop-color:#b9b9b9"
         offset="0" />
      <stop
         id="stop4129"
         style="stop-color:#cecece;stop-opacity:0"
         offset="1" />
    </linearGradient>
    <linearGradient
       inkscape:collect="always"
       xlink:href="#linearGradient3951"
       id="linearGradient200"
       gradientUnits="userSpaceOnUse"
       gradientTransform="matrix(0.26458333,0,0,0.26458333,-91.775694,-24.160581)"
       x1="340.54999"
       y1="707.60999"
       x2="371.79999"
       y2="707.60999" />
  </defs>
  <sodipodi:namedview
     id="base"
     pagecolor="#ffffff"
     bordercolor="#666666"
     borderopacity="1.0"
     inkscape:pageopacity="0.0"
     inkscape:pageshadow="2"
     inkscape:zoom="0.94"
     inkscape:cx="435.77277"
     inkscape:cy="70.225789"
     inkscape:document-units="mm"
     inkscape:current-layer="layer1"
     inkscape:document-rotation="0"
     showgrid="false"
     fit-margin-top="0"
     fit-margin-left="0"
     fit-margin-right="0"
     fit-margin-bottom="0"
     inkscape:window-width="1451"
     inkscape:window-height="908"
     inkscape:window-x="178"
     inkscape:window-y="65"
     inkscape:window-maximized="0" />
  <metadata
     id="metadata66">
    <rdf:RDF>
      <cc:Work
         rdf:about="">
        <dc:format>image/svg+xml</dc:format>
        <dc:type
           rdf:resource="http://purl.org/dc/dcmitype/StillImage" />
        <dc:title />
      </cc:Work>
    </rdf:RDF>
  </metadata>
  <g
     inkscape:label="Laag 1"
     inkscape:groupmode="layer"
     id="layer1"
     transform="translate(9.4648787,-129.58609)">
    <rect
       id="rect3835"
       style="color:#000000;fill:url(#linearGradient200);stroke-width:0.264583"
       rx="0"
       ry="0"
       height="8.2682295"
       width="8.9296875"
       y="157.70341"
       x="-2.1957154" />
    <rect
       id="rect4011"
       style="color:#000000;fill:url(#linearGradient4254);stroke-width:0.264583"
       rx="0"
       ry="0"
       height="8.2682295"
       width="8.9296875"
       y="157.70341"
       x="-2.1957154" />
    <path
       id="path3869"
       d="m -2.7301746,159.94708 v 0.64493 l 4.6963541,-0.64493 z m 9.9880207,0.0661 -9.9880207,1.37253 v 0.5457 l 9.9880207,-1.37253 z m 0,1.33945 -9.9880207,1.37253 v 0.5457 l 9.9880207,-1.37252 z m 0,1.33946 -9.9880207,1.37252 v 0.53742 l 9.9880207,-1.37252 z m 0,1.33117 -9.9880207,1.37252 v 0.54571 l 9.9880207,-1.37253 z"
       style="fill:url(#linearGradient4256);stroke-width:0.264583"
       inkscape:connector-curvature="0" />
    <path
       id="rect3837"
       d="m -2.8254246,157.93096 v 1.38906 c 0,0.36645 0.2950104,0.66146 0.6614583,0.66146 h 8.8635416 c 0.3664479,0 0.6614583,-0.29501 0.6614583,-0.66146 v -1.38906 z"
       sodipodi:nodetypes="csssscc"
       style="color:#000000;fill:url(#linearGradient4252);stroke-width:0.264583"
       inkscape:connector-curvature="0" />
    <path
       id="path4001"
       sodipodi:nodetypes="csssscc"
       style="color:#000000;fill:url(#linearGradient4260);stroke-width:0.264583"
       inkscape:connector-curvature="0"
       d="m -2.8254246,157.93096 v 1.38906 c 0,0.36645 0.2950104,0.66146 0.6614583,0.66146 h 8.8635416 c 0.3664479,0 0.6614583,-0.29501 0.6614583,-0.66146 v -1.38906 z" />
    <path
       id="path3032"
       d="m 2.2678045,129.58615 c -6.4804395,0 -11.7326832,5.25224 -11.7326832,11.73268 0,2.9546 1.0914592,5.65123 2.8940125,7.71419 1.0260542,1.07204 1.7461177,2.62554 1.97612,4.4069 l 0.00505,3.28851 c 0,1.17811 0.9460442,2.12418 2.1241808,2.12418 h 9.4667916 c 1.1781102,0 2.1241808,-0.94605 2.1241808,-2.12418 l -0.0032,-3.28851 c 0.228735,-1.77789 0.955225,-3.32687 1.97612,-4.3987 7.94e-4,-0.003 -5.29e-4,-0.006 0,-0.008 1.803294,-2.06312 2.902215,-4.7588 2.902215,-7.71419 0,-6.48044 -5.2522441,-11.73269 -11.7326836,-11.73269 z"
       sodipodi:nodetypes="sscccssccccss"
       style="opacity:0.68293;fill:url(#linearGradient4262);stroke-width:0.264583"
       inkscape:connector-curvature="0" />
    <path
       id="rect3880"
       d="m -2.2010079,165.96635 1.1244791,1.25677 h 6.6807291 l 1.1244792,-1.25677 z"
       sodipodi:nodetypes="ccccc"
       style="color:#000000;fill:#808080;stroke-width:0.264583"
       inkscape:connector-curvature="0" />
    <path
       id="rect3883"
       d="m -1.0791746,167.22312 c 0,0.27448 0.13796962,0.54896 0.41391416,0.75925 l 1.93291354,1.4732 c 0.5518943,0.42064 1.4404975,0.42064 1.9923918,0 l 1.9329135,-1.4732 c 0.2759605,-0.21031 0.4139142,-0.48479 0.4139142,-0.75925 z"
       sodipodi:nodetypes="csssscc"
       style="color:#000000;fill:#343434;stroke-width:0.264583"
       inkscape:connector-curvature="0" />
    <path
       id="path4121"
       d="m 2.2678045,129.58615 c -6.4804395,0 -11.7326832,5.25224 -11.7326832,11.73268 0,2.9546 1.0914592,5.65123 2.8940125,7.71419 1.0260542,1.07204 1.7461177,2.62554 1.97612,4.4069 l 0.00505,3.28851 c 0,1.17811 0.9460442,2.12418 2.1241808,2.12418 h 9.4667916 c 1.1781102,0 2.1241808,-0.94605 2.1241808,-2.12418 l -0.0032,-3.28851 c 0.228735,-1.77789 0.955225,-3.32687 1.97612,-4.3987 7.94e-4,-0.003 -5.29e-4,-0.006 0,-0.008 1.803294,-2.06312 2.902215,-4.7588 2.902215,-7.71419 0,-6.48044 -5.2522441,-11.73269 -11.7326836,-11.73269 z"
       sodipodi:nodetypes="sscccssccccss"
       style="fill:url(#linearGradient4264);stroke-width:0.264583"
       inkscape:connector-curvature="0" />
  </g>
</svg>
