<?xml version="1.0" encoding="UTF-8" standalone="no"?>
<!-- Created with Inkscape (http://www.inkscape.org/) -->

<svg
   version="1.1"
   id="svg2"
   width="561.86792"
   height="393.89044"
   viewBox="0 0 561.86792 393.89044"
   xmlns:xlink="http://www.w3.org/1999/xlink"
   xmlns="http://www.w3.org/2000/svg"
   xmlns:svg="http://www.w3.org/2000/svg">
  <defs
     id="defs6">
    <color-profile
       name="Apple-RGB"
       xlink:href="file:///usr/share/color/icc/colord/AppleRGB.icc"
       id="color-profile11700" />
  </defs>
  <g
     id="g8"
     transform="translate(-21.782586,-100.05811)">
    <path
       style="fill:#ffffff;fill-opacity:1"
       d="m 46.172036,493.00319 c -1.1,-0.45022 -2.781864,-1.6884 -3.737475,-2.75151 -1.615212,-1.79691 -1.740146,-6.99837 -1.775422,-73.91743 l -0.03795,-71.98449 -4.464451,-1.19406 c -5.629955,-1.50578 -12.130492,-7.29098 -13.559061,-12.06697 -0.641514,-2.14471 -0.952604,-9.45777 -0.757237,-17.80101 0.330049,-14.09497 0.345875,-14.17869 3.402693,-18 5.904739,-7.38148 5.623917,-7.33587 45.178898,-7.33762 l 35.250009,-0.002 v -6.2566 c 0,-3.44113 0.4085,-7.68097 0.90778,-9.42186 l 0.90779,-3.16525 -18.233559,-0.32815 c -18.02056,-0.32431 -18.30242,-0.36339 -24.12925,-3.3459 -6.53895,-3.34701 -12.423211,-10.10253 -14.323122,-16.44387 -0.785933,-2.62321 -1.129643,-22.31711 -1.129643,-64.72625 0,-67.73928 -0.12962,-66.29587 6.666425,-74.23551 1.95683,-2.28612 5.8699,-5.37608 8.69572,-6.86659 l 5.13786,-2.71002 h 96.499999 96.5 l 5.13785,2.71002 c 6.2594,3.30159 11.72428,9.4697 13.80787,15.58471 2.33374,6.84913 2.33374,124.56141 0,131.41054 -2.17533,6.38425 -7.50267,12.18445 -14.22147,15.48378 -5.53485,2.71794 -6.32505,2.82181 -23.88203,3.13909 l -18.15779,0.32815 0.90779,3.16525 c 0.49928,1.74089 0.90778,5.98073 0.90778,9.42186 v 6.2566 h 74.53138 c 58.74644,0 74.61558,-0.26474 74.9289,-1.25 0.21863,-0.6875 0.57768,-4.92088 0.79789,-9.40751 l 0.40038,-8.15751 -18.07928,-0.36911 c -17.2707,-0.35261 -18.30691,-0.48804 -23.16929,-3.02827 -5.3237,-2.78124 -10.1464,-7.57084 -13.14128,-13.0511 -1.6307,-2.98397 -1.79044,-8.22474 -2.04737,-67.16775 l -0.27867,-63.93126 2.58482,-5.28318 c 1.42165,-2.90575 4.65783,-7.10792 7.1915,-9.33815 8.39733,-7.391619 3.51568,-7.088689 109.35555,-6.78611 l 94.42547,0.26995 5.33272,2.95395 c 5.82506,3.22668 9.08107,6.60401 12.46508,12.92958 l 2.2022,4.11647 v 64 64 l -2.97928,5.37926 c -1.63861,2.9586 -4.96964,6.89902 -7.4023,8.75649 -6.90585,5.27301 -12.16888,6.36425 -30.69461,6.36425 h -16.21319 l 0.87083,3.75 c 0.47896,2.0625 0.88157,6.32148 0.89469,9.46439 l 0.0239,5.71439 36.32928,0.28561 36.32929,0.28561 3.77956,2.88391 c 6.06646,4.62888 7.51428,9.09165 7.53991,23.24109 0.0121,6.66875 -0.27213,13.59546 -0.63158,15.39268 -0.99776,4.9888 -7.88744,11.58614 -13.60235,13.02517 l -4.74415,1.19458 v 71.82552 71.82552 l -2.39387,2.78304 c -3.41171,3.96635 -9.80055,3.96635 -13.21226,0 l -2.39387,-2.78304 V 415.89234 343.9481 h -23.5 -23.5 v 9.5 9.5 h 2.56574 c 3.16771,0 6.07547,1.44954 9.77354,4.87219 5.1521,4.76838 5.66072,6.81162 5.66072,22.74029 0,13.82296 -0.14857,14.96532 -2.45902,18.9078 -2.80662,4.78914 -5.4329,6.76784 -11.32639,8.53357 l -4.14082,1.24062 -0.28689,34.27343 -0.28688,34.27343 -2.34483,2.49473 c -2.99104,3.18225 -6.68281,4.10224 -10.35607,2.58072 -5.61289,-2.32493 -5.7991,-3.62111 -5.7991,-40.36712 v -33.54921 h -41.96262 -41.96263 l -0.28737,34.42067 -0.28738,34.42066 -2.37558,2.52746 c -1.30657,1.39011 -3.63623,2.80435 -5.17701,3.14276 -3.2662,0.71738 -8.37823,-1.57951 -9.91777,-4.45616 -0.64818,-1.21115 -1.02964,-14.50035 -1.02964,-35.87093 v -33.94703 l -4.67648,-1.17755 c -6.06169,-1.52635 -11.70778,-7.05948 -13.32245,-13.05589 -0.73016,-2.71164 -1.0576,-9.30544 -0.8461,-17.0385 0.32252,-11.79192 0.52418,-12.88559 3.09076,-16.76236 2.83411,-4.28084 7.0353,-7.07808 12.25427,-8.15913 l 3,-0.62142 0.28753,-9.21129 0.28752,-9.21129 h -23.53752 -23.53753 v 71.04966 c 0,77.69777 0.17157,75.39399 -5.7991,77.86712 -3.67366,1.52169 -7.36536,0.60141 -10.35607,-2.58158 l -2.34483,-2.49559 -0.26934,-71.91981 -0.26934,-71.9198 h -8.95513 -8.95514 l -0.27552,71.91989 -0.27553,71.91989 -2.37558,2.52824 c -1.30657,1.39053 -3.63623,2.80512 -5.17701,3.14353 -3.2662,0.71738 -8.37823,-1.57951 -9.91777,-4.45616 -0.67867,-1.26812 -1.02964,-26.31787 -1.02964,-73.48965 v -71.56574 h -23.5 -23.5 v 9.5 9.5 h 2.66214 c 4.36885,0 11.09595,4.61704 13.54025,9.29314 1.76452,3.37565 2.28128,6.36804 2.61537,15.14485 0.55578,14.60064 -0.81305,20.5573 -5.89091,25.63516 -2.5358,2.5358 -5.46038,4.2842 -8.40761,5.02632 l -4.51924,1.13796 v 33.43094 c 0,36.26789 -0.2,37.73483 -5.47206,40.13694 -1.44212,0.65708 -3.09536,1.19469 -3.67386,1.19469 -2.52374,0 -7.6721,-3.30517 -8.71552,-5.59524 -0.77892,-1.70955 -1.13856,-13.06564 -1.13856,-35.95181 v -33.45295 h -42 -42 v 33.45295 c 0,23.80644 -0.3445,34.20904 -1.19469,36.07499 -1.22401,2.68643 -5.45195,5.47206 -8.30531,5.47206 -2.85336,0 -7.0813,-2.78563 -8.30531,-5.47206 -0.84992,-1.86536 -1.19469,-12.24188 -1.19469,-35.95628 v -33.33423 l -4.51925,-1.13796 c -2.947229,-0.74212 -5.871799,-2.49052 -8.407609,-5.02632 -5.05192,-5.05192 -6.43325,-11.02098 -5.93239,-25.63516 0.33034,-9.63856 0.68899,-11.47387 3.019,-15.44874 2.86566,-4.88866 8.89909,-8.98925 13.226399,-8.98925 h 2.61385 v -9.5 -9.5 h -23.499999 -23.5 v 71.56574 c 0,47.17178 -0.35097,72.22153 -1.02965,73.48965 -1.09737,2.05046 -6.012032,4.9865 -8.170695,4.88122 -0.714813,-0.0349 -2.19966,-0.43175 -3.29966,-0.88197 z M 227.67204,390.44855 v -9.5 h -61 -61 v 9.5 9.5 h 61 61 z m 272,0 v -9.5 h -61 -61 v 9.5 9.5 h 61 61 z m -291,-71.57692 V 274.7947 l -2.92308,-2.92307 -2.92307,-2.92308 h -36.15385 -36.15385 l -2.92307,2.92308 -2.92308,2.92307 v 44.07693 44.07692 h 42 42 z m 271.76056,-0.23944 0.26056,-43.81637 -2.93364,-2.93363 -2.93363,-2.93364 h -36.44056 -36.44056 l -2.63637,2.63636 -2.63636,2.63637 v 44.29911 44.29911 l 41.75,-0.18548 41.75,-0.18547 z M 264.67204,168.58491 v -44.36363 l -2.63636,-2.63637 -2.63637,-2.63636 H 166.67204 73.944761 l -2.63636,2.63636 -2.63636,2.63637 v 44.36363 44.36364 h 97.999999 98 z m 272,0.28672 V 124.7947 l -2.92308,-2.92307 -2.92307,-2.92308 h -92.14267 c -64.09222,0 -92.75727,0.32893 -94.16158,1.08049 -4.58393,2.45325 -4.8496,5.17701 -4.8496,49.72072 0,23.026 0.3,42.16546 0.66667,42.53212 0.36666,0.36667 44.69166,0.66667 98.5,0.66667 h 97.83333 z"
       id="path2662" />
  </g>
</svg>
