<?xml version="1.0" encoding="UTF-8" standalone="no"?>
<!-- Generator: Adobe Illustrator 21.0.1, SVG Export Plug-In . SVG Version: 6.00 Build 0)  -->

<svg
   version="1.1"
   id="Layer_1"
   x="0px"
   y="0px"
   viewBox="0 0 156.83396 115"
   xml:space="preserve"
   width="156.83395"
   height="115"
   xmlns="http://www.w3.org/2000/svg"
   xmlns:svg="http://www.w3.org/2000/svg"><defs
   id="defs3" />
<style
   type="text/css"
   id="style1">
	.st0{fill:#015281;}
	.st1{fill:#6698BB;}
</style>
<g
   id="g3"
   transform="translate(-31.866044,-52.8)">
	<path
   class="st0"
   d="M 33.1,101.6 94,58.1 c 3.1,-2.2 7.2,-2.2 10.3,0 l 17.9,12.8 c 0.7,0.5 1.6,0.3 2.1,-0.4 v 0 c 0.5,-0.7 0.3,-1.6 -0.4,-2.1 L 104.6,54.6 c -3.3,-2.4 -7.8,-2.4 -11.1,0 l -61,43.6 c -0.7,0.5 -0.8,1.4 -0.4,2.1 z"
   id="path1" />
	<polyline
   class="st0"
   points="52.6,165.2 52.6,102.5 49.6,102.5 49.6,165.2  "
   id="polyline1" />
	<polyline
   class="st0"
   points="49.6,166.7 133.1,166.7 133.1,163.7 49.6,163.7  "
   id="polyline2" />
	<path
   class="st1"
   d="m 148.8,61.7 v -1.5 c -22.1,0 -40,17.9 -40,40 0,4.6 2.1,10 4.2,14.3 2,4.3 4.1,7.5 4.1,7.5 v 0 l 30.3,45.8 30.4,-41.6 v 0 c 0,0 2.7,-3.8 5.4,-8.8 2.7,-5.1 5.5,-11.5 5.5,-17.2 0,-22.1 -17.9,-40 -40,-40 v 1.5 1.5 c 10.2,0 19.4,4.1 26.1,10.8 6.7,6.7 10.8,15.9 10.8,26.1 0,4.7 -2.5,10.9 -5.1,15.8 -1.3,2.4 -2.6,4.6 -3.6,6.1 -0.5,0.8 -0.9,1.4 -1.2,1.8 -0.3,0.4 -0.4,0.6 -0.4,0.6 v 0 l -27.8,38.1 -27.9,-42.2 -1.3,0.8 1.3,-0.8 c 0,0 -0.1,-0.2 -0.3,-0.5 -0.7,-1.2 -2.6,-4.5 -4.3,-8.3 -1.7,-3.8 -3.1,-8.2 -3.1,-11.4 0,-10.2 4.1,-19.4 10.8,-26.1 6.7,-6.7 15.9,-10.8 26.1,-10.8 z"
   id="path2" />
	<path
   class="st1"
   d="M 161.6,100.8 H 160 c 0,3.2 -1.3,6.1 -3.4,8.2 -2.1,2.1 -5,3.4 -8.2,3.4 -3.2,0 -6.1,-1.3 -8.2,-3.4 -2.1,-2.1 -3.4,-5 -3.4,-8.2 0,-3.2 1.3,-6.1 3.4,-8.2 2.1,-2.1 5,-3.4 8.2,-3.4 3.2,0 6.1,1.3 8.2,3.4 2.1,2.1 3.4,5 3.4,8.2 h 1.6 1.5 c 0,-8.1 -6.6,-14.7 -14.7,-14.7 -8.1,0 -14.7,6.6 -14.7,14.7 0,8.1 6.6,14.7 14.7,14.7 8.1,0 14.7,-6.6 14.7,-14.7 z"
   id="path3" />
</g>
</svg>
