<!--?xml version="1.0" encoding="utf-8"?-->
<!-- Generator: Adobe Illustrator 18.1.1, SVG Export Plug-In . SVG Version: 6.00 Build 0)  -->

<svg version="1.1" id="_x31_0" xmlns="http://www.w3.org/2000/svg" xmlns:xlink="http://www.w3.org/1999/xlink" x="0px" y="0px" viewBox="0 0 512 512" style="width: 128px; height: 128px; opacity: 1;" xml:space="preserve">
<style type="text/css">
	.st0{fill:#374149;}
</style>
<g>
	<polygon class="st0" points="142.49,46.477 313.071,46.477 313.431,46.481 313.431,152.531 313.431,152.855 313.431,152.855 
		313.431,153.016 357.963,153.016 357.963,2.566 357.963,2.11 357.963,2.11 357.963,1.95 202.134,1.95 69.99,1.813 70.212,1.95 
		69.907,1.95 	" style="fill: rgb(0, 0, 0);"></polygon>
	<polygon class="st0" points="357.963,262.11 357.963,261.95 313.431,261.95 313.431,368.266 313.431,368.434 215.911,368.434 
		215.911,412.668 215.907,412.801 215.911,412.801 215.911,412.961 357.963,412.961 357.963,262.57 357.963,262.11 	" style="fill: rgb(0, 0, 0);"></polygon>
	<path class="st0" d="M189.291,101.305L99.907,46.477L29.33,3.172l-3.321-2.035L24.314,0v0.098L24.15,0v407.309
		c0,4.898,2.547,9.442,6.718,12l148.871,91.328c6.086,3.734,13.906-0.645,13.906-7.782v-89.894v-44.527V109.09
		C193.646,105.914,191.994,102.965,189.291,101.305z M140.208,273.305v-25.828c0-6.234,5.066-11.301,11.301-11.301
		c3.118,0,5.954,1.281,7.961,3.34c2.059,2.003,3.336,4.843,3.336,7.961v25.828c0,6.234-5.062,11.301-11.297,11.301
		C145.275,284.606,140.208,279.539,140.208,273.305z" style="fill: rgb(0, 0, 0);"></path>
	<path class="st0" d="M485.263,202.278l-89.062-67.461c-1.168-0.891-2.559-1.282-3.84-1.282c-3.394,0-6.512,2.617-6.512,6.457
		v28.778c0,3.562-2.894,6.512-6.512,6.512h-21.374h-44.531h-25.774c-3.562,0-6.454,2.894-6.454,6.457v51.434
		c0,3.562,2.891,6.512,6.454,6.512h25.774h44.531h21.374c3.618,0,6.512,2.894,6.512,6.457v28.777c0,3.84,3.118,6.512,6.512,6.512
		c1.281,0,2.672-0.446,3.84-1.336l89.062-67.461C488.712,210.016,488.712,204.894,485.263,202.278z" style="fill: rgb(0, 0, 0);"></path>
</g>
</svg>
