<?xml version="1.0" encoding="UTF-8" standalone="no"?>
<svg
   id="svg2"
   viewBox="0 0 70.045641 70.046652"
   version="1.1"
   width="70.045639"
   height="70.046654"
   xmlns:xlink="http://www.w3.org/1999/xlink"
   xmlns="http://www.w3.org/2000/svg"
   xmlns:svg="http://www.w3.org/2000/svg"
   xmlns:rdf="http://www.w3.org/1999/02/22-rdf-syntax-ns#"
   xmlns:cc="http://creativecommons.org/ns#"
   xmlns:dc="http://purl.org/dc/elements/1.1/">
  <defs
     id="defs4">
    <linearGradient
       id="linearGradient4034">
      <stop
         id="stop4036"
         stop-color="#fff"
         offset="0" />
      <stop
         id="stop4038"
         stop-color="#fff"
         offset=".22074" />
      <stop
         id="stop4041"
         stop-color="#fff"
         offset=".48438" />
      <stop
         id="stop4043"
         stop-color="#fff"
         stop-opacity="0"
         offset="1" />
    </linearGradient>
    <linearGradient
       id="linearGradient4038">
      <stop
         id="stop3892"
         stop-color="#434343"
         offset="0" />
      <stop
         id="stop3868"
         offset=".5" />
      <stop
         id="stop4262"
         stop-color="#161616"
         offset=".58871" />
      <stop
         id="stop4044"
         offset="1" />
    </linearGradient>
    <linearGradient
       id="linearGradient4098"
       x1="224.44"
       spreadMethod="reflect"
       gradientUnits="userSpaceOnUse"
       y1="153.10001"
       gradientTransform="matrix(0.44676,0,0,0.44681,-68.89,38.521)"
       x2="233.38"
       y2="186.45">
      <stop
         id="stop3865"
         stop-color="#f759ff"
         offset="0" />
      <stop
         id="stop3867"
         stop-color="#47005e"
         offset="1" />
    </linearGradient>
    <linearGradient
       id="linearGradient3043"
       x1="195.71001"
       xlink:href="#linearGradient4038"
       gradientUnits="userSpaceOnUse"
       y1="168.08"
       gradientTransform="matrix(0,-0.51551,-0.51545,0,121.64464,168.3285)"
       x2="321.42999"
       y2="168.08" />
    <linearGradient
       id="linearGradient3073"
       x1="195.71001"
       xlink:href="#linearGradient4038"
       gradientUnits="userSpaceOnUse"
       y1="168.08"
       gradientTransform="matrix(0,-0.51551,-0.51545,0,133.26,246.92)"
       x2="321.42999"
       y2="168.08" />
    <filter
       id="filter3843"
       color-interpolation-filters="sRGB"
       x="-0.012000596"
       y="-0.011999485"
       width="1.0240012"
       height="1.023999">
      <feGaussianBlur
         id="feGaussianBlur3845"
         stdDeviation="0.3240161" />
    </filter>
    <filter
       id="filter3847"
       color-interpolation-filters="sRGB"
       x="-0.012000596"
       y="-0.011999485"
       width="1.0240012"
       height="1.023999">
      <feGaussianBlur
         id="feGaussianBlur3849"
         stdDeviation="0.3240161" />
    </filter>
    <radialGradient
       id="radialGradient3853"
       xlink:href="#linearGradient4038"
       gradientUnits="userSpaceOnUse"
       cy="241.48"
       cx="383.70001"
       gradientTransform="matrix(0,1,-1.0002,0,288.16,-270.08)"
       r="35.620998" />
    <linearGradient
       id="linearGradient3855"
       x1="348.07999"
       xlink:href="#linearGradient4038"
       spreadMethod="reflect"
       gradientUnits="userSpaceOnUse"
       y1="241.48"
       gradientTransform="rotate(90,279.095,9.015)"
       x2="419.32001"
       y2="241.48" />
    <radialGradient
       id="radialGradient3857"
       cx="258.57001"
       xlink:href="#linearGradient4038"
       gradientUnits="userSpaceOnUse"
       cy="168.08"
       r="62.856998"
       gradientTransform="matrix(0.46603,0,0,0.46609,-73.88,35.28)" />
    <radialGradient
       id="radialGradient3859"
       xlink:href="#linearGradient4038"
       gradientUnits="userSpaceOnUse"
       cy="169.52"
       cx="383.70001"
       gradientTransform="matrix(0,1,-1.0002,0,204.56464,-348.6815)"
       r="35.620998" />
    <linearGradient
       id="linearGradient3861"
       x1="348.07999"
       xlink:href="#linearGradient4038"
       spreadMethod="reflect"
       gradientUnits="userSpaceOnUse"
       y1="169.52"
       gradientTransform="rotate(90,276.60807,-72.073429)"
       x2="419.32001"
       y2="169.52" />
    <radialGradient
       id="radialGradient3863"
       xlink:href="#linearGradient4038"
       gradientUnits="userSpaceOnUse"
       cy="168.08"
       cx="258.57001"
       gradientTransform="matrix(0.46603,0,0,0.46609,-85.488358,-43.3025)"
       r="62.856998" />
    <linearGradient
       id="linearGradient3865"
       x1="8.1918001"
       xlink:href="#linearGradient4034"
       spreadMethod="reflect"
       gradientUnits="userSpaceOnUse"
       y1="-87.594002"
       gradientTransform="matrix(-1.0867,0,0,1.1973,85.936,70.403)"
       x2="-56.125999"
       y2="-20.254" />
    <linearGradient
       id="linearGradient3867"
       x1="8.1918001"
       xlink:href="#linearGradient4034"
       spreadMethod="reflect"
       gradientUnits="userSpaceOnUse"
       y1="-87.594002"
       gradientTransform="matrix(-1.0847,0,0,1.1975,74.247642,-8.1863)"
       x2="-56.125999"
       y2="-20.254" />
  </defs>
  <path
     id="path4316"
     style="color:#000000;fill:url(#radialGradient3859);stroke:url(#linearGradient3861)"
     d="m 35.014642,0.501 c -8.8325,1.887e-4 -17.665,3.3842 -24.406,10.125 -13.4819997,13.482 -13.4829997,35.329 0,48.812 13.483,13.483 35.331,13.482 48.812,0 6.7408,-6.7408 10.125,-15.571 10.125,-24.406 0,-8.836 -3.383,-17.665 -10.125,-24.406 -6.741,-6.7421 -15.573,-10.126 -24.406,-10.126 z"
     stroke="url(#linearGradient3861)"
     fill="url(#radialGradient3859)" />
  <path
     id="path4151"
     filter="url(#filter3843)"
     style="color:#000000;fill:url(#linearGradient3043)"
     fill="url(#linearGradient3043)"
     d="m 35.014642,67.4385 c -17.894,0 -32.3999997,-14.508 -32.3999997,-32.403 0,-17.896 14.5059997,-32.403 32.3999997,-32.403 17.894,0 32.4,14.508 32.4,32.403 0,17.896 -14.506,32.403 -32.4,32.403 z" />
  <path
     id="path4155"
     style="color:#000000;fill:url(#radialGradient3863)"
     fill="url(#radialGradient3863)"
     d="m 35.014642,5.751 c -16.178,0 -29.2809997,13.101 -29.2809997,29.281 0,16.18 13.1029997,29.312 29.2809997,29.312 16.178,0 29.281,-13.132 29.281,-29.312 0,-16.18 -13.103,-29.282 -29.281,-29.282 z" />
  <path
     id="path4157"
     style="color:#000000;text-indent:0;text-transform:none"
     d="m 34.983642,12.8445 a 3.1277,3.128 0 0 0 -3.0938,3.1875 v 20.906 a 3.1277,3.128 0 1 0 6.25,0 V 16.032 a 3.1277,3.128 0 0 0 -3.1562,-3.1875 z m 8.4688,3.9375 a 3.1282,3.1286 0 0 0 -1.3438,5.875 c 6.8075,3.9308 9.1178,12.535 5.1875,19.344 -3.931,6.808 -12.568,9.118 -19.376,5.187 -6.807,-3.931 -9.086,-12.535 -5.156,-19.344 1.2434,-2.1539 3.0026,-3.944 5.1562,-5.1875 a 3.1282,3.1286 0 0 0 -1.5,-5.8438 3.1282,3.1286 0 0 0 -1.625,0.4375 c -1.5521,0.8962 -2.9622,1.962 -4.2188,3.2188 -1.2566,1.2567 -2.3539,2.6977 -3.25,4.25 -5.6205,9.736 -2.2662,22.254 7.4688,27.875 9.7349,5.6211 22.286,2.2673 27.906,-7.4688 5.6205,-9.736 2.2662,-22.254 -7.4688,-27.875 a 3.1282,3.1286 0 0 0 -1.78,-0.468 z"
     stroke="#000000"
     stroke-width="0.7"
     fill="#4d4d4d" />
  <path
     id="path4159"
     opacity="0.4"
     style="color:#000000;fill:url(#linearGradient3867)"
     d="m 34.764642,8.0323 c -12.941,0 -23.669,9.4057 -25.7499997,21.781 -0.17381,1.353 -0.28125,2.7187 -0.28125,4.125 0,1.8751 0.13867,3.7239 0.4375,5.5 0.0132,0.06507 -0.01374,0.12257 0,0.1875 0.32191,1.5252 0.8008,2.9917 1.3749997,4.4062 0.944,-11.928 29.673,-11.729 39.344,-10.656 9.6712,1.0729 10.52,-2.8255 10.031,-6.3438 -1.5704,-11.309 -13.199,-19 -25.156,-19 z"
     fill="url(#linearGradient3867)" />
  <metadata
     id="metadata42">
    <rdf:RDF>
      <cc:Work>
        <dc:format>image/svg+xml</dc:format>
        <dc:type
           rdf:resource="http://purl.org/dc/dcmitype/StillImage" />
        <cc:license
           rdf:resource="http://creativecommons.org/publicdomain/zero/1.0/" />
        <dc:publisher>
          <cc:Agent
             rdf:about="http://openclipart.org/">
            <dc:title>Openclipart</dc:title>
          </cc:Agent>
        </dc:publisher>
        <dc:date>2013-05-27T17:40:42</dc:date>
        <dc:description>power button, mygtukas, jungiklis</dc:description>
        <dc:source>https://openclipart.org/detail/178651/button-mygtukas-by-keistutis-178651</dc:source>
        <dc:creator>
          <cc:Agent>
            <dc:title>Keistutis</dc:title>
          </cc:Agent>
        </dc:creator>
        <dc:subject>
          <rdf:Bag>
            <rdf:li>jungiklis</rdf:li>
            <rdf:li>mygtukas</rdf:li>
            <rdf:li>power button</rdf:li>
          </rdf:Bag>
        </dc:subject>
      </cc:Work>
      <cc:License
         rdf:about="http://creativecommons.org/publicdomain/zero/1.0/">
        <cc:permits
           rdf:resource="http://creativecommons.org/ns#Reproduction" />
        <cc:permits
           rdf:resource="http://creativecommons.org/ns#Distribution" />
        <cc:permits
           rdf:resource="http://creativecommons.org/ns#DerivativeWorks" />
      </cc:License>
    </rdf:RDF>
  </metadata>
</svg>
