<svg viewBox="0 0 138 138" style="overflow: hidden; position: relative;" xmlns="http://www.w3.org/2000/svg" width="138" version="1.1" height="138"><desc>Created with Raphaël 2.1.0</desc><defs><linearGradient gradientTransform="matrix(1,0,0,1,0,0)" y2="0" x2="6.123233995736766e-17" y1="1" x1="0" id="184190-_03CA45-_AF00AA"><stop stop-color="#03ca45" offset="0%"/><stop stop-color="#af00aa" offset="100%"/></linearGradient></defs><path stroke-width="0.2631578947368421" transform="matrix(3.8,0,0,3.8,9.6014,9.6028)" fill-opacity="1" opacity="1" d="M24.083,15.5C24.073999999999998,20.239,20.238999999999997,24.073999999999998,15.499999999999998,24.083C10.758999999999999,24.073999999999998,6.922999999999998,20.238999999999997,6.914999999999997,15.499999999999998C6.922999999999997,10.758999999999999,10.758999999999997,6.922999999999998,15.499999999999998,6.914999999999997C17.412999999999997,6.914999999999997,19.165,7.543999999999997,20.589999999999996,8.600999999999997L18.807999999999996,10.383999999999997L27.236999999999995,12.639999999999997L24.976999999999997,4.212999999999997L23.086999999999996,6.102999999999997C21.014999999999997,4.425999999999997,18.369999999999997,3.414999999999997,15.499999999999996,3.414999999999997C8.826,3.418,3.418,8.826,3.416,15.5C3.418,22.175,8.826,27.583,15.5,27.583S27.583,22.175,27.583,15.5H24.083Z" stroke="none" fill="url(#184190-_03CA45-_AF00AA)" style="opacity: 1; fill-opacity: 1;"/><path transform="matrix(1,0,0,1,0,0)" fill-opacity="0.3" d="M0,0" stroke="none" fill="#ffffff" style="fill-opacity: 0.3;"/></svg>