<?xml version="1.0" encoding="UTF-8" standalone="no"?>
<svg
   viewBox="0 0 512 512"
   version="1.1"
   id="svg11"
   xmlns:xlink="http://www.w3.org/1999/xlink"
   xmlns="http://www.w3.org/2000/svg"
   xmlns:svg="http://www.w3.org/2000/svg"
   xmlns:rdf="http://www.w3.org/1999/02/22-rdf-syntax-ns#"
   xmlns:cc="http://creativecommons.org/ns#"
   xmlns:dc="http://purl.org/dc/elements/1.1/">
  <defs
     id="defs8">
    <linearGradient
       id="linear-gradient"
       x1="255.93"
       y1="471.38"
       x2="255.93"
       y2="31.13"
       gradientUnits="userSpaceOnUse">
      <stop
         offset="0"
         stop-color="#e6e7e8"
         id="stop1" />
      <stop
         offset="1"
         stop-color="#fff"
         id="stop2" />
    </linearGradient>
    <radialGradient
       id="radial-gradient"
       cx="149.17"
       cy="98.74"
       r="424.91"
       gradientUnits="userSpaceOnUse">
      <stop
         offset="0"
         stop-color="#0094d9"
         id="stop3" />
      <stop
         offset="1"
         stop-color="#034a9a"
         id="stop4" />
    </radialGradient>
    <linearGradient
       id="GradientFill_15"
       x1="254.13"
       y1="220.52"
       x2="254.13"
       y2="60.61"
       gradientUnits="userSpaceOnUse">
      <stop
         offset="0"
         stop-color="#ededee"
         id="stop5" />
      <stop
         offset="1"
         stop-color="#fff"
         id="stop6" />
    </linearGradient>
    <radialGradient
       id="radial-gradient-2"
       cx="310.06"
       cy="98.95"
       r="77.55"
       xlink:href="#radial-gradient" />
    <radialGradient
       id="GradientFill_3"
       cx="108.11"
       cy="386.83"
       r="29.1"
       gradientUnits="userSpaceOnUse">
      <stop
         offset="0"
         stop-color="#fff"
         id="stop7" />
      <stop
         offset="1"
         stop-color="#e6e7e8"
         id="stop8" />
    </radialGradient>
    <radialGradient
       id="GradientFill_3-2"
       cx="391.35"
       cy="386.83"
       r="29.1"
       xlink:href="#GradientFill_3" />
    <radialGradient
       xlink:href="#radial-gradient"
       id="radialGradient11"
       gradientUnits="userSpaceOnUse"
       cx="149.17"
       cy="98.74"
       r="424.91" />
    <radialGradient
       xlink:href="#GradientFill_3"
       id="radialGradient12"
       gradientUnits="userSpaceOnUse"
       cx="108.11"
       cy="386.83"
       r="29.1" />
  </defs>
  <title
     id="title8">save</title>
  <rect
     x="65.290001"
     y="60.610001"
     width="381.29001"
     height="381.29001"
     rx="48.330002"
     ry="48.330002"
     fill="url(#radial-gradient)"
     id="rect8"
     style="isolation:isolate;fill:url(#radialGradient11)" />
  <path
     d="M 386.42,60.61 V 187 a 33.64,33.64 0 0 1 -33.54,33.54 H 155.37 A 33.64,33.64 0 0 1 121.83,187 V 60.61 Z"
     fill-rule="evenodd"
     fill="url(#GradientFill_15)"
     id="path9"
     style="isolation:isolate;fill:url(#GradientFill_15)" />
  <rect
     x="299.13"
     y="88.550003"
     width="49.700001"
     height="104.03"
     rx="10.84"
     ry="10.84"
     fill="url(#radial-gradient-2)"
     id="rect9"
     style="isolation:isolate;fill:url(#radial-gradient-2)" />
  <path
     d="m 107.35,409.79 h 14.38 a 6.82,6.82 0 0 0 6.8,-6.81 V 388.6 a 6.83,6.83 0 0 0 -6.8,-6.81 h -14.38 a 6.83,6.83 0 0 0 -6.8,6.81 V 403 a 6.82,6.82 0 0 0 6.8,6.79 z"
     fill-rule="evenodd"
     fill="url(#GradientFill_3)"
     id="path10"
     style="isolation:isolate;fill:url(#radialGradient12)" />
  <path
     d="M 390.6,409.79 H 405 a 6.82,6.82 0 0 0 6.8,-6.81 V 388.6 a 6.83,6.83 0 0 0 -6.8,-6.81 h -14.4 a 6.83,6.83 0 0 0 -6.8,6.81 V 403 a 6.82,6.82 0 0 0 6.8,6.79 z"
     fill-rule="evenodd"
     fill="url(#GradientFill_3-2)"
     id="path11"
     style="isolation:isolate;fill:url(#GradientFill_3-2)" />
  <metadata
     id="metadata12">
    <rdf:RDF>
      <cc:Work
         rdf:about="">
        <dc:title>save</dc:title>
      </cc:Work>
    </rdf:RDF>
  </metadata>
</svg>
