<?xml version="1.0" encoding="UTF-8" standalone="no"?>
<!-- Generator: Adobe Illustrator 19.2.0, SVG Export Plug-In . SVG Version: 6.00 Build 0)  -->

<svg
   version="1.1"
   id="Layer_1"
   x="0px"
   y="0px"
   viewBox="0 0 532.1322 454.43985"
   xml:space="preserve"
   width="532.1322"
   height="454.43985"
   xmlns="http://www.w3.org/2000/svg"
   xmlns:svg="http://www.w3.org/2000/svg"><defs
   id="defs87" />
<style
   type="text/css"
   id="style2">
	.st0{fill:#C13A3A;}
	.st1{fill:#8C6239;}
	.st2{fill:#754C24;}
	.st3{fill:#B3B3B3;}
	.st4{font-family:'MyriadPro-Semibold';}
	.st5{font-size:74.8574px;}
	.st6{font-size:85.6023px;}
	.st7{font-size:103.5108px;}
	.st8{fill:#E88D6D;}
	.st9{fill:#4D4D4D;}
	.st10{fill:#F69B76;}
	.st11{fill:#E24B4B;}
	.st12{fill:#F8C09D;}
	.st13{fill:#F6AE8D;}
	.st14{fill:#333333;}
	.st15{fill:#EF937E;}
	.st16{fill:none;stroke:#333333;stroke-width:3.7935;stroke-linecap:round;stroke-linejoin:round;stroke-miterlimit:10;}
</style>





































<path
   class="st0"
   d="M 531.51432,381.27107 H 58.499986 v -142.5 c 0,-19.4 7.61206,-35.1 17.01804,-35.1 H 531.51432 Z"
   id="path4"
   style="stroke-width:0.696308" /><rect
   x="58.299988"
   y="381.27109"
   class="st1"
   width="473.83221"
   height="54.099998"
   id="rect6"
   style="stroke-width:0.696232" /><path
   class="st1"
   d="M 58.499986,454.43986 H 9.4999863 V 85.134863 c 0,-11.551477 10.9999997,-20.963792 24.4999997,-20.963792 v 0 c 13.5,0 24.5,9.412315 24.5,20.963792 z"
   id="path8"
   style="stroke-width:0.925022" /><rect
   x="10.623249"
   y="435.37106"
   class="st2"
   width="521.50897"
   height="18.9"
   id="rect16"
   style="stroke-width:0.73042" /><circle
   class="st1"
   cx="34"
   cy="64.171059"
   r="34"
   id="circle18" /><text
   class="st3 st4 st5"
   id="text22"
   x="315.40131"
   y="94.080574">z</text><text
   transform="rotate(-11.168356)"
   class="st3 st4 st6"
   id="text24"
   x="350.81619"
   y="144.31241"
   style="stroke-width:1.00004">z</text><text
   transform="rotate(10.392991)"
   class="st3 st4 st7"
   id="text26"
   x="425.19131"
   y="-22.191725"
   style="stroke-width:1.00001">z</text><path
   class="st8"
   d="m 440.99999,257.47107 0.6,1.9 c 3.1,9.1 -1.8,19 -11,22.1 l -150.9,52.3 c -9.1,3.1 -19,-1.8 -22.1,-11 l -0.6,-1.9 c -3.1,-9.1 1.8,-19 11,-22.1 l 150.9,-52.3 c 9.2,-3.1 19.1,1.8 22.1,11 z"
   id="path28" /><path
   class="st10"
   d="m 520.63348,140.67107 0.15324,152 -146.8015,1.4 c -13.40827,0 -24.28814,-10.8 -24.28814,-24.2 0,0 -0.8428,-92.6 13.33166,-113.1 16.47303,-23.8 25.43743,-14.6 66.73492,-14.6 z"
   id="path34"
   style="stroke-width:0.875321" /><path
   class="st8"
   d="m 372.09999,174.47107 c 0,0 45.1,28.5 27.1,46.9 -14.4,14.7 -48.7,25.5 -49.1,24.2 l -0.1,2.9 6.4,36.3 c 0,0 6.2,7.1 19.2,9.4 13,2.3 46.6,-0.3 46.6,-0.3 l 26.2,-48.2 -35.1,-67.7 z"
   id="path42" /><path
   class="st11"
   d="m 262.09999,368.37107 -142.5,-31.5 c -22.300004,-4.9 -36.400004,-27 -31.400004,-49.3 l 31.500004,-142.5 c 4.9,-22.3 27,-36.4 49.3,-31.4 l 142.5,31.5 c 22.3,4.9 36.4,27 31.4,49.3 l -31.6,142.5 c -4.9,22.3 -26.9,36.3 -49.2,31.4 z"
   id="path44" /><path
   class="st12"
   d="m 361.59999,188.47107 c 12.7,0 23.2,10.3 23.2,23 v 0 0.2 c 0,12.7 -10.5,23.2 -23.2,23.2 h -20.4 v -46.5 h 20.4 z"
   id="path46" /><g
   id="g52"
   transform="translate(-413.70001,-287.62893)">
	<path
   class="st13"
   d="m 780,508.1 c 0,0 0,0.1 0,0.1 0,0 0,0.1 0,0.1 z"
   id="path48" />
	<path
   class="st13"
   d="m 754.9,476.1 v 46.5 h 18.8 c 2.5,-4.5 4.6,-9.3 6.2,-14.3 3.3,-10.2 4.4,-20.5 3.7,-30.6 -2.6,-1 -5.4,-1.5 -8.3,-1.5 h -20.4 z"
   id="path50" />
</g><path
   class="st12"
   d="m 354.29999,220.47107 -0.1,0.3 c 13.8,-42.5 -9.4,-87.9 -52,-101.7 l -127.9,-41.399999 -49.7,153.399999 127.9,41.5 c 42.6,13.7 88,-9.5 101.8,-52.1 z"
   id="path54" /><rect
   x="1.0940424"
   y="-290.19989"
   transform="rotate(107.95662)"
   class="st14"
   width="37.900391"
   height="40.800419"
   id="rect56"
   style="stroke-width:1.00001" /><circle
   transform="rotate(-72.043381)"
   class="st12"
   cx="-19.758776"
   cy="287.94498"
   id="ellipse58"
   r="22.900236"
   style="stroke-width:1.00001" /><path
   class="st15"
   d="m 272.29999,104.17107 c -4.3,-1.4 -8.8,1 -10.2,5.2 -0.4,1.2 -0.5,2.4 -0.3,3.5 -1.8,-2.1 -2.6,-5 -1.6,-7.9 1.4,-4.3 6,-6.599999 10.2,-5.199999 3.1,0.999999 5.2,3.699999 5.5,6.699999 -0.9,-1 -2.1,-1.9 -3.6,-2.3 z"
   id="path60" /><path
   class="st14"
   d="m 166.19999,88.971071 0.4,0.1 3.1,-9.5 c 3.8,-11.6 16.1,-18.1 27.7,-14.4 l -0.2,-0.1 29.8,9.7 24.5,7.9 -11.7,36.099999 -11.1,-3.6 c -7.4,-2.4 -15.1,1.4 -17.5,8.8 l -38,117.4 c -4.5,14 -19.8,21.8 -33.8,17.2 l -51.100004,-16.6 44.000004,-135.8 c 4.3,-13.899999 19.9,-21.699999 33.9,-17.199999 z"
   id="path62" /><polygon
   class="st14"
   points="604.9,541.3 561.5,527.2 556.3,543.4 618.4,546.7 "
   id="polygon64"
   transform="translate(-413.70001,-287.62893)" /><ellipse
   transform="rotate(-15.46768)"
   class="st15"
   cx="230.70351"
   cy="291.66937"
   rx="8.7001705"
   ry="5.7001119"
   id="ellipse66"
   style="stroke-width:1.00002" /><path
   class="st15"
   d="m 261.19999,201.27107 15.9,4.6 c 0.7,0.2 1,1.3 0.8,2 l -2.7,9.4 c -0.7,2.6 -4.1,3.1 -5.6,0.9 l -10,-14.7 c -0.7,-1 0.4,-2.6 1.6,-2.2 z"
   id="path68" /><path
   class="st16"
   d="m 253.09999,162.87107 c 0,0 8.2,5.7 5.8,12.7 -2.3,7 -10.8,7.5 -10.8,7.5"
   id="path70" /><path
   class="st16"
   d="m 236.59999,216.57107 c 0,0 8.7,5.9 5.8,12.7 -3.1,7.5 -11.7,7.9 -11.7,7.9"
   id="path72" /><path
   class="st10"
   d="m 476.59999,256.47107 v 0 c -7.3,7.1 -19,6.9 -26.1,-0.5 l -76.3,-79.1 c -7.1,-7.3 -6.9,-19 0.5,-26.1 v 0 c 7.3,-7.1 19,-6.9 26.1,0.5 l 76.3,79.1 c 7,7.4 6.8,19.1 -0.5,26.1 z"
   id="path74" /><path
   class="st10"
   d="m 472.19999,247.37107 v 0 c 1.6,10.1 -5.2,19.5 -15.3,21.2 l -108.5,17.5 -5.9,-36.4 108.5,-17.5 c 10.1,-1.7 19.5,5.2 21.2,15.2 z"
   id="path76" /><path
   class="st13"
   d="m 331.79999,255.47107 c -1.9,-0.5 -4.1,-0.8 -6.9,-0.9 -14.3,-0.4 -63.7,12.1 -76.8,16.5 28.1,8.4 63.4,2.8 83.7,-15.6 z"
   id="path78" /><path
   class="st12"
   d="m 343.29999,254.37107 -21.2,10.5 c 0,0 -11.5,-5.9 -34,1.2 -14.7,4.7 -29,7.8 -35.1,10.4 -6.1,2.6 -3.3,11.5 3.2,9.6 0,0 -1.8,6.7 4.4,8.1 4.5,1 6.2,-0.5 6.2,-0.5 0,0 0.4,7.5 7.8,6 22.9,-4.6 42.3,-9.8 52.9,-13.6 9.6,-3.4 20.5,-3.1 20.5,-3.1 z"
   id="path80" /><path
   class="st11"
   d="M 531.53373,381.27107 H 410.49999 v -198.9 c 0,-42.6 6.7155,-77.30561 14.98365,-77.2 l 105.69076,1.34996 v 0 l 0.33992,274.75004 z"
   id="path82"
   style="stroke-width:0.440555" />
</svg>
