<?xml version="1.0" encoding="UTF-8"?>
<!-- Generator: Adobe Illustrator 19.2.0, SVG Export Plug-In . SVG Version: 6.00 Build 0)  -->
<svg version="1.1" id="Layer_1" xmlns="http://www.w3.org/2000/svg" xmlns:xlink="http://www.w3.org/1999/xlink" x="0px" y="0px" viewBox="0 0 1920 1080" style="enable-background:new 0 0 1920 1080;" xml:space="preserve">
<style type="text/css">
	.st0{fill:#C13A3A;}
	.st1{fill:#8C6239;}
	.st2{fill:#754C24;}
	.st3{fill:#B3B3B3;}
	.st4{font-family:'MyriadPro-Semibold';}
	.st5{font-size:74.8574px;}
	.st6{font-size:85.6023px;}
	.st7{font-size:103.5108px;}
	.st8{fill:#E88D6D;}
	.st9{fill:#4D4D4D;}
	.st10{fill:#F69B76;}
	.st11{fill:#E24B4B;}
	.st12{fill:#F8C09D;}
	.st13{fill:#F6AE8D;}
	.st14{fill:#333333;}
	.st15{fill:#EF937E;}
	.st16{fill:none;stroke:#333333;stroke-width:3.7935;stroke-linecap:round;stroke-linejoin:round;stroke-miterlimit:10;}
</style>
<path class="st0" d="M1447.8,668.9H472.2V526.4c0-19.4,15.7-35.1,35.1-35.1h940.5V668.9z"/>
<rect x="472" y="668.9" class="st1" width="977.5" height="54.1"/>
<path class="st1" d="M472.2,807.9h-49V376.3c0-13.5,11-24.5,24.5-24.5h0c13.5,0,24.5,11,24.5,24.5V807.9z"/>
<path class="st2" d="M487.2,822.7h-79.1l0,0c0-8.2,6.6-14.8,14.8-14.8h49.5C480.6,807.9,487.2,814.6,487.2,822.7L487.2,822.7z"/>
<path class="st2" d="M1511.8,822.7h-79.1l0,0c0-8.2,6.6-14.8,14.8-14.8h49.5C1505.2,807.9,1511.8,814.6,1511.8,822.7L1511.8,822.7z"/>
<path class="st1" d="M1496.8,807.9h-49V446.3c0-13.5,11-24.5,24.5-24.5l0,0c13.5,0,24.5,11,24.5,24.5V807.9z"/>
<rect x="472" y="723" class="st2" width="977.5" height="18.9"/>
<circle class="st1" cx="447.7" cy="351.8" r="34"/>
<circle class="st1" cx="1472.3" cy="421.8" r="34"/>
<text transform="matrix(1 0 0 1 729.1013 381.7095)" class="st3 st4 st5">z</text>
<text transform="matrix(0.9811 -0.1937 0.1937 0.9811 785.8248 361.2579)" class="st3 st4 st6">z</text>
<text transform="matrix(0.9836 0.1804 -0.1804 0.9836 835.9188 342.5053)" class="st3 st4 st7">z</text>
<path class="st8" d="M854.7,545.1l0.6,1.9c3.1,9.1-1.8,19-11,22.1l-150.9,52.3c-9.1,3.1-19-1.8-22.1-11l-0.6-1.9  c-3.1-9.1,1.8-19,11-22.1l150.9-52.3C841.8,531,851.7,535.9,854.7,545.1z"/>
<rect x="1137" y="299.8" transform="matrix(-4.489849e-11 1 -1 -4.489849e-11 1628.351 -686.7113)" class="st9" width="41" height="342"/>
<path class="st9" d="M1062.5,503.6v1.3c0,41.6-34.2,75.4-75.8,75.4h-0.2v-152h0.2C1028.4,428.3,1062.5,462,1062.5,503.6z"/>
<path class="st10" d="M986.5,428.3l0.2,152l-191.6,1.4c-17.5,0-31.7-10.8-31.7-24.2c0,0-1.1-92.6,17.4-113.1  c21.5-23.8,33.2-14.6,87.1-14.6L986.5,428.3z"/>
<path class="st2" d="M1328.5,528.7l41,0l0.4,80.8c0,0-18.4-3-21.9-22.9c-3.6-19.8,7.8-36.6,7.8-36.6l-27.3-2.1V528.7z"/>
<rect x="1137" y="367.8" transform="matrix(4.485396e-11 -1 1 4.485396e-11 618.7113 1696.351)" class="st9" width="41" height="342"/>
<path class="st2" d="M1328.5,480.6l41,0l0.4-80.8c0,0-18.4,3-21.9,22.9c-3.6,19.8,7.8,36.6,7.8,36.6l-27.3,2.1V480.6z"/>
<path class="st8" d="M785.8,462.1c0,0,45.1,28.5,27.1,46.9c-14.4,14.7-48.7,25.5-49.1,24.2l-0.1,2.9l6.4,36.3c0,0,6.2,7.1,19.2,9.4  c13,2.3,46.6-0.3,46.6-0.3l26.2-48.2L827,465.6L785.8,462.1z"/>
<path class="st11" d="M675.8,656l-142.5-31.5c-22.3-4.9-36.4-27-31.4-49.3l31.5-142.5c4.9-22.3,27-36.4,49.3-31.4l142.5,31.5  c22.3,4.9,36.4,27,31.4,49.3L725,624.6C720.1,646.9,698.1,660.9,675.8,656z"/>
<path class="st12" d="M775.3,476.1c12.7,0,23.2,10.3,23.2,23v0v0.2c0,12.7-10.5,23.2-23.2,23.2h-20.4v-46.5H775.3z"/>
<g>
	<path class="st13" d="M780,508.1c0,0,0,0.1,0,0.1c0,0,0,0.1,0,0.1L780,508.1z"/>
	<path class="st13" d="M754.9,476.1v46.5h18.8c2.5-4.5,4.6-9.3,6.2-14.3c3.3-10.2,4.4-20.5,3.7-30.6c-2.6-1-5.4-1.5-8.3-1.5H754.9z"/>
</g>
<path class="st12" d="M768,508.1l-0.1,0.3c13.8-42.5-9.4-87.9-52-101.7L588,365.3l-49.7,153.4l127.9,41.5  C708.8,573.9,754.2,550.7,768,508.1z"/>
<rect x="645.2" y="369.6" transform="matrix(-0.3083 0.9513 -0.9513 -0.3083 1239.9427 -121.6937)" class="st14" width="37.9" height="40.8"/>
<ellipse transform="matrix(0.3083 -0.9513 0.9513 0.3083 95.5626 921.6994)" class="st12" cx="681.5" cy="395.1" rx="22.9" ry="22.9"/>
<path class="st15" d="M686,391.8c-4.3-1.4-8.8,1-10.2,5.2c-0.4,1.2-0.5,2.4-0.3,3.5c-1.8-2.1-2.6-5-1.6-7.9c1.4-4.3,6-6.6,10.2-5.2  c3.1,1,5.2,3.7,5.5,6.7C688.7,393.1,687.5,392.2,686,391.8z"/>
<path class="st14" d="M579.9,376.6l0.4,0.1l3.1-9.5c3.8-11.6,16.1-18.1,27.7-14.4l-0.2-0.1l29.8,9.7l24.5,7.9l-11.7,36.1l-11.1-3.6  c-7.4-2.4-15.1,1.4-17.5,8.8l-38,117.4c-4.5,14-19.8,21.8-33.8,17.2l-51.1-16.6l44-135.8C550.3,379.9,565.9,372.1,579.9,376.6z"/>
<polygon class="st14" points="618.4,546.7 604.9,541.3 561.5,527.2 556.3,543.4 "/>
<ellipse transform="matrix(0.9638 -0.2667 0.2667 0.9638 -109.3963 208.738)" class="st15" cx="713.8" cy="507.2" rx="8.7" ry="5.7"/>
<path class="st15" d="M674.9,488.9l15.9,4.6c0.7,0.2,1,1.3,0.8,2l-2.7,9.4c-0.7,2.6-4.1,3.1-5.6,0.9l-10-14.7  C672.6,490.1,673.7,488.5,674.9,488.9z"/>
<path class="st16" d="M666.8,450.5c0,0,8.2,5.7,5.8,12.7c-2.3,7-10.8,7.5-10.8,7.5"/>
<path class="st16" d="M650.3,504.2c0,0,8.7,5.9,5.8,12.7c-3.1,7.5-11.7,7.9-11.7,7.9"/>
<path class="st10" d="M890.3,544.1L890.3,544.1c-7.3,7.1-19,6.9-26.1-0.5l-76.3-79.1c-7.1-7.3-6.9-19,0.5-26.1l0,0  c7.3-7.1,19-6.9,26.1,0.5l76.3,79.1C897.8,525.4,897.6,537.1,890.3,544.1z"/>
<path class="st10" d="M885.9,535L885.9,535c1.6,10.1-5.2,19.5-15.3,21.2l-108.5,17.5l-5.9-36.4l108.5-17.5  C874.8,518.1,884.2,525,885.9,535z"/>
<path class="st13" d="M745.5,543.1c-1.9-0.5-4.1-0.8-6.9-0.9c-14.3-0.4-63.7,12.1-76.8,16.5C689.9,567.1,725.2,561.5,745.5,543.1z"/>
<path class="st12" d="M757,542l-21.2,10.5c0,0-11.5-5.9-34,1.2c-14.7,4.7-29,7.8-35.1,10.4c-6.1,2.6-3.3,11.5,3.2,9.6  c0,0-1.8,6.7,4.4,8.1c4.5,1,6.2-0.5,6.2-0.5s0.4,7.5,7.8,6c22.9-4.6,42.3-9.8,52.9-13.6c9.6-3.4,20.5-3.1,20.5-3.1L757,542z"/>
<path class="st11" d="M1447.8,668.9H824.2V470c0-42.6,34.6-77.2,77.2-77.2h458.3c60,0,88,43.4,88,84.5V668.9z"/>
</svg>