<?xml version="1.0" encoding="UTF-8" standalone="no"?>
<svg xmlns:dc="http://purl.org/dc/elements/1.1/" xmlns:cc="http://creativecommons.org/ns#" xmlns:rdf="http://www.w3.org/1999/02/22-rdf-syntax-ns#" xmlns:svg="http://www.w3.org/2000/svg" xmlns="http://www.w3.org/2000/svg" xmlns:sodipodi="http://sodipodi.sourceforge.net/DTD/sodipodi-0.dtd" xmlns:inkscape="http://www.inkscape.org/namespaces/inkscape" width="385.46902" height="192.20105" id="svg2" version="1.1" inkscape:version="0.91 r13725" sodipodi:docname="securitycamera-1.svg">
  <metadata id="metadata1268">
    <rdf:RDF>
      <cc:Work rdf:about="">
        <dc:format>image/svg+xml</dc:format>
        <dc:type rdf:resource="http://purl.org/dc/dcmitype/StillImage"/>
        <dc:title/>
      </cc:Work>
    </rdf:RDF>
  </metadata>
  <defs id="defs1266"/>
  <sodipodi:namedview pagecolor="#ffffff" bordercolor="#666666" borderopacity="1" objecttolerance="10" gridtolerance="10" guidetolerance="10" inkscape:pageopacity="0" inkscape:pageshadow="2" inkscape:window-width="1916" inkscape:window-height="1035" id="namedview1264" showgrid="false" fit-margin-top="0" fit-margin-left="0" fit-margin-right="0" fit-margin-bottom="0" inkscape:zoom="1.9704315" inkscape:cx="201.28871" inkscape:cy="65.13445" inkscape:window-x="4" inkscape:window-y="1" inkscape:window-maximized="1" inkscape:current-layer="svg2"/>
  <g id="g5400" transform="translate(-8.7112898,-30.433407)">
    <path inkscape:connector-curvature="0" id="path5398" d="M 33.495201,51.098418 99.978099,34.85832 381.64229,62.263485 l 9.64256,67.497905 -6.09004,14.21008 -23.85264,14.71759 -6.59754,35.01771 -22.83764,6.59754 -63.43788,5.07503 -17.76261,8.12005 -21.31512,4.56753 -9.64256,2.03001 -25.88266,1.52251 -17.2551,-3.55252 -9.13506,-1.01501 -52.78031,5.58254 -16.747603,-1.01501 -13.702582,-1.52251 -27.405164,-15.22509 -5.075031,-14.71759 -1.015006,-22.83764 -1.522509,-60.39286 0,-15.225089 z" style="fill:#7d7272;fill-opacity:1;fill-rule:evenodd;stroke:none;stroke-width:1px;stroke-linecap:butt;stroke-linejoin:miter;stroke-opacity:1"/>
    <path id="path360" d="M 16,82 C 12.575,73.3154 8.76813,65.4987 12.4028,56 15.5218,47.8488 25.3487,43.5797 33,40.6844 52.0818,33.4637 73.4407,31.96 93,38.696 c 19.968,6.8768 12.705,26.222 27.004,38.1551 7.393,6.1701 16.661,9.6193 24.996,14.2384 16.56,9.1775 33.21,18.1535 50,26.8875 8.435,4.388 16.341,12.712 24.39,16.42 3.915,1.804 10.378,0.603 14.61,0.603 l 33,0 c 40.164,0 83.188,3.032 123,-2 l 0,7 -172,2 0,7 115,-2.004 49,0.004 6,-2 c 7.378,-18.159 7.017,-44.484 4.715,-64 -0.936,-7.9274 -0.413,-15.9647 -7.473,-21.2855 -7.315,-5.5124 -22.312,-4.9457 -31.242,-6 C 325.825,50.3884 296.375,47 268,47 267.293,37.8537 246.57,36.2566 244,44 201.457,44 157.35,38.8632 115,34.8302 94.5785,32.8855 72.5271,28.6153 52,31.2894 40.2241,32.8234 22.8921,37.2817 14.483,46.2245 6.45993,54.7569 6.65121,74.9459 16,82 Z" style="fill:#ededed;stroke:none" inkscape:connector-curvature="0"/>
    <path id="path362" d="m 58,34 0,1 12,0 -12,-1 z" style="fill:#969696;stroke:none" inkscape:connector-curvature="0"/>
    <path id="path364" d="m 52,35 0,1 3,0 -3,-1 z" style="fill:#747474;stroke:none" inkscape:connector-curvature="0"/>
    <path id="path366" d="m 51,99 c 0,-13.6178 1.0538,-26.2473 6,-39 l 2,2 13,-6 0,-3 -9,3 0,-1 C 76.9089,49.2952 89.9083,46 105,46 100.984,38.324 86.8532,37.4041 79,36.081 59.8767,32.8593 37.7927,35.9464 21.0008,46.0154 10.1185,52.5409 8.26224,72.1735 16.5563,81.8565 20.1347,86.034 26.3919,87.409 31,90.1667 37.0576,93.7918 43.9703,97.9075 51,99 Z" style="fill:#2b2b2b;stroke:none" inkscape:connector-curvature="0"/>
    <path id="path368" d="m 75,35 0,1 3,0 -3,-1 z" style="fill:#696969;stroke:none" inkscape:connector-curvature="0"/>
    <path id="path370" d="m 46.6667,36.3333 0.6666,0.3334 -0.6666,-0.3334 z" style="fill:#747474;stroke:none" inkscape:connector-curvature="0"/>
    <path id="path372" d="m 81,36 0,1 3,0 -3,-1 z" style="fill:#585858;stroke:none" inkscape:connector-curvature="0"/>
    <path id="path374" d="m 41.6667,37.3333 0.6666,0.3334 -0.6666,-0.3334 z" style="fill:#7d7b81;stroke:none" inkscape:connector-curvature="0"/>
    <path id="path376" d="m 86.6667,37.3333 0.6666,0.3334 -0.6666,-0.3334 z" style="fill:#464646;stroke:none" inkscape:connector-curvature="0"/>
    <path id="path378" d="m 88.6667,37.3333 0.6666,0.3334 -0.6666,-0.3334 z" style="fill:#b2b2b2;stroke:none" inkscape:connector-curvature="0"/>
    <path id="path380" d="m 38.6667,38.3333 0.6666,0.3334 -0.6666,-0.3334 z" style="fill:#747474;stroke:none" inkscape:connector-curvature="0"/>
    <path id="path382" d="m 90,38 0,1 3,0 -3,-1 z" style="fill:#464646;stroke:none" inkscape:connector-curvature="0"/>
    <path id="path384" d="m 94.6667,39.3333 0.6666,0.3334 -0.6666,-0.3334 z" style="fill:#7d7b81;stroke:none" inkscape:connector-curvature="0"/>
    <path id="path386" d="m 30.6667,41.3333 0.6666,0.3334 -0.6666,-0.3334 z" style="fill:#585858;stroke:none" inkscape:connector-curvature="0"/>
    <path id="path388" d="m 245,41 0,4 20,1 1,-4 -21,-1 z" style="fill:#c3c3c3;stroke:none" inkscape:connector-curvature="0"/>
    <path id="path390" d="m 105,45 -42,10 0,1 21,-6 0,1 -4,0 0,1 2,2 c -8.1498,0.6656 -21.1118,3.1132 -25,11 8.2336,-4.1168 15.0054,-7.7513 24,-10 3.673,-0.9183 8.7692,-2.0767 8,1 l 13,-4 -3,-1 0,-4 6,-2 z" style="fill:#585858;stroke:none" inkscape:connector-curvature="0"/>
    <path id="path392" d="m 106.333,46.6667 0.334,0.6666 -0.334,-0.6666 z" style="fill:#b2b2b2;stroke:none" inkscape:connector-curvature="0"/>
    <path id="path394" d="m 99,47 2,6 7,0 c -0.862,-5.4057 -3.993,-5.9408 -9,-6 z" style="fill:#696969;stroke:none" inkscape:connector-curvature="0"/>
    <path id="path396" d="m 71,55 11,-1 -2,-2 0,-1 4,0 c -4.4439,-1.7304 -10.3003,0.1457 -13,4 z" style="fill:#413f45;stroke:none" inkscape:connector-curvature="0"/>
    <path id="path398" d="m 13.3333,52.6667 0.3334,0.6666 -0.3334,-0.6666 z" style="fill:#696969;stroke:none" inkscape:connector-curvature="0"/>
    <path id="path400" d="m 108,52 -33,6 c 3.2937,6.6965 13.2181,10.532 20,13 -3.2451,6.82 -8.0807,11.5285 -15,14.5748 -4.4251,1.9483 -13.2971,3.814 -15.3966,8.6382 C 61.9113,100.399 64,111.303 64,118 c 0,18.508 -1.3552,37.624 0.8449,56 0.6998,5.845 1.3493,19.926 5.8935,24.026 3.7518,3.385 12.425,4.538 17.2616,5.045 14.967,1.57 33.631,4.061 48,-1.071 l 4,-74 -2,-39 c 5.024,6.6317 3.898,23.717 3.996,32 0.342,28.701 2.427,61.232 -4.996,89 6.08,-5.886 5.361,-19.915 6.169,-28 2.128,-21.28 1.831,-42.6 1.831,-64 0,-7.258 1.799,-20.1538 -1.313,-26.7253 C 140.196,83.9045 124.205,81.277 118.184,75.7261 110.767,68.8867 112.261,60.0114 108,52 Z" style="fill:#8e8e8e;stroke:none" inkscape:connector-curvature="0"/>
    <path id="path402" d="M 66,92 C 77.1736,87.4158 90.9452,83.6985 95,71 L 75,58 90,55 C 84.4555,52.8359 61.4562,57.3852 59.8164,64.108 58.359,70.083 63.5396,86.2071 66,92 Z" style="fill:#2b2b2b;stroke:none" inkscape:connector-curvature="0"/>
    <path id="path404" d="m 12,55 0,3 1,0 -1,-3 z" style="fill:#7d7b81;stroke:none" inkscape:connector-curvature="0"/>
    <path id="path406" d="m 78.6667,57.3333 0.6666,0.3334 -0.6666,-0.3334 z" style="fill:#585858;stroke:none" inkscape:connector-curvature="0"/>
    <path id="path408" d="m 11,58 0,15 1,0 -1,-15 z" style="fill:#969696;stroke:none" inkscape:connector-curvature="0"/>
    <path id="path410" d="m 57,60 c -5.4252,10.1891 -5.9987,22.636 -6,34 l 3,-1 0,4 1,0 1,-22 c 6.4591,5.5416 2,19.3791 2,27 0,24.553 -2.3696,50.779 1.6111,75 0.955,5.811 -3.2182,23.763 2.3889,26 C 60.7607,168.301 58.5737,130.242 62,95 63.0627,84.0693 57.0371,73.3236 59,64 l -2,1 0,-1 0,-4 z" style="fill:#413f45;stroke:none" inkscape:connector-curvature="0"/>
    <path id="path412" d="m 58,66 c -1.2196,7.1901 4.0518,16.0208 3.9954,24 -0.1739,24.581 -2.0359,49.339 -0.956,74 0.3963,9.051 5.152,29.548 -0.0394,37 l 0,3 9,2 0,-1 -7,-2 c 4.4242,-6.349 0,-25.687 0,-34 0,-20.314 -0.4828,-40.693 0.0147,-61 C 63.3766,93.2271 65.2798,80.4822 60,66 l -2,0 z" style="fill:#696969;stroke:none" inkscape:connector-curvature="0"/>
    <path id="path414" d="m 116,73 5,5 -5,-5 z" style="fill:#b2b2b2;stroke:none" inkscape:connector-curvature="0"/>
    <path id="path416" d="m 56,75 c -0.0896,32.463 -5.7115,64.365 -1.4244,97 1.053,8.016 -1.8073,23.568 5.4244,29 -1.7061,-31.27 -2,-62.628 -2,-94 0,-7.8199 5.1699,-26.9343 -2,-32 z" style="fill:#2b2b2b;stroke:none" inkscape:connector-curvature="0"/>
    <path id="path418" d="m 13.3333,76.6667 0.3334,0.6666 -0.3334,-0.6666 z" style="fill:#7d7b81;stroke:none" inkscape:connector-curvature="0"/>
    <path id="path420" d="m 21.6667,85.3333 0.6666,0.3334 -0.6666,-0.3334 z" style="fill:#696969;stroke:none" inkscape:connector-curvature="0"/>
    <path id="path422" d="m 25.6667,87.3333 0.6666,0.3334 -0.6666,-0.3334 m 2,1 0.6666,0.3334 -0.6666,-0.3334 m 2,1 0.6666,0.3334 -0.6666,-0.3334 M 138,89 l 2,20 1,0 c -0.001,-5.237 1.086,-16.4297 -3,-20 z" style="fill:#585858;stroke:none" inkscape:connector-curvature="0"/>
    <path id="path424" d="m 30.6667,90.3333 0.6666,0.3334 -0.6666,-0.3334 z" style="fill:#969696;stroke:none" inkscape:connector-curvature="0"/>
    <path id="path426" d="m 95,91 0,1 5,0 -5,-1 z" style="fill:#585858;stroke:none" inkscape:connector-curvature="0"/>
    <path id="path428" d="m 145,91 3,2 -3,-2 z" style="fill:#c3c3c3;stroke:none" inkscape:connector-curvature="0"/>
    <path id="path430" d="m 87,101 c 21.94,-7.9816 27.74,25.995 24.664,41 -1.246,6.081 -5.074,14.659 3.336,16 3.794,-16.391 8.607,-33.642 0.727,-50 C 110.678,97.5187 93.5199,81.9823 87,101 Z" style="fill:#060606;stroke:none" inkscape:connector-curvature="0"/>
    <path id="path432" d="m 101,92 0,1 15,11 c -2.712,-7.1521 -7.195,-11.5942 -15,-12 z" style="fill:#747474;stroke:none" inkscape:connector-curvature="0"/>
    <path id="path434" d="m 144,92 1,7 28,10 c 7.595,9.742 24.033,10.862 31.852,21.464 4.329,5.87 -2.325,14.964 6.148,17.536 L 209.972,128.105 191,116.208 144,92 Z" style="fill:#060606;stroke:none" inkscape:connector-curvature="0"/>
    <path id="path436" d="m 37.6667,93.3333 0.6666,0.3334 -0.6666,-0.3334 z" style="fill:#585858;stroke:none" inkscape:connector-curvature="0"/>
    <path id="path438" d="m 53,93 -4,6 c 2.3377,9.819 1,20.944 1,31 0,15.786 0.8337,31.29 1.9105,47 0.747,10.899 -0.4155,25.081 9.1049,32.605 5.5346,4.374 14.2991,4.196 20.9846,4.781 15.694,1.373 30.251,1.744 46,1.614 l 0,-1 -24,1 0,-1 19,-1 0,-1 c -10.28,0 -20.833,0.748 -31,-0.92 -9.2535,-1.518 -22.4092,-2.369 -29.9452,-8.499 C 54.1086,197.118 54.0471,180.487 54.0008,171 53.9114,152.706 53,134.362 53,116 c 0,-7.061 2.7554,-16.4336 0,-23 z" style="fill:#8e8e8e;stroke:none" inkscape:connector-curvature="0"/>
    <path id="path440" d="m 147.667,93.3333 0.666,0.3334 -0.666,-0.3334 z" style="fill:#7d7b81;stroke:none" inkscape:connector-curvature="0"/>
    <path id="path442" d="m 144,94 0,8 1,0 -1,-8 z" style="fill:#585858;stroke:none" inkscape:connector-curvature="0"/>
    <path id="path444" d="m 149.667,94.3333 0.666,0.3334 -0.666,-0.3334 z" style="fill:#8e8e8e;stroke:none" inkscape:connector-curvature="0"/>
    <path id="path446" d="m 151.667,95.3333 0.666,0.3334 -0.666,-0.3334 z" style="fill:#969696;stroke:none" inkscape:connector-curvature="0"/>
    <path id="path448" d="m 42.6667,96.3333 0.6666,0.3334 -0.6666,-0.3334 z" style="fill:#8e8e8e;stroke:none" inkscape:connector-curvature="0"/>
    <path id="path450" d="m 153.667,96.3333 0.666,0.3334 -0.666,-0.3334 m 2,1 0.666,0.3334 -0.666,-0.3334 m -109.0003,1 0.6666,0.3334 -0.6666,-0.3334 z" style="fill:#969696;stroke:none" inkscape:connector-curvature="0"/>
    <path id="path452" d="m 157.667,98.3333 0.666,0.3334 -0.666,-0.3334 z" style="fill:#b2b2b2;stroke:none" inkscape:connector-curvature="0"/>
    <path id="path454" d="m 145,99 0,3 41,16 -13,-9 -28,-10 z" style="fill:#2b2b2b;stroke:none" inkscape:connector-curvature="0"/>
    <path id="path456" d="m 159.667,99.3333 0.666,0.3334 -0.666,-0.3334 z" style="fill:#b2b2b2;stroke:none" inkscape:connector-curvature="0"/>
    <path id="path458" d="m 160.667,100.333 0.666,0.334 -0.666,-0.334 z" style="fill:#747474;stroke:none" inkscape:connector-curvature="0"/>
    <path id="path460" d="m 112,101 3,7 1,0 -4,-7 z" style="fill:#2b2b2b;stroke:none" inkscape:connector-curvature="0"/>
    <path id="path462" d="m 162,101 0,1 4,1 0,-1 -4,-1 z" style="fill:#7d7b81;stroke:none" inkscape:connector-curvature="0"/>
    <path id="path464" d="m 63,102 0,73 0,28 7,2 0,1 -3,0 0,1 c 15.077,2.162 32.7559,5.76 48,3.867 6.402,-0.795 11.566,-5.401 18,-5.867 l -1,3 3,-6 c -8.055,3.086 -17.503,2.658 -26,2.09 -11.2412,-0.752 -27.9605,1.402 -37.5671,-6.064 C 66.5736,194.25 65.6068,179.831 64.9498,174 63.0903,157.494 64,140.611 64,124 c 0,-6.686 1.5991,-15.806 -1,-22 z" style="fill:#747474;stroke:none" inkscape:connector-curvature="0"/>
    <path id="path466" d="m 145,102 -0.09,57 -2.91,47 c 20.301,-2.566 42.638,-3.549 63,-1 l 6,-57 c -5.734,-2.894 -5.354,-13.078 -8,-19 -5.327,-1.402 -13.351,-6.085 -16,-11 l -42,-16 z" style="fill:#696969;stroke:none" inkscape:connector-curvature="0"/>
    <path id="path468" d="m 79,148 c 6.2953,0 5.2701,19.069 16,16.833 21.111,-4.398 18.476,-45.827 7,-57.833 -11.4802,-12.01 -20.9617,5.321 -22,16 -0.8158,8.392 0.535,16.667 -1,25 z" style="fill:#413f45;stroke:none" inkscape:connector-curvature="0"/>
    <path id="path470" d="m 166.667,103.333 0.666,0.334 -0.666,-0.334 M 91,108 l 4,-4 -4,4 m 77.667,-3.667 0.666,0.334 -0.666,-0.334 z" style="fill:#8e8e8e;stroke:none" inkscape:connector-curvature="0"/>
    <path id="path472" d="m 86,105 c -8.25,13.383 -8.9484,25.583 -7,41 l 1,0 c 0,-16.327 1.4531,-26.197 8,-41 l -2,0 z" style="fill:#2b2b2b;stroke:none" inkscape:connector-curvature="0"/>
    <path id="path474" d="m 170.667,105.333 0.666,0.334 -0.666,-0.334 z" style="fill:#8e8e8e;stroke:none" inkscape:connector-curvature="0"/>
    <path id="path478" d="m 172.667,106.333 0.666,0.334 -0.666,-0.334 z" style="fill:#8e8e8e;stroke:none" inkscape:connector-curvature="0"/>
    <path id="path482" d="m 116,107 3.83,31 -4.83,22 1,0 c 3.692,-14.336 11.373,-39.817 0,-53 z" style="fill:#464646;stroke:none" inkscape:connector-curvature="0"/>
    <path id="path484" d="m 174.667,107.333 0.666,0.334 -0.666,-0.334 z" style="fill:#b2b2b2;stroke:none" inkscape:connector-curvature="0"/>
    <path id="path488" d="m 175.667,108.333 0.666,0.334 -0.666,-0.334 z" style="fill:#696969;stroke:none" inkscape:connector-curvature="0"/>
    <path id="path494" d="m 140,109 0,54 1,0 0,-36 -1,-18 z" style="fill:#413f45;stroke:none" inkscape:connector-curvature="0"/>
    <path id="path496" d="m 177.667,109.333 0.666,0.334 -0.666,-0.334 z" style="fill:#747474;stroke:none" inkscape:connector-curvature="0"/>
    <path id="path506" d="m 179.667,110.333 0.666,0.334 -0.666,-0.334 z" style="fill:#7d7b81;stroke:none" inkscape:connector-curvature="0"/>
    <path id="path508" d="m 119,111 2,28 1,0 c 0.001,-9.184 4.549,-20.82 -3,-28 z" style="fill:#585858;stroke:none" inkscape:connector-curvature="0"/>
    <path id="path542" d="m 49,114 1,54 1,0 -1,-35 -1,-19 z" style="fill:#b2b2b2;stroke:none" inkscape:connector-curvature="0"/>
    <path id="path544" d="m 109.333,114.667 0.334,0.666 -0.334,-0.666 z" style="fill:#464646;stroke:none" inkscape:connector-curvature="0"/>
    <path id="path546" d="m 141,114 0,41 1,0 c 0,-11.696 3.511,-30.25 -1,-41 z" style="fill:#585858;stroke:none" inkscape:connector-curvature="0"/>
    <path id="path548" d="m 187,114 3,2 -3,-2 z" style="fill:#696969;stroke:none" inkscape:connector-curvature="0"/>
    <path id="path568" d="m 110,117 0,3 1,0 -1,-3 z" style="fill:#464646;stroke:none" inkscape:connector-curvature="0"/>
    <path id="path570" d="m 193.667,117.333 0.666,0.334 -0.666,-0.334 z" style="fill:#b2b2b2;stroke:none" inkscape:connector-curvature="0"/>
    <path id="path580" d="m 187,118 c 1.733,5.235 10.737,10.212 16,11 l 3,6 c 2.183,-7.983 -12.934,-15.114 -19,-17 z" style="fill:#2b2b2b;stroke:none" inkscape:connector-curvature="0"/>
    <path id="path582" d="m 195,118 3,2 -3,-2 z" style="fill:#8e8e8e;stroke:none" inkscape:connector-curvature="0"/>
    <path id="path594" d="m 198.667,120.333 0.666,0.334 -0.666,-0.334 z" style="fill:#969696;stroke:none" inkscape:connector-curvature="0"/>
    <path id="path596" d="m 199.667,121.333 0.666,0.334 -0.666,-0.334 z" style="fill:#585858;stroke:none" inkscape:connector-curvature="0"/>
    <path id="path600" d="m 202.667,122.333 0.666,0.334 -0.666,-0.334 z" style="fill:#b2b2b2;stroke:none" inkscape:connector-curvature="0"/>
    <path id="path604" d="m 123,123 0,19 1,0 -1,-19 z" style="fill:#2b2b2b;stroke:none" inkscape:connector-curvature="0"/>
    <path id="path606" d="m 77,126 0,15 1,0 -1,-15 z" style="fill:#696969;stroke:none" inkscape:connector-curvature="0"/>
    <path id="path608" d="m 112,126 0,13 1,0 -1,-13 z" style="fill:#2b2b2b;stroke:none" inkscape:connector-curvature="0"/>
    <path id="path610" d="m 124,126 0,13 1,0 -1,-13 z" style="fill:#585858;stroke:none" inkscape:connector-curvature="0"/>
    <path id="path612" d="m 209,126 4,25 6,-1 -2,-8 -3,-5 4,0 c -1.541,-5.858 -3.096,-8.815 -9,-11 z" style="fill:#747474;stroke:none" inkscape:connector-curvature="0"/>
    <path id="path614" d="m 217,133 c 0.946,4.416 6.23,3 10,3 10.405,0 20.653,1 31,1 43.727,0 87.25,-1 131,-1 l 0,-2 c -41.056,0 -81.978,1 -123,1 -13.387,0 -37.212,4.556 -49,-2 z" style="fill:#b2b2b2;stroke:none" inkscape:connector-curvature="0"/>
    <path id="path616" d="m 386,133 0,1 3,2 c -57.265,0 -115.954,-2.502 -173,2 l 1,9 1,0 0,-5 172,-2 0,-7 -4,0 z" style="fill:#d8d8d8;stroke:none" inkscape:connector-curvature="0"/>
    <path id="path618" d="m 104,135 0,6 c 2.231,-1.947 2.231,-4.053 0,-6 z" style="fill:#7d7b81;stroke:none" inkscape:connector-curvature="0"/>
    <path id="path620" d="m 214,137 2,6 0,-5 32,-1 c -8.979,-3.768 -24.486,-1.202 -34,0 z" style="fill:#969696;stroke:none" inkscape:connector-curvature="0"/>
    <path id="path622" d="m 211,139 c 0,3.829 -1.94,15.5 2.434,17.307 4.694,1.94 13.006,-0.979 17.656,-2.137 9.465,-2.359 20.203,-3.061 29.91,-4 35.943,-3.478 73.884,-2.17 110,-2.17 l 0,-1 c -33.334,0 -66.747,1 -100,1 -17.994,0 -40.855,-2.804 -58,3 l -2,-12 z" style="fill:#b2b2b2;stroke:none" inkscape:connector-curvature="0"/>
    <path id="path624" d="m 122,141 -1,11 1,0 0,-11 z" style="fill:#464646;stroke:none" inkscape:connector-curvature="0"/>
    <path id="path626" d="m 78,142 0,4 1,0 -1,-4 z" style="fill:#696969;stroke:none" inkscape:connector-curvature="0"/>
    <path id="path628" d="m 339,146 0,1 32,0 0,1 c -53.521,0 -106.119,2.317 -159,9 l 0,5 46,-4 0,-4 c 15.001,0 30.02,-1.818 45,-1.996 15.46,-0.184 31.893,1.671 47,-1.549 7.257,-1.547 21.154,2.405 26,-4.455 l -37,0 z" style="fill:#c3c3c3;stroke:none" inkscape:connector-curvature="0"/>
    <path id="path630" d="m 258,154 0,4 -46,4 0,-7 -1,0 -6,51 1,0 2,-8 1,0 c 2.305,3.193 6.561,1.11 10.019,1.199 7.855,0.202 15.972,1.216 23.981,1.741 28.895,1.895 59.514,-2.418 88,-6.792 8.135,-1.249 23.416,1.671 29.981,-3.407 C 374.269,180.463 375.479,160.417 381,146 l -38,5.867 -85,2.133 z" style="fill:#d8d8d8;stroke:none" inkscape:connector-curvature="0"/>
    <path id="path632" d="m 80,147 c 0.843,6.225 2.953,11.102 8,15 l -8,-15 z" style="fill:#2b2b2b;stroke:none" inkscape:connector-curvature="0"/>
    <path id="path634" d="m 110,147 0,3 1,0 -1,-3 z" style="fill:#464646;stroke:none" inkscape:connector-curvature="0"/>
    <path id="path636" d="m 80.3333,150.667 0.3334,0.666 -0.3334,-0.666 z" style="fill:#585858;stroke:none" inkscape:connector-curvature="0"/>
    <path id="path638" d="m 108,154 -6,12 4,0 1,-3 5,2 3,-7 -7,-4 z" style="fill:#2b2b2b;stroke:none" inkscape:connector-curvature="0"/>
    <path id="path640" d="m 139,155 c 0,15.59 2.712,39.877 -7,53 l 1,-3 -20,5.945 -41,-3.945 0,1 c 15.3393,4.873 44.918,10.654 59.895,2.312 5.443,-3.032 6.684,-10.642 7.08,-16.312 0.877,-12.542 5.164,-26.865 0.025,-39 z" style="fill:#696969;stroke:none" inkscape:connector-curvature="0"/>
    <path id="path642" d="m 210,157 0,6 1,0 -1,-6 z" style="fill:#8e8e8e;stroke:none" inkscape:connector-curvature="0"/>
    <path id="path644" d="m 107,163 -1,3 -10,2 0,2 c 6.53,2.762 14.638,1.47 15,-7 l -4,0 z" style="fill:#413f45;stroke:none" inkscape:connector-curvature="0"/>
    <path id="path646" d="m 87,166 c 3.3483,7.006 9.0321,6.999 16,7 l 0,-1 -16,-6 z" style="fill:#747474;stroke:none" inkscape:connector-curvature="0"/>
    <path id="path648" d="m 54,171 0,8 1,0 -1,-8 z" style="fill:#585858;stroke:none" inkscape:connector-curvature="0"/>
    <path id="path650" d="m 51,173 0,6 1,0 -1,-6 z" style="fill:#b2b2b2;stroke:none" inkscape:connector-curvature="0"/>
    <path id="path652" d="m 140,181 c -0.165,7.984 -0.135,20.29 -5.649,26.66 -6.214,7.178 -21.654,7.334 -30.351,7.34 l 0,1 24,-1 0,1 -60,-4 c 4.1361,5.952 15.3489,6.731 22,8 11.329,2.161 37.988,4.477 45.944,-6.225 3.786,-5.092 3.821,-13.728 4.095,-19.775 0.201,-4.431 1.728,-8.781 -0.039,-13 z" style="fill:#747474;stroke:none" inkscape:connector-curvature="0"/>
    <path id="path654" d="m 97,185 5,-1 -5,1 z" style="fill:#413f45;stroke:none" inkscape:connector-curvature="0"/>
    <path id="path656" d="m 96,186 2,13 c 6.388,-1.941 4.111,-7.617 4,-13 l -6,0 z" style="fill:#060606;stroke:none" inkscape:connector-curvature="0"/>
    <path id="path658" d="m 102,186 0,7 1,0 -1,-7 z" style="fill:#2b2b2b;stroke:none" inkscape:connector-curvature="0"/>
    <path id="path660" d="m 209,198 -1,0 -2,8 -2,-1 -9,8 0,1 8,-4 c 7.455,6.032 25.91,-0.748 35,-0.985 28.389,-0.741 56.592,-4.094 85,-6.845 11.792,-1.142 26.652,-0.167 35,-10.17 -38.768,3.098 -80.094,12.876 -119,8.285 -8.778,-1.035 -22.242,2.056 -30,-2.285 z" style="fill:#b2b2b2;stroke:none" inkscape:connector-curvature="0"/>
    <path id="path662" d="m 96.3333,194.667 0.3334,0.666 -0.3334,-0.666 z" style="fill:#585858;stroke:none" inkscape:connector-curvature="0"/>
    <path id="path664" d="m 141,201 -6,14 4,-4 3,1 15,-2.83 44,-1.17 3,-1 0,-3 -1,0 -61,2 -1,-5 z" style="fill:#413f45;stroke:none" inkscape:connector-curvature="0"/>
    <path id="path666" d="m 331,201 0,1 5,0 -5,-1 m -43,4 0,1 8,0 -8,-1 z" style="fill:#d8d8d8;stroke:none" inkscape:connector-curvature="0"/>
    <path id="path668" d="m 201,206 -15,2.004 -30,1.166 -14,2.83 -3,-1 c -4.08,5.196 -9.735,6.703 -16,8 l 0,1 c 19.168,-0.159 42.496,-0.606 61,-4.961 7.471,-1.758 15.257,-1.207 19,-9.039 l -2,0 z" style="fill:#2b2b2b;stroke:none" inkscape:connector-curvature="0"/>
    <path id="path670" d="m 203,210 -5,3 0,1 10,1 19,-3 -10,3 0,1 18,1 0,-2 -5,0 0,-2 39,-5 -18,0.791 -33,2.21 L 203,210 Z" style="fill:#8e8e8e;stroke:none" inkscape:connector-curvature="0"/>
    <path id="path672" d="m 230,213 0,2 5,0 0,2 -23,1 0,1 c 12.875,0.553 35.498,4.878 44,-8 l -26,2 z" style="fill:#969696;stroke:none" inkscape:connector-curvature="0"/>
    <path id="path674" d="m 208,213 0,5 -4,0 0,1 14,1 0,-1 -6,0 0,-1 16,-1 0,-1 -11,0 0,-1 10,-3 -19,1 z" style="fill:#696969;stroke:none" inkscape:connector-curvature="0"/>
    <path id="path676" d="m 190,214 0,1 5,-2 -5,1 z" style="fill:#8e8e8e;stroke:none" inkscape:connector-curvature="0"/>
    <path id="path678" d="m 176,217 0,1 32,2 0,-1 -4,0 0,-1 4,0 c -2.864,-8.628 -25.312,-2.774 -32,-1 z" style="fill:#585858;stroke:none" inkscape:connector-curvature="0"/>
    <path id="path680" d="m 72.6667,215.333 0.6666,0.334 -0.6666,-0.334 z" style="fill:#b2b2b2;stroke:none" inkscape:connector-curvature="0"/>
    <path id="path682" d="m 169,216 0,1 6,0 -6,-1 z" style="fill:#8e8e8e;stroke:none" inkscape:connector-curvature="0"/>
    <path id="path684" d="m 78.6667,217.333 0.6666,0.334 -0.6666,-0.334 z" style="fill:#b2b2b2;stroke:none" inkscape:connector-curvature="0"/>
    <path id="path686" d="m 155,217 0,1 8,0 -8,-1 z" style="fill:#7d7b81;stroke:none" inkscape:connector-curvature="0"/>
    <path id="path688" d="m 163,217 0,1 5,0 -5,-1 z" style="fill:#d8d8d8;stroke:none" inkscape:connector-curvature="0"/>
    <path id="path690" d="m 144,218 0,1 8,0 -8,-1 z" style="fill:#969696;stroke:none" inkscape:connector-curvature="0"/>
    <path id="path692" d="m 85,219 0,1 3,0 -3,-1 z" style="fill:#b2b2b2;stroke:none" inkscape:connector-curvature="0"/>
    <path id="path694" d="m 130,219 0,1 6,0 -6,-1 z" style="fill:#747474;stroke:none" inkscape:connector-curvature="0"/>
    <path id="path696" d="m 136,219 0,1 8,0 -8,-1 z" style="fill:#c3c3c3;stroke:none" inkscape:connector-curvature="0"/>
    <path id="path698" d="m 182,219 0,1 4,0 -4,-1 z" style="fill:#969696;stroke:none" inkscape:connector-curvature="0"/>
    <path id="path700" d="m 235,219 0,1 8,0 -8,-1 z" style="fill:#c3c3c3;stroke:none" inkscape:connector-curvature="0"/>
    <path id="path702" d="m 89,220 0,1 4,0 -4,-1 z" style="fill:#969696;stroke:none" inkscape:connector-curvature="0"/>
    <path id="path704" d="m 121,220 0,1 5,0 -5,-1 m 74,0 0,1 32,0 -32,-1 m -99,1 0,1 19,0 -19,-1 z" style="fill:#b2b2b2;stroke:none" inkscape:connector-curvature="0"/>
  </g>
</svg>