<?xml version="1.0" encoding="UTF-8" standalone="no"?>
<!-- Created with Inkscape (http://www.inkscape.org/) -->
<svg xmlns:inkscape="http://www.inkscape.org/namespaces/inkscape" xmlns:rdf="http://www.w3.org/1999/02/22-rdf-syntax-ns#" xmlns="http://www.w3.org/2000/svg" xmlns:sodipodi="http://sodipodi.sourceforge.net/DTD/sodipodi-0.dtd" xmlns:cc="http://creativecommons.org/ns#" xmlns:xlink="http://www.w3.org/1999/xlink" xmlns:dc="http://purl.org/dc/elements/1.1/" xmlns:svg="http://www.w3.org/2000/svg" xmlns:ns1="http://sozi.baierouge.fr" id="svg2" style="enable-background:new" sodipodi:docname="thinkagain-heater-final.svg" inkscape:export-filename="C:\LIN\PROJECT\wk2008\MyMotudo\OpenClipArt\coolearth\foo4.png" viewBox="0 0 222.65 386.33" sodipodi:version="0.32" inkscape:export-xdpi="90" version="1.0" inkscape:output_extension="org.inkscape.output.svg.inkscape" inkscape:export-ydpi="90" inkscape:version="0.46">
  <sodipodi:namedview id="base" bordercolor="#666666" inkscape:pageshadow="2" guidetolerance="10.0" pagecolor="#ffffff" gridtolerance="10.0" inkscape:zoom="4.95" objecttolerance="10.0" borderopacity="1.0" inkscape:current-layer="layer2" inkscape:cx="111.48885" inkscape:cy="17.127412" inkscape:window-y="120" inkscape:window-x="90" inkscape:window-height="707" showgrid="false" inkscape:pageopacity="0.0" inkscape:window-width="1232"/>
  <defs id="defs4">
    <linearGradient id="linearGradient3203">
      <stop id="stop3205" style="stop-color:#ff0000" offset="0"/>
      <stop id="stop3207" style="stop-color:#ff6800" offset="1"/>
    </linearGradient>
    <linearGradient id="linearGradient20137">
      <stop id="stop20139" style="stop-color:#000593" offset="0"/>
      <stop id="stop20141" style="stop-color:#00023a" offset="1"/>
    </linearGradient>
    <linearGradient id="linearGradient4646">
      <stop id="stop4648" style="stop-color:#ffffff;stop-opacity:.64948" offset="0"/>
      <stop id="stop4650" style="stop-color:#ffffff;stop-opacity:0" offset="1"/>
    </linearGradient>
    <linearGradient id="linearGradient6534">
      <stop id="stop6536" style="stop-color:#16009e" offset="0"/>
      <stop id="stop6544" style="stop-color:#7ccbff" offset=".5"/>
      <stop id="stop6546" style="stop-color:#ffffff" offset="1"/>
    </linearGradient>
    <linearGradient id="linearGradient6758">
      <stop id="stop6760" style="stop-color:#000000;stop-opacity:.082474" offset="0"/>
      <stop id="stop6762" style="stop-color:#000000;stop-opacity:0" offset="1"/>
    </linearGradient>
    <radialGradient id="radialGradient9262" cx="468.71" gradientUnits="userSpaceOnUse" cy="414.17" r="559.24" gradientTransform="matrix(.79338 0 0 1.2604 .8074 -9.5351)" inkscape:collect="always">
      <stop id="stop9257" style="stop-color:#000000" offset="0"/>
      <stop id="stop9258" style="stop-color:#000000;stop-opacity:0" offset="1"/>
    </radialGradient>
    <linearGradient id="linearGradient1990">
      <stop id="stop1991" style="stop-color:#f0f0f0;stop-opacity:.94118" offset="0"/>
      <stop id="stop1992" style="stop-color:#c8c8c8;stop-opacity:.64948" offset="1"/>
    </linearGradient>
    <style id="style6" type="text/css"/>
    <linearGradient id="linearGradient4651" y2="111.8" xlink:href="#linearGradient1990" gradientUnits="userSpaceOnUse" x2="290.17" gradientTransform="matrix(.94557 0 0 .94557 9.292 7.2706)" y1="111.8" x1="90.576" inkscape:collect="always"/>
    <radialGradient id="radialGradient3320" gradientUnits="userSpaceOnUse" cy="986.19" cx="585.72" gradientTransform="scale(1.0107 .98941)" r="32.575" inkscape:collect="always">
      <stop id="stop3316" style="stop-color:#c9d9d0;stop-opacity:.98431" offset="0"/>
      <stop id="stop3318" style="stop-color:#cbcec9;stop-opacity:.45098" offset="1"/>
    </radialGradient>
    <linearGradient id="linearGradient3328" y2="974.04" xlink:href="#linearGradient1990" gradientUnits="userSpaceOnUse" x2="608.36" y1="961.16" x1="590.98" inkscape:collect="always"/>
    <linearGradient id="linearGradient1825" y2="1584.2" xlink:href="#linearGradient6758" gradientUnits="userSpaceOnUse" y1="1589.3" gradientTransform="matrix(8.6505 0 0 8.806 566.58 -13540)" x2="64.415" x1="63" inkscape:collect="always"/>
    <linearGradient id="linearGradient1823" y2="1584.2" xlink:href="#linearGradient6758" gradientUnits="userSpaceOnUse" y1="1592.5" gradientTransform="matrix(8.6505 0 0 8.806 566.58 -13540)" x2="24.447" x1="24.447" inkscape:collect="always"/>
    <linearGradient id="linearGradient1821" y2="1585.4" xlink:href="#linearGradient6758" gradientUnits="userSpaceOnUse" y1="1597.3" gradientTransform="matrix(8.6505 0 0 8.806 566.58 -13540)" x2="45.324" x1="45.324" inkscape:collect="always"/>
    <linearGradient id="linearGradient1819" y2="1580.8" xlink:href="#linearGradient6758" gradientUnits="userSpaceOnUse" y1="1587.9" gradientTransform="matrix(8.6505 0 0 8.806 566.58 -13540)" x2="44.248" x1="44.248" inkscape:collect="always"/>
    <linearGradient id="linearGradient1817" y2="1533.4" xlink:href="#linearGradient6758" gradientUnits="userSpaceOnUse" y1="1567.7" gradientTransform="matrix(8.6505 0 0 8.806 566.58 -13540)" x2="30.447" x1="30.447" inkscape:collect="always"/>
    <linearGradient id="linearGradient1815" y2="1595.2" xlink:href="#linearGradient6758" gradientUnits="userSpaceOnUse" y1="1606.9" gradientTransform="matrix(8.6505 0 0 8.806 566.58 -13540)" x2="21.447" x1="21.447" inkscape:collect="always"/>
    <linearGradient id="linearGradient1813" y2="1559" xlink:href="#linearGradient4646" gradientUnits="userSpaceOnUse" y1="1561.6" x2="-4.9627" x1="-.89604" inkscape:collect="always"/>
    <linearGradient id="linearGradient1811" y2="1556.5" xlink:href="#linearGradient4646" gradientUnits="userSpaceOnUse" y1="1539.4" x2="-143.82" x1="-159.14" inkscape:collect="always"/>
    <linearGradient id="linearGradient1809" y2="1651.8" xlink:href="#linearGradient20137" gradientUnits="userSpaceOnUse" y1="1528.3" gradientTransform="matrix(8.6505 0 0 8.806 566.58 -13540)" x2="27.4" x1="26.212" inkscape:collect="always"/>
    <linearGradient id="linearGradient1807" y2="1583.7" xlink:href="#linearGradient20137" gradientUnits="userSpaceOnUse" y1="1627.2" gradientTransform="matrix(8.6505 0 0 8.806 566.58 -13540)" x2="25.165" x1="23.75" inkscape:collect="always"/>
    <linearGradient id="linearGradient1805" y2="1586.4" xlink:href="#linearGradient20137" gradientUnits="userSpaceOnUse" y1="1582.1" gradientTransform="matrix(8.6505 0 0 8.806 566.58 -13540)" x2="8.1456" x1="7.6469" inkscape:collect="always"/>
    <linearGradient id="linearGradient1803" y2="1581.5" xlink:href="#linearGradient20137" gradientUnits="userSpaceOnUse" y1="1589.8" gradientTransform="matrix(8.6505 0 0 8.806 566.58 -13540)" x2="8.3377" x1="8.7991" inkscape:collect="always"/>
    <linearGradient id="linearGradient1801" y2="1593.9" xlink:href="#linearGradient20137" gradientUnits="userSpaceOnUse" y1="1597.3" gradientTransform="matrix(8.6505 0 0 8.806 566.58 -13540)" x2="59.753" x1="89.157" inkscape:collect="always"/>
    <linearGradient id="linearGradient1797" y2="1557.6" xlink:href="#linearGradient20137" gradientUnits="userSpaceOnUse" y1="1570.1" gradientTransform="matrix(8.6505 0 0 8.806 566.58 -13540)" x2="69.312" x1="59.484" inkscape:collect="always"/>
    <linearGradient id="linearGradient1795" y2="1566.8" xlink:href="#linearGradient20137" gradientUnits="userSpaceOnUse" y1="1548.4" gradientTransform="matrix(8.6505 0 0 8.806 566.58 -13540)" x2="59.156" x1="72.004" inkscape:collect="always"/>
    <linearGradient id="linearGradient1793" y2="1551" xlink:href="#linearGradient20137" gradientUnits="userSpaceOnUse" y1="1555.4" gradientTransform="matrix(8.6505 0 0 8.806 566.58 -13540)" x2="60.064" x1="55.944" inkscape:collect="always"/>
    <linearGradient id="linearGradient1791" y2="1554.2" xlink:href="#linearGradient20137" gradientUnits="userSpaceOnUse" y1="1550.5" gradientTransform="matrix(8.6505 0 0 8.806 566.58 -13540)" x2="53.797" x1="59.309" inkscape:collect="always"/>
    <linearGradient id="linearGradient1789" y2="1546.1" xlink:href="#linearGradient20137" gradientUnits="userSpaceOnUse" y1="1551" gradientTransform="matrix(8.6505 0 0 8.806 566.58 -13540)" x2="48.936" x1="46.219" inkscape:collect="always"/>
    <linearGradient id="linearGradient1787" y2="1548.8" xlink:href="#linearGradient20137" gradientUnits="userSpaceOnUse" y1="1546.1" gradientTransform="matrix(8.6505 0 0 8.806 566.58 -13540)" x2="47.921" x1="48.936" inkscape:collect="always"/>
    <linearGradient id="linearGradient1785" y2="1594.1" xlink:href="#linearGradient20137" gradientUnits="userSpaceOnUse" y1="1588.8" gradientTransform="matrix(8.6505 0 0 8.806 566.58 -13540)" x2="23.128" x1="23.128" inkscape:collect="always"/>
    <linearGradient id="linearGradient1783" y2="1590.7" xlink:href="#linearGradient20137" gradientUnits="userSpaceOnUse" y1="1593.1" gradientTransform="matrix(8.6505 0 0 8.806 566.58 -13540)" x2="23.128" x1="23.128" inkscape:collect="always"/>
    <linearGradient id="linearGradient1781" y2="1590.5" xlink:href="#linearGradient20137" gradientUnits="userSpaceOnUse" y1="1586.4" gradientTransform="matrix(8.6505 0 0 8.806 566.58 -13540)" x2="19.424" x1="19.006" inkscape:collect="always"/>
    <linearGradient id="linearGradient1779" y2="1586.7" xlink:href="#linearGradient20137" gradientUnits="userSpaceOnUse" y1="1591.1" gradientTransform="matrix(8.6505 0 0 8.806 566.58 -13540)" x2="18.447" x1="18.447" inkscape:collect="always"/>
    <linearGradient id="linearGradient1777" y2="1586.4" xlink:href="#linearGradient20137" gradientUnits="userSpaceOnUse" y1="1583.6" gradientTransform="matrix(8.6505 0 0 8.806 566.58 -13540)" x2="12.767" x1="14.402" inkscape:collect="always"/>
    <linearGradient id="linearGradient1775" y2="1586.4" xlink:href="#linearGradient20137" gradientUnits="userSpaceOnUse" y1="1590" gradientTransform="matrix(8.6505 0 0 8.806 566.58 -13540)" x2="12.767" x1="12.77" inkscape:collect="always"/>
    <radialGradient id="radialGradient1773" gradientUnits="userSpaceOnUse" xlink:href="#linearGradient6534" cx="-32.945" cy="1548.1" r="22.421" gradientTransform="matrix(-1.8804 2.3609 -2.5012 -2.3991 3780.3 5333)" inkscape:collect="always"/>
    <linearGradient id="linearGradient4630" y2="1584.2" xlink:href="#linearGradient6758" gradientUnits="userSpaceOnUse" y1="1589.3" gradientTransform="matrix(.98420 0 0 1.0037 40.879 -1518.8)" x2="64.415" x1="63" inkscape:collect="always"/>
    <linearGradient id="linearGradient4628" y2="1584.2" xlink:href="#linearGradient6758" gradientUnits="userSpaceOnUse" y1="1592.5" gradientTransform="matrix(.98420 0 0 1.0037 40.879 -1518.8)" x2="24.447" x1="24.447" inkscape:collect="always"/>
    <linearGradient id="linearGradient4626" y2="1585.4" xlink:href="#linearGradient6758" gradientUnits="userSpaceOnUse" y1="1597.3" gradientTransform="matrix(.98420 0 0 1.0037 40.879 -1518.8)" x2="45.324" x1="45.324" inkscape:collect="always"/>
    <linearGradient id="linearGradient4624" y2="1580.8" xlink:href="#linearGradient6758" gradientUnits="userSpaceOnUse" y1="1587.9" gradientTransform="matrix(.98420 0 0 1.0037 40.879 -1518.8)" x2="44.248" x1="44.248" inkscape:collect="always"/>
    <linearGradient id="linearGradient4622" y2="1533.4" xlink:href="#linearGradient6758" gradientUnits="userSpaceOnUse" y1="1567.7" gradientTransform="matrix(.98420 0 0 1.0037 40.879 -1518.8)" x2="30.447" x1="30.447" inkscape:collect="always"/>
    <linearGradient id="linearGradient4620" y2="1595.2" xlink:href="#linearGradient6758" gradientUnits="userSpaceOnUse" y1="1606.9" gradientTransform="matrix(.98420 0 0 1.0037 40.879 -1518.8)" x2="21.447" x1="21.447" inkscape:collect="always"/>
    <linearGradient id="linearGradient4614" y2="1651.8" xlink:href="#linearGradient20137" gradientUnits="userSpaceOnUse" y1="1528.3" gradientTransform="matrix(.98420 0 0 1.0037 40.879 -1518.8)" x2="27.4" x1="26.212" inkscape:collect="always"/>
    <linearGradient id="linearGradient4612" y2="1583.7" xlink:href="#linearGradient3203" gradientUnits="userSpaceOnUse" y1="1627.2" gradientTransform="matrix(.98420 0 0 1.0037 40.879 -1518.8)" x2="25.165" x1="23.75" inkscape:collect="always"/>
    <linearGradient id="linearGradient4610" y2="1586.4" xlink:href="#linearGradient20137" gradientUnits="userSpaceOnUse" y1="1582.1" gradientTransform="matrix(.98420 0 0 1.0037 40.879 -1518.8)" x2="8.1456" x1="7.6469" inkscape:collect="always"/>
    <linearGradient id="linearGradient4608" y2="1581.5" xlink:href="#linearGradient20137" gradientUnits="userSpaceOnUse" y1="1589.8" gradientTransform="matrix(.98420 0 0 1.0037 40.879 -1518.8)" x2="8.3377" x1="8.7991" inkscape:collect="always"/>
    <linearGradient id="linearGradient4606" y2="1593.9" xlink:href="#linearGradient20137" gradientUnits="userSpaceOnUse" y1="1597.3" gradientTransform="matrix(.98420 0 0 1.0037 40.879 -1518.8)" x2="59.753" x1="89.157" inkscape:collect="always"/>
    <linearGradient id="linearGradient4604" y2="1593.9" xlink:href="#linearGradient3203" gradientUnits="userSpaceOnUse" y1="1597.3" gradientTransform="matrix(.98420 0 0 1.0037 40.879 -1518.8)" x2="59.753" x1="89.157" inkscape:collect="always"/>
    <linearGradient id="linearGradient4602" y2="1557.6" xlink:href="#linearGradient20137" gradientUnits="userSpaceOnUse" y1="1570.1" gradientTransform="matrix(.98420 0 0 1.0037 40.879 -1518.8)" x2="69.312" x1="59.484" inkscape:collect="always"/>
    <linearGradient id="linearGradient4600" y2="1566.8" xlink:href="#linearGradient3203" gradientUnits="userSpaceOnUse" y1="1548.4" gradientTransform="matrix(.98420 0 0 1.0037 40.879 -1518.8)" x2="59.156" x1="72.004" inkscape:collect="always"/>
    <linearGradient id="linearGradient4598" y2="1551" xlink:href="#linearGradient20137" gradientUnits="userSpaceOnUse" y1="1555.4" gradientTransform="matrix(.98420 0 0 1.0037 40.879 -1518.8)" x2="60.064" x1="55.944" inkscape:collect="always"/>
    <linearGradient id="linearGradient4596" y2="1554.2" xlink:href="#linearGradient20137" gradientUnits="userSpaceOnUse" y1="1550.5" gradientTransform="matrix(.98420 0 0 1.0037 40.879 -1518.8)" x2="53.797" x1="59.309" inkscape:collect="always"/>
    <linearGradient id="linearGradient4594" y2="1546.1" xlink:href="#linearGradient20137" gradientUnits="userSpaceOnUse" y1="1551" gradientTransform="matrix(.98420 0 0 1.0037 40.879 -1518.8)" x2="48.936" x1="46.219" inkscape:collect="always"/>
    <linearGradient id="linearGradient4592" y2="1548.8" xlink:href="#linearGradient20137" gradientUnits="userSpaceOnUse" y1="1546.1" gradientTransform="matrix(.98420 0 0 1.0037 40.879 -1518.8)" x2="47.921" x1="48.936" inkscape:collect="always"/>
    <linearGradient id="linearGradient4590" y2="1594.1" xlink:href="#linearGradient20137" gradientUnits="userSpaceOnUse" y1="1588.8" gradientTransform="matrix(.98420 0 0 1.0037 40.879 -1518.8)" x2="23.128" x1="23.128" inkscape:collect="always"/>
    <linearGradient id="linearGradient4588" y2="1590.7" xlink:href="#linearGradient20137" gradientUnits="userSpaceOnUse" y1="1593.1" gradientTransform="matrix(.98420 0 0 1.0037 40.879 -1518.8)" x2="23.128" x1="23.128" inkscape:collect="always"/>
    <linearGradient id="linearGradient4586" y2="1590.5" xlink:href="#linearGradient20137" gradientUnits="userSpaceOnUse" y1="1586.4" gradientTransform="matrix(.98420 0 0 1.0037 40.879 -1518.8)" x2="19.424" x1="19.006" inkscape:collect="always"/>
    <linearGradient id="linearGradient4584" y2="1586.7" xlink:href="#linearGradient20137" gradientUnits="userSpaceOnUse" y1="1591.1" gradientTransform="matrix(.98420 0 0 1.0037 40.879 -1518.8)" x2="18.447" x1="18.447" inkscape:collect="always"/>
    <linearGradient id="linearGradient4582" y2="1586.4" xlink:href="#linearGradient20137" gradientUnits="userSpaceOnUse" y1="1583.6" gradientTransform="matrix(.98420 0 0 1.0037 40.879 -1518.8)" x2="12.767" x1="14.402" inkscape:collect="always"/>
    <linearGradient id="linearGradient4580" y2="1586.4" xlink:href="#linearGradient20137" gradientUnits="userSpaceOnUse" y1="1590" gradientTransform="matrix(.98420 0 0 1.0037 40.879 -1518.8)" x2="12.767" x1="12.77" inkscape:collect="always"/>
  </defs>
  <g id="layer2" inkscape:label="red earth" inkscape:groupmode="layer" transform="translate(-77.954 -6.0987)">
    <g id="g2987" style="display:block" inkscape:label="body" transform="matrix(.35563 0 0 .38847 55.374 -2.8422)">
      <rect id="body" style="stroke:#000000;stroke-width:1pt;fill:url(#radialGradient9262)" rx="112.29" ry="112.29" height="993.3" width="624.77" y="23.614" x="64.148"/>
    </g>
    <rect id="rect4669" style="stroke-linejoin:round;stroke:#1d1d1d;stroke-linecap:round;stroke-width:2.1101;fill:#bfc2c7" rx="16.325" ry="15.365" height="298.1" width="204.73" y="57.312" x="87.297"/>
    <rect id="rect1084" style="stroke:#1d1d1d;stroke-width:.69795;display:block;fill:url(#linearGradient4651)" rx="15.663" ry="14.387" height="95.608" width="188.73" y="65.18" x="94.937"/>
    <path id="path1732" style="stroke:#000000;stroke-miterlimit:0;stroke-width:.76581;fill:#0000ff" d="m159.01 277.73l-42.78-0.19 21.22 37.14 21.56-36.95z"/>
    <path id="path1986" sodipodi:rx="31.641733" sodipodi:ry="30.968504" style="fill-rule:evenodd;stroke:#000000;stroke-width:1.25;fill:url(#radialGradient3320)" sodipodi:type="arc" d="m618.02 979.65a31.642 30.969 0 1 1 -63.28 0 31.642 30.969 0 1 1 63.28 0z" transform="matrix(.61427 0 0 .61427 -174.99 -571.23)" sodipodi:cy="979.6535" sodipodi:cx="586.3819"/>
    <path id="path1988" sodipodi:rx="13.464567" sodipodi:ry="13.464567" style="fill-rule:evenodd;stroke:#000000;stroke-width:1.4482;fill:url(#linearGradient3328)" sodipodi:type="arc" d="m618.02 970.23a13.465 13.465 0 1 1 -26.93 0 13.465 13.465 0 1 1 26.93 0z" transform="matrix(.88381 0 0 .85107 -349.1 -795.19)" sodipodi:cy="970.22833" sodipodi:cx="604.55908"/>
    <path id="path1989" sodipodi:nodetypes="cc" style="stroke:#000000;stroke-linecap:round;stroke-width:1.9196;fill:none" d="m185.21 25.166v10.753"/>
    <path id="text3110" style="fill-opacity:.70667;fill:#000000" d="m142.17 112.91h33.38v8.34h-33.38v25.04h41.73v-8.35h-33.39v-8.34h33.39v-25.04h-41.73v8.35zm50.04 33.38h41.73v-41.73h-41.73v41.73zm8.34-16.69h25.04v8.34h-25.04v-8.34zm0-16.69h25.04v8.34h-25.04v-8.34z"/>
    <path id="text3890" style="fill-opacity:.70667;fill:#000000" d="m242.38 118.64c0-2.38 0.66-4.14 1.99-5.29 1.1-0.95 2.45-1.42 4.03-1.42 1.77 0 3.21 0.58 4.33 1.73 1.12 1.16 1.68 2.76 1.68 4.79 0 1.66-0.25 2.96-0.74 3.9-0.5 0.95-1.22 1.69-2.17 2.21-0.94 0.52-1.98 0.78-3.1 0.78-1.79 0-3.25-0.57-4.35-1.72-1.11-1.16-1.67-2.82-1.67-4.98zm2.24 0c0 1.64 0.36 2.87 1.08 3.69 0.71 0.82 1.62 1.23 2.7 1.23s1.98-0.42 2.7-1.24 1.07-2.07 1.07-3.76c0-1.58-0.36-2.79-1.08-3.6-0.72-0.82-1.62-1.23-2.69-1.23-1.08 0-1.99 0.41-2.7 1.22-0.72 0.81-1.08 2.04-1.08 3.69z"/>
    <path id="text3896" style="fill-opacity:.70667;fill:#000000" d="m271.77 138.33l2.95 0.75c-0.62 2.42-1.73 4.27-3.34 5.54-1.6 1.27-3.57 1.91-5.89 1.91-2.4 0-4.35-0.49-5.86-1.47-1.5-0.98-2.65-2.4-3.43-4.25-0.79-1.85-1.18-3.85-1.18-5.97 0-2.32 0.44-4.35 1.33-6.08 0.89-1.72 2.15-3.04 3.79-3.93 1.63-0.9 3.43-1.35 5.4-1.35 2.23 0 4.1 0.57 5.62 1.7 1.52 1.14 2.58 2.74 3.18 4.79l-2.9 0.69c-0.52-1.62-1.27-2.8-2.25-3.54-0.99-0.74-2.22-1.11-3.71-1.11-1.71 0-3.15 0.41-4.3 1.23s-1.95 1.92-2.42 3.3c-0.47 1.39-0.7 2.81-0.7 4.28 0 1.9 0.28 3.55 0.83 4.96 0.55 1.42 1.41 2.47 2.58 3.17 1.16 0.7 2.42 1.05 3.78 1.05 1.65 0 3.05-0.47 4.2-1.43 1.14-0.95 1.92-2.36 2.32-4.24z"/>
    <path id="text2530" style="fill:#fffcff" transform="scale(.96711 1.034)" d="m123.3 353.05h15.28v4.02h-5.13v12.26h-5.02v-12.26h-5.13v-4.02zm17.27 0h4.52v6c0.61-0.64 1.23-1.1 1.83-1.37 0.61-0.27 1.33-0.41 2.16-0.41 1.22 0 2.19 0.37 2.9 1.12s1.06 1.9 1.06 3.44v7.5h-4.54v-6.49c0-0.74-0.14-1.26-0.41-1.57-0.28-0.31-0.66-0.46-1.16-0.46-0.54 0-0.99 0.21-1.33 0.62-0.34 0.42-0.51 1.16-0.51 2.23v5.67h-4.52v-16.28zm15.36 0h4.51v3.08h-4.51v-3.08zm0 4.49h4.51v11.79h-4.51v-11.79zm7.42 0h4.21v1.92c0.63-0.79 1.27-1.35 1.91-1.69 0.64-0.33 1.43-0.5 2.35-0.5 1.26 0 2.23 0.37 2.94 1.12 0.71 0.74 1.06 1.89 1.06 3.44v7.5h-4.54v-6.49c0-0.74-0.14-1.26-0.41-1.57s-0.66-0.46-1.15-0.46c-0.55 0-1 0.21-1.34 0.62-0.34 0.42-0.51 1.16-0.51 2.23v5.67h-4.52v-11.79zm15.19-4.49h4.62v8.39l3.38-3.9h5.56l-4.23 4.13 4.47 7.66h-5.09l-2.39-4.73-1.7 1.66v3.07h-4.62v-16.28zm33.1 13.59h-5.73l-0.79 2.69h-5.14l6.12-16.28h5.48l6.12 16.28h-5.26l-0.8-2.69zm-1.06-3.52l-1.8-5.85-1.78 5.85h3.58zm16.62-5.58h4.23v11.13l0.01 0.52c0 0.74-0.15 1.45-0.47 2.12-0.31 0.67-0.73 1.21-1.25 1.62-0.52 0.42-1.19 0.72-1.99 0.9-0.8 0.19-1.72 0.28-2.76 0.28-2.37 0-3.99-0.35-4.88-1.06-0.88-0.71-1.32-1.67-1.32-2.86 0-0.15 0-0.35 0.02-0.6l4.38 0.5c0.11 0.41 0.28 0.69 0.51 0.85 0.34 0.23 0.76 0.34 1.26 0.34 0.65 0 1.14-0.17 1.46-0.52s0.48-0.96 0.48-1.82v-1.79c-0.44 0.53-0.89 0.91-1.33 1.14-0.7 0.37-1.45 0.56-2.25 0.56-1.58 0-2.85-0.69-3.82-2.07-0.69-0.97-1.04-2.26-1.04-3.87 0-1.84 0.45-3.24 1.34-4.2 0.88-0.96 2.05-1.44 3.48-1.44 0.92 0 1.68 0.15 2.27 0.47 0.6 0.31 1.16 0.82 1.67 1.54v-1.74zm-4.25 5.71c0 0.85 0.18 1.49 0.55 1.9 0.36 0.41 0.84 0.61 1.43 0.61 0.56 0 1.03-0.21 1.41-0.64 0.38-0.42 0.58-1.06 0.58-1.92s-0.2-1.52-0.6-1.97c-0.4-0.46-0.89-0.69-1.47-0.69s-1.04 0.21-1.38 0.63c-0.35 0.42-0.52 1.11-0.52 2.08zm15.36-1.89l-4.32-0.46c0.16-0.76 0.4-1.35 0.7-1.78 0.31-0.43 0.75-0.81 1.33-1.13 0.41-0.23 0.98-0.41 1.71-0.53 0.72-0.13 1.51-0.19 2.35-0.19 1.36 0 2.45 0.08 3.27 0.23s1.5 0.47 2.05 0.95c0.39 0.33 0.69 0.8 0.91 1.41s0.33 1.2 0.33 1.75v5.21c0 0.55 0.04 0.99 0.11 1.3 0.07 0.32 0.22 0.72 0.46 1.21h-4.24c-0.17-0.31-0.28-0.54-0.33-0.7-0.06-0.16-0.11-0.41-0.16-0.75-0.59 0.57-1.18 0.98-1.76 1.22-0.8 0.33-1.73 0.49-2.79 0.49-1.41 0-2.48-0.32-3.2-0.97-0.73-0.66-1.1-1.46-1.1-2.41 0-0.9 0.26-1.64 0.79-2.21 0.53-0.58 1.5-1.01 2.91-1.29 1.69-0.34 2.79-0.58 3.3-0.72 0.5-0.13 1.03-0.31 1.6-0.53 0-0.56-0.12-0.95-0.35-1.17s-0.63-0.33-1.21-0.33c-0.74 0-1.29 0.11-1.66 0.35-0.29 0.19-0.53 0.53-0.7 1.05zm3.92 2.37c-0.63 0.22-1.27 0.42-1.95 0.59-0.92 0.24-1.5 0.48-1.74 0.72-0.25 0.25-0.38 0.52-0.38 0.83 0 0.36 0.13 0.65 0.37 0.88 0.25 0.22 0.62 0.33 1.1 0.33 0.5 0 0.97-0.12 1.4-0.36 0.43-0.25 0.74-0.54 0.92-0.9 0.18-0.35 0.28-0.8 0.28-1.37v-0.72zm7.31-10.68h4.52v3.08h-4.52v-3.08zm0 4.49h4.52v11.79h-4.52v-11.79zm7.43 0h4.21v1.92c0.63-0.79 1.26-1.35 1.91-1.69 0.64-0.33 1.43-0.5 2.35-0.5 1.25 0 2.23 0.37 2.94 1.12 0.7 0.74 1.06 1.89 1.06 3.44v7.5h-4.54v-6.49c0-0.74-0.14-1.26-0.41-1.57-0.28-0.31-0.66-0.46-1.16-0.46-0.55 0-0.99 0.21-1.33 0.62-0.34 0.42-0.51 1.16-0.51 2.23v5.67h-4.52v-11.79z"/>
    <path id="text4922" style="fill:#000000" transform="scale(.96711 1.034)" d="m122.81 352.43h15.28v4.02h-5.13v12.25h-5.03v-12.25h-5.12v-4.02zm17.27 0h4.52v5.99c0.61-0.63 1.22-1.09 1.83-1.36 0.61-0.28 1.33-0.41 2.15-0.41 1.23 0 2.2 0.37 2.91 1.12s1.06 1.89 1.06 3.44v7.49h-4.54v-6.48c0-0.74-0.14-1.26-0.41-1.57-0.28-0.31-0.66-0.46-1.16-0.46-0.55 0-0.99 0.21-1.33 0.62s-0.51 1.16-0.51 2.23v5.66h-4.52v-16.27zm15.36 0h4.51v3.07h-4.51v-3.07zm0 4.48h4.51v11.79h-4.51v-11.79zm7.42 0h4.21v1.92c0.63-0.78 1.27-1.34 1.91-1.68s1.43-0.5 2.35-0.5c1.25 0 2.23 0.37 2.94 1.11 0.71 0.75 1.06 1.9 1.06 3.45v7.49h-4.54v-6.48c0-0.74-0.14-1.26-0.41-1.57s-0.66-0.46-1.16-0.46c-0.54 0-0.99 0.21-1.33 0.62s-0.51 1.16-0.51 2.23v5.66h-4.52v-11.79zm15.19-4.48h4.62v8.39l3.37-3.91h5.57l-4.23 4.13 4.47 7.66h-5.09l-2.39-4.73-1.7 1.67v3.06h-4.62v-16.27zm33.1 13.59h-5.73l-0.79 2.68h-5.14l6.12-16.27h5.48l6.12 16.27h-5.26l-0.8-2.68zm-1.06-3.52l-1.8-5.85-1.78 5.85h3.58zm16.62-5.59h4.23v11.14l0.01 0.52c0 0.74-0.15 1.45-0.47 2.12-0.31 0.67-0.73 1.21-1.25 1.62-0.52 0.42-1.19 0.72-1.99 0.9-0.8 0.19-1.72 0.28-2.76 0.28-2.37 0-3.99-0.36-4.88-1.07-0.88-0.71-1.33-1.66-1.33-2.85 0-0.15 0.01-0.35 0.03-0.6l4.38 0.5c0.11 0.41 0.28 0.69 0.51 0.84 0.34 0.23 0.75 0.35 1.26 0.35 0.65 0 1.14-0.18 1.46-0.52 0.32-0.35 0.48-0.96 0.48-1.82v-1.79c-0.44 0.52-0.89 0.9-1.33 1.14-0.7 0.37-1.45 0.56-2.26 0.56-1.57 0-2.84-0.69-3.81-2.07-0.69-0.98-1.04-2.27-1.04-3.87 0-1.84 0.45-3.24 1.34-4.2 0.88-0.96 2.05-1.44 3.48-1.44 0.92 0 1.68 0.15 2.27 0.46 0.6 0.31 1.15 0.83 1.67 1.55v-1.75zm-4.25 5.72c0 0.85 0.18 1.48 0.54 1.89 0.37 0.41 0.84 0.62 1.44 0.62 0.56 0 1.03-0.21 1.41-0.64 0.38-0.42 0.57-1.07 0.57-1.92 0-0.86-0.2-1.52-0.6-1.98-0.4-0.45-0.88-0.68-1.46-0.68s-1.04 0.21-1.38 0.63c-0.35 0.42-0.52 1.11-0.52 2.08zm15.36-1.9l-4.32-0.45c0.16-0.76 0.39-1.35 0.7-1.79 0.31-0.43 0.75-0.8 1.33-1.12 0.41-0.23 0.98-0.41 1.71-0.53 0.72-0.13 1.51-0.19 2.35-0.19 1.36 0 2.44 0.07 3.27 0.22 0.82 0.16 1.5 0.47 2.05 0.95 0.38 0.34 0.69 0.81 0.91 1.42s0.33 1.19 0.33 1.75v5.2c0 0.56 0.04 0.99 0.11 1.31 0.07 0.31 0.22 0.72 0.46 1.2h-4.24c-0.17-0.3-0.28-0.53-0.33-0.69-0.06-0.16-0.11-0.41-0.16-0.75-0.59 0.57-1.18 0.98-1.77 1.22-0.79 0.33-1.72 0.49-2.78 0.49-1.41 0-2.48-0.33-3.21-0.98-0.72-0.65-1.09-1.45-1.09-2.41 0-0.89 0.26-1.63 0.79-2.21 0.52-0.57 1.49-1 2.91-1.28 1.69-0.34 2.79-0.58 3.3-0.72 0.5-0.14 1.03-0.32 1.59-0.54 0-0.55-0.11-0.94-0.34-1.16-0.23-0.23-0.63-0.34-1.21-0.34-0.74 0-1.3 0.12-1.67 0.36-0.28 0.18-0.52 0.53-0.69 1.04zm3.91 2.38c-0.62 0.22-1.27 0.42-1.94 0.59-0.92 0.24-1.5 0.48-1.74 0.72-0.25 0.24-0.38 0.52-0.38 0.83 0 0.36 0.12 0.65 0.37 0.87 0.25 0.23 0.62 0.34 1.1 0.34 0.5 0 0.97-0.12 1.4-0.37 0.43-0.24 0.74-0.54 0.92-0.89s0.27-0.81 0.27-1.37v-0.72zm7.32-10.68h4.52v3.07h-4.52v-3.07zm0 4.48h4.52v11.79h-4.52v-11.79zm7.43 0h4.21v1.92c0.63-0.78 1.26-1.34 1.91-1.68 0.64-0.34 1.42-0.5 2.35-0.5 1.25 0 2.23 0.37 2.94 1.11 0.7 0.75 1.06 1.9 1.06 3.45v7.49h-4.54v-6.48c0-0.74-0.14-1.26-0.42-1.57-0.27-0.31-0.65-0.46-1.15-0.46-0.55 0-0.99 0.21-1.33 0.62s-0.51 1.16-0.51 2.23v5.66h-4.52v-11.79z"/>
    <path id="text3837" style="fill:#000000" d="m151.77 88.26h2.4v-12h-2.4v4.801h-7.2v-4.801h-2.4v12h2.4v-4.8h7.2v4.8zm4.79 0h12v-2.4h-9.6v-2.4h4.8v-2.399h-4.8v-2.401h9.6v-2.4h-12v12zm23.99 0h2.4v-12h-12v12h2.4v-4.8h7.2v4.8zm-7.2-9.6h7.2v2.401h-7.2v-2.401zm11.99 0h4.8v9.6h2.4v-9.6h4.8v-2.4h-12v2.4zm14.39 9.6h12v-2.4h-9.6v-2.4h4.8v-2.399h-4.8v-2.401h9.6v-2.4h-12v12zm21.59-2.4h2.4v2.4h2.4v-2.4h-2.4v-2.4h2.4v-7.2h-12v12h2.4v-4.8h4.8v2.4zm-4.8-7.2h7.2v2.401h-7.2v-2.401z"/>
    <path id="path3330" style="stroke:#0a0a0a;stroke-miterlimit:0;stroke-width:.76581;fill:#ff0000" d="m159.01 235.51l-42.78 0.19 21.22-37.14 21.56 36.95z"/>
    <g id="layer1" inkscape:label="Layer 1" transform="matrix(.068498 0 0 .068498 191.4 261.84)">
      <g id="g2788" inkscape:export-ydpi="2.0016823" inkscape:export-xdpi="2.0016823" transform="matrix(1.0055 0 0 1.0074 -355.11 -20.616)">
        <path id="path6532" sodipodi:rx="22.156204" sodipodi:ry="23.901844" style="stroke-linejoin:round;stroke:#000000;stroke-linecap:round;stroke-width:.52936;fill:url(#radialGradient1773)" sodipodi:type="arc" d="m0.53712 1552.4a22.156 23.902 0 1 1 -44.312 0 22.156 23.902 0 1 1 44.312 0z" transform="matrix(21.998 0 0 20.405 1327.5 -31160)" sodipodi:cy="1552.421" sodipodi:cx="-21.619085"/>
        <path id="path6596" sodipodi:nodetypes="cccc" style="stroke-linejoin:round;fill-rule:evenodd;stroke:url(#linearGradient1777);stroke-width:2.182;fill:url(#linearGradient1775)" d="m664.88 441.16c-0.91-11.14 16.15-11.69 39.03-8.8-7.05 3.86-4.89 9.89 4.43 17.61-14.49 0.37-28.98 3.07-43.46-8.81z"/>
        <path id="path6598" sodipodi:nodetypes="cccc" style="stroke-linejoin:round;fill-rule:evenodd;stroke:url(#linearGradient1781);stroke-width:2.182;fill:url(#linearGradient1779)" d="m716.37 441.16c2.75-1.28 18.07-2.48 22.14 0-8.26 5.24-14.07 11.1-17.3 17.61-4.72-4.11-11.01-7.33-4.84-17.61z"/>
        <path id="path6600" sodipodi:nodetypes="cccc" style="stroke-linejoin:round;fill-rule:evenodd;stroke:url(#linearGradient1785);stroke-width:2.182;fill:url(#linearGradient1783)" d="m755.81 458.77c11.52 11.03 6.57 28.15 4.96 44.03 6.01-7.73 18.35-1.63 16.54-26.42-7.91-19.51-14.84-20.99-21.5-17.61z"/>
        <path id="path6664" sodipodi:nodetypes="cccc" style="stroke-linejoin:round;fill-rule:evenodd;stroke:url(#linearGradient1789);stroke-linecap:round;stroke-width:3.2729;fill:url(#linearGradient1787)" d="m976.43 79.19c4.95 6.498 3.12 9.86 0.06 13.224-14.68-5.871-26.71-7.353-22.26-13.224 9.04-2.496 16.45-2.521 22.2 0z"/>
        <path id="path6662" sodipodi:nodetypes="cccccccc" style="stroke-linejoin:round;fill-rule:evenodd;stroke:url(#linearGradient1793);stroke-linecap:round;stroke-width:3.2729;fill:url(#linearGradient1791)" d="m1075.3 123.22c-15.1-3.31-30.6-7.39-34.6 8.81 10.2 2.09 19.1 9.31 26 26.41 2.9-2.93 10.7 2.28 8.6-8.8-4.2-5.87-8.4-11.74-12.6-17.61 9.7 4.99 18.7 1.35 29.9 26.41 1.3-2.93 2.6-5.87 3.9-8.8-5.2-15.7-10.4-19.5-21.2-26.42z"/>
        <path id="path6660" sodipodi:nodetypes="ccccccccccc" style="stroke-linejoin:round;fill-rule:evenodd;stroke:url(#linearGradient1797);stroke-linecap:round;stroke-width:3.2729;fill:url(#linearGradient1795)" d="m1231 220.08c-35.4-51.34-96.4-99.72-129.7-123.28 27.5 24.3 23.7 36.36 8.6 44.03-2.4 9.36-3.2 19.29 13.7 35.23 19.3 16.81 16.9 24.63 0 26.41-23.1-5.3-26.6 1.19-13.7 17.61 12.4 9.24 19.8 23.49 29.7 35.23 10.5-3.4 35.5 11.7 22.2-21.79-6.4-16.55-6.7-29.99 0-39.85 6-2.11 8.3-9.24 8.7-17.61 14.6 17.81 40.4 29.35 60.5 44.02z"/>
        <path id="path6636" sodipodi:nodetypes="cccccccccccccc" style="stroke-linejoin:round;fill-rule:evenodd;stroke:url(#linearGradient1801);stroke-linecap:round;stroke-width:3.2729;fill:url(#linearGradient1801)" d="m1254.4 290.6c-46.3-53.33-75.9-44.41-106.6-3.37-1.2 10.68 1 20.96 8.6 30.64-20.1 12.42-10.8 39.17-21.2 48.61 0.9 11.61 2 23.39-4.7 30.15 9.8 1.32 15.3 9.4 17.3 22.69v57.9c28.6 38.9 58.6 85.91 77.8 65.38 9-12.16 19.3-10.58 32.1-9.18-8.3-14.26 9-15.27 26.7-18.78 13.6 9.72 24.5 27.39 19.1 80.8 5.6 67.51-24.8 135.02-56.7 202.54 71.3-114.81 151.7-297.24 15.5-530.98-2.9 5.87-5 17.72-7.9 23.6z"/>
        <path id="path6594" sodipodi:nodetypes="ccccc" style="stroke-linejoin:round;fill-rule:evenodd;stroke:url(#linearGradient1805);stroke-linecap:round;stroke-width:2.182;fill:url(#linearGradient1803)" d="m608.75 388.33c21.58 7.1 36.91 19.14 47.15 35.22l-8.76 14.58c-17.78-21.62-36.67-30.88-55.69-38.59l17.3-11.21z"/>
        <path id="path6562" sodipodi:nodetypes="ccccccccccccccccccccccccccccccccccccccccccccccccccccc" style="stroke-linejoin:round;fill-rule:evenodd;stroke:url(#linearGradient1809);stroke-linecap:round;stroke-width:3.2729;fill:url(#linearGradient1807)" d="m754.46 949.03c14.37-23.08 25.01-49.66 60.55-52.84 33.63 0.95 50.28-32.66 69.21-61.64 31.95-9.55 62.63-21.43 77.85-61.64-13.55-18.58 0.51-39.61 25.95-61.64 33.38-29.03 20.68-45.4-8.65-57.19-18.18-4.52-51.58-12.92-103.8-26.11-26.86-1.97-23.07-32.53-34.6-48.79-4.93-15.99-33.89-22.46-69.21-26.42-24.84-40.63-51.35-42.28-77.85-44.03-23.56-17.09-49.2-19.27-77.86 0-1.72 9.75-7.91 16.25-22.4 0-23.79 14.86-31.79 3.76-33.54-17.61 13.14-50.86-8.84-47.25-30.56-44.03 11.81-11.46 15.62-31.06 17.3-52.84-84.02 66.76-54.13-13.84-51.9-61.64 27.56 1.48 64.26-52.83 103.8 8.81-5.74 10.46-4.8 19.42 4.77 26.42 2.98-46.81 13.24-72.3 29.83-79.26 19.41-1.18 34.52-16.61 47.13-40.28 6.62-10.43 22.75-16.03 39.38-21.36-2.11-14.29 5.93-20.64 25.95-17.61 14.98 6.83 29.94 13.16 43.25-8.81-16.23-3.52-28.57-10.35-34.6-22.53-12.4-22.73 6.79-13.29 25.95-3.88 10.06-8.19 21.15-12.71 34.6-8.81-14.38 11.51-20.8 21.77 8.65 26.42 20.7 5.95 9.42-17.81-8.65-47.88-17.17-20.84-32.84-34.42-43.25-22.57-11.2-19.08-22.11-39.939-43.25 0-26.88 30.55-45.2 42.12-43.25 8.81-13.96-7.63-26.09-15.4 0-26.42 9.53-9.014 18.79-18.367 43.25-8.808 18.31-12.446 34.64-7.782 51.26 5.558 23.17-7.287 44.22-12.73 43.89-31.976-13.22-16.758-34.11-7.528-51.9-8.806 19.32-5.225 33.86-13.367 69.21-8.806 13.88 0.544 18.57 10.449 8.65 35.224 20.59 39.104 35.94 29.184 54.8-2.599 10.27-4.174 26.28-5.747 36.55-9.92-20.67-18.835-53.35-40.827-62.22-45.936-118.67 0.063-251.79 37.817-323.25 111.29-34.5 43.77-82.26 81.51-94.16 148.4-9.84 57.41-25.9 160.48-1 106.97-1.98 20.1 4.17 36.04 25.96 44.03 12.38 17.1 25.8 29.95 43.25 26.42 10.1 26.54 15.51 55.47 48.32 70.45 20.23-11.43 26.18 5.23 20.88 44.03-11.61 10.15-21.12 23.51-25.95 44.03-14.55 25.21 16.8 61.64 43.25 96.86 19.04 35.59 71.77 59.27 69.21 105.68-1.16 43.31 1.78 84.89 20.88 119.62 26.1 37.55 45.93 52.29 48.32 3.66z"/>
        <path id="path6550" sodipodi:rx="33.622631" sodipodi:ry="34.809311" style="fill:url(#linearGradient1811)" sodipodi:type="arc" d="m-113.92 1558.7a33.623 34.809 0 1 1 -67.25 0 33.623 34.809 0 1 1 67.25 0z" transform="matrix(11.752 0 0 10.481 2563 -15906)" sodipodi:cy="1558.6794" sodipodi:cx="-147.54401"/>
        <path id="path6630" sodipodi:rx="22.156204" sodipodi:ry="23.901844" style="stroke-linejoin:round;stroke:#000000;stroke-linecap:round;stroke-width:.52936;fill:url(#linearGradient1813)" sodipodi:type="arc" d="m0.53712 1552.4a22.156 23.902 0 1 1 -44.312 0 22.156 23.902 0 1 1 44.312 0z" transform="matrix(21.998 0 0 20.405 1324.3 -31160)" sodipodi:cy="1552.421" sodipodi:cx="-21.619085"/>
        <path id="path6728" sodipodi:nodetypes="cccccc" style="fill-rule:evenodd;fill:url(#linearGradient1815)" d="m864.57 525.29c-84.13 96.53-75.17 64.85-112.46 96.86 8.1 29.64-10.16 64.16 56.34 82.99 40.69-95.64 87.74-58.9 133.97-38.96 40.89-9.42 42.27-37.76 34.61-70.45-76.37-76.26-92.62-93.29-112.46-70.44z"/>
        <path id="path6730" sodipodi:nodetypes="cccccccccccccccccccc" style="fill-rule:evenodd;fill:url(#linearGradient1817)" d="m1158.7 322.75c-43.1-56.85-60.1-4.78-77.9 44.03-8 16.3-6.4 30.65 0 44.03 8.7 8.8 9.8 13.21 18.4 22.01-24.5 10.16-42.6 14.35-61.6 74.85-23.1-11.3-46.16-7.56-69.23-4.61 15.45-12.38 36.53-15.26 60.53-13 4.1-26.33 21.9-51.25 51.9-65.23-1.4-6.14-8.3-13.38-17.3-5.22-5.7 12.11-11.5 17.62-17.3 26.42-10.8-1.1-6.5-17.61 0-26.42 7.9-8.89 17.7-12.8 17.3-44.03-14.4 5.88-28.8 11.75-43.2 17.62-22.56-16.26-16.5-32.52-4.8-48.77 19.4-17.06 3.3-26.39-17.07-34.77-93.25-6.91-66.49-60.8-51.23-110.19-16.01 8.8-40.67 1.1-48.03 26.41-112.34-61.24-46.13-135.02-69.2-202.53 110.91 17.852 210.83 41.489 233.53 105.67 55.7 50.18 102.2 105.86 95.2 193.73z"/>
        <path id="path6732" sodipodi:nodetypes="cccc" style="fill-rule:evenodd;fill:url(#linearGradient1819)" d="m1015.5 454.84c7.3-2.63-42.93-24.6-59.76-44.03-5.03 20.55-13.16 41.09 3.98 61.64 24.57 7.81 42.78 0.98 55.78-17.61z"/>
        <path id="path6734" sodipodi:nodetypes="ccccc" style="fill-rule:evenodd;fill:url(#linearGradient1821)" d="m933.77 454.84c-10.96 8.8-18.38 17.61-12.19 26.42 9.83 0.99 19.66 17.22 29.49 0 13.04-6.91 6.7-16.64 0-26.42-1.05-3.2-7.61-2.67-17.3 0z"/>
        <path id="path6736" sodipodi:nodetypes="cccccc" style="fill-rule:evenodd;fill:url(#linearGradient1823)" d="m868.22 472.45c-34.37 5.14-45.79 21.96-64.2 35.22-10.46 11.36-18.33 4.23-25.96-4.61 4.3-12.23 2.7-25.31 25.96-34.77 15.7 4.18 31.41-0.02 47.12-13.45 11.35 1.26 20 4.72 17.08 17.61z"/>
        <path id="path6738" sodipodi:nodetypes="ccccc" style="fill-rule:evenodd;fill:url(#linearGradient1825)" d="m1128.6 442.21c7 7.15 9.7 13.19 5.2 20.33l-9.7 9.91c-1.4-8.81-5.4-17.61-12.5-26.42 5.7-9.6 11.3-8.82 17-3.82z"/>
      </g>
      <g id="g7757" inkscape:label="Layer 1" inkscape:groupmode="layer" transform="translate(1631.9 430.3)">
        <g id="g2617" inkscape:label="Layer 1" transform="translate(64.099 -67.529)" inkscape:groupmode="layer">
          <g id="g2049" inkscape:label="Layer 1" transform="translate(71.669 8.7884)" inkscape:groupmode="layer">
            <g id="g2875" inkscape:label="Layer 1" transform="translate(-48.932 87.179)" inkscape:groupmode="layer">
              <g id="g2360" inkscape:label="Layer 1" transform="translate(-58.334 26.882)" inkscape:groupmode="layer">
                <g id="g2396" inkscape:label="Layer 1" transform="translate(.84266 31.106)" inkscape:groupmode="layer">
                  <g id="g2398" inkscape:label="Layer 1" inkscape:groupmode="layer" transform="translate(71.669 8.7884)">
                    <g id="g1783" inkscape:label="Layer 1" inkscape:groupmode="layer" transform="translate(-58.709 21.224)">
                      <g id="g1791" inkscape:label="Layer 1" transform="translate(71.669 8.7884)" inkscape:groupmode="layer"/>
                    </g>
                  </g>
                </g>
              </g>
            </g>
            <g id="g3393" inkscape:label="Layer 1" inkscape:groupmode="layer" transform="translate(-128.6 92.726)">
              <g id="g2570" inkscape:label="Layer 1" transform="translate(.84266 31.106)" inkscape:groupmode="layer">
                <g id="g3417" inkscape:label="Layer 1" inkscape:groupmode="layer" transform="translate(71.669 8.7884)"/>
              </g>
              <g id="g3842" inkscape:label="Layer 1" inkscape:groupmode="layer" transform="translate(5.6673 -.0000018166)">
                <g id="g3852" inkscape:label="Layer 1" transform="translate(64.099 -67.529)" inkscape:groupmode="layer">
                  <g id="g3854" inkscape:label="Layer 1" transform="translate(71.669 8.7884)" inkscape:groupmode="layer"/>
                </g>
              </g>
            </g>
          </g>
        </g>
      </g>
    </g>
    <g id="g4575" inkscape:label="red earth" transform="matrix(.19350 0 0 .19350 187.26 178.89)">
      <g id="g4558" transform="matrix(3.2679 0 0 3.2679 -40.69 -75.241)">
        <path id="path2770" sodipodi:rx="22.156204" sodipodi:ry="23.901844" style="stroke-linejoin:round;stroke:#000000;stroke-linecap:round;stroke-width:.52936;fill:url(#radialGradient1773)" sodipodi:type="arc" d="m0.53712 1552.4a22.156 23.902 0 1 1 -44.312 0 22.156 23.902 0 1 1 44.312 0z" transform="matrix(2.5028 0 0 2.3259 127.45 -3527.2)" sodipodi:cy="1552.421" sodipodi:cx="-21.619085"/>
        <path id="path2772" sodipodi:nodetypes="cccc" style="stroke-linejoin:round;fill-rule:evenodd;stroke:url(#linearGradient4582);stroke-width:.24848;fill:url(#linearGradient4580)" d="m52.062 74.84c-0.103-1.27 1.838-1.333 4.441-1.004-0.802 0.441-0.557 1.128 0.504 2.007-1.649 0.043-3.297 0.35-4.945-1.003z"/>
        <path id="path2774" sodipodi:nodetypes="cccc" style="stroke-linejoin:round;fill-rule:evenodd;stroke:url(#linearGradient4586);stroke-width:.24848;fill:url(#linearGradient4584)" d="m57.92 74.84c0.313-0.146 2.057-0.284 2.52 0-0.94 0.596-1.602 1.264-1.969 2.007-0.537-0.469-1.253-0.836-0.551-2.007z"/>
        <path id="path2776" sodipodi:nodetypes="cccc" style="stroke-linejoin:round;fill-rule:evenodd;stroke:url(#linearGradient4590);stroke-width:.24848;fill:url(#linearGradient4588)" d="m62.408 76.847c1.31 1.257 0.747 3.208 0.564 5.019 0.683-0.882 2.088-0.186 1.882-3.011-0.9-2.225-1.688-2.393-2.446-2.008z"/>
        <path id="path2778" sodipodi:nodetypes="cccc" style="stroke-linejoin:round;fill-rule:evenodd;stroke:url(#linearGradient4594);stroke-linecap:round;stroke-width:.37272;fill:url(#linearGradient4592)" d="m87.509 33.58c0.563 0.741 0.355 1.124 0.006 1.508-1.67-0.669-3.038-0.838-2.532-1.508 1.028-0.284 1.872-0.287 2.526 0z"/>
        <path id="path2780" sodipodi:nodetypes="cccccccc" style="stroke-linejoin:round;fill-rule:evenodd;stroke:url(#linearGradient4598);stroke-linecap:round;stroke-width:.37272;fill:url(#linearGradient4596)" d="m98.762 38.599c-1.719-0.377-3.489-0.842-3.937 1.004 1.151 0.238 2.175 1.062 2.953 3.011 0.328-0.334 1.216 0.26 0.984-1.004-0.481-0.669-0.962-1.338-1.443-2.007 1.104 0.569 2.134 0.154 3.411 3.011 0.15-0.334 0.3-0.669 0.44-1.004-0.59-1.789-1.184-2.221-2.408-3.011z"/>
        <path id="path2782" sodipodi:nodetypes="ccccccccccc" style="stroke-linejoin:round;fill-rule:evenodd;stroke:url(#linearGradient4602);stroke-linecap:round;stroke-width:.37272;fill:url(#linearGradient4600)" d="m116.48 49.64c-4.04-5.852-10.97-11.367-14.77-14.052 3.13 2.77 2.7 4.145 0.99 5.019-0.28 1.067-0.37 2.198 1.56 4.015 2.18 1.916 1.91 2.808 0 3.011-2.64-0.605-3.04 0.135-1.56 2.007 1.41 1.053 2.25 2.677 3.38 4.015 1.18-0.387 4.03 1.334 2.52-2.483-0.73-1.887-0.76-3.419 0-4.543 0.68-0.24 0.94-1.052 0.99-2.007 1.66 2.03 4.59 3.345 6.89 5.018z"/>
        <path id="path2784" sodipodi:nodetypes="cccccccccccccc" style="stroke-linejoin:round;fill-rule:evenodd;stroke:url(#linearGradient4606);stroke-linecap:round;stroke-width:.37272;fill:url(#linearGradient4604)" d="m119.13 57.677c-5.27-6.077-8.63-5.062-12.13-0.383-0.13 1.217 0.13 2.389 0.99 3.492-2.29 1.416-1.23 4.465-2.42 5.542 0.1 1.322 0.23 2.665-0.53 3.435 1.12 0.152 1.73 1.073 1.96 2.587v6.599c3.27 4.435 6.67 9.793 8.86 7.453 1.02-1.386 2.2-1.205 3.65-1.046-0.94-1.626 1.02-1.741 3.03-2.141 1.56 1.108 2.8 3.122 2.18 9.21 0.64 7.695-2.82 15.395-6.45 23.085 8.11-13.09 17.26-33.879 1.76-60.522-0.33 0.669-0.57 2.02-0.9 2.689z"/>
        <path id="path2786" sodipodi:nodetypes="ccccc" style="stroke-linejoin:round;fill-rule:evenodd;stroke:url(#linearGradient4610);stroke-linecap:round;stroke-width:.24848;fill:url(#linearGradient4608)" d="m45.677 68.817c2.455 0.809 4.198 2.183 5.364 4.015l-0.998 1.662c-2.022-2.464-4.171-3.52-6.335-4.399l1.969-1.278z"/>
        <path id="path2788" sodipodi:nodetypes="ccccccccccccccccccccccccccccccccccccccccccccccccccccc" style="stroke-linejoin:round;fill-rule:evenodd;stroke:url(#linearGradient4614);stroke-linecap:round;stroke-width:.37272;fill:url(#linearGradient4612)" d="m62.254 132.73c1.635-2.63 2.846-5.66 6.89-6.02 3.826 0.1 5.72-3.73 7.873-7.03 3.636-1.09 7.126-2.44 8.858-7.03-1.541-2.11 0.058-4.51 2.953-7.02 3.792-3.31 2.352-5.18-0.985-6.521-2.068-0.516-5.869-1.473-11.81-2.976-3.055-0.225-2.624-3.708-3.937-5.561-0.56-1.823-3.855-2.561-7.873-3.012-2.827-4.632-5.843-4.82-8.858-5.018-2.68-1.948-5.598-2.197-8.858 0-0.196 1.111-0.9 1.851-2.548 0-2.707 1.693-3.617 0.428-3.817-2.008 1.495-5.797-1.005-5.386-3.477-5.019 1.344-1.306 1.777-3.54 1.968-6.022-9.559 7.609-6.158-1.579-5.905-7.026 3.137 0.169 7.312-6.022 11.811 1.004-0.654 1.192-0.547 2.213 0.542 3.011 0.339-5.336 1.507-8.241 3.394-9.034 2.209-0.135 3.928-1.893 5.362-4.592 0.753-1.189 2.588-1.826 4.48-2.434-0.239-1.63 0.676-2.353 2.953-2.008 1.705 0.779 3.406 1.501 4.921-1.003-1.847-0.402-3.25-1.181-3.937-2.569-1.411-2.59 0.773-1.515 2.953-0.443 1.145-0.932 2.406-1.448 3.937-1.003-1.636 1.312-2.367 2.481 0.984 3.011 2.354 0.678 1.071-2.03-0.984-5.458-1.954-2.375-3.737-3.922-4.921-2.572-1.275-2.175-2.516-4.552-4.921 0-3.059 3.482-5.143 4.801-4.921 1.004-1.588-0.869-2.969-1.755 0-3.012 1.084-1.027 2.138-2.093 4.921-1.003 2.083-1.419 3.941-0.887 5.832 0.633 2.636-0.83 5.031-1.451 4.994-3.644-1.505-1.911-3.881-0.859-5.905-1.004 2.198-0.596 3.852-1.524 7.873-1.004 1.58 0.062 2.113 1.191 0.984 4.015 2.344 4.458 4.09 3.326 6.236-0.296 1.168-0.476 2.99-0.655 4.158-1.131-2.352-2.147-6.069-4.654-7.079-5.236-13.502 0.007-28.647 4.311-36.777 12.685-3.926 4.989-9.359 9.291-10.714 16.916-1.118 6.543-2.946 18.292-0.113 12.193-0.226 2.29 0.474 4.108 2.953 5.019 1.409 1.949 2.936 3.413 4.921 3.011 1.149 3.025 1.764 6.322 5.497 8.03 2.302-1.304 2.979 0.596 2.377 5.019-1.322 1.157-2.404 2.68-2.953 5.018-1.655 2.874 1.912 7.03 4.921 11.04 2.166 4.06 8.166 6.76 7.874 12.05-0.132 4.93 0.203 9.67 2.375 13.63 2.97 4.28 5.226 5.96 5.498 0.42z"/>
        <path id="path2790" sodipodi:rx="33.622631" sodipodi:ry="34.809311" style="fill:url(#linearGradient1811)" sodipodi:type="arc" d="m-113.92 1558.7a33.623 34.809 0 1 1 -67.25 0 33.623 34.809 0 1 1 67.25 0z" transform="matrix(1.3371 0 0 1.1947 268.02 -1788.5)" sodipodi:cy="1558.6794" sodipodi:cx="-147.54401"/>
        <path id="path2792" sodipodi:rx="22.156204" sodipodi:ry="23.901844" style="stroke-linejoin:round;stroke:#000000;stroke-linecap:round;stroke-width:.52936;fill:url(#linearGradient1813)" sodipodi:type="arc" d="m0.53712 1552.4a22.156 23.902 0 1 1 -44.312 0 22.156 23.902 0 1 1 44.312 0z" transform="matrix(2.5028 0 0 2.3259 127.09 -3527.2)" sodipodi:cy="1552.421" sodipodi:cx="-21.619085"/>
        <path id="path2794" sodipodi:nodetypes="cccccc" style="fill-rule:evenodd;fill:url(#linearGradient4620)" d="m74.782 84.429c-9.572 11.002-8.553 7.392-12.795 11.041 0.922 3.378-1.156 7.31 6.41 9.46 4.63-10.902 9.982-6.714 15.243-4.44 4.651-1.076 4.809-4.306 3.936-8.032-8.688-8.692-10.537-10.634-12.794-8.029z"/>
        <path id="path2796" sodipodi:nodetypes="cccccccccccccccccccc" style="fill-rule:evenodd;fill:url(#linearGradient4622)" d="m108.24 61.342c-4.89-6.48-6.83-0.544-8.853 5.019-0.909 1.858-0.727 3.494 0 5.019 0.983 1.004 1.103 1.506 2.093 2.509-2.792 1.158-4.849 1.635-7.014 8.532-2.625-1.288-5.249-0.862-7.874-0.526 1.757-1.411 4.151-1.739 6.89-1.481 0.458-3.002 2.49-5.843 5.905-7.436-0.164-0.7-0.943-1.525-1.969-0.594-0.656 1.38-1.312 2.007-1.968 3.011-1.23-0.126-0.738-2.008 0-3.011 0.898-1.014 2.006-1.46 1.968-5.019-1.64 0.669-3.28 1.338-4.921 2.007-2.564-1.853-1.872-3.706-0.543-5.559 2.204-1.944 0.379-3.007-1.943-3.962-10.609-0.788-7.564-6.931-5.828-12.561-1.822 1.004-4.627 0.126-5.464 3.011-12.782-6.981-5.249-15.39-7.874-23.086 12.619 2.035 23.986 4.73 26.573 12.045 6.332 5.72 11.622 12.066 10.822 22.082z"/>
        <path id="path2798" sodipodi:nodetypes="cccc" style="fill-rule:evenodd;fill:url(#linearGradient4624)" d="m91.954 76.399c0.825-0.3-4.884-2.804-6.8-5.019-0.572 2.342-1.496 4.684 0.454 7.026 2.795 0.891 4.863 0.112 6.346-2.007z"/>
        <path id="path2800" sodipodi:nodetypes="ccccc" style="fill-rule:evenodd;fill:url(#linearGradient4626)" d="m82.655 76.399c-1.247 1.003-2.091 2.007-1.387 3.011 1.119 0.113 2.237 1.963 3.356 0 1.483-0.788 0.762-1.897 0-3.011-0.121-0.365-0.866-0.304-1.969 0z"/>
        <path id="path2802" sodipodi:nodetypes="cccccc" style="fill-rule:evenodd;fill:url(#linearGradient4628)" d="m75.197 78.406c-3.91 0.586-5.21 2.503-7.305 4.015-1.19 1.295-2.085 0.482-2.952-0.526 0.489-1.393 0.306-2.885 2.952-3.963 1.788 0.476 3.575-0.003 5.362-1.533 1.292 0.143 2.276 0.538 1.943 2.007z"/>
        <path id="path2804" sodipodi:nodetypes="ccccc" style="fill-rule:evenodd;fill:url(#linearGradient4630)" d="m104.83 74.959c0.79 0.815 1.1 1.504 0.59 2.318l-1.11 1.129c-0.16-1.004-0.61-2.007-1.43-3.011 0.65-1.095 1.3-1.006 1.95-0.436z"/>
      </g>
    </g>
    <g id="g3627" transform="matrix(.52342 0 0 .52342 107.08 44.056)">
      <path id="path2803" sodipodi:rx="12.723658" sodipodi:ry="13.121272" style="fill:#000000" sodipodi:type="arc" d="m36.581 158.65a12.724 13.121 0 1 1 -25.448 0 12.724 13.121 0 1 1 25.448 0z" sodipodi:cy="158.64812" sodipodi:cx="23.856859"/>
      <g id="g3579">
        <path id="path3575" style="fill:#000000" sodipodi:type="star" sodipodi:sides="3" sodipodi:r1="9.0058441" sodipodi:r2="4.5029221" sodipodi:arg1="-1.5824237" sodipodi:arg2="-0.53522616" transform="matrix(.39580 0 0 1 14.764 -1.7801)" inkscape:randomized="0" sodipodi:cy="141.88483" sodipodi:cx="22.303665" inkscape:rounded="0" inkscape:flatsided="true" d="m22.199 132.88l7.956 13.42-15.598 0.18 7.642-13.6z"/>
        <path id="path3577" style="fill:#000000" sodipodi:type="star" d="m22.199 132.88l7.956 13.42-15.598 0.18 7.642-13.6z" sodipodi:r1="9.0058441" inkscape:flatsided="true" transform="matrix(.39580 0 0 -1 15.288 319.04)" sodipodi:arg2="-0.53522616" sodipodi:arg1="-1.5824237" inkscape:randomized="0" sodipodi:cy="141.88483" sodipodi:cx="22.303665" inkscape:rounded="0" sodipodi:r2="4.5029221" sodipodi:sides="3"/>
      </g>
      <g id="g3583" transform="matrix(0 -1 1 0 -134.76 182.51)">
        <path id="path3585" style="fill:#000000" sodipodi:type="star" d="m22.199 132.88l7.956 13.42-15.598 0.18 7.642-13.6z" sodipodi:r1="9.0058441" inkscape:flatsided="true" transform="matrix(.39580 0 0 1 14.764 -1.7801)" sodipodi:arg2="-0.53522616" sodipodi:arg1="-1.5824237" inkscape:randomized="0" sodipodi:cy="141.88483" sodipodi:cx="22.303665" inkscape:rounded="0" sodipodi:r2="4.5029221" sodipodi:sides="3"/>
        <path id="path3587" style="fill:#000000" sodipodi:type="star" sodipodi:sides="3" sodipodi:r1="9.0058441" sodipodi:r2="4.5029221" sodipodi:arg1="-1.5824237" sodipodi:arg2="-0.53522616" transform="matrix(.39580 0 0 -1 15.288 319.04)" inkscape:randomized="0" sodipodi:cy="141.88483" sodipodi:cx="22.303665" inkscape:rounded="0" inkscape:flatsided="true" d="m22.199 132.88l7.956 13.42-15.598 0.18 7.642-13.6z"/>
      </g>
      <g id="g3589" transform="matrix(-.70711 -.70711 .70711 -.70711 -71.414 287.68)">
        <path id="path3591" style="fill:#000000" sodipodi:type="star" sodipodi:sides="3" sodipodi:r1="9.0058441" sodipodi:r2="4.5029221" sodipodi:arg1="-1.5824237" sodipodi:arg2="-0.53522616" transform="matrix(.39580 0 0 1 14.764 -1.7801)" inkscape:randomized="0" sodipodi:cy="141.88483" sodipodi:cx="22.303665" inkscape:rounded="0" inkscape:flatsided="true" d="m22.199 132.88l7.956 13.42-15.598 0.18 7.642-13.6z"/>
        <path id="path3593" style="fill:#000000" sodipodi:type="star" d="m22.199 132.88l7.956 13.42-15.598 0.18 7.642-13.6z" sodipodi:r1="9.0058441" inkscape:flatsided="true" transform="matrix(.39580 0 0 -1 15.288 319.04)" sodipodi:arg2="-0.53522616" sodipodi:arg1="-1.5824237" inkscape:randomized="0" sodipodi:cy="141.88483" sodipodi:cx="22.303665" inkscape:rounded="0" sodipodi:r2="4.5029221" sodipodi:sides="3"/>
      </g>
      <g id="g3595" transform="matrix(.70711 -.70711 -.70711 -.70711 119.25 287.68)">
        <path id="path3597" style="fill:#000000" sodipodi:type="star" d="m22.199 132.88l7.956 13.42-15.598 0.18 7.642-13.6z" sodipodi:r1="9.0058441" inkscape:flatsided="true" transform="matrix(.39580 0 0 1 14.764 -1.7801)" sodipodi:arg2="-0.53522616" sodipodi:arg1="-1.5824237" inkscape:randomized="0" sodipodi:cy="141.88483" sodipodi:cx="22.303665" inkscape:rounded="0" sodipodi:r2="4.5029221" sodipodi:sides="3"/>
        <path id="path3599" style="fill:#000000" sodipodi:type="star" sodipodi:sides="3" sodipodi:r1="9.0058441" sodipodi:r2="4.5029221" sodipodi:arg1="-1.5824237" sodipodi:arg2="-0.53522616" transform="matrix(.39580 0 0 -1 15.288 319.04)" inkscape:randomized="0" sodipodi:cy="141.88483" sodipodi:cx="22.303665" inkscape:rounded="0" inkscape:flatsided="true" d="m22.199 132.88l7.956 13.42-15.598 0.18 7.642-13.6z"/>
      </g>
    </g>
  </g>
  <metadata>
    <rdf:RDF>
      <cc:Work>
        <dc:format>image/svg+xml</dc:format>
        <dc:type rdf:resource="http://purl.org/dc/dcmitype/StillImage"/>
        <cc:license rdf:resource="http://creativecommons.org/licenses/publicdomain/"/>
        <dc:publisher>
          <cc:Agent rdf:about="http://openclipart.org/">
            <dc:title>Openclipart</dc:title>
          </cc:Agent>
        </dc:publisher>
        <dc:title>Think Again Heater</dc:title>
        <dc:date>2008-08-02T14:25:24</dc:date>
        <dc:description>Think Again</dc:description>
        <dc:source>https://openclipart.org/detail/18284/think-again-heater-by-motudo</dc:source>
        <dc:creator>
          <cc:Agent>
            <dc:title>motudo</dc:title>
          </cc:Agent>
        </dc:creator>
        <dc:subject>
          <rdf:Bag>
            <rdf:li>climate change</rdf:li>
            <rdf:li>global warming</rdf:li>
            <rdf:li>nature</rdf:li>
            <rdf:li>remix</rdf:li>
            <rdf:li>remote</rdf:li>
            <rdf:li>remote control</rdf:li>
          </rdf:Bag>
        </dc:subject>
      </cc:Work>
      <cc:License rdf:about="http://creativecommons.org/licenses/publicdomain/">
        <cc:permits rdf:resource="http://creativecommons.org/ns#Reproduction"/>
        <cc:permits rdf:resource="http://creativecommons.org/ns#Distribution"/>
        <cc:permits rdf:resource="http://creativecommons.org/ns#DerivativeWorks"/>
      </cc:License>
    </rdf:RDF>
  </metadata>
</svg>