<?xml version="1.0" encoding="UTF-8" standalone="no"?>
<svg
   id="Layer_1"
   data-name="Layer 1"
   viewBox="0 0 100 100"
   version="1.1"
   xmlns="http://www.w3.org/2000/svg"
   xmlns:svg="http://www.w3.org/2000/svg"
   xmlns:rdf="http://www.w3.org/1999/02/22-rdf-syntax-ns#"
   xmlns:cc="http://creativecommons.org/ns#"
   xmlns:dc="http://purl.org/dc/elements/1.1/">
  <defs
     id="defs1">
    <style
       id="style1">.cls-1{fill:#9bc5da;}.cls-2{fill:#4f4f4f;}.cls-3{fill:#bcd2de;}.cls-4{fill:#7d7d7d;}</style>
  </defs>
  <title
     id="title1">tablet</title>
  <g
     id="g3"
     transform="rotate(90,50,50)">
    <rect
       class="cls-1"
       x="15.04"
       y="1.95"
       width="69.910004"
       height="96.099998"
       rx="3.8699999"
       ry="3.8699999"
       id="rect1" />
    <path
       class="cls-2"
       d="M 81.09,3.9 A 1.92,1.92 0 0 1 83,5.82 V 94.18 A 1.92,1.92 0 0 1 81.08,96.1 H 18.91 A 1.92,1.92 0 0 1 17,94.18 V 5.82 A 1.92,1.92 0 0 1 18.91,3.9 h 62.18 m 0,-3.9 H 18.91 a 5.82,5.82 0 0 0 -5.82,5.82 v 88.36 a 5.82,5.82 0 0 0 5.82,5.82 h 62.18 a 5.82,5.82 0 0 0 5.82,-5.82 V 5.82 A 5.82,5.82 0 0 0 81.09,0"
       id="path1" />
    <rect
       class="cls-1"
       x="17.68"
       y="91.5"
       width="64.639999"
       height="3.55"
       id="rect2" />
    <rect
       class="cls-2"
       x="15.73"
       y="89.550003"
       width="68.550003"
       height="7.4499998"
       id="rect3" />
    <path
       class="cls-4"
       d="m 53,94.82 a 3,3 0 1 1 -3,-3 3,3 0 0 1 3,3"
       id="path3" />
  </g>
  <metadata
     id="metadata3">
    <rdf:RDF>
      <cc:Work
         rdf:about="">
        <dc:title>tablet</dc:title>
      </cc:Work>
    </rdf:RDF>
  </metadata>
</svg>
