<?xml version="1.0" encoding="UTF-8" standalone="no"?>
<svg
   viewBox="0 0 345 320"
   version="1.1"
   id="svg4"
   sodipodi:docname="volup.svg"
   width="345"
   height="320"
   inkscape:version="1.1.2 (0a00cf5339, 2022-02-04)"
   xmlns:inkscape="http://www.inkscape.org/namespaces/inkscape"
   xmlns:sodipodi="http://sodipodi.sourceforge.net/DTD/sodipodi-0.dtd"
   xmlns="http://www.w3.org/2000/svg"
   xmlns:svg="http://www.w3.org/2000/svg">
  <defs
     id="defs8" />
  <sodipodi:namedview
     id="namedview6"
     pagecolor="#ffffff"
     bordercolor="#666666"
     borderopacity="1.0"
     inkscape:pageshadow="2"
     inkscape:pageopacity="0.0"
     inkscape:pagecheckerboard="0"
     showgrid="false"
     fit-margin-top="0"
     fit-margin-left="0"
     fit-margin-right="0"
     fit-margin-bottom="0"
     inkscape:zoom="1.2304688"
     inkscape:cx="172.29206"
     inkscape:cy="159.69524"
     inkscape:window-width="1920"
     inkscape:window-height="1003"
     inkscape:window-x="0"
     inkscape:window-y="0"
     inkscape:window-maximized="1"
     inkscape:current-layer="svg4" />
  <path
     fill="#ffffff"
     d="M 192,0 96,96 H 0 v 128 h 96 l 96,96 z m 51.46,27.668 -4.66,17.387 c 52.066,13.95 88.2,61.04 88.2,114.945 0,53.904 -36.134,100.994 -88.2,114.945 l 4.66,17.387 C 303.31,276.295 345,221.962 345,160 345,98.037 303.31,43.705 243.46,27.668 Z M 231.035,74.033 226.377,91.42 C 257.46,99.748 279,127.822 279,160 c 0,32.178 -21.54,60.252 -52.623,68.58 l 4.658,17.387 C 269.902,235.552 297,200.237 297,160 297,119.762 269.902,84.448 231.035,74.033 Z m -12.424,46.363 -4.657,17.387 C 224.05,140.49 231,149.547 231,160 c 0,10.453 -6.95,19.51 -17.047,22.217 l 4.658,17.387 c 17.884,-4.792 30.39,-21.09 30.39,-39.604 0,-18.513 -12.506,-34.812 -30.39,-39.604 z"
     id="path2" />
</svg>
